<?xml version="1.0" encoding="UTF-8" standalone="no"?>
<!-- Created with Inkscape (http://www.inkscape.org/) -->

<svg
   width="24"
   height="24"
   viewBox="0 0 24 24"
   version="1.1"
   id="SVGRoot"
   sodipodi:docname="go-next.svg"
   inkscape:version="1.2.2 (b0a8486541, 2022-12-01)"
   xml:space="preserve"
   xmlns:inkscape="http://www.inkscape.org/namespaces/inkscape"
   xmlns:sodipodi="http://sodipodi.sourceforge.net/DTD/sodipodi-0.dtd"
   xmlns="http://www.w3.org/2000/svg"
   xmlns:svg="http://www.w3.org/2000/svg"
   xmlns:rdf="http://www.w3.org/1999/02/22-rdf-syntax-ns#"
   xmlns:cc="http://creativecommons.org/ns#"
   xmlns:dc="http://purl.org/dc/elements/1.1/"><sodipodi:namedview
     id="base"
     pagecolor="#ffffff"
     bordercolor="#666666"
     borderopacity="1.0"
     inkscape:pageopacity="0.0"
     inkscape:pageshadow="2"
     inkscape:zoom="16"
     inkscape:cx="19.4375"
     inkscape:cy="6.625"
     inkscape:document-units="px"
     inkscape:current-layer="layer1"
     showgrid="true"
     inkscape:window-width="1920"
     inkscape:window-height="1028"
     inkscape:window-x="0"
     inkscape:window-y="22"
     inkscape:window-maximized="1"
     inkscape:grid-bbox="true"
     showguides="true"
     inkscape:showpageshadow="0"
     inkscape:pagecheckerboard="0"
     inkscape:deskcolor="#d1d1d1"><inkscape:grid
       type="xygrid"
       id="grid5142"
       empspacing="2"
       spacingx="0.5"
       spacingy="0.5" /></sodipodi:namedview><defs
     id="defs4583" /><metadata
     id="metadata4586"><rdf:RDF><cc:Work
         rdf:about=""><dc:format>image/svg+xml</dc:format><dc:type
           rdf:resource="http://purl.org/dc/dcmitype/StillImage" /><dc:title /></cc:Work></rdf:RDF></metadata><g
     id="layer1"
     inkscape:groupmode="layer"
     inkscape:label="Layer 1"
     transform="translate(0,8)"><path
       style="opacity:1;fill:#33ccff;fill-opacity:1;fill-rule:nonzero;stroke:#33ccff;stroke-width:0.03125;stroke-linecap:butt;stroke-linejoin:miter;stroke-miterlimit:4;stroke-dasharray:none;stroke-opacity:1;paint-order:normal"
       d="m 14.919937,9.15616 c -0.357152,0.07386 -0.560931,0.434207 -0.547119,0.780761 -0.02629,0.128396 0.02692,0.332135 -0.04382,0.40973 -2.447579,0.0084 -6.8964251,0.0026 -9.3432147,0.01995 -0.3988476,0.01073 -0.6725738,0.414243 -0.6196794,0.793455 -0.00262,0.23214 -0.00531,2.46428 -0.00787,2.696421 -0.3170854,-0.0097 -0.7004501,-7.66e-4 -0.8832768,0.306203 -0.1682552,0.279833 -0.1053049,0.630063 -0.092206,0.940635 0.036166,0.391398 0.4571733,0.614499 0.8214297,0.557666 h 9.1624762 c 0.01573,0.581087 -0.03404,2.169422 0.04718,2.74585 0.107966,0.379947 0.569333,0.581014 0.920914,0.401411 0.384645,-0.266908 0.681723,-0.644152 1.026765,-0.959521 0.971896,-0.97518 3.956767,-3.938431 4.904677,-4.936885 0.238099,-0.290947 0.166084,-0.730902 -0.111817,-0.970032 C 19.903237,11.703621 19.692705,11.392 19.371976,11.249686 19.124842,11.152226 19,10 18,9 17.581762,8.600205 14.455522,5.857754 14,5.5 13.858678,5.41915 15.079823,9.129462 14.91994,9.156164 Z"
       id="path845"
       inkscape:connector-curvature="0"
       transform="translate(0,-8)"
       sodipodi:nodetypes="cccccccccccccccccccc" /><path
       style="opacity:1;fill:none;fill-opacity:1;fill-rule:nonzero;stroke:#33ccff;stroke-width:1;stroke-linecap:butt;stroke-linejoin:miter;stroke-miterlimit:4;stroke-dasharray:none;stroke-opacity:1;paint-order:normal"
       d="m 13.5,-1.5 2,3"
       id="path835"
       inkscape:connector-curvature="0"
       sodipodi:nodetypes="cc" /><path
       style="opacity:1;fill:none;fill-opacity:1;fill-rule:nonzero;stroke:#99ffff;stroke-width:1.1;stroke-linecap:round;stroke-linejoin:miter;stroke-miterlimit:4;stroke-dasharray:none;stroke-opacity:1;paint-order:normal"
       d="m 14,-1 4.5,4.5"
       id="path833"
       inkscape:connector-curvature="0"
       sodipodi:nodetypes="cc" /><path
       style="fill:none;stroke:#72ebff;stroke-miterlimit:10.2;stroke-opacity:1"
       d="M 13.5,0 17,3.5 H 4.4999997"
       id="path62666"
       sodipodi:nodetypes="ccc" /><path
       style="opacity:1;fill:none;fill-opacity:1;fill-rule:nonzero;stroke:#ccffff;stroke-width:1;stroke-linecap:butt;stroke-linejoin:miter;stroke-miterlimit:4;stroke-dasharray:none;stroke-opacity:1;paint-order:normal"
       d="m 4.5,6.5 v -4 h 10 V -1"
       id="path829"
       inkscape:connector-curvature="0"
       sodipodi:nodetypes="cccc" /><path
       style="opacity:1;fill:none;fill-opacity:1;fill-rule:nonzero;stroke:#33ccff;stroke-width:1;stroke-linecap:butt;stroke-linejoin:miter;stroke-miterlimit:4;stroke-dasharray:none;stroke-opacity:1;paint-order:normal"
       d="m 13.5,-2.5 7,7"
       id="path831"
       inkscape:connector-curvature="0"
       sodipodi:nodetypes="cc" /><path
       style="opacity:1;fill:none;fill-opacity:1;fill-rule:nonzero;stroke:#3399ff;stroke-width:1;stroke-linecap:butt;stroke-linejoin:miter;stroke-miterlimit:4;stroke-dasharray:none;stroke-opacity:1;paint-order:normal"
       d="m 4,6.5 h 10.5 v 5"
       id="path847"
       inkscape:connector-curvature="0"
       sodipodi:nodetypes="ccc" /><path
       style="fill:#33b2ff;stroke:none;stroke-miterlimit:10.2;stroke-opacity:1;fill-opacity:1"
       d="m 15,6 1,1 v 1.5 l -1,1 z"
       id="path66002" /><path
       style="opacity:1;fill:none;fill-opacity:1;fill-rule:nonzero;stroke:#3366ff;stroke-width:1;stroke-linecap:butt;stroke-linejoin:miter;stroke-miterlimit:4;stroke-dasharray:none;stroke-opacity:1;paint-order:normal"
       d="m 21,4 -7.5,7.5"
       id="path827"
       inkscape:connector-curvature="0"
       sodipodi:nodetypes="cc" /><path
       style="opacity:1;fill:none;fill-opacity:1;fill-rule:nonzero;stroke:#000000;stroke-width:1;stroke-linecap:butt;stroke-linejoin:miter;stroke-miterlimit:4;stroke-dasharray:none;stroke-opacity:1;paint-order:normal"
       d="m 3,7.5 h 10.5 v 5 l 8,-8 H 22 21.5 l -8,-8"
       id="path823"
       inkscape:connector-curvature="0"
       sodipodi:nodetypes="ccccccc" /><path
       style="opacity:1;fill:none;fill-opacity:1;fill-rule:nonzero;stroke:#3366ff;stroke-width:1;stroke-linecap:butt;stroke-linejoin:miter;stroke-miterlimit:4;stroke-dasharray:none;stroke-opacity:1;paint-order:normal"
       d="m 14,-3 -0.5,-0.5 v 5 H 3.5 V 7"
       id="path825"
       inkscape:connector-curvature="0"
       sodipodi:nodetypes="ccccc" /></g></svg>
