<?xml version="1.0" encoding="UTF-8" standalone="no"?>
<!-- Created with Inkscape (http://www.inkscape.org/) -->

<svg
   width="48"
   height="48"
   viewBox="0 0 48 48"
   version="1.1"
   id="svg8"
   inkscape:version="1.2.2 (b0a8486541, 2022-12-01)"
   sodipodi:docname="battery-fill-100-symbolic.svg"
   xml:space="preserve"
   xmlns:inkscape="http://www.inkscape.org/namespaces/inkscape"
   xmlns:sodipodi="http://sodipodi.sourceforge.net/DTD/sodipodi-0.dtd"
   xmlns="http://www.w3.org/2000/svg"
   xmlns:svg="http://www.w3.org/2000/svg"
   xmlns:rdf="http://www.w3.org/1999/02/22-rdf-syntax-ns#"
   xmlns:cc="http://creativecommons.org/ns#"
   xmlns:dc="http://purl.org/dc/elements/1.1/"><defs
     id="defs2" /><sodipodi:namedview
     id="base"
     pagecolor="#ffffff"
     bordercolor="#666666"
     borderopacity="1.0"
     inkscape:pageopacity="0.0"
     inkscape:pageshadow="2"
     inkscape:zoom="5.6"
     inkscape:cx="43.571429"
     inkscape:cy="-9.2857143"
     inkscape:document-units="px"
     inkscape:current-layer="layer1-5"
     showgrid="true"
     units="px"
     inkscape:window-width="1920"
     inkscape:window-height="1028"
     inkscape:window-x="0"
     inkscape:window-y="22"
     inkscape:window-maximized="1"
     inkscape:showpageshadow="0"
     inkscape:pagecheckerboard="0"
     inkscape:deskcolor="#d1d1d1"><inkscape:grid
       type="xygrid"
       id="grid815"
       spacingx="0.5"
       spacingy="0.5"
       empspacing="2" /></sodipodi:namedview><metadata
     id="metadata5"><rdf:RDF><cc:Work
         rdf:about=""><dc:format>image/svg+xml</dc:format><dc:type
           rdf:resource="http://purl.org/dc/dcmitype/StillImage" /></cc:Work></rdf:RDF></metadata><g
     inkscape:label="Layer 1"
     inkscape:groupmode="layer"
     id="layer1"
     transform="translate(0,-284.3)"><g
       inkscape:label="Layer 1"
       id="layer1-3"
       transform="matrix(6.1665622,0,0,5.863695,-2.1052028,-1407.3986)"
       style="stroke-width:0.628536"><g
         inkscape:label="Layer 1"
         id="layer1-5"
         transform="matrix(1.0053821,0,0,1.0034571,-0.03628335,-1.0617472)"
         style="stroke-width:0.393319;fill:#000000;fill-opacity:0.25"><path
           id="path1526"
           style="opacity:1;fill:#000000;fill-opacity:0.25;fill-rule:nonzero;stroke:none;stroke-width:0.165569;stroke-linecap:butt;stroke-linejoin:miter;stroke-miterlimit:4;stroke-dasharray:none;stroke-opacity:1"
           d="M 3.961985 289.06258 C 3.8185986 289.06619 3.7042881 289.18285 3.7042881 289.32714 L 3.7042881 289.38357 A 2.5074182 0.72812456 0 0 0 1.7198965 290.09558 A 2.5074182 0.72812456 0 0 0 1.7788077 290.25159 L 1.7198965 290.25325 L 1.7198965 295.94171 L 2.6338067 296.47082 L 4.6301695 296.60327 L 6.2176198 296.33838 L 6.7468749 295.96096 L 6.7468749 290.12081 L 6.7323834 290.12114 A 2.5074182 0.72812456 0 0 0 6.7345887 290.09558 A 2.5074182 0.72812456 0 0 0 4.8947971 289.39353 L 4.8947971 289.32714 C 4.8947971 289.18056 4.7767467 289.06258 4.6301695 289.06258 L 3.9686007 289.06258 C 3.9663104 289.06258 3.964261 289.06253 3.961985 289.06258 z " /></g></g></g></svg>
