<?xml version="1.0" encoding="UTF-8" standalone="no"?>
<!-- Created with Inkscape (http://www.inkscape.org/) -->

<svg
   xmlns:dc="http://purl.org/dc/elements/1.1/"
   xmlns:cc="http://creativecommons.org/ns#"
   xmlns:rdf="http://www.w3.org/1999/02/22-rdf-syntax-ns#"
   xmlns:svg="http://www.w3.org/2000/svg"
   xmlns="http://www.w3.org/2000/svg"
   xmlns:xlink="http://www.w3.org/1999/xlink"
   xmlns:sodipodi="http://sodipodi.sourceforge.net/DTD/sodipodi-0.dtd"
   xmlns:inkscape="http://www.inkscape.org/namespaces/inkscape"
   width="16"
   height="16"
   viewBox="0 0 4.2333333 4.2333333"
   version="1.1"
   id="svg8"
   inkscape:version="0.92.3 (2405546, 2018-03-11)"
   sodipodi:docname="document-properties.svg">
  <defs
     id="defs2">
    <linearGradient
       inkscape:collect="always"
       id="linearGradient896">
      <stop
         style="stop-color:#ffffcc;stop-opacity:1"
         offset="0"
         id="stop892" />
      <stop
         style="stop-color:#999966;stop-opacity:1"
         offset="1"
         id="stop894" />
    </linearGradient>
    <linearGradient
       inkscape:collect="always"
       id="linearGradient874">
      <stop
         style="stop-color:#99ffff;stop-opacity:1"
         offset="0"
         id="stop870" />
      <stop
         style="stop-color:#3366ff;stop-opacity:1"
         offset="1"
         id="stop872" />
    </linearGradient>
    <linearGradient
       gradientTransform="matrix(0.67708332,0,0,0.60185184,8.5448626,5.1780992)"
       gradientUnits="userSpaceOnUse"
       y2="8.5"
       x2="27.5"
       y1="-2"
       x1="20"
       id="linearGradient5247"
       xlink:href="#linearGradient5245"
       inkscape:collect="always" />
    <linearGradient
       id="linearGradient5245"
       inkscape:collect="always">
      <stop
         id="stop5241"
         offset="0"
         style="stop-color:#fffdf9;stop-opacity:1" />
      <stop
         id="stop5243"
         offset="1"
         style="stop-color:#f4f4e4;stop-opacity:1" />
    </linearGradient>
    <linearGradient
       inkscape:collect="always"
       xlink:href="#linearGradient874"
       id="linearGradient876"
       x1="3.96875"
       y1="293.42813"
       x2="3.96875"
       y2="294.22189"
       gradientUnits="userSpaceOnUse" />
    <linearGradient
       inkscape:collect="always"
       xlink:href="#linearGradient896"
       id="linearGradient898"
       x1="9"
       y1="2.4999995"
       x2="12"
       y2="6.9999995"
       gradientUnits="userSpaceOnUse" />
  </defs>
  <sodipodi:namedview
     id="base"
     pagecolor="#ffffff"
     bordercolor="#666666"
     borderopacity="1.0"
     inkscape:pageopacity="0.0"
     inkscape:pageshadow="2"
     inkscape:zoom="23.993793"
     inkscape:cx="-4.3745602"
     inkscape:cy="11.399648"
     inkscape:document-units="px"
     inkscape:current-layer="layer1"
     showgrid="true"
     units="px"
     inkscape:pagecheckerboard="false"
     inkscape:window-width="1920"
     inkscape:window-height="948"
     inkscape:window-x="0"
     inkscape:window-y="27"
     inkscape:window-maximized="1"
     showguides="true">
    <inkscape:grid
       type="xygrid"
       id="grid3713"
       empspacing="2"
       spacingx="0.13229167"
       spacingy="0.13229167" />
  </sodipodi:namedview>
  <metadata
     id="metadata5">
    <rdf:RDF>
      <cc:Work
         rdf:about="">
        <dc:format>image/svg+xml</dc:format>
        <dc:type
           rdf:resource="http://purl.org/dc/dcmitype/StillImage" />
        <dc:title />
      </cc:Work>
    </rdf:RDF>
  </metadata>
  <g
     inkscape:label="Layer 1"
     inkscape:groupmode="layer"
     id="layer1"
     transform="translate(0,-292.76667)">
    <g
       id="g928"
       transform="translate(-1.8520834,4.93e-6)">
      <g
         transform="matrix(0.26458333,0,0,0.26458333,-3.5906348,293.40183)"
         id="layer1-3"
         inkscape:label="Layer 1">
        <path
           sodipodi:nodetypes="cccccc"
           inkscape:connector-curvature="0"
           id="path5239"
           d="M 21.070904,2.0993949 V 12.099395 h 10 V 2.0993949 h -3.75 z"
           style="fill:url(#linearGradient5247);fill-opacity:1;stroke:none;stroke-width:0.63936549;stroke-linecap:square;stroke-linejoin:miter;stroke-miterlimit:4;stroke-dasharray:none;stroke-opacity:1" />
      </g>
      <path
         sodipodi:nodetypes="cccc"
         inkscape:connector-curvature="0"
         id="path1027"
         d="m 1.9843751,296.60313 v -2.64584 h 1.3229167 1.4552083"
         style="opacity:1;fill:none;fill-opacity:1;fill-rule:nonzero;stroke:#868686;stroke-width:0.26458332;stroke-linecap:butt;stroke-linejoin:miter;stroke-miterlimit:4;stroke-dasharray:none;stroke-opacity:1" />
      <path
         sodipodi:nodetypes="cccc"
         inkscape:connector-curvature="0"
         id="path1029"
         d="M 1.8520834,296.60313 H 4.8947918 V 294.48646 293.825"
         style="opacity:1;fill:none;fill-opacity:1;fill-rule:nonzero;stroke:#000000;stroke-width:0.26458332;stroke-linecap:butt;stroke-linejoin:miter;stroke-miterlimit:4;stroke-dasharray:none;stroke-opacity:1" />
      <path
         sodipodi:nodetypes="ccc"
         inkscape:connector-curvature="0"
         id="path1033"
         d="m 2.1166667,296.33854 h 2.5135418 v -2.24895"
         style="opacity:1;fill:none;fill-opacity:1;fill-rule:nonzero;stroke:#cccccc;stroke-width:0.26458332;stroke-linecap:butt;stroke-linejoin:miter;stroke-miterlimit:4;stroke-dasharray:none;stroke-opacity:1" />
      <path
         inkscape:connector-curvature="0"
         id="path1035"
         d="M 2.3812501,296.07396 H 2.9104167"
         style="opacity:1;fill:none;fill-opacity:1;fill-rule:nonzero;stroke:#0000ff;stroke-width:0.26458332;stroke-linecap:butt;stroke-linejoin:miter;stroke-miterlimit:4;stroke-dasharray:none;stroke-opacity:1" />
      <path
         inkscape:connector-curvature="0"
         id="path1037"
         d="M 3.1750002,296.07396 H 4.4979168"
         style="opacity:1;fill:none;fill-opacity:1;fill-rule:nonzero;stroke:#0000ff;stroke-width:0.26458332;stroke-linecap:butt;stroke-linejoin:miter;stroke-miterlimit:4;stroke-dasharray:none;stroke-opacity:1" />
      <path
         inkscape:connector-curvature="0"
         id="path1037-3"
         d="M 3.1750002,295.54479 H 4.4979168"
         style="opacity:1;fill:none;fill-opacity:1;fill-rule:nonzero;stroke:#3366ff;stroke-width:0.26458332;stroke-linecap:butt;stroke-linejoin:miter;stroke-miterlimit:4;stroke-dasharray:none;stroke-opacity:1" />
      <path
         inkscape:connector-curvature="0"
         id="path1035-3"
         d="M 2.3812502,295.54479 H 2.9104168"
         style="opacity:1;fill:none;fill-opacity:1;fill-rule:nonzero;stroke:#3366ff;stroke-width:0.26458332;stroke-linecap:butt;stroke-linejoin:miter;stroke-miterlimit:4;stroke-dasharray:none;stroke-opacity:1" />
    </g>
    <image
       sodipodi:absref="/home/marcello/Desktop/ClassicOS 2000/Icons/classicos2000/actions/16/document-properties.png"
       y="292.50208"
       x="-4.3656249"
       id="image846"
       xlink:href="file:///home/marcello/Desktop/ClassicOS%202000/Icons/classicos2000/actions/16/document-properties.png"
       style="image-rendering:optimizeSpeed"
       preserveAspectRatio="none"
       height="4.2333331"
       width="4.2333331" />
    <path
       style="opacity:1;fill:url(#linearGradient898);fill-opacity:1;fill-rule:nonzero;stroke:none;stroke-width:0.0294704;stroke-linecap:butt;stroke-linejoin:miter;stroke-miterlimit:4;stroke-dasharray:none;stroke-opacity:1"
       d="M 9.326771,1.4271923 C 8.7178641,1.4090973 8.1065536,1.5413268 7.5750664,1.8438647 6.0048883,2.6538357 4.8048058,4.0028202 3.7126443,5.3595175 3.3738565,5.8059178 3.0026169,6.2336674 2.7127289,6.7136498 2.591244,6.9591548 2.6868682,7.3060362 2.9771551,7.371195 3.2410708,7.4321165 3.5441815,7.3860186 3.7085337,7.1493356 4.8545953,6.0033913 6.0006392,4.8574293 7.1466519,3.7114364 7.382187,3.8347501 7.1875017,3.9583585 7.059128,4.0819617 6.6721292,4.4811166 6.2582778,4.8588239 5.8883731,5.2716385 5.7060051,5.4953224 5.866817,5.7890637 6.0703488,5.9355884 6.2264757,6.1442027 6.5302663,6.2920515 6.7562035,6.1000398 7.2254549,5.6435833 7.6836875,5.1747546 8.1487031,4.7135451 8.3842789,4.8367723 8.1893708,4.9603936 8.0611218,5.0839554 7.6741229,5.4831102 7.2602715,5.8608176 6.8903669,6.2736322 6.7079988,6.4973161 6.8688108,6.7910574 7.0723425,6.9375822 7.2284694,7.1461964 7.53226,7.2940453 7.7581972,7.1020335 8.2274486,6.645577 8.6856812,6.1767483 9.1506968,5.7155388 9.3862726,5.8387661 9.1913645,5.9623874 9.0631155,6.0859491 8.676368,6.4848561 8.2627594,6.8623089 7.8931089,7.2748777 7.7048493,7.5066465 7.8823558,7.8005225 8.0867047,7.9525376 8.243642,8.1526127 8.5398134,8.2715818 8.7587749,8.0946984 9.3426853,7.5390958 9.9019505,6.9579088 10.473411,6.3895019 c 0.791539,-0.00877 1.586974,0.017423 2.376102,-0.012978 0.310669,-0.061221 0.436359,-0.4220188 0.731368,-0.5298566 0.24482,-0.1562011 0.57412,-0.2168147 0.743909,-0.4613061 C 14.444651,5.1160603 14.35702,4.8034686 14.38382,4.5155984 14.36554,4.088301 14.42255,3.6526113 14.35138,3.2312083 14.212944,2.9209613 13.811066,2.9497325 13.553529,2.7830035 12.833484,2.4454428 12.242607,1.8483622 11.465102,1.6344061 10.757116,1.5287482 10.045369,1.4087964 9.326771,1.4271923 Z M 2.6824612,6.8331694 c -4.673e-4,-0.00283 0.004,-0.028167 0,0 z"
       id="path890"
       inkscape:connector-curvature="0"
       transform="matrix(0.26458333,0,0,0.26458333,0,292.76667)" />
    <path
       style="opacity:1;fill:none;fill-opacity:1;fill-rule:nonzero;stroke:#999966;stroke-width:0.26458332;stroke-linecap:butt;stroke-linejoin:miter;stroke-miterlimit:4;stroke-dasharray:none;stroke-opacity:1"
       d="m 3.9687501,293.56042 c -0.5291667,0 -0.6622638,-0.40802 -1.0591247,-0.40468 0,0 -0.5082447,-0.10363 -0.7926949,0.0156 -0.5751478,0.24108 -1.0040155,0.78595 -1.40089038,1.31512 -0.0529161,0.0705 -0.0545816,0.26458 -0.0545816,0.26458"
       id="path878"
       inkscape:connector-curvature="0"
       sodipodi:nodetypes="csssc" />
    <path
       style="opacity:1;fill:none;fill-opacity:1;fill-rule:nonzero;stroke:#666633;stroke-width:0.26458332;stroke-linecap:butt;stroke-linejoin:miter;stroke-miterlimit:4;stroke-dasharray:none;stroke-opacity:1"
       d="M 2.5135417,294.22188 1.984375,294.75104"
       id="path888"
       inkscape:connector-curvature="0" />
    <path
       style="opacity:1;fill:none;fill-opacity:1;fill-rule:nonzero;stroke:#666633;stroke-width:0.26458332;stroke-linecap:butt;stroke-linejoin:miter;stroke-miterlimit:4;stroke-dasharray:none;stroke-opacity:1"
       d="m 2.2489584,293.95729 -0.5291667,0.52917"
       id="path886"
       inkscape:connector-curvature="0" />
    <path
       style="opacity:1;fill:none;fill-opacity:1;fill-rule:nonzero;stroke:#000000;stroke-width:0.26458332;stroke-linecap:butt;stroke-linejoin:miter;stroke-miterlimit:4;stroke-dasharray:none;stroke-opacity:1"
       d="m 1.984375,293.69271 -1.05833332,1.05833 H 0.52916669"
       id="path882"
       inkscape:connector-curvature="0" />
    <path
       style="opacity:1;fill:none;fill-opacity:1;fill-rule:nonzero;stroke:#000000;stroke-width:0.26458332;stroke-linecap:butt;stroke-linejoin:miter;stroke-miterlimit:4;stroke-dasharray:none;stroke-opacity:1"
       d="m 1.4552084,294.22188 0.79375,0.79375 0.5291666,-0.52917 h 0.6614583 l 0.1322917,-0.13229 0.2645833,-0.13229"
       id="path884"
       inkscape:connector-curvature="0" />
    <rect
       style="opacity:1;fill:url(#linearGradient876);fill-opacity:1;fill-rule:nonzero;stroke:none;stroke-width:0.26458332;stroke-linecap:butt;stroke-linejoin:miter;stroke-miterlimit:4;stroke-dasharray:none;stroke-opacity:1"
       id="rect868"
       width="0.52916664"
       height="1.3229166"
       x="3.7041667"
       y="293.16354" />
    <path
       style="opacity:1;fill:#0000ff;fill-opacity:1;fill-rule:nonzero;stroke:#3366ff;stroke-width:0.26458332;stroke-linecap:butt;stroke-linejoin:miter;stroke-miterlimit:4;stroke-dasharray:none;stroke-opacity:1"
       d="M 3.7041666,293.16354 H 4.2333335"
       id="path864"
       inkscape:connector-curvature="0" />
    <path
       style="opacity:1;fill:#0000ff;fill-opacity:1;fill-rule:nonzero;stroke:#000000;stroke-width:0.26458332;stroke-linecap:butt;stroke-linejoin:miter;stroke-miterlimit:4;stroke-dasharray:none;stroke-opacity:1"
       d="M 3.7041666,294.48646 H 4.2333335"
       id="path866"
       inkscape:connector-curvature="0" />
  </g>
</svg>
