<?xml version="1.0" encoding="UTF-8" standalone="no"?>
<!-- Created with Inkscape (http://www.inkscape.org/) -->

<svg
   xmlns:dc="http://purl.org/dc/elements/1.1/"
   xmlns:cc="http://creativecommons.org/ns#"
   xmlns:rdf="http://www.w3.org/1999/02/22-rdf-syntax-ns#"
   xmlns:svg="http://www.w3.org/2000/svg"
   xmlns="http://www.w3.org/2000/svg"
   xmlns:xlink="http://www.w3.org/1999/xlink"
   xmlns:sodipodi="http://sodipodi.sourceforge.net/DTD/sodipodi-0.dtd"
   xmlns:inkscape="http://www.inkscape.org/namespaces/inkscape"
   width="16"
   height="16"
   viewBox="0 0 4.2333333 4.2333333"
   version="1.1"
   id="svg8"
   inkscape:version="0.92.3 (2405546, 2018-03-11)"
   sodipodi:docname="logout.svg">
  <defs
     id="defs2">
    <linearGradient
       inkscape:collect="always"
       id="linearGradient895">
      <stop
         style="stop-color:#cccc00;stop-opacity:1"
         offset="0"
         id="stop891" />
      <stop
         style="stop-color:#ffff00;stop-opacity:1"
         offset="1"
         id="stop893" />
    </linearGradient>
    <linearGradient
       inkscape:collect="always"
       id="linearGradient879">
      <stop
         style="stop-color:#f8f8f8;stop-opacity:1;"
         offset="0"
         id="stop875" />
      <stop
         style="stop-color:#c0c0c0;stop-opacity:1"
         offset="1"
         id="stop877" />
    </linearGradient>
    <linearGradient
       inkscape:collect="always"
       xlink:href="#linearGradient879"
       id="linearGradient881"
       x1="3.7970055"
       y1="4.6267441"
       x2="12.5"
       y2="13"
       gradientUnits="userSpaceOnUse" />
    <linearGradient
       inkscape:collect="always"
       xlink:href="#linearGradient895"
       id="linearGradient897"
       x1="4"
       y1="14.5"
       x2="4"
       y2="9"
       gradientUnits="userSpaceOnUse" />
  </defs>
  <sodipodi:namedview
     id="base"
     pagecolor="#ffffff"
     bordercolor="#666666"
     borderopacity="1.0"
     inkscape:pageopacity="0.0"
     inkscape:pageshadow="2"
     inkscape:zoom="44.8"
     inkscape:cx="6.996695"
     inkscape:cy="5.8435096"
     inkscape:document-units="mm"
     inkscape:current-layer="layer1"
     showgrid="true"
     units="px"
     inkscape:pagecheckerboard="false"
     inkscape:window-width="1920"
     inkscape:window-height="1031"
     inkscape:window-x="0"
     inkscape:window-y="0"
     inkscape:window-maximized="1">
    <inkscape:grid
       type="xygrid"
       id="grid3713"
       empspacing="2"
       spacingx="0.13229167"
       spacingy="0.13229167" />
  </sodipodi:namedview>
  <metadata
     id="metadata5">
    <rdf:RDF>
      <cc:Work
         rdf:about="">
        <dc:format>image/svg+xml</dc:format>
        <dc:type
           rdf:resource="http://purl.org/dc/dcmitype/StillImage" />
        <dc:title />
      </cc:Work>
    </rdf:RDF>
  </metadata>
  <g
     inkscape:label="Layer 1"
     inkscape:groupmode="layer"
     id="layer1"
     transform="translate(0,-292.76666)">
    <path
       style="opacity:1;fill:url(#linearGradient897);fill-opacity:1;fill-rule:nonzero;stroke:#999900;stroke-width:0.04464286;stroke-linecap:butt;stroke-linejoin:miter;stroke-miterlimit:4;stroke-dasharray:none;stroke-opacity:1;paint-order:normal"
       d="M 3.684099,8.83303 C 3.4360733,8.89005 3.0168076,8.7106462 2.9128763,9.0170946 c 0.02203,0.3835039 -0.046066,0.785022 0.054932,1.1587084 0.1208375,0.195849 0.3070475,0.03219 0.4516602,-0.01596 0.127641,0.02504 0.4084658,-0.105449 0.4234096,0.06993 0.228422,0.459325 0.683945,0.759409 1.012922,1.143973 -0.00692,0.482934 -0.013874,0.965868 -0.020926,1.4488 -0.3156377,0.03447 -0.65443,-0.03925 -0.9542411,0.06923 -0.1176835,0.288394 -0.021337,0.623721 -0.052577,0.931048 -0.2696446,0.0033 -0.5599729,0.05653 -0.7135474,-0.220774 -0.317202,-0.316608 -0.6343739,-0.633169 -0.9514917,-0.949881 10e-8,-0.428176 0,-0.856352 0,-1.284528 C 2.355839,11.199363 2.5771904,10.981306 2.3987403,10.716189 2.2698824,10.378195 2.2835279,10.002924 2.1580457,9.6672934 1.9241892,9.449345 1.7122547,9.8175618 1.5393357,9.9436157 1.3099626,10.201653 0.99153036,10.404163 0.83698339,10.712041 c 0.0110771,0.876103 -0.0217715,1.760441 0.0161701,2.631507 0.29724451,0.405611 0.71623841,0.731732 1.06006281,1.106928 0.2632134,0.222003 0.4596126,0.547019 0.7689471,0.698385 0.8913598,-0.01093 1.7908825,0.02168 2.6771967,-0.01617 0.4012069,-0.292871 0.7221488,-0.708544 1.092935,-1.047951 0.2998022,-0.300055 0.5996045,-0.60011 0.8994063,-0.900165 0.4284669,0 0.8569339,0 1.2854004,0 0.2899071,0.248629 0.5145121,0.59312 0.8469067,0.779332 0.3371402,-0.158095 0.5485285,-0.517575 0.8362915,-0.754699 0.431583,-0.05745 0.907225,-0.0082 1.355742,-0.02463 0.279297,0.243869 0.497244,0.576928 0.818918,0.75919 0.334729,-0.15613 0.545473,-0.511717 0.829701,-0.748943 0.198231,-0.235668 0.488208,-0.40852 0.623982,-0.686952 -0.153681,-0.33349 -0.510029,-0.5407 -0.744083,-0.824058 -0.314929,-0.272405 -0.560993,-0.650739 -0.922352,-0.852055 -1.970825,0 -3.9416495,0 -5.9124749,0 C 5.7003862,10.17688 5.055935,9.4856118 4.3710379,8.8534145 4.1578052,8.7784752 3.9093613,8.8508199 3.684099,8.83303 Z"
       id="path889"
       inkscape:connector-curvature="0"
       transform="matrix(0.26458333,0,0,0.26458333,0,292.76666)" />
    <path
       style="opacity:1;fill:url(#linearGradient881);fill-opacity:1;fill-rule:nonzero;stroke:#c0c0c0;stroke-width:0.04464286;stroke-linecap:butt;stroke-linejoin:miter;stroke-miterlimit:4;stroke-dasharray:none;stroke-opacity:1;paint-order:normal"
       d="M 7.394339,1.0951673 C 6.2214135,2.2655706 5.050513,3.4380929 3.8783652,4.60931 3.7651526,4.9704897 3.8557774,5.3751281 3.8294639,5.7540638 3.8694388,5.9938669 3.7556671,6.3378607 3.984828,6.5009638 4.1134407,6.5532848 4.2450615,6.4665308 4.3339491,6.3796785 4.5077744,6.7559933 4.7994855,6.2641227 4.9539493,6.463608 5.5271508,7.0217964 6.0752832,7.616604 6.663973,8.1521696 7.1681886,8.2289147 7.7025381,8.1617888 8.218052,8.184575 8.5369897,8.1165147 8.7002603,7.7557852 8.9527353,7.566162 9.6800603,6.8237656 10.443798,6.1063008 11.148482,5.3484018 11.201351,5.1173337 11.209761,4.83578 11.130563,4.6101819 9.9625531,3.4418819 8.7945438,2.2735818 7.6265342,1.1052817 7.5441889,1.0518078 7.4817679,1.0501773 7.394339,1.0951673 Z"
       id="path873"
       inkscape:connector-curvature="0"
       transform="matrix(0.26458333,0,0,0.26458333,0,292.76666)" />
    <path
       style="opacity:1;fill:none;fill-opacity:1;fill-rule:nonzero;stroke:#c0c0c0;stroke-width:0.26458332;stroke-linecap:butt;stroke-linejoin:miter;stroke-miterlimit:4;stroke-dasharray:none;stroke-opacity:1;paint-order:normal"
       d="m 0.92604168,294.48645 0.66145832,0.66146 -0.5291667,-0.66146 0.6614584,0.66146 -0.5291667,-0.66146 0.5291667,0.52917 h 0.5291667 l 0.7937499,-0.79375 v -0.26459 L 1.984375,292.89895"
       id="path871"
       inkscape:connector-curvature="0"
       sodipodi:nodetypes="cccccccccc" />
    <path
       style="opacity:1;fill:none;fill-opacity:1;fill-rule:nonzero;stroke:#000000;stroke-width:0.26458332;stroke-linecap:butt;stroke-linejoin:miter;stroke-miterlimit:4;stroke-dasharray:none;stroke-opacity:1;paint-order:normal"
       d="m 2.1166667,292.89895 h 0.1322917 l 1.0583332,1.05833 v 0.26459 l -1.0583332,1.05833 -0.79375,0"
       id="path867"
       inkscape:connector-curvature="0"
       sodipodi:nodetypes="cccccc" />
    <path
       style="opacity:1;fill:none;fill-opacity:1;fill-rule:nonzero;stroke:#777777;stroke-width:0.26458332;stroke-linecap:butt;stroke-linejoin:miter;stroke-miterlimit:4;stroke-dasharray:none;stroke-opacity:1;paint-order:normal"
       d="m 0.92604169,294.88333 v -0.92605 L 1.984375,292.89895 h 0.1322917"
       id="path869"
       inkscape:connector-curvature="0" />
    <path
       style="opacity:1;fill:none;fill-opacity:1;fill-rule:nonzero;stroke:#999900;stroke-width:0.26458332;stroke-linecap:butt;stroke-linejoin:miter;stroke-miterlimit:4;stroke-dasharray:none;stroke-opacity:1;paint-order:normal"
       d="M 0.52916663,296.60312 H 1.3229167 l 0.5291667,-0.52917 H 2.38125 l 0.1322917,0.26458 0.1322916,-0.26458 H 3.175 l 0.2645833,0.39688"
       id="path887"
       inkscape:connector-curvature="0" />
    <path
       style="opacity:1;fill:none;fill-opacity:1;fill-rule:nonzero;stroke:#000000;stroke-width:0.26458332;stroke-linecap:butt;stroke-linejoin:miter;stroke-miterlimit:4;stroke-dasharray:none;stroke-opacity:1;paint-order:normal"
       d="m 3.3072917,295.54478 0.5291667,0.52917 -0.5291667,0.52917 -0.2645833,-0.26459 H 2.7781251 l -0.2645833,0.26459 -0.2645833,-0.26459 H 1.9843751 L 1.4552084,296.8677 H 0.66145839 l -0.26458335,-0.26458"
       id="path861"
       inkscape:connector-curvature="0" />
    <path
       style="opacity:1;fill:none;fill-opacity:1;fill-rule:nonzero;stroke:#808000;stroke-width:0.26458332;stroke-linecap:butt;stroke-linejoin:miter;stroke-miterlimit:4;stroke-dasharray:none;stroke-opacity:1;paint-order:normal"
       d="m 0.52916684,296.73541 -0.396875,-0.39688 v -0.79375 l 0.5291667,-0.52916 H 1.1906251 l 0.5291667,0.52916 h 1.5874999 l 0.1322917,0.1323"
       id="path863"
       inkscape:connector-curvature="0" />
    <path
       style="opacity:1;fill:none;fill-opacity:1;fill-rule:nonzero;stroke:#000000;stroke-width:0.26458332;stroke-linecap:butt;stroke-linejoin:miter;stroke-miterlimit:4;stroke-dasharray:none;stroke-opacity:1;paint-order:normal"
       d="m 1.190625,296.20624 v -0.39687 l -0.26458332,-0.26459"
       id="path885"
       inkscape:connector-curvature="0" />
    <path
       style="opacity:1;fill:none;fill-opacity:1;fill-rule:nonzero;stroke:#808000;stroke-width:0.26458332;stroke-linecap:butt;stroke-linejoin:miter;stroke-miterlimit:4;stroke-dasharray:none;stroke-opacity:1;paint-order:normal"
       d="M 1.0583333,295.54478 H 0.92604163 l -0.2645833,0.26459 v 0.26458 l 0.2645833,0.26458 H 1.0583333"
       id="path883"
       inkscape:connector-curvature="0" />
    <path
       style="opacity:1;fill:none;fill-opacity:1;fill-rule:nonzero;stroke:#000000;stroke-width:0.26458332;stroke-linecap:butt;stroke-linejoin:miter;stroke-miterlimit:4;stroke-dasharray:none;stroke-opacity:1;paint-order:normal"
       id="path865"
       sodipodi:type="arc"
       sodipodi:cx="0.93847895"
       sodipodi:cy="295.28076"
       sodipodi:rx="0.26458332"
       sodipodi:ry="0.52917951"
       sodipodi:start="1.6178205"
       sodipodi:end="5.6064328"
       d="m 0.92604172,295.80936 a 0.26458332,0.52917951 0 0 1 -0.24717078,-0.42646 0.26458332,0.52917951 0 0 1 0.14799142,-0.58193 0.26458332,0.52917951 0 0 1 0.31788854,0.14839"
       sodipodi:open="true" />
  </g>
</svg>
