<?xml version="1.0" encoding="UTF-8" standalone="no"?>
<!-- Created with Inkscape (http://www.inkscape.org/) -->

<svg
   width="32"
   height="32"
   viewBox="0 0 32 32"
   version="1.1"
   id="svg5"
   inkscape:version="1.2.2 (b0a8486541, 2022-12-01)"
   sodipodi:docname="tomato.svg"
   xml:space="preserve"
   xmlns:inkscape="http://www.inkscape.org/namespaces/inkscape"
   xmlns:sodipodi="http://sodipodi.sourceforge.net/DTD/sodipodi-0.dtd"
   xmlns:xlink="http://www.w3.org/1999/xlink"
   xmlns="http://www.w3.org/2000/svg"
   xmlns:svg="http://www.w3.org/2000/svg"><sodipodi:namedview
     id="namedview7"
     pagecolor="#ffffff"
     bordercolor="#000000"
     borderopacity="0.25"
     inkscape:showpageshadow="2"
     inkscape:pageopacity="0.0"
     inkscape:pagecheckerboard="false"
     inkscape:deskcolor="#d1d1d1"
     inkscape:document-units="px"
     showgrid="true"
     inkscape:zoom="32.78339"
     inkscape:cx="15.266878"
     inkscape:cy="4.3009585"
     inkscape:window-width="1197"
     inkscape:window-height="1000"
     inkscape:window-x="480"
     inkscape:window-y="22"
     inkscape:window-maximized="0"
     inkscape:current-layer="g27608"><inkscape:grid
       type="xygrid"
       id="grid9"
       originx="0"
       originy="0"
       empspacing="4"
       spacingx="0.25"
       spacingy="0.25" /></sodipodi:namedview><defs
     id="defs2"><linearGradient
       inkscape:collect="always"
       id="linearGradient30880"><stop
         style="stop-color:#dfc8c8;stop-opacity:1;"
         offset="0"
         id="stop30874" /><stop
         style="stop-color:#ff1a1a;stop-opacity:1;"
         offset="0.24687959"
         id="stop30876" /><stop
         style="stop-color:#000000;stop-opacity:1;"
         offset="1"
         id="stop30878" /></linearGradient><linearGradient
       inkscape:collect="always"
       xlink:href="#linearGradient27614"
       id="linearGradient27616"
       x1="5.2950892"
       y1="8.228281"
       x2="9.4110327"
       y2="10.279922"
       gradientUnits="userSpaceOnUse"
       gradientTransform="matrix(2.3705114,0,0,2.5228283,-7.1866702,-12.23349)" /><linearGradient
       inkscape:collect="always"
       id="linearGradient27614"><stop
         style="stop-color:#df2727;stop-opacity:1;"
         offset="0"
         id="stop27610" /><stop
         style="stop-color:#ff1a1a;stop-opacity:1;"
         offset="0.24687959"
         id="stop27618" /><stop
         style="stop-color:#ca2121;stop-opacity:1;"
         offset="1"
         id="stop27612" /></linearGradient><radialGradient
       inkscape:collect="always"
       xlink:href="#linearGradient30880"
       id="radialGradient30872"
       cx="6.1689229"
       cy="8.9905577"
       fx="6.1689229"
       fy="8.9905577"
       r="1.5998837"
       gradientTransform="matrix(5.6509873,2.5099806,-1.1175824,4.7191798,-17.375985,-47.433209)"
       gradientUnits="userSpaceOnUse" /><filter
       inkscape:collect="always"
       style="color-interpolation-filters:sRGB"
       id="filter11401"
       x="-0.22677863"
       y="-0.14089001"
       width="1.4535573"
       height="1.2817803"><feGaussianBlur
         inkscape:collect="always"
         stdDeviation="0.046627436"
         id="feGaussianBlur11403" /></filter><filter
       inkscape:collect="always"
       style="color-interpolation-filters:sRGB"
       id="filter11405"
       x="-0.080425586"
       y="-0.53234629"
       width="1.1608512"
       height="2.0646926"><feGaussianBlur
         inkscape:collect="always"
         stdDeviation="0.023169407"
         id="feGaussianBlur11407" /></filter><filter
       inkscape:collect="always"
       style="color-interpolation-filters:sRGB"
       id="filter11409"
       x="-0.075903824"
       y="-0.22724704"
       width="1.1518077"
       height="1.4544941"><feGaussianBlur
         inkscape:collect="always"
         stdDeviation="0.012244498"
         id="feGaussianBlur11411" /></filter><filter
       inkscape:collect="always"
       style="color-interpolation-filters:sRGB"
       id="filter11413"
       x="-0.2070531"
       y="-0.44544632"
       width="1.4141062"
       height="1.8908926"><feGaussianBlur
         inkscape:collect="always"
         stdDeviation="0.038400042"
         id="feGaussianBlur11415" /></filter><filter
       inkscape:collect="always"
       style="color-interpolation-filters:sRGB"
       id="filter11417"
       x="-0.23559887"
       y="-0.29659824"
       width="1.4711977"
       height="1.5932055"><feGaussianBlur
         inkscape:collect="always"
         stdDeviation="0.038400042"
         id="feGaussianBlur11419" /></filter><filter
       inkscape:collect="always"
       style="color-interpolation-filters:sRGB"
       id="filter11421"
       x="-0.10998696"
       y="-0.19198479"
       width="1.2199739"
       height="1.3839696"><feGaussianBlur
         inkscape:collect="always"
         stdDeviation="0.038400042"
         id="feGaussianBlur11423" /></filter><filter
       inkscape:collect="always"
       style="color-interpolation-filters:sRGB"
       id="filter12211"
       x="-0.057783241"
       y="-0.12168014"
       width="1.1155665"
       height="1.2433603"><feGaussianBlur
         inkscape:collect="always"
         stdDeviation="0.038521495"
         id="feGaussianBlur12213" /></filter><filter
       inkscape:collect="always"
       style="color-interpolation-filters:sRGB"
       id="filter12215"
       x="-0.37690637"
       y="-0.10033177"
       width="1.7538127"
       height="1.2006635"><feGaussianBlur
         inkscape:collect="always"
         stdDeviation="0.038521495"
         id="feGaussianBlur12217" /></filter><filter
       inkscape:collect="always"
       style="color-interpolation-filters:sRGB"
       id="filter12219"
       x="-0.057462509"
       y="-0.04538026"
       width="1.114925"
       height="1.0907605"><feGaussianBlur
         inkscape:collect="always"
         stdDeviation="0.038521495"
         id="feGaussianBlur12221" /></filter><linearGradient
       inkscape:collect="always"
       xlink:href="#linearGradient27614"
       id="linearGradient13015"
       gradientUnits="userSpaceOnUse"
       x1="5.2950892"
       y1="8.228281"
       x2="9.4110327"
       y2="10.279922"
       gradientTransform="matrix(2.3705114,0,0,2.5228283,-7.1866702,-12.23349)" /><filter
       inkscape:collect="always"
       style="color-interpolation-filters:sRGB"
       id="filter13285"
       x="-0.30206298"
       y="-0.16415396"
       width="1.6041265"
       height="1.3283079"><feGaussianBlur
         inkscape:collect="always"
         stdDeviation="0.056083514"
         id="feGaussianBlur13287" /></filter></defs><g
     inkscape:label="Layer 1"
     inkscape:groupmode="layer"
     id="layer1"><g
       id="g25603"
       transform="matrix(2.1,0,0,2.0713052,-9.3371492,-13.869155)"
       style="stroke-width:0.479478"><circle
         id="path17397"
         style="fill:#ffffff;stroke:#000000;stroke-width:0.479478"
         cx="8.9920034"
         cy="7.5528622"
         r="0" /><circle
         id="path17560"
         style="fill:#ffffff;stroke:#000000;stroke-width:0.479478"
         cx="10.899344"
         cy="9.1174107"
         r="0" /><circle
         id="path25520"
         style="fill:#782121;stroke:#000000;stroke-width:0.479478"
         cx="13.437794"
         cy="13.887872"
         r="0" /><g
         id="g27608"
         transform="matrix(1.893983,0,0,1.6902478,-4.6737254,-4.7059699)"
         style="stroke-width:0.26798"><path
           style="fill:url(#linearGradient27616);fill-opacity:1;stroke:#000000;stroke-width:0.455567;stroke-linecap:square;stroke-linejoin:round;stroke-dasharray:none;stroke-opacity:1"
           id="path8497"
           d="M 9.8148563,8.0596456 C 9.6617929,8.0183857 9.5162847,7.9542782 9.3703242,7.8915425 9.1589101,7.7941128 8.9356876,7.7327647 8.7140433,7.6686296 8.4779141,7.6042787 8.2365318,7.5636677 7.9950701,7.5297805 7.7098316,7.492816 7.4189808,7.5015563 7.1406478,7.5830235 7.0701866,7.6036316 7.0025769,7.6340358 6.9335426,7.6595418 6.7219315,7.7489375 6.5249124,7.869592 6.3442722,8.0168956 6.2789655,8.070149 6.1798029,8.1660959 6.1144748,8.228191 5.9591858,8.3813739 5.8102879,8.5414943 5.6578231,8.6977667 5.4701573,8.8944827 5.3071885,9.1198622 5.2027539,9.3789893 c -0.027138,0.067337 -0.046398,0.1379686 -0.069599,0.2069516 -0.074204,0.2715901 -0.081544,0.5538981 -0.083731,0.8343681 0.00166,0.288702 0.038089,0.573113 0.098346,0.854056 0.074352,0.328528 0.2091715,0.634337 0.3646873,0.927047 0.091356,0.163619 0.1878275,0.323865 0.2821059,0.485569 0.071305,0.119033 0.1391815,0.240272 0.210974,0.35901 0.068262,0.13439 0.1496726,0.260204 0.2335926,0.384037 0.057981,0.0901 0.125361,0.17175 0.1959722,0.250946 0.052693,0.05912 0.1030178,0.0988 0.067182,0.07019 0.077141,0.0818 0.1423721,0.148649 0.2108669,0.227347 0.082741,0.0952 0.1662399,0.189672 0.2514184,0.282398 0.1079492,0.121058 0.230044,0.225564 0.355666,0.324734 0.1247396,0.09708 0.1241752,0.07276 0.2484834,0.167183 0.1282443,0.08935 0.2704749,0.150874 0.4103775,0.215554 0.1063858,0.04615 0.2103093,0.09806 0.3152738,0.147771 0.1759548,0.08053 0.3592498,0.137542 0.5467545,0.177415 0.1919692,0.03812 0.3860987,0.03735 0.5801613,0.02823 0.3248877,-0.02639 0.6141033,-0.179906 0.8905693,-0.350295 0.120184,-0.0849 0.240803,-0.143744 0.366978,-0.215457 0.187167,-0.114759 0.381641,-0.214747 0.572345,-0.322626 0.193283,-0.109754 0.386255,-0.234794 0.537909,-0.406037 0.04929,-0.05564 0.09252,-0.117079 0.138773,-0.175607 -0.0027,0.0041 -0.01076,0.01612 -0.0081,0.01221 0.08891,-0.128897 0.124229,-0.188549 0.165172,-0.253217 0.0952,-0.160762 0.172355,-0.332488 0.250065,-0.503255 0.08621,-0.196068 0.174765,-0.395742 0.225586,-0.60643 0.01803,-0.07472 0.0308,-0.150766 0.04619,-0.226151 0.06326,-0.454518 -0.02718,-0.84501 -0.164604,-1.270893 -0.08152,-0.258616 -0.1977,-0.501656 -0.323738,-0.738362 -0.104273,-0.197243 -0.24184,-0.369237 -0.388724,-0.5314117 -0.09903,-0.1000416 -0.200473,-0.1968167 -0.297602,-0.2990269 -0.05489,-0.055783 -0.11139,-0.1083727 -0.16756,-0.1625688 0.0077,0.00696 0.0153,0.013918 0.02295,0.020902 0.0014,0.00117 0.0054,0.00502 0.0043,0.00353 -0.0046,-0.0059 -0.0096,-0.011257 -0.0145,-0.016873 C 11.180865,9.1521228 11.05579,9.0617748 10.942843,8.954694 10.870013,8.895492 10.802293,8.8328602 10.663781,8.7382783 c -0.0042,-0.011207 0.03027,0.021267 0.02299,0.015505 -0.0901,-0.071414 -0.143515,-0.1113721 -0.264382,-0.1916751 -0.164162,-0.098503 -0.343539,-0.1604152 -0.5293297,-0.190956 -0.030531,-0.00503 -0.1221065,-0.019217 -0.092028,-0.011721 0.045707,0.011402 0.092734,0.015652 0.1391017,0.023464 -0.1050581,-0.033755 -0.220911,-0.052746 -0.332423,-0.06641 0.033059,0.00495 0.066068,0.010328 0.099181,0.014821 0.00569,7.736e-4 -0.010969,-0.0036 -0.016544,-0.00515 C 9.667519,8.3198793 9.644691,8.3134815 9.621681,8.3079881 9.5208531,8.28384 9.5167681,8.2844747 9.4183633,8.266748 9.2426131,8.237743 9.0647559,8.2316729 8.887255,8.2289503 8.6128204,8.2228461 8.3371221,8.2653245 8.0772948,8.3609368 8.0104179,8.385559 7.9454002,8.4155407 7.8794518,8.4428438 7.5602214,8.5890239 7.2827461,8.8174257 7.0802689,9.1198913 6.9412832,9.3275095 6.9238261,9.4032162 6.831478,9.6319622 6.7208591,9.9610662 6.6898842,10.308821 6.6790518,10.655471 c -0.013198,0.3186 0.046316,0.629724 0.1733741,0.918653 0.031256,0.07107 0.072643,0.136589 0.1089643,0.204885 0.1722889,0.288855 0.4088182,0.510923 0.6833877,0.68522 0.1202725,0.07636 0.2017391,0.110147 0.3298317,0.171031 0.2863015,0.132546 0.5906469,0.199413 0.8994635,0.234585 0.2005009,0.01851 0.4019071,0.01794 0.6029771,0.01767 0.3389652,-0.0032 0.6451508,-0.07285 0.9437318,-0.256395 0.05946,-0.03656 0.113084,-0.08296 0.169623,-0.12444 0.37621,-0.336721 0.560938,-0.694424 0.586332,-1.226565 0.0047,-0.09656 -0.01457,-0.192743 -0.02184,-0.289114 -0.02449,-0.09969 -0.04225,-0.201526 -0.07346,-0.29906 C 10.979091,10.372236 10.785319,10.082309 10.553811,9.8540673 10.498212,9.7992533 10.436226,9.7522678 10.377434,9.7013682 10.071257,9.4587106 9.7452892,9.3343028 9.3760688,9.2517124 9.0790605,9.1875491 8.7795017,9.2043724 8.4829604,9.2586911 8.337564,9.2913977 8.1941626,9.331659 8.0488111,9.3641972 7.8832221,9.3995849 7.7178784,9.4370015 7.5514292,9.4677378 7.8699681,9.4457136 7.9617816,9.4037305 8.3047539,9.617827 8.4366256,9.700144 8.5389438,9.8301212 8.634348,9.9572581 c 0.055562,0.074045 0.077075,0.1708559 0.1169155,0.2555989 0.00117,0.0025 0.00582,0.0083 0.00587,0.0055 3.013e-4,-0.01905 -0.00339,-0.03795 -0.00507,-0.05692 -0.0084,-0.0244 0.029426,-0.130919 0.013336,-0.03828 0.00181,0.02941 -2.096e-4,-0.0232 -0.00928,0.03918 -0.00138,0.0095 0.014245,-0.01192 0.02071,-0.01866 -0.015703,0.02071 -0.033283,0.03996 -0.047055,0.06215 -0.00277,0.0044 0.00886,-0.0051 0.013245,-0.0076 0.012904,2.31e-4 0.1771611,-0.111525 0.1177143,-0.05892 -0.016682,0.01081 0.057783,0.003 0.06537,0.0029 0.050357,-6.5e-4 0.1007147,1.42e-4 0.1510698,6.61e-4 0.133961,0.0075 0.2662938,-0.01605 0.3984764,-0.03448 0.00503,-5.44e-4 0.02014,-0.002 0.015111,-0.0016 -0.040316,0.0029 -0.080688,0.01319 -0.1209209,0.0091 C 9.123321,10.091327 9.04744,10.082002 8.8471029,9.9671676 8.8004279,9.9404134 8.7602859,9.9023837 8.71684,9.8700467 c 0.07049,0.095707 0.1402056,0.1922373 0.2143807,0.2852423 0.09033,0.109912 0.1874611,0.213979 0.2910205,0.311602 0.085643,0.08338 0.1712554,0.166547 0.2603014,0.245865 0.1292683,0.106945 0.2561471,0.21713 0.3834563,0.326706 0.084532,0.06937 0.1565591,0.143445 0.2358651,0.220156 0.09626,0.09981 0.201379,0.18867 0.308637,0.27456 0.0079,0.0066 0.0156,0.01307 0.02337,0.01968 0.0096,0.0082 0.01939,0.01651 0.02897,0.02489 0.0082,0.0071 0.03311,0.02773 0.02418,0.02176 -0.03284,-0.02207 -0.05891,-0.05645 -0.08561,-0.08552 -0.07049,-0.09164 -0.119132,-0.198882 -0.150373,-0.31213 -0.0055,-0.01976 -0.01701,-0.0803 -0.01347,-0.06007 0.0067,0.03787 0.01517,0.07531 0.02275,0.112978 0.01688,0.114664 4.1e-5,-0.04762 0.0021,0.04231 6.72e-4,-0.0181 0.0011,0.09284 0.0015,0.06962 0.0034,-0.229327 0.04666,-0.387412 0.156356,-0.583444 0.0036,-0.0356 0.195435,-0.191237 0.07283,-0.0958 -0.008,0.0062 0.01574,-0.0124 0.02319,-0.01914 0.0016,-0.0014 -0.0037,0.002 -0.0055,0.003 -0.128834,0.08809 -0.01546,0.01079 -0.01921,0.01279 -0.05646,0.03018 -0.05033,0.03004 -0.144839,0.0888 -0.21605,0.153669 -0.05931,0.03908 -0.04412,0.02998 0.108285,-0.06485 0.152548,-0.08017 0.06743,-0.04136 -0.02124,0.0096 0.04266,-0.01896 0.06426,-0.02762 -0.06651,0.0232 -0.07032,0.02467 -0.01169,0.0037 -0.390765,0.101739 0.172538,2.552303 0.563304,2.450565 v 0 c 0.145355,-0.04206 0.09299,-0.02369 0.159173,-0.04752 0.159837,-0.05775 0.307268,-0.126998 0.450755,-0.223753 0.0134,-0.009 -0.02707,0.01759 -0.04059,0.02637 0.01371,-0.0086 0.03755,-0.0095 0.0411,-0.02604 0.0034,-0.01582 -0.05378,0.03062 -0.0404,0.02284 0.07293,-0.04255 0.147004,-0.0834 0.216239,-0.132711 0.205412,-0.139339 0.397761,-0.302149 0.544972,-0.511191 0.04032,-0.06342 0.0869,-0.122815 0.120965,-0.190263 0.155008,-0.306838 0.213314,-0.586835 0.192085,-0.928684 -0.0084,-0.168575 -0.02285,-0.337306 -0.06267,-0.50129 0.0178,0.109911 -0.0067,-0.04284 -0.01941,-0.09687 -0.04055,-0.171091 -0.103372,-0.331393 -0.19004,-0.481937 -0.02564,-0.04452 -0.05561,-0.08606 -0.0834,-0.129085 C 12.147,9.7982525 12.001922,9.6457359 11.835332,9.5179185 11.750142,9.4497771 11.806662,9.5002874 11.695632,9.3920751 11.584652,9.2848612 11.47485,9.1760455 11.356612,9.0778083 11.23879,8.976411 11.121343,8.8740078 11.001361,8.7757609 10.930152,8.7128479 10.863242,8.6430298 10.79305,8.5774406 10.7796,8.5647929 10.69577,8.486626 10.80711,8.6023921 10.8199,8.6157239 10.78372,8.5735406 10.77177,8.5593447 10.70557,8.4806547 10.70959,8.4850979 10.73836,8.5225614 10.668294,8.4347263 10.55303,8.2647536 10.445659,8.1439287 10.332589,8.0212234 10.260886,7.9326824 10.115022,7.8355332 9.8233447,7.6412689 9.4948278,7.5532993 9.153092,7.6090444 c -0.019276,0.00288 -0.038564,0.00561 -0.057825,0.0086 -0.1316488,0.020315 0.1613676,0.00373 0.034214,0.00281 -0.00975,-8.22e-5 -0.019503,-1.848e-4 -0.029278,-2.72e-4 -0.093072,-9.615e-4 -0.1861863,-0.00219 -0.279224,0.0017 C 8.5778956,7.6347791 8.3358736,7.6691169 8.1032849,7.7487877 8.0455362,7.7710069 7.986879,7.7907095 7.9300427,7.8154506 7.6972794,7.916782 7.4811667,8.0590479 7.2778197,8.2150907 7.1261696,8.3459321 7.1116435,8.3510279 6.9586662,8.5250225 6.7870124,8.7202565 6.6606222,8.9595645 6.5587197,9.2017089 6.5340004,9.2755242 6.5062757,9.3482773 6.4845627,9.4231571 6.3864471,9.7615524 6.3692515,10.121108 6.399555,10.471785 c 0.034578,0.276844 0.069607,0.579303 0.2217632,0.817731 0.1066976,0.167194 0.230933,0.331399 0.3896992,0.442294 0.4001478,0.279494 0.5469554,0.227496 0.9502494,0.220767 0.1925564,-0.03623 0.3841075,-0.07841 0.5757469,-0.119634 0.1200494,-0.02691 0.2398632,-0.05497 0.3585053,-0.08809 0.00133,-3.72e-4 -0.00268,-7.14e-4 -0.00401,-0.0011 0.051832,-0.0099 0.078005,-0.0061 0.00416,-0.01304 -0.00833,-7.99e-4 -0.032816,-0.0033 -0.02461,-0.0049 0.011993,-0.0024 0.024338,0.002 0.036532,0.0025 0.00526,2.37e-4 0.01056,-1.41e-4 0.015817,-2.1e-4 0.04845,-0.0013 -0.00877,-0.01887 0.017911,-0.01958 -0.026167,-0.03194 -0.038906,-0.04609 -0.063732,-0.08559 -0.047788,-0.07605 -0.050346,-0.188986 -0.069068,-0.27269 -4.832e-4,-0.04608 -0.00694,-0.09253 -0.00145,-0.138242 0.037727,-0.313069 0.1200539,-0.529972 0.3586579,-0.721719 0.070086,-0.04425 0.1016569,-0.06858 0.188435,-0.09659 0.053018,-0.01712 0.1080722,-0.02608 0.1624599,-0.03728 0.00459,-9.49e-4 0.018683,1.54e-4 0.014065,9.29e-4 -0.078886,0.01319 -0.025922,-0.0015 -0.056504,0.0073 -0.1236518,1.73e-4 -0.2474554,0.0013 -0.3709694,-0.006 -0.067782,-0.0034 -0.1338698,-0.01344 -0.1966459,-0.04324 -0.0061,-0.0016 -0.012357,-0.0026 -0.018252,-0.0048 -0.010104,-0.0038 -0.030832,-0.02482 -0.029638,-0.01348 0.00159,0.01515 0.021483,0.02027 0.031496,0.03118 0.039349,0.04291 0.068521,0.07654 0.091114,0.130134 0.029412,0.07387 0.056839,0.149467 0.064869,0.22985 0.00216,0.02151 0.00339,0.04316 0.00385,0.06481 1.907e-4,0.0092 -0.00125,0.03688 -0.00193,0.02766 -0.00117,-0.01619 2.657e-4,-0.0325 3.987e-4,-0.04874 0.00122,-0.05314 0.00334,-0.106041 0.00662,-0.159088 0.0016,-0.02586 0.00489,-0.05487 4.23e-4,-0.05309 -0.00625,0.0025 -0.00765,0.01167 -0.011492,0.01754 -0.061927,0.100994 -0.153052,0.210327 -0.2661911,0.244691 -0.00505,0.0015 0.00835,-0.0069 0.012515,-0.01018 -0.023793,-0.01145 0.02674,0.01486 0.013427,-0.01247 -0.00641,-0.01319 -0.08051,0.0019 0.051442,-0.0079 0.061756,8e-4 0.123529,0.0017 0.1851808,0.0058 0.1096469,0.0124 0.2158461,0.07126 0.3287955,0.06924 -0.021847,-0.0034 -0.025885,-0.0037 -0.04816,-0.0087 -0.00587,-0.0013 -0.011743,-0.0029 -0.017569,-0.0045 -0.00172,-4.77e-4 -0.00681,-0.0022 -0.00505,-0.0018 0.024303,0.0053 0.047119,0.01763 0.071969,0.02031 0.064535,0.01262 0.1291614,0.02469 0.1936078,0.03784 0.011902,0.0024 -0.024059,-0.0033 -0.035977,-0.0058 -0.1024922,-0.02043 -0.2007513,-0.05923 -0.2902292,-0.116531 -0.020435,-0.0146 -0.041075,-0.02889 -0.061293,-0.04384 -0.0032,-0.0024 -0.012061,-0.01055 -0.00892,-0.008 0.074237,0.05832 0.1219679,0.09956 0.2166996,0.166627 0.027492,0.01876 0.059188,0.04117 -0.021733,-0.01966 -0.00892,-0.0068 0.016725,0.01501 0.026014,0.02115 0.00566,0.0037 -0.020321,-0.01834 -0.015111,-0.01392 0.026817,0.0227 0.1054939,0.102162 0.080412,0.06815 0.1378068,0.116806 0.059974,0.05335 0.040804,0.03163 -0.005,-0.0056 0.020823,0.02156 0.016748,0.01509 -0.0073,-0.01162 -0.019026,-0.01953 -0.026676,-0.03091 -0.015134,-0.02251 0.072666,0.08851 0.053138,0.06081 0.078613,0.08995 0.157583,0.171671 0.2286026,0.236005 0.085758,0.09003 0.1893544,0.197332 0.2668188,0.266077 0.0053,0.0053 0.01038,0.01074 0.0156,0.01606 0.02909,0.0298 -0.01332,-0.02564 0.01196,0.0061 0.05522,0.09999 0.107416,0.202103 0.141886,0.312626 0.01492,0.04487 0.02454,0.09216 0.04494,0.134506 0.0106,0.02199 0.0061,-0.219785 0.0254,-0.133578 0.0063,-0.02072 0.01159,-0.04181 0.01872,-0.06222 0.002,-0.0056 -0.0015,0.01192 -0.0032,0.01762 -0.02182,0.07635 -0.0536,0.149638 -0.08732,0.220616 -0.02867,0.06308 -0.05754,0.125924 -0.0873,0.188436 -0.0079,0.01644 -0.03614,0.06177 -0.02346,0.04926 0.0072,-0.0069 0.01085,-0.01702 0.01632,-0.02554 0.03144,-0.03717 -0.05324,0.06953 -0.06772,0.107293 -0.0046,0.0119 0.02968,-0.04041 0.02239,-0.0302 -0.01448,0.02029 -0.02934,0.04031 -0.04401,0.06046 0.07229,-0.08637 0.128017,-0.158413 0.211249,-0.20642 0.0051,-0.0029 -0.0091,0.0071 -0.01373,0.01059 -0.02689,0.01533 -0.05377,0.03066 -0.08065,0.04599 -0.1959369,0.112197 -0.3971136,0.213984 -0.5897924,0.332633 -0.143198,0.0913 -0.3007583,0.157858 -0.4390958,0.259017 -0.037451,0.02624 -0.0074,0.0061 -0.06862,0.04179 -0.00641,0.0037 -0.026399,0.01174 -0.019048,0.01167 0.012448,-1.27e-4 0.02354,-0.0087 0.035622,-0.01187 0.1305382,-0.03346 0.092868,-0.02766 0.1852765,-0.03488 0.195501,0.0023 -0.055881,-0.0063 0.027711,0.0052 0.02071,0.0061 0.029587,0.0082 0.051509,0.01677 0.00477,0.0018 -0.00982,-0.0028 -0.014679,-0.0044 -0.018819,-0.0067 -0.03753,-0.01355 -0.056297,-0.02033 0.010969,0.0061 0.012653,0.0058 0.00348,0.004 -0.1116792,-0.05116 -0.2211032,-0.107193 -0.3335698,-0.15626 -0.071352,-0.03194 0.046748,0.02115 -0.1106142,-0.05166 -0.00601,-0.0028 -0.023771,-0.01136 -0.018275,-0.0075 0.01295,0.0088 0.027406,0.01493 0.040794,0.02299 0.00708,0.0043 0.028257,0.01712 0.020617,0.01407 -0.00868,-0.0034 -0.015885,-0.01021 -0.023809,-0.01531 -0.01866,-0.01225 -0.037063,-0.02499 -0.055987,-0.0368 -0.00669,-0.0041 0.025825,0.01831 0.019276,0.01389 -0.1024602,-0.06899 -0.02354,-0.02731 -0.1470553,-0.09939 -0.018912,-0.01104 0.035542,0.026 0.053311,0.039 0.06405,0.05583 -0.00153,-0.0014 -0.00401,-0.0031 -0.00646,-0.0044 0.022779,0.02198 0.016954,0.01663 -0.1105845,-0.101471 0.061836,0.06116 -0.049656,-0.048 -0.070446,-0.07653 -0.1389905,-0.154892 -0.2074126,-0.233363 -0.08955,-0.10264 -0.188121,-0.203612 -0.2479206,-0.268904 -0.02417,-0.02584 -0.048082,-0.05195 -0.072509,-0.07751 -0.0015,-0.0016 0.00233,0.0037 0.00364,0.0054 0.017523,0.02285 0.035333,0.04549 0.05288,0.06833 0.00141,0.0018 -0.00309,-0.0034 -0.00445,-0.0052 -0.00585,-0.0081 -0.011446,-0.01639 -0.017137,-0.02463 -0.012539,-0.01814 -0.025009,-0.03634 -0.037516,-0.0545 0.00753,0.0124 0.030334,0.04955 0.022644,0.03722 C 8.1019653,11.864962 8.0503557,11.774185 7.9983892,11.679855 7.9335359,11.572842 7.8728545,11.463116 7.8082656,11.355927 7.7294994,11.221059 7.6497143,11.08689 7.5716077,10.951591 7.5264137,10.868722 7.4799907,10.785315 7.4544336,10.692894 7.4334056,10.6093 7.4245786,10.525711 7.4198466,10.438918 c 8.55e-5,-0.01503 0.00854,-0.179755 0.00229,-0.189374 -0.0026,-0.0039 -0.003,0.009 -0.00452,0.01362 -0.00669,0.023 -0.013359,0.04603 -0.02005,0.06905 -0.034065,0.08438 -0.030135,0.08398 -0.076703,0.161828 -0.00808,0.01353 -0.021869,0.0317 -0.034507,0.0429 -0.0019,0.0017 -0.00795,0.0061 -0.00641,0.0039 0.00704,-0.0096 0.01552,-0.01799 0.023279,-0.02699 0.1311227,-0.134682 0.2595977,-0.272131 0.3918789,-0.405545 0.023208,-0.02215 0.046892,-0.04379 0.069649,-0.06649 0.00435,-0.0043 0.017409,-0.01531 0.011516,-0.01445 -0.012449,0.0018 -0.021596,0.01463 -0.033815,0.0177 -0.020618,0.0052 0.072071,-0.047489 0.053956,-0.03579 -0.068472,0.0178 -0.065444,0.0198 -0.1420215,0.0263 -0.00726,6.16e-4 -0.026589,0.0043 -0.021802,-0.0016 0.00553,-0.0067 0.021141,0.0055 0.025086,-0.0024 0.0028,-0.0056 -0.1366509,-0.01702 0.034472,3.27e-4 0.1342112,0.01756 0.2681273,0.0406 0.4002235,0.07123 0.1313847,0.03799 0.265463,0.06873 0.3902652,0.127648 0.25086,0.107833 0.5041049,0.209867 0.767299,0.278994 0.3906986,0.102031 0.9556193,-2.3481127 0.5649201,-2.450143 z" /><path
           style="fill:url(#linearGradient13015);fill-opacity:1;stroke:#000000;stroke-width:0;stroke-linejoin:bevel;stroke-dasharray:none;stroke-opacity:0.5"
           id="path16960"
           d="M 9.8148563,8.0596456 C 9.6617929,8.0183857 9.5162847,7.9542782 9.3703242,7.8915425 9.1589101,7.7941128 8.9356876,7.7327647 8.7140433,7.6686296 8.4779141,7.6042787 8.2365318,7.5636677 7.9950701,7.5297805 7.7098316,7.492816 7.4189808,7.5015563 7.1406478,7.5830235 7.0701866,7.6036316 7.0025769,7.6340358 6.9335426,7.6595418 6.7219315,7.7489375 6.5249124,7.869592 6.3442722,8.0168956 6.2789655,8.070149 6.1798029,8.1660959 6.1144748,8.228191 5.9591858,8.3813739 5.8102879,8.5414943 5.6578231,8.6977667 5.4701573,8.8944827 5.3071885,9.1198622 5.2027539,9.3789893 c -0.027138,0.067337 -0.046398,0.1379686 -0.069599,0.2069516 -0.074204,0.2715901 -0.081544,0.5538981 -0.083731,0.8343681 0.00166,0.288702 0.038089,0.573113 0.098346,0.854056 0.074352,0.328528 0.2091715,0.634337 0.3646873,0.927047 0.091356,0.163619 0.1878275,0.323865 0.2821059,0.485569 0.071305,0.119033 0.1391815,0.240272 0.210974,0.35901 0.068262,0.13439 0.1496726,0.260204 0.2335926,0.384037 0.057981,0.0901 0.125361,0.17175 0.1959722,0.250946 0.052693,0.05912 0.1030178,0.0988 0.067182,0.07019 0.077141,0.0818 0.1423721,0.148649 0.2108669,0.227347 0.082741,0.0952 0.1662399,0.189672 0.2514184,0.282398 0.1079492,0.121058 0.230044,0.225564 0.355666,0.324734 0.1247396,0.09708 0.1241752,0.07276 0.2484834,0.167183 0.1282443,0.08935 0.2704749,0.150874 0.4103775,0.215554 0.1063858,0.04615 0.2103093,0.09806 0.3152738,0.147771 0.1759548,0.08053 0.3592498,0.137542 0.5467545,0.177415 0.1919692,0.03812 0.3860987,0.03735 0.5801613,0.02823 0.3248877,-0.02639 0.6141033,-0.179906 0.8905693,-0.350295 0.120184,-0.0849 0.240803,-0.143744 0.366978,-0.215457 0.187167,-0.114759 0.381641,-0.214747 0.572345,-0.322626 0.193283,-0.109754 0.386255,-0.234794 0.537909,-0.406037 0.04929,-0.05564 0.09252,-0.117079 0.138773,-0.175607 -0.0027,0.0041 -0.01076,0.01612 -0.0081,0.01221 0.08891,-0.128897 0.124229,-0.188549 0.165172,-0.253217 0.0952,-0.160762 0.172355,-0.332488 0.250065,-0.503255 0.08621,-0.196068 0.174765,-0.395742 0.225586,-0.60643 0.01803,-0.07472 0.0308,-0.150766 0.04619,-0.226151 0.06326,-0.454518 -0.02718,-0.84501 -0.164604,-1.270893 -0.08152,-0.258616 -0.1977,-0.501656 -0.323738,-0.738362 -0.104273,-0.197243 -0.24184,-0.369237 -0.388724,-0.5314117 -0.09903,-0.1000416 -0.200473,-0.1968167 -0.297602,-0.2990269 -0.05489,-0.055783 -0.11139,-0.1083727 -0.16756,-0.1625688 0.0077,0.00696 0.0153,0.013918 0.02295,0.020902 0.0014,0.00117 0.0054,0.00502 0.0043,0.00353 -0.0046,-0.0059 -0.0096,-0.011257 -0.0145,-0.016873 C 11.180865,9.1521228 11.05579,9.0617748 10.942843,8.954694 10.870013,8.895492 10.802293,8.8328602 10.663781,8.7382783 c -0.0042,-0.011207 0.03027,0.021267 0.02299,0.015505 -0.0901,-0.071414 -0.143515,-0.1113721 -0.264382,-0.1916751 -0.164162,-0.098503 -0.343539,-0.1604152 -0.5293297,-0.190956 -0.030531,-0.00503 -0.1221065,-0.019217 -0.092028,-0.011721 0.045707,0.011402 0.092734,0.015652 0.1391017,0.023464 -0.1050581,-0.033755 -0.220911,-0.052746 -0.332423,-0.06641 0.033059,0.00495 0.066068,0.010328 0.099181,0.014821 0.00569,7.736e-4 -0.010969,-0.0036 -0.016544,-0.00515 C 9.667519,8.3198793 9.644691,8.3134815 9.621681,8.3079881 9.5208531,8.28384 9.5167681,8.2844747 9.4183633,8.266748 9.2426131,8.237743 9.0647559,8.2316729 8.887255,8.2289503 8.6128204,8.2228461 8.3371221,8.2653245 8.0772948,8.3609368 8.0104179,8.385559 7.9454002,8.4155407 7.8794518,8.4428438 7.5602214,8.5890239 7.2827461,8.8174257 7.0802689,9.1198913 6.9412832,9.3275095 6.9238261,9.4032162 6.831478,9.6319622 6.7208591,9.9610662 6.6898842,10.308821 6.6790518,10.655471 c -0.013198,0.3186 0.046316,0.629724 0.1733741,0.918653 0.031256,0.07107 0.072643,0.136589 0.1089643,0.204885 0.1722889,0.288855 0.4088182,0.510923 0.6833877,0.68522 0.1202725,0.07636 0.2017391,0.110147 0.3298317,0.171031 0.2863015,0.132546 0.5906469,0.199413 0.8994635,0.234585 0.2005009,0.01851 0.4019071,0.01794 0.6029771,0.01767 0.3389652,-0.0032 0.6451508,-0.07285 0.9437318,-0.256395 0.05946,-0.03656 0.113084,-0.08296 0.169623,-0.12444 0.37621,-0.336721 0.560938,-0.694424 0.586332,-1.226565 0.0047,-0.09656 -0.01457,-0.192743 -0.02184,-0.289114 -0.02449,-0.09969 -0.04225,-0.201526 -0.07346,-0.29906 C 10.979091,10.372236 10.785319,10.082309 10.553811,9.8540673 10.498212,9.7992533 10.436226,9.7522678 10.377434,9.7013682 10.071257,9.4587106 9.7452892,9.3343028 9.3760688,9.2517124 9.0790605,9.1875491 8.7795017,9.2043724 8.4829604,9.2586911 8.337564,9.2913977 8.1941626,9.331659 8.0488111,9.3641972 7.8832221,9.3995849 7.7178784,9.4370015 7.5514292,9.4677378 7.8699681,9.4457136 7.9617816,9.4037305 8.3047539,9.617827 8.4366256,9.700144 8.5389438,9.8301212 8.634348,9.9572581 c 0.055562,0.074045 0.077075,0.1708559 0.1169155,0.2555989 0.00117,0.0025 0.00582,0.0083 0.00587,0.0055 3.013e-4,-0.01905 -0.00339,-0.03795 -0.00507,-0.05692 -0.0084,-0.0244 0.029426,-0.130919 0.013336,-0.03828 0.00181,0.02941 -2.096e-4,-0.0232 -0.00928,0.03918 -0.00138,0.0095 0.014245,-0.01192 0.02071,-0.01866 -0.015703,0.02071 -0.033283,0.03996 -0.047055,0.06215 -0.00277,0.0044 0.00886,-0.0051 0.013245,-0.0076 0.012904,2.31e-4 0.1771611,-0.111525 0.1177143,-0.05892 -0.016682,0.01081 0.057783,0.003 0.06537,0.0029 0.050357,-6.5e-4 0.1007147,1.42e-4 0.1510698,6.61e-4 0.133961,0.0075 0.2662938,-0.01605 0.3984764,-0.03448 0.00503,-5.44e-4 0.02014,-0.002 0.015111,-0.0016 -0.040316,0.0029 -0.080688,0.01319 -0.1209209,0.0091 C 9.123321,10.091327 9.04744,10.082002 8.8471029,9.9671676 8.8004279,9.9404134 8.7602859,9.9023837 8.71684,9.8700467 c 0.07049,0.095707 0.1402056,0.1922373 0.2143807,0.2852423 0.09033,0.109912 0.1874611,0.213979 0.2910205,0.311602 0.085643,0.08338 0.1712554,0.166547 0.2603014,0.245865 0.1292683,0.106945 0.2561471,0.21713 0.3834563,0.326706 0.084532,0.06937 0.1565591,0.143445 0.2358651,0.220156 0.09626,0.09981 0.201379,0.18867 0.308637,0.27456 0.0079,0.0066 0.0156,0.01307 0.02337,0.01968 0.0096,0.0082 0.01939,0.01651 0.02897,0.02489 0.0082,0.0071 0.03311,0.02773 0.02418,0.02176 -0.03284,-0.02207 -0.05891,-0.05645 -0.08561,-0.08552 -0.07049,-0.09164 -0.119132,-0.198882 -0.150373,-0.31213 -0.0055,-0.01976 -0.01701,-0.0803 -0.01347,-0.06007 0.0067,0.03787 0.01517,0.07531 0.02275,0.112978 0.01688,0.114664 4.1e-5,-0.04762 0.0021,0.04231 6.72e-4,-0.0181 0.0011,0.09284 0.0015,0.06962 0.0034,-0.229327 0.04666,-0.387412 0.156356,-0.583444 0.0036,-0.0356 0.195435,-0.191237 0.07283,-0.0958 -0.008,0.0062 0.01574,-0.0124 0.02319,-0.01914 0.0016,-0.0014 -0.0037,0.002 -0.0055,0.003 -0.128834,0.08809 -0.01546,0.01079 -0.01921,0.01279 -0.05646,0.03018 -0.05033,0.03004 -0.144839,0.0888 -0.21605,0.153669 -0.05931,0.03908 -0.04412,0.02998 0.108285,-0.06485 0.152548,-0.08017 0.06743,-0.04136 -0.02124,0.0096 0.04266,-0.01896 0.06426,-0.02762 -0.06651,0.0232 -0.07032,0.02467 -0.01169,0.0037 -0.390765,0.101739 0.172538,2.552303 0.563304,2.450565 v 0 c 0.145355,-0.04206 0.09299,-0.02369 0.159173,-0.04752 0.159837,-0.05775 0.307268,-0.126998 0.450755,-0.223753 0.0134,-0.009 -0.02707,0.01759 -0.04059,0.02637 0.01371,-0.0086 0.03755,-0.0095 0.0411,-0.02604 0.0034,-0.01582 -0.05378,0.03062 -0.0404,0.02284 0.07293,-0.04255 0.147004,-0.0834 0.216239,-0.132711 0.205412,-0.139339 0.397761,-0.302149 0.544972,-0.511191 0.04032,-0.06342 0.0869,-0.122815 0.120965,-0.190263 0.155008,-0.306838 0.213314,-0.586835 0.192085,-0.928684 -0.0084,-0.168575 -0.02285,-0.337306 -0.06267,-0.50129 0.0178,0.109911 -0.0067,-0.04284 -0.01941,-0.09687 -0.04055,-0.171091 -0.103372,-0.331393 -0.19004,-0.481937 -0.02564,-0.04452 -0.05561,-0.08606 -0.0834,-0.129085 C 12.147,9.7982525 12.001922,9.6457359 11.835332,9.5179185 11.750142,9.4497771 11.806662,9.5002874 11.695632,9.3920751 11.584652,9.2848612 11.47485,9.1760455 11.356612,9.0778083 11.23879,8.976411 11.121343,8.8740078 11.001361,8.7757609 10.930152,8.7128479 10.863242,8.6430298 10.79305,8.5774406 10.7796,8.5647929 10.69577,8.486626 10.80711,8.6023921 10.8199,8.6157239 10.78372,8.5735406 10.77177,8.5593447 10.70557,8.4806547 10.70959,8.4850979 10.73836,8.5225614 10.668294,8.4347263 10.55303,8.2647536 10.445659,8.1439287 10.332589,8.0212234 10.260886,7.9326824 10.115022,7.8355332 9.8233447,7.6412689 9.4948278,7.5532993 9.153092,7.6090444 c -0.019276,0.00288 -0.038564,0.00561 -0.057825,0.0086 -0.1316488,0.020315 0.1613676,0.00373 0.034214,0.00281 -0.00975,-8.22e-5 -0.019503,-1.848e-4 -0.029278,-2.72e-4 -0.093072,-9.615e-4 -0.1861863,-0.00219 -0.279224,0.0017 C 8.5778956,7.6347791 8.3358736,7.6691169 8.1032849,7.7487877 8.0455362,7.7710069 7.986879,7.7907095 7.9300427,7.8154506 7.6972794,7.916782 7.4811667,8.0590479 7.2778197,8.2150907 7.1261696,8.3459321 7.1116435,8.3510279 6.9586662,8.5250225 6.7870124,8.7202565 6.6606222,8.9595645 6.5587197,9.2017089 6.5340004,9.2755242 6.5062757,9.3482773 6.4845627,9.4231571 6.3864471,9.7615524 6.3692515,10.121108 6.399555,10.471785 c 0.034578,0.276844 0.069607,0.579303 0.2217632,0.817731 0.1066976,0.167194 0.230933,0.331399 0.3896992,0.442294 0.4001478,0.279494 0.5469554,0.227496 0.9502494,0.220767 0.1925564,-0.03623 0.3841075,-0.07841 0.5757469,-0.119634 0.1200494,-0.02691 0.2398632,-0.05497 0.3585053,-0.08809 0.00133,-3.72e-4 -0.00268,-7.14e-4 -0.00401,-0.0011 0.051832,-0.0099 0.078005,-0.0061 0.00416,-0.01304 -0.00833,-7.99e-4 -0.032816,-0.0033 -0.02461,-0.0049 0.011993,-0.0024 0.024338,0.002 0.036532,0.0025 0.00526,2.37e-4 0.01056,-1.41e-4 0.015817,-2.1e-4 0.04845,-0.0013 -0.00877,-0.01887 0.017911,-0.01958 -0.026167,-0.03194 -0.038906,-0.04609 -0.063732,-0.08559 -0.047788,-0.07605 -0.050346,-0.188986 -0.069068,-0.27269 -4.832e-4,-0.04608 -0.00694,-0.09253 -0.00145,-0.138242 0.037727,-0.313069 0.1200539,-0.529972 0.3586579,-0.721719 0.070086,-0.04425 0.1016569,-0.06858 0.188435,-0.09659 0.053018,-0.01712 0.1080722,-0.02608 0.1624599,-0.03728 0.00459,-9.49e-4 0.018683,1.54e-4 0.014065,9.29e-4 -0.078886,0.01319 -0.025922,-0.0015 -0.056504,0.0073 -0.1236518,1.73e-4 -0.2474554,0.0013 -0.3709694,-0.006 -0.067782,-0.0034 -0.1338698,-0.01344 -0.1966459,-0.04324 -0.0061,-0.0016 -0.012357,-0.0026 -0.018252,-0.0048 -0.010104,-0.0038 -0.030832,-0.02482 -0.029638,-0.01348 0.00159,0.01515 0.021483,0.02027 0.031496,0.03118 0.039349,0.04291 0.068521,0.07654 0.091114,0.130134 0.029412,0.07387 0.056839,0.149467 0.064869,0.22985 0.00216,0.02151 0.00339,0.04316 0.00385,0.06481 1.907e-4,0.0092 -0.00125,0.03688 -0.00193,0.02766 -0.00117,-0.01619 2.657e-4,-0.0325 3.987e-4,-0.04874 0.00122,-0.05314 0.00334,-0.106041 0.00662,-0.159088 0.0016,-0.02586 0.00489,-0.05487 4.23e-4,-0.05309 -0.00625,0.0025 -0.00765,0.01167 -0.011492,0.01754 -0.061927,0.100994 -0.153052,0.210327 -0.2661911,0.244691 -0.00505,0.0015 0.00835,-0.0069 0.012515,-0.01018 -0.023793,-0.01145 0.02674,0.01486 0.013427,-0.01247 -0.00641,-0.01319 -0.08051,0.0019 0.051442,-0.0079 0.061756,8e-4 0.123529,0.0017 0.1851808,0.0058 0.1096469,0.0124 0.2158461,0.07126 0.3287955,0.06924 -0.021847,-0.0034 -0.025885,-0.0037 -0.04816,-0.0087 -0.00587,-0.0013 -0.011743,-0.0029 -0.017569,-0.0045 -0.00172,-4.77e-4 -0.00681,-0.0022 -0.00505,-0.0018 0.024303,0.0053 0.047119,0.01763 0.071969,0.02031 0.064535,0.01262 0.1291614,0.02469 0.1936078,0.03784 0.011902,0.0024 -0.024059,-0.0033 -0.035977,-0.0058 -0.1024922,-0.02043 -0.2007513,-0.05923 -0.2902292,-0.116531 -0.020435,-0.0146 -0.041075,-0.02889 -0.061293,-0.04384 -0.0032,-0.0024 -0.012061,-0.01055 -0.00892,-0.008 0.074237,0.05832 0.1219679,0.09956 0.2166996,0.166627 0.027492,0.01876 0.059188,0.04117 -0.021733,-0.01966 -0.00892,-0.0068 0.016725,0.01501 0.026014,0.02115 0.00566,0.0037 -0.020321,-0.01834 -0.015111,-0.01392 0.026817,0.0227 0.1054939,0.102162 0.080412,0.06815 0.1378068,0.116806 0.059974,0.05335 0.040804,0.03163 -0.005,-0.0056 0.020823,0.02156 0.016748,0.01509 -0.0073,-0.01162 -0.019026,-0.01953 -0.026676,-0.03091 -0.015134,-0.02251 0.072666,0.08851 0.053138,0.06081 0.078613,0.08995 0.157583,0.171671 0.2286026,0.236005 0.085758,0.09003 0.1893544,0.197332 0.2668188,0.266077 0.0053,0.0053 0.01038,0.01074 0.0156,0.01606 0.02909,0.0298 -0.01332,-0.02564 0.01196,0.0061 0.05522,0.09999 0.107416,0.202103 0.141886,0.312626 0.01492,0.04487 0.02454,0.09216 0.04494,0.134506 0.0106,0.02199 0.0061,-0.219785 0.0254,-0.133578 0.0063,-0.02072 0.01159,-0.04181 0.01872,-0.06222 0.002,-0.0056 -0.0015,0.01192 -0.0032,0.01762 -0.02182,0.07635 -0.0536,0.149638 -0.08732,0.220616 -0.02867,0.06308 -0.05754,0.125924 -0.0873,0.188436 -0.0079,0.01644 -0.03614,0.06177 -0.02346,0.04926 0.0072,-0.0069 0.01085,-0.01702 0.01632,-0.02554 0.03144,-0.03717 -0.05324,0.06953 -0.06772,0.107293 -0.0046,0.0119 0.02968,-0.04041 0.02239,-0.0302 -0.01448,0.02029 -0.02934,0.04031 -0.04401,0.06046 0.07229,-0.08637 0.128017,-0.158413 0.211249,-0.20642 0.0051,-0.0029 -0.0091,0.0071 -0.01373,0.01059 -0.02689,0.01533 -0.05377,0.03066 -0.08065,0.04599 -0.1959369,0.112197 -0.3971136,0.213984 -0.5897924,0.332633 -0.143198,0.0913 -0.3007583,0.157858 -0.4390958,0.259017 -0.037451,0.02624 -0.0074,0.0061 -0.06862,0.04179 -0.00641,0.0037 -0.026399,0.01174 -0.019048,0.01167 0.012448,-1.27e-4 0.02354,-0.0087 0.035622,-0.01187 0.1305382,-0.03346 0.092868,-0.02766 0.1852765,-0.03488 0.195501,0.0023 -0.055881,-0.0063 0.027711,0.0052 0.02071,0.0061 0.029587,0.0082 0.051509,0.01677 0.00477,0.0018 -0.00982,-0.0028 -0.014679,-0.0044 -0.018819,-0.0067 -0.03753,-0.01355 -0.056297,-0.02033 0.010969,0.0061 0.012653,0.0058 0.00348,0.004 -0.1116792,-0.05116 -0.2211032,-0.107193 -0.3335698,-0.15626 -0.071352,-0.03194 0.046748,0.02115 -0.1106142,-0.05166 -0.00601,-0.0028 -0.023771,-0.01136 -0.018275,-0.0075 0.01295,0.0088 0.027406,0.01493 0.040794,0.02299 0.00708,0.0043 0.028257,0.01712 0.020617,0.01407 -0.00868,-0.0034 -0.015885,-0.01021 -0.023809,-0.01531 -0.01866,-0.01225 -0.037063,-0.02499 -0.055987,-0.0368 -0.00669,-0.0041 0.025825,0.01831 0.019276,0.01389 -0.1024602,-0.06899 -0.02354,-0.02731 -0.1470553,-0.09939 -0.018912,-0.01104 0.035542,0.026 0.053311,0.039 0.06405,0.05583 -0.00153,-0.0014 -0.00401,-0.0031 -0.00646,-0.0044 0.022779,0.02198 0.016954,0.01663 -0.1105845,-0.101471 0.061836,0.06116 -0.049656,-0.048 -0.070446,-0.07653 -0.1389905,-0.154892 -0.2074126,-0.233363 -0.08955,-0.10264 -0.188121,-0.203612 -0.2479206,-0.268904 -0.02417,-0.02584 -0.048082,-0.05195 -0.072509,-0.07751 -0.0015,-0.0016 0.00233,0.0037 0.00364,0.0054 0.017523,0.02285 0.035333,0.04549 0.05288,0.06833 0.00141,0.0018 -0.00309,-0.0034 -0.00445,-0.0052 -0.00585,-0.0081 -0.011446,-0.01639 -0.017137,-0.02463 -0.012539,-0.01814 -0.025009,-0.03634 -0.037516,-0.0545 0.00753,0.0124 0.030334,0.04955 0.022644,0.03722 C 8.1019653,11.864962 8.0503557,11.774185 7.9983892,11.679855 7.9335359,11.572842 7.8728545,11.463116 7.8082656,11.355927 7.7294994,11.221059 7.6497143,11.08689 7.5716077,10.951591 7.5264137,10.868722 7.4799907,10.785315 7.4544336,10.692894 7.4334056,10.6093 7.4245786,10.525711 7.4198466,10.438918 c 8.55e-5,-0.01503 0.00854,-0.179755 0.00229,-0.189374 -0.0026,-0.0039 -0.003,0.009 -0.00452,0.01362 -0.00669,0.023 -0.013359,0.04603 -0.02005,0.06905 -0.034065,0.08438 -0.030135,0.08398 -0.076703,0.161828 -0.00808,0.01353 -0.021869,0.0317 -0.034507,0.0429 -0.0019,0.0017 -0.00795,0.0061 -0.00641,0.0039 0.00704,-0.0096 0.01552,-0.01799 0.023279,-0.02699 0.1311227,-0.134682 0.2595977,-0.272131 0.3918789,-0.405545 0.023208,-0.02215 0.046892,-0.04379 0.069649,-0.06649 0.00435,-0.0043 0.017409,-0.01531 0.011516,-0.01445 -0.012449,0.0018 -0.021596,0.01463 -0.033815,0.0177 -0.020618,0.0052 0.072071,-0.047489 0.053956,-0.03579 -0.068472,0.0178 -0.065444,0.0198 -0.1420215,0.0263 -0.00726,6.16e-4 -0.026589,0.0043 -0.021802,-0.0016 0.00553,-0.0067 0.021141,0.0055 0.025086,-0.0024 0.0028,-0.0056 -0.1366509,-0.01702 0.034472,3.27e-4 0.1342112,0.01756 0.2681273,0.0406 0.4002235,0.07123 0.1313847,0.03799 0.265463,0.06873 0.3902652,0.127648 0.25086,0.107833 0.5041049,0.209867 0.767299,0.278994 0.3906986,0.102031 0.9556193,-2.3481127 0.5649201,-2.450143 z" /><path
           style="fill:#008000;fill-opacity:1;stroke:#000000;stroke-width:0;stroke-linejoin:bevel;stroke-dasharray:none;stroke-opacity:0.5"
           id="path17037"
           d="m 9.2599451,8.6554561 c 0.1664606,0.035546 0.3341443,0.063837 0.5005529,0.099656 0.1104389,0.024099 0.2198561,0.056736 0.320339,0.1119083 0.0065,0.00416 0.01302,0.00803 0.01923,0.012502 0.0024,0.00175 0.02949,0.02559 0.02349,0.02911 -2.53e-4,4.401e-4 -3.54e-4,0.0016 -7.59e-4,0.00132 -0.0084,-0.00583 -0.002,-0.031409 -0.0045,-0.033316 -9.58e-4,-7.53e-4 -0.0022,0.00111 -0.0033,0.00167 -0.01487,0.00209 0.01558,-0.010353 0.008,-0.01487 -0.0073,-0.00423 -0.01567,-0.00502 -0.02343,-0.00781 -0.01335,-0.00481 -0.02659,-0.00999 -0.03987,-0.014967 C 9.9691008,8.8080605 9.8834559,8.7633261 9.800353,8.7133003 9.7542421,8.6835164 9.7049612,8.6593705 9.6527924,8.6443735 9.6273087,8.6370483 9.599843,8.6321162 9.5738587,8.6269396 9.5189135,8.6180519 9.4636246,8.6105071 9.4092778,8.5979224 9.29274,8.571784 9.2698712,8.6214605 9.2556705,8.7821687 c -0.00146,0.016505 0.052222,0.061895 0.066775,0.075009 0.0329,0.026199 0.064929,0.054294 0.1016933,0.074362 0.028781,0.015725 0.036653,0.017336 0.067284,0.028659 0.086002,0.024446 0.1722182,0.048029 0.2582274,0.07247 0.064806,0.018801 0.131041,0.034905 0.1922105,0.065153 0.00662,0.00337 0.013336,0.00655 0.019867,0.010109 0.013677,0.0075 0.02755,0.015528 0.040688,0.024075 0.0014,8.683e-4 0.005,0.00399 0.0038,0.00305 -0.0038,-0.00273 -0.0075,-0.00561 -0.0112,-0.00846 -0.040478,-0.1220315 -0.05662,-0.084112 0.012541,-0.1859871 0.0033,-0.00479 0.01071,-0.00467 0.01425,-0.00923 0.0013,-0.00172 -0.0041,-0.001 -0.0061,-0.00131 -0.0063,-9.264e-4 -0.01258,-0.00157 -0.018865,-0.00238 -0.012145,-0.00156 -0.02428,-0.00315 -0.036398,-0.00474 C 9.8758116,8.9129121 9.7916823,8.8978752 9.7095722,8.8738291 9.6396047,8.8483958 9.5696626,8.8227291 9.5000801,8.7961028 9.4415708,8.7743231 9.384664,8.7479301 9.3316327,8.7137149 9.3006192,8.6934733 9.2780666,8.6629178 9.254854,8.6337837 9.24129,8.6168627 9.226373,8.6014435 9.210664,8.586805 9.192867,8.570201 9.201204,8.578155 9.219014,8.600381 9.205337,8.658921 9.198168,8.7196363 9.177997,8.7760007 c -0.00327,0.00915 -0.016885,0.00807 -0.025727,0.010744 -0.018206,0.00552 -0.022689,2.066e-4 -0.013768,0.00355 9.584e-4,3.606e-4 -0.00204,-1.289e-4 -0.00303,-1.936e-4 -0.00168,-3.895e-4 -0.00619,-0.00249 -0.00503,-0.00116 0.00172,0.00195 0.00457,0.00221 0.00688,0.00327 0.00373,0.00171 0.00737,0.00358 0.011198,0.005 0.029532,0.01089 0.050812,0.013479 0.08216,0.015603 0.040875,-6.185e-4 0.081533,-0.00679 0.1218948,-0.013332 0.039764,-0.00652 0.0038,-0.2558581 -0.03598,-0.2493588 v 0 c -0.026892,0.00447 -0.053974,0.00839 -0.081115,0.010451 0.010764,0.00564 -2.392e-4,-7.804e-4 8.404e-4,0.00174 5.074e-4,0.00118 0.00437,0.00223 0.00318,0.00195 -0.013768,-0.00337 -0.02574,-0.016676 -0.040253,-0.017116 -0.02866,-0.00755 -0.059067,-0.014626 -0.088772,-0.0087 -0.014406,0.00288 -0.035393,-6.1e-5 -0.042024,0.013844 -0.026772,0.056188 -0.033906,0.1207203 -0.050859,0.1810793 0.0073,0.00974 0.014223,0.019827 0.021938,0.02922 0.010377,0.012649 0.025655,0.020266 0.034631,0.034458 0.040064,0.050189 0.081881,0.099348 0.1358224,0.133183 0.066566,0.041983 0.1368192,0.076469 0.2100317,0.1033232 0.07554,0.028814 0.1513133,0.057134 0.2275481,0.08377 0.093535,0.026695 0.1888971,0.04515 0.2852088,0.056188 0.047667,0.00578 0.098237,0.014772 0.1458868,0.00281 0.01704,-0.0043 0.03662,-0.006 0.04959,-0.018533 0.02694,-0.026058 0.05963,-0.054689 0.06563,-0.092905 0.0064,-0.040427 -0.02169,-0.078655 -0.03256,-0.1179832 -0.0081,-0.00736 -0.01576,-0.015238 -0.02423,-0.0221 -0.02952,-0.024002 -0.06591,-0.038134 -0.0981,-0.057082 C 9.965579,8.8333233 9.8885858,8.8096535 9.8108458,8.788972 9.7295138,8.7658732 9.6481219,8.7430139 9.5665344,8.7209459 c -0.00336,-0.00108 -0.020299,-0.00629 -0.025259,-0.0087 -0.024796,-0.012209 -0.044873,-0.032623 -0.067168,-0.048934 -0.00505,-0.00433 -0.010263,-0.017532 -0.015133,-0.012965 -0.00496,0.00467 0.010787,0.012281 0.0087,0.018997 -0.017705,0.057307 -0.0328,0.1179221 -0.066089,0.1667489 -0.010286,0.01509 -0.034726,0.00486 -0.052153,0.00669 -9.922e-4,1.032e-4 -0.00385,-0.00115 -0.00284,-9.687e-4 0.00454,8.575e-4 0.00904,0.002 0.013541,0.00298 0.056459,0.01255 0.1135135,0.021927 0.1706343,0.030297 0.00724,0.00141 0.043927,0.00839 0.053163,0.010743 0.035795,0.00911 0.068719,0.026734 0.099889,0.047213 0.095895,0.057534 0.1948617,0.1087876 0.2993605,0.1464119 0.060654,0.021535 0.1217068,0.045721 0.1872398,0.036283 0.04963,-0.00713 0.08818,-0.034853 0.122801,-0.070842 0.02039,-0.026505 0.03424,-0.040735 0.04681,-0.073668 0.0222,-0.058218 0.01951,-0.1173436 -0.0039,-0.1742035 -0.0056,-0.01089 -0.01038,-0.022244 -0.01662,-0.032734 -0.03171,-0.053295 -0.07998,-0.092267 -0.131256,-0.122127 -0.120161,-0.064364 -0.248942,-0.1065587 -0.38083,-0.1343148 -0.1669624,-0.035872 -0.3351497,-0.064466 -0.5021731,-0.1 -0.039486,-0.0082 -0.084816,0.2394386 -0.045333,0.2476283 z" /><path
           style="opacity:0.350818;fill:url(#radialGradient30872);fill-opacity:1;stroke:#000000;stroke-width:0;stroke-linejoin:bevel;stroke-dasharray:none;stroke-opacity:0.5"
           id="path30870"
           d="M 9.8148563,8.0596739 C 9.6617924,8.0184002 9.5162847,7.9542953 9.3703242,7.8915779 9.1589101,7.7941462 8.9356876,7.7327911 8.7140433,7.6686606 8.4779141,7.6043033 8.2365318,7.563711 7.9950701,7.5298043 7.7098316,7.4928448 7.4189808,7.5015737 7.1406478,7.5830359 7.0701866,7.6037171 7.0025769,7.634048 6.9335426,7.659554 6.7219315,7.7489621 6.5249124,7.8696043 6.3442722,8.0169077 6.2789655,8.0701637 6.1798029,8.1661082 6.1144748,8.2281934 5.9591858,8.3813788 5.8102879,8.541496 5.6578231,8.6977701 5.4701573,8.894474 5.3071885,9.1198645 5.2027539,9.3789917 c -0.027138,0.067335 -0.046398,0.1379735 -0.069598,0.2069467 -0.074205,0.2715904 -0.081544,0.5538996 -0.083731,0.8343686 0.00166,0.288702 0.038089,0.573113 0.098346,0.854055 0.074352,0.32853 0.2091715,0.634337 0.3646873,0.927049 0.091356,0.163604 0.1878275,0.323864 0.2821059,0.485568 0.071305,0.119026 0.1391815,0.240274 0.210974,0.35901 0.068262,0.13439 0.1496726,0.260206 0.2335926,0.384036 0.057981,0.0901 0.125361,0.171751 0.1959722,0.250947 0.052693,0.05912 0.1030178,0.0988 0.067182,0.07022 0.077141,0.0818 0.1423721,0.14865 0.2108669,0.227346 0.082741,0.0952 0.1662399,0.189672 0.2514184,0.282399 0.1079492,0.121059 0.230044,0.225564 0.355666,0.324736 0.1247396,0.09708 0.1241752,0.07276 0.2484834,0.167184 0.1282443,0.08934 0.2704749,0.150872 0.4103775,0.215553 0.1063858,0.04615 0.2103093,0.09806 0.3152738,0.147774 0.1759548,0.08053 0.3592498,0.13754 0.5467545,0.177414 0.1919692,0.03812 0.3860987,0.03736 0.5801613,0.02823 0.3248877,-0.02639 0.6141043,-0.179906 0.8905703,-0.350296 0.120184,-0.0849 0.240803,-0.143741 0.366978,-0.215456 0.187167,-0.11476 0.381641,-0.214747 0.572345,-0.322627 0.193283,-0.109755 0.386255,-0.234794 0.537909,-0.406036 0.04929,-0.05565 0.09252,-0.117081 0.138773,-0.175606 -0.0027,0.0041 -0.01076,0.01612 -0.0081,0.01221 0.08891,-0.128897 0.124229,-0.188547 0.165172,-0.253216 0.0952,-0.160762 0.172355,-0.332485 0.250065,-0.503253 0.08621,-0.196075 0.174765,-0.395742 0.225586,-0.606431 0.01803,-0.07472 0.0308,-0.150765 0.04619,-0.226146 0.06325,-0.454546 -0.02719,-0.845039 -0.164609,-1.270922 -0.08163,-0.258617 -0.197812,-0.501656 -0.323849,-0.738364 -0.10422,-0.197235 -0.241786,-0.3692412 -0.388671,-0.5314159 -0.09902,-0.1000307 -0.200473,-0.196806 -0.297601,-0.2990262 -0.05489,-0.055778 -0.111389,-0.10838 -0.16756,-0.1625712 0.0077,0.00705 0.0153,0.013868 0.02295,0.02095 0.0014,0.00117 0.0054,0.00504 0.0043,0.00353 -0.0046,-0.00581 -0.0096,-0.011354 -0.0145,-0.016897 -0.09636,-0.1281092 -0.221432,-0.2184523 -0.334376,-0.3255408 -0.07283,-0.059212 -0.140551,-0.1218265 -0.279063,-0.2164084 -0.0042,-0.01111 0.03027,0.021195 0.02299,0.015383 C 10.596706,8.6822802 10.543292,8.642319 10.422427,8.5620186 10.258265,8.4635276 10.078888,8.4016178 9.8930964,8.3710648 c -0.030531,-0.00505 -0.1221066,-0.019167 -0.092029,-0.011598 0.045707,0.011354 0.092733,0.015651 0.1391018,0.023465 -0.105059,-0.033756 -0.2209121,-0.052753 -0.3324239,-0.0664 0.033059,0.00504 0.066067,0.010353 0.099178,0.014894 0.00569,7.746e-4 -0.010969,-0.00353 -0.016544,-0.00504 -0.022808,-0.00631 -0.045635,-0.012627 -0.068646,-0.01817 C 9.520851,8.2839837 9.516766,8.2847407 9.4183612,8.2669577 9.2426111,8.2379454 9.0647538,8.2318899 8.887253,8.229165 8.6128184,8.2231096 8.33712,8.265544 8.0772927,8.3611588 8.0104158,8.3858835 7.9453981,8.4157528 7.8794497,8.4430756 7.5602193,8.5892484 7.2827441,8.8176574 7.0802669,9.1201245 6.9412813,9.3277526 6.9238241,9.4034481 6.8314759,9.6321954 6.7208571,9.9612984 6.6898822,10.309053 6.6790497,10.655704 c -0.013198,0.318598 0.046316,0.629725 0.1733742,0.918653 0.031257,0.07106 0.072643,0.136587 0.1089643,0.20488 0.1722888,0.288856 0.4088182,0.510923 0.6833879,0.685219 0.1202725,0.07635 0.2017391,0.110146 0.3298314,0.171022 0.2863015,0.132551 0.5906469,0.199405 0.8994636,0.234573 0.200501,0.01841 0.401907,0.01792 0.602977,0.01765 0.3389652,-0.0033 0.6451509,-0.07286 0.9437319,-0.256397 0.05946,-0.03655 0.113084,-0.08295 0.169623,-0.124426 0.376212,-0.336704 0.560941,-0.694407 0.586335,-1.226547 0.0047,-0.09655 -0.01457,-0.192743 -0.02184,-0.289115 -0.0245,-0.0997 -0.04226,-0.201545 -0.07348,-0.299079 -0.102339,-0.3197 -0.29611,-0.609629 -0.527619,-0.8378688 C 10.498201,9.799444 10.436215,9.752469 10.377422,9.7015582 10.071245,9.4588876 9.745277,9.3344918 9.3760567,9.2519019 9.0790484,9.1877466 8.7794896,9.2045485 8.4829483,9.258966 8.3375519,9.2916605 8.1941506,9.3319266 8.0487989,9.3644697 7.88321,9.3998648 7.7178663,9.4372788 7.5514171,9.4680079 7.869956,9.4460571 7.9617695,9.4040037 8.3047418,9.6180896 c 0.1318717,0.082319 0.2341898,0.2122967 0.3295938,0.3394316 0.055562,0.074045 0.077074,0.1708458 0.1169157,0.2555978 0.00117,0.0025 0.00582,0.0083 0.00587,0.0055 3.014e-4,-0.01916 -0.00339,-0.03795 -0.00507,-0.05692 -0.0084,-0.02448 0.029425,-0.13091 0.013336,-0.03828 0.00181,0.02941 -2.096e-4,-0.02323 -0.00928,0.03918 -0.00138,0.0095 0.014246,-0.01187 0.02071,-0.01869 -0.015703,0.02068 -0.033283,0.03995 -0.047055,0.06214 -0.00277,0.0045 0.00886,-0.005 0.013245,-0.0075 0.012903,2.33e-4 0.1771611,-0.111535 0.1177144,-0.05893 -0.016682,0.01084 0.057783,0.003 0.06537,0.0028 0.050357,-6.51e-4 0.100717,1.42e-4 0.1510698,6.64e-4 0.1339608,0.0075 0.2662937,-0.01614 0.3984764,-0.03448 0.00503,-5.46e-4 0.02014,-0.002 0.015111,-0.0016 -0.040317,0.0028 -0.080688,0.01312 -0.1209211,0.009 -0.2465191,-0.02475 -0.3224,-0.03399 -0.5227372,-0.1488084 -0.046675,-0.026742 -0.086817,-0.064785 -0.1302627,-0.09713 0.070493,0.095715 0.1402053,0.1922414 0.2143806,0.2852444 0.09033,0.109922 0.1874609,0.213987 0.2910202,0.3116 0.085644,0.08341 0.1712558,0.166556 0.2603016,0.245875 0.1292683,0.106942 0.2561472,0.21714 0.3834563,0.326708 0.084532,0.06939 0.1565584,0.143447 0.2358654,0.220168 0.09626,0.0998 0.201379,0.188684 0.308637,0.274561 0.0079,0.0066 0.0156,0.01311 0.02337,0.01967 0.0096,0.0083 0.01939,0.01641 0.02897,0.02497 0.0082,0.007 0.0331,0.02772 0.02419,0.0217 -0.03284,-0.02219 -0.05891,-0.05646 -0.08561,-0.08552 -0.07049,-0.09163 -0.119133,-0.198874 -0.150374,-0.312129 -0.0055,-0.01967 -0.01701,-0.0803 -0.01347,-0.06006 0.0067,0.03787 0.01518,0.0753 0.02275,0.112973 0.01688,0.114661 4.2e-5,-0.04763 0.0021,0.04231 6.72e-4,-0.01816 0.0011,0.09283 0.0015,0.0696 0.0034,-0.229325 0.04666,-0.387414 0.156356,-0.583446 0.0036,-0.03561 0.195435,-0.191228 0.07283,-0.09579 -0.008,0.0061 0.01574,-0.01235 0.02319,-0.01916 0.0016,-0.0014 -0.0037,0.002 -0.0055,0.003 -0.128836,0.08809 -0.01546,0.01084 -0.01921,0.01286 -0.05646,0.0302 -0.05033,0.03002 -0.144839,0.08878 -0.21605,0.153664 -0.05931,0.03908 -0.04412,0.02998 0.108285,-0.06484 0.152548,-0.08017 0.06743,-0.04138 -0.02123,0.0095 0.04265,-0.01892 0.06426,-0.02762 -0.06651,0.02323 -0.07032,0.02472 -0.0117,0.0038 -0.390765,0.101744 0.172538,2.552303 0.563304,2.450564 v 0 c 0.145356,-0.04206 0.09298,-0.02369 0.159171,-0.04752 0.159837,-0.05774 0.307269,-0.126999 0.450755,-0.223748 0.01341,-0.009 -0.02707,0.01765 -0.04059,0.02636 0.0137,-0.0085 0.03755,-0.0095 0.0411,-0.02603 0.0034,-0.0159 -0.05378,0.03063 -0.0404,0.02295 0.07293,-0.04254 0.147003,-0.08339 0.216238,-0.1327 0.205413,-0.139338 0.397761,-0.30215 0.544974,-0.511192 0.04032,-0.06342 0.0869,-0.122809 0.120964,-0.190271 0.15501,-0.306839 0.213313,-0.586837 0.192085,-0.928684 -0.0084,-0.168577 -0.02285,-0.337308 -0.06267,-0.501291 0.0178,0.109921 -0.0067,-0.04283 -0.01941,-0.09687 -0.04052,-0.171097 -0.103337,-0.331394 -0.190006,-0.481938 -0.02563,-0.04453 -0.0556,-0.08605 -0.08339,-0.1290942 C 12.146991,9.7986165 12.001911,9.6460938 11.835322,9.5182774 11.750134,9.4501357 11.80665,9.5006175 11.69562,9.3924386 11.584639,9.2852186 11.474837,9.176409 11.3566,9.0781725 11.238779,8.9767799 11.121331,8.8743785 11.001349,8.7761242 10.930139,8.7132049 10.86323,8.6433982 10.793038,8.5778047 c -0.01345,-0.012623 -0.09728,-0.090822 0.01406,0.024976 0.01279,0.013381 -0.02339,-0.02886 -0.03534,-0.04304 -0.0662,-0.078687 -0.06219,-0.074247 -0.03341,-0.036782 C 10.668283,8.4351135 10.553017,8.2651507 10.445647,8.1443248 10.332576,8.0216143 10.260876,7.9330883 10.11501,7.8359292 9.8233328,7.6416714 9.4948159,7.5536953 9.1530802,7.6094297 c -0.019276,0.00278 -0.038564,0.00554 -0.057825,0.00858 -0.1316487,0.020437 0.1613676,0.00378 0.034214,0.00278 -0.00975,-7.05e-5 -0.019503,-1.739e-4 -0.029279,-2.622e-4 -0.093072,-9.657e-4 -0.1861856,-0.00219 -0.2792237,0.00171 C 8.577882,7.6350907 8.3358602,7.6694507 8.1032714,7.7491209 8.0455224,7.7713161 7.9868653,7.7910497 7.930029,7.8157748 7.6972672,7.9171177 7.4811543,8.0593787 7.2778073,8.2154133 7.1261571,8.3462472 7.1116309,8.3513431 6.9586539,8.5253454 6.7870001,8.7205866 6.6606097,8.9598873 6.5587075,9.2020335 6.5339882,9.2758508 6.506261,9.3486091 6.4845498,9.4234865 6.3864346,9.761881 6.3692384,10.121433 6.399543,10.472113 c 0.034576,0.276846 0.069608,0.579305 0.2217631,0.817732 0.1066976,0.167189 0.2309329,0.331398 0.389699,0.442296 0.4001478,0.279493 0.5469555,0.227507 0.9502494,0.22077 0.1925563,-0.03622 0.3841076,-0.07842 0.5757471,-0.119633 0.1200493,-0.02692 0.2398631,-0.05498 0.3585054,-0.0881 0.00133,-3.75e-4 -0.00268,-7.15e-4 -0.00401,-0.0011 0.051832,-0.01008 0.078003,-0.0061 0.00416,-0.01311 -0.00833,-8e-4 -0.032819,-0.0033 -0.024609,-0.005 0.011993,-0.0024 0.024339,0.002 0.036533,0.0025 0.00526,2.37e-4 0.01056,-1.4e-4 0.015817,-2.13e-4 0.04845,-0.0013 -0.00877,-0.01892 0.01791,-0.01967 -0.026151,-0.03192 -0.038891,-0.04608 -0.063717,-0.08559 -0.047786,-0.07604 -0.050344,-0.188987 -0.069068,-0.27269 -4.832e-4,-0.04606 -0.00695,-0.09253 -0.00145,-0.138251 0.037727,-0.31307 0.1200546,-0.529973 0.358658,-0.72172 0.070086,-0.04424 0.1016569,-0.06859 0.1884351,-0.09657 0.053016,-0.01716 0.1080722,-0.02608 0.1624599,-0.03729 0.00459,-9.5e-4 0.018683,1.54e-4 0.014064,9.28e-4 -0.078886,0.01311 -0.025923,-0.0015 -0.056505,0.0073 -0.1236541,1.73e-4 -0.2474555,0.0013 -0.3709694,-0.0059 -0.067783,-0.0035 -0.1338698,-0.01338 -0.1966459,-0.04323 -0.0061,-0.0016 -0.012357,-0.0025 -0.018252,-0.0048 -0.010104,-0.0038 -0.030832,-0.02472 -0.029638,-0.01337 0.00159,0.01514 0.021484,0.02019 0.031496,0.03119 0.039349,0.04291 0.06852,0.07654 0.091114,0.130127 0.029412,0.07387 0.056839,0.14948 0.064869,0.229855 0.00216,0.02144 0.00339,0.04316 0.00385,0.06482 1.908e-4,0.0093 -0.00125,0.03689 -0.00193,0.02766 -0.00117,-0.01614 2.656e-4,-0.03249 3.986e-4,-0.04873 0.00122,-0.05313 0.00334,-0.106034 0.00662,-0.159088 0.0016,-0.02587 0.00489,-0.05488 4.23e-4,-0.0531 -0.00625,0.0025 -0.00765,0.0116 -0.011493,0.01742 -0.061927,0.100988 -0.1530519,0.210328 -0.2661911,0.244689 -0.00505,0.0015 0.00835,-0.0069 0.012515,-0.01009 -0.023794,-0.01136 0.02674,0.01489 0.013427,-0.01262 -0.00641,-0.01311 -0.08051,0.0019 0.051442,-0.0078 0.061756,8e-4 0.123529,0.0017 0.1851808,0.0059 0.1096469,0.01235 0.2158461,0.07126 0.3287954,0.06924 -0.021847,-0.0035 -0.025885,-0.0038 -0.04816,-0.0088 -0.00587,-0.0013 -0.011743,-0.0028 -0.017569,-0.0045 -0.00172,-4.77e-4 -0.00681,-0.0022 -0.00505,-0.0018 0.024303,0.0053 0.047119,0.01765 0.071969,0.02019 0.064535,0.01262 0.1291613,0.02472 0.1936077,0.03785 0.011902,0.0024 -0.024059,-0.0032 -0.035977,-0.0059 -0.1024922,-0.02044 -0.2007513,-0.05921 -0.2902292,-0.11653 -0.020435,-0.01462 -0.041075,-0.02889 -0.061292,-0.04385 -0.0032,-0.0024 -0.012061,-0.01059 -0.00892,-0.008 0.074237,0.05831 0.1219679,0.09955 0.2166996,0.166635 0.027492,0.01869 0.059188,0.04118 -0.021732,-0.01967 -0.00892,-0.0069 0.016726,0.01513 0.026014,0.0212 0.00566,0.0038 -0.020322,-0.01841 -0.015111,-0.01387 0.026817,0.0227 0.1054937,0.102148 0.080412,0.06816 0.1378069,0.116807 0.059974,0.05336 0.040804,0.03163 -0.005,-0.0059 0.020823,0.02144 0.016748,0.01514 -0.0073,-0.0116 -0.019025,-0.01943 -0.026676,-0.03091 -0.015133,-0.02246 0.072666,0.08851 0.053138,0.0608 0.078613,0.08994 0.157583,0.171678 0.2286027,0.23601 0.085759,0.09004 0.1893544,0.197337 0.2668188,0.266075 0.0053,0.0053 0.01038,0.01084 0.0156,0.01614 0.02909,0.0298 -0.01331,-0.02564 0.01196,0.0061 0.05522,0.100006 0.107415,0.202102 0.141886,0.312627 0.01491,0.04485 0.02454,0.09215 0.04494,0.134516 0.0106,0.02194 0.0061,-0.219789 0.0254,-0.133584 0.0063,-0.02068 0.01158,-0.0418 0.01872,-0.06221 0.002,-0.0055 -0.0015,0.01188 -0.0032,0.01765 -0.02182,0.07634 -0.0536,0.14963 -0.08732,0.220619 -0.02867,0.06307 -0.05754,0.125914 -0.0873,0.188429 -0.0079,0.01641 -0.03615,0.06176 -0.02347,0.04925 0.0072,-0.007 0.01085,-0.0169 0.01632,-0.02554 0.03144,-0.03718 -0.05324,0.06951 -0.06772,0.107297 -0.0046,0.01188 0.02969,-0.04042 0.02239,-0.0302 -0.01448,0.02019 -0.02933,0.04032 -0.04401,0.06045 0.07229,-0.08636 0.128017,-0.158408 0.211251,-0.206417 0.005,-0.0028 -0.0091,0.0071 -0.01373,0.01059 -0.02689,0.01538 -0.05377,0.03065 -0.08065,0.04599 -0.1959398,0.112216 -0.3971143,0.213987 -0.5897932,0.332643 -0.143198,0.0913 -0.3007582,0.157854 -0.4390958,0.259015 -0.037451,0.02623 -0.0074,0.0061 -0.06862,0.0418 -0.00641,0.0038 -0.026399,0.01187 -0.019048,0.0116 0.012448,-1.28e-4 0.02354,-0.0088 0.035622,-0.01187 0.130536,-0.03345 0.092868,-0.02768 0.1852764,-0.0349 0.1955012,0.0023 -0.055881,-0.0064 0.027711,0.0053 0.02071,0.0061 0.029587,0.0083 0.051509,0.01665 0.00477,0.0018 -0.00982,-0.0028 -0.014679,-0.0045 -0.01882,-0.0066 -0.03753,-0.01362 -0.056297,-0.02044 0.010969,0.0061 0.012653,0.0059 0.00348,0.004 -0.1116791,-0.05115 -0.2211032,-0.107196 -0.3335697,-0.156264 -0.071353,-0.03194 0.046748,0.0212 -0.1106142,-0.05166 -0.00601,-0.0028 -0.023771,-0.01136 -0.018275,-0.0075 0.01295,0.0088 0.027406,0.01489 0.040794,0.02295 0.00708,0.0043 0.028257,0.01716 0.020617,0.01414 -0.00868,-0.0035 -0.015885,-0.01009 -0.023808,-0.01538 -0.018661,-0.01235 -0.037062,-0.02497 -0.055987,-0.03681 -0.00669,-0.004 0.025825,0.01841 0.019276,0.01387 -0.1024602,-0.069 -0.02354,-0.02731 -0.1470555,-0.0994 -0.018912,-0.01111 0.03554,0.02601 0.053312,0.039 0.06405,0.05583 -0.00153,-0.0014 -0.00401,-0.003 -0.00646,-0.0043 0.022779,0.02195 0.016954,0.01665 -0.1105845,-0.101468 0.061836,0.06117 -0.049658,-0.04799 -0.070446,-0.07655 -0.1389897,-0.154917 -0.2074119,-0.233402 -0.08955,-0.102629 -0.1881209,-0.203616 -0.2479205,-0.268905 -0.02417,-0.02584 -0.048082,-0.05194 -0.072509,-0.0775 -0.0015,-0.0016 0.00233,0.0038 0.00364,0.0055 0.017523,0.02295 0.035333,0.04548 0.052879,0.06831 0.00141,0.0018 -0.00309,-0.0032 -0.00445,-0.0053 -0.00585,-0.008 -0.011446,-0.01641 -0.017136,-0.02472 -0.012539,-0.01816 -0.025009,-0.03635 -0.037516,-0.05453 0.00753,0.01235 0.030334,0.04956 0.022644,0.03724 C 8.1019756,11.864871 8.0503672,11.774075 7.9984007,11.679748 7.9335482,11.57273 7.8728656,11.463012 7.8082763,11.35582 7.7295113,11.220949 7.6497246,11.086782 7.5716185,10.951486 c -0.045193,-0.08287 -0.091618,-0.166281 -0.117175,-0.258699 -0.021028,-0.08358 -0.029855,-0.167188 -0.034587,-0.253975 8.53e-5,-0.01513 0.00854,-0.17975 0.00229,-0.189364 -0.0026,-0.004 -0.003,0.009 -0.00452,0.01362 -0.00669,0.02296 -0.013358,0.04604 -0.02005,0.06905 -0.034065,0.08436 -0.030135,0.08399 -0.076703,0.161841 -0.00808,0.01362 -0.02187,0.03171 -0.034507,0.04291 -0.0019,0.0017 -0.00795,0.0061 -0.00641,0.0038 0.00704,-0.0095 0.01552,-0.01792 0.023279,-0.02699 0.1311233,-0.134667 0.2595984,-0.272132 0.3918796,-0.405546 0.023208,-0.02219 0.046891,-0.0438 0.069649,-0.06648 0.00435,-0.0043 0.017408,-0.01538 0.011516,-0.01438 -0.012448,0.0018 -0.021596,0.01463 -0.033816,0.01765 -0.020617,0.0053 0.072072,-0.047479 0.053956,-0.0358 -0.068472,0.01792 -0.065444,0.01992 -0.1420216,0.02632 -0.00726,6.15e-4 -0.02659,0.0043 -0.021802,-0.0016 0.00553,-0.0068 0.021141,0.0055 0.025086,-0.0024 0.0028,-0.0055 -0.1366509,-0.0169 0.034472,3.28e-4 0.1342114,0.01765 0.2681273,0.04059 0.4002234,0.07124 0.1313849,0.038 0.2654631,0.06875 0.3902653,0.127655 0.2508669,0.107827 0.5041122,0.209851 0.7673063,0.278985 0.3906985,0.102024 0.9556195,-2.3481113 0.5649202,-2.4501421 z" /><path
           style="mix-blend-mode:normal;fill:#c83737;fill-opacity:1;stroke:#000000;stroke-width:0;stroke-linejoin:bevel;stroke-dasharray:none;stroke-opacity:0.5;filter:url(#filter11421)"
           id="path17104"
           d="m 6.7215966,8.3738378 c 0.032426,0.018412 0.06143,0.04202 0.091452,0.063964 0.060201,0.043582 0.125745,0.078811 0.1926573,0.1108008 0.037348,0.017037 0.076105,0.030927 0.115898,0.041038 0.020485,0.0052 0.03639,0.00818 0.056951,0.012349 0.04688,0.00888 0.094297,0.01373 0.1418912,0.016382 0.032398,0.00184 0.064559,-0.00135 0.096519,-0.00627 0.018915,-0.0025 0.037701,-0.00584 0.056665,-0.00797 0.017268,-0.00326 0.037829,-0.00762 0.052112,-0.018565 0.00588,-0.00451 0.01084,-0.010106 0.016261,-0.015159 0.00395,-0.00731 0.00981,-0.013881 0.011857,-0.021938 0.00287,-0.011294 0.0034,-0.02324 0.00257,-0.034862 -6.846e-4,-0.00956 -0.00411,-0.018763 -0.00706,-0.027888 -0.008,-0.024775 -0.021343,-0.047548 -0.033797,-0.070236 -0.0176,-0.030301 -0.035411,-0.061048 -0.059235,-0.087016 -0.00437,-0.00476 -0.00912,-0.00916 -0.013681,-0.013735 -0.022273,-0.02256 -0.049629,-0.037738 -0.077967,-0.051187 -0.025638,-0.011937 -0.051527,-0.023294 -0.077118,-0.035332 -0.02824,-0.01397 -0.057125,-0.026498 -0.086123,-0.038797 -0.031935,-0.014471 -0.065128,-0.025836 -0.098881,-0.035193 -0.029435,-0.00775 -0.059363,-0.013661 -0.089772,-0.015366 -0.027729,-3.32e-5 -0.054434,0.00801 -0.081129,0.014528 -0.02349,0.00567 -0.046739,0.012294 -0.07018,0.018134 -0.018546,0.00353 -0.036958,0.00778 -0.055568,0.010961 -0.023516,0.00449 -0.0501,0.015111 -0.059277,0.03977 -0.00332,0.00891 -0.00322,0.01875 -0.00482,0.028126 0.00207,0.00759 0.00307,0.015554 0.00621,0.022769 0.012362,0.028465 0.04532,0.043633 0.071511,0.05588 0.02322,0.00984 0.046618,0.019246 0.069829,0.029099 0.015624,0.00662 0.054662,-0.085441 0.039038,-0.092066 v 0 c -0.02226,-0.00943 -0.044656,-0.018529 -0.066969,-0.027833 -0.00416,-0.00188 -0.00835,-0.0037 -0.01248,-0.00565 -0.00254,-0.0012 -0.00504,-0.00248 -0.00753,-0.00378 -0.00132,-6.917e-4 -0.00247,-0.00177 -0.00391,-0.00219 -0.00333,-9.826e-4 0.014904,0.024532 0.00422,0.019863 -0.00172,0.0065 -0.00234,0.013397 -0.00516,0.019501 -0.00197,0.00427 -0.00544,0.00776 -0.0089,0.010936 -0.00678,0.00622 -0.018152,0.00728 -0.00467,0.00411 0.021039,-0.00368 0.041912,-0.00826 0.062843,-0.012503 0.023209,-0.00587 0.046279,-0.012288 0.069538,-0.017975 0.017562,-0.00429 0.035036,-0.0094 0.052985,-0.011773 0.022957,3.91e-4 0.045484,0.00693 0.067736,0.0119 0.029524,0.00799 0.058417,0.018222 0.086303,0.030823 0.027817,0.011792 0.055531,0.023777 0.082598,0.037222 0.02557,0.012027 0.051425,0.023399 0.077052,0.035301 0.01828,0.00853 0.036149,0.01743 0.050488,0.032036 0.023333,0.022066 0.039582,0.049984 0.055416,0.077658 0.00535,0.0097 0.014154,0.02527 0.019073,0.035543 0.00234,0.00488 0.00425,0.00995 0.00646,0.014895 0.00101,0.00227 8.896e-4,0.00763 0.0032,0.00672 0.00596,-0.00234 0.00178,-0.015249 0.0101,-0.01635 0.0022,-0.00138 0.00431,-0.00293 0.00661,-0.00415 3.267e-4,-1.733e-4 0.00142,-1.518e-4 0.00111,5.25e-5 -0.00353,0.00234 -0.00817,0.00319 -0.012171,0.00436 -0.020272,0.00232 -0.040378,0.00575 -0.060593,0.00849 -0.025104,0.00387 -0.050304,0.00674 -0.075781,0.00525 C 7.2831658,8.5161796 7.240534,8.511872 7.198363,8.5039712 7.1466715,8.4935581 7.0966799,8.4812274 7.0487944,8.4583621 6.987426,8.4290995 6.9272644,8.396929 6.8720267,8.3570457 6.8388576,8.3328434 6.8067631,8.3068931 6.7708165,8.2867896 c -0.014773,-0.00835 -0.063992,0.078695 -0.04922,0.087048 z"
           transform="matrix(2.3705114,0,0,2.5228281,-7.18667,-12.233489)" /><path
           style="fill:#c83737;fill-opacity:1;stroke:#000000;stroke-width:0;stroke-linejoin:bevel;stroke-dasharray:none;stroke-opacity:0.5"
           id="path17106"
           d="m 9.2653915,9.1518077 c 0.085695,0.048629 0.172637,0.09571 0.2646457,0.1294811 0.021323,0.00781 0.0431,0.014284 0.064651,0.021413 0.1037642,0.031615 0.2114609,0.042532 0.3186878,0.050842 0.06169,0.0045 0.123518,0.00583 0.185334,0.00619 0.04089,7.91e-5 0.08177,-1.03e-4 0.122663,-1.988e-4 0.04994,0.00268 0.09824,-0.00479 0.145767,-0.020682 0.03913,-0.017458 0.0818,-0.033692 0.11148,-0.067797 0.0097,-0.011207 0.01713,-0.024471 0.02571,-0.036718 0.0056,-0.017532 0.01434,-0.034287 0.01673,-0.052631 0.01071,-0.082158 -0.0333,-0.1356515 -0.0873,-0.1839215 -0.0036,-0.00327 -0.0075,-0.00638 -0.01081,-0.00982 -9.87e-4,-0.00102 0.0027,0.00129 0.0035,0.00251 0.0081,0.012453 0.0225,0.023245 0.02259,0.038321 6.13e-4,0.098255 -0.0026,0.1178075 -0.06727,0.1543354 0.03983,-0.00603 0.0065,-0.2557992 -0.03342,-0.2497627 v 0 c -0.03122,0.00622 -0.0762,0.011305 -0.09431,0.04432 -0.05414,0.09874 -0.03937,0.1541376 0.02868,0.2144965 0.0031,0.00261 0.0062,0.00542 0.0092,0.00788 9.36e-4,7.27e-4 0.0031,0.00296 0.0031,0.00172 1.06e-4,-0.00268 -0.0022,-0.00486 -0.0029,-0.00743 -0.0023,-0.0082 -0.0057,-0.016262 -0.0063,-0.024801 -0.0023,-0.033845 0.0024,-0.035483 0.0148,-0.064627 0.01218,-0.014112 0.0109,-0.015725 0.02388,-0.022904 7.12e-4,-3.941e-4 -9.88e-4,0.00139 -0.0017,0.00184 -0.0097,0.00616 -0.02052,0.00994 -0.03051,0.015505 -0.0035,0.00145 -0.0066,0.00425 -0.01017,0.00495 -0.02031,0.00394 -0.04099,0.00263 -0.06148,0.00291 -0.0403,9.4e-5 -0.08061,2.723e-4 -0.120921,2.015e-4 -0.05652,-3.047e-4 -0.1130503,-0.00145 -0.1694588,-0.00552 C 9.8410484,9.0950653 9.7511069,9.0868612 9.664357,9.0615553 9.6166168,9.0461725 9.607507,9.0444146 9.5604858,9.0241728 9.4958459,8.9963154 9.4341486,8.9613354 9.3725424,8.9267707 9.3366609,8.9074323 9.2294807,9.1324356 9.2653622,9.1517935 Z" /><path
           style="fill:#c83737;fill-opacity:1;stroke:#000000;stroke-width:0;stroke-linejoin:bevel;stroke-dasharray:none;stroke-opacity:0.5"
           id="path17108"
           d="m 10.596518,9.0183695 c -0.04865,-0.030275 -0.118276,-0.076362 -0.177181,-0.065951 -0.0242,0.0043 -0.04633,0.017166 -0.06951,0.025745 -0.01634,0.020167 -0.03648,0.037429 -0.04903,0.060461 -0.02422,0.044498 -0.01925,0.1161105 -9.41e-4,0.1621318 0.0044,0.010865 0.01038,0.020851 0.01557,0.031281 0.03387,0.052189 0.07841,0.074845 0.135697,0.082828 0.02685,0.0022 0.05382,0.00152 0.08072,0.00127 0.0033,-3.09e-5 0.01298,2.036e-4 0.0097,-9.23e-5 -0.02902,-0.00263 -0.02648,-0.00205 -0.0061,0.00967 0.03087,0.017677 0.0073,0.00469 0.04491,0.02475 0.06519,0.02954 0.132397,0.055939 0.20199,0.070849 0.108822,-0.021315 0.110799,0.00313 0.142321,-0.1622514 0.0038,-0.019704 -0.01302,-0.037907 -0.022,-0.055604 -0.0172,-0.03393 -0.05191,-0.070062 -0.07655,-0.098408 -0.03823,-0.042053 -0.07771,-0.082861 -0.114552,-0.1263193 -0.01131,-0.016189 -0.02107,-0.033486 -0.03187,-0.05009 -7.06e-4,-0.00114 -0.0014,-0.00232 -0.0022,-0.00347 -0.0132,-0.020486 -0.0043,-0.0071 -0.0029,-0.00462 0.0032,0.00559 0.0076,0.018265 -0.0043,-0.011915 -0.0045,-0.015603 -0.01364,-0.032453 -0.02069,-0.048219 -0.01833,-0.03812 -0.229373,0.076743 -0.211055,0.1148627 v 0 c 0.002,0.00401 0.0038,0.00812 0.006,0.012013 7.38e-4,0.00134 -0.0023,-0.00571 -0.0016,-0.00433 0.0035,0.00762 0.0037,0.00894 0.01038,0.026922 -0.0018,-0.00899 4.92e-4,0.00291 0.0069,0.017946 0.006,0.014138 0.01008,0.021097 0.0177,0.033656 0.003,0.00495 0.0069,0.00927 0.0094,0.014552 0.01455,0.023636 0.03056,0.050415 0.04902,0.072581 0.03768,0.043728 0.07685,0.085926 0.116074,0.1280821 0.05641,0.064307 -0.0088,-0.010498 0.03741,0.043834 0.0021,0.00242 0.0062,0.010206 0.0065,0.00698 7.84e-4,-0.00788 -0.0079,-0.015993 -0.0049,-0.023293 0.05775,-0.1422758 0.02943,-0.1191601 0.131727,-0.1314686 -0.0112,9.574e-4 -0.0024,5.903e-4 -0.02669,-0.00715 -0.03747,-0.011939 -0.07468,-0.024951 -0.110732,-0.041155 -0.04983,-0.026072 -0.09784,-0.062896 -0.156124,-0.060618 -0.01759,1.666e-4 -0.03516,2.606e-4 -0.05274,2.268e-4 0.01693,0.00942 0.03187,0.016359 0.04076,0.036479 0.01455,0.041499 -0.01446,0.067201 -0.04456,0.093026 -0.04236,0.00996 -0.03586,0.016236 -0.06617,0.00573 -0.0016,-5.606e-4 0.0035,-2.81e-4 0.0052,2.881e-4 0.01759,0.00622 0.0333,0.017116 0.04957,0.026246 0.03308,0.024344 0.167922,-0.183145 0.134832,-0.2074986 z" /><path
           style="mix-blend-mode:normal;fill:#c83737;fill-opacity:1;stroke:#000000;stroke-width:0;stroke-linejoin:bevel;stroke-dasharray:none;stroke-opacity:0.5;filter:url(#filter11417)"
           id="path17110"
           d="m 7.4954442,8.6168181 c 0.025165,-0.00854 0.051269,-0.013127 0.077319,-0.017913 0.018539,-0.00345 0.037281,-0.00559 0.056096,-0.00671 0.00826,-0.00132 0.015561,4.021e-4 0.023373,0.00203 0.015147,0.00456 0.030757,0.00703 0.046462,0.00858 0.013434,0.00103 0.026909,0.00128 0.040377,0.00135 0.017897,-3.09e-5 0.044559,0.00174 0.05208,-0.021201 0.018532,-0.056537 0.002,-0.062224 -0.025043,-0.07989 -0.033024,-0.020117 -0.067328,-0.038032 -0.1019993,-0.055114 -0.017177,-0.0095 -0.036152,-0.015539 -0.053291,-0.025098 -0.00358,-0.002 -0.00671,-0.00472 -0.010065,-0.00709 -0.012768,-0.010193 -0.023107,-0.023217 -0.033697,-0.035596 -0.013341,-0.015702 -0.028485,-0.029563 -0.045178,-0.041587 -0.015276,-0.00951 -0.031907,-0.016505 -0.048557,-0.023197 -0.00545,-0.00226 -0.010968,-0.00439 -0.016527,-0.00637 -0.00637,-0.00228 -0.00425,-7.968e-4 -0.00642,-0.00238 -0.015635,-0.0066 -0.05452,0.085531 -0.038885,0.09213 v 0 c 0.00819,0.0033 0.016561,0.00608 0.024712,0.00948 0.00939,0.00372 0.018612,0.00792 0.027836,0.011915 0.010235,0.007 0.018971,0.015795 0.027117,0.025118 0.016157,0.018799 0.032224,0.038121 0.052545,0.052617 0.00934,0.00642 0.012714,0.00904 0.023177,0.014792 0.017135,0.00942 0.035879,0.015694 0.053078,0.024993 0.032279,0.015868 0.064205,0.032545 0.094932,0.051275 0.021278,-0.00942 -0.037598,0.016938 -0.0039,-0.065762 0.00871,-0.021373 0.060837,-0.018954 0.028581,-0.01903 -0.010531,-4.88e-5 -0.021067,-2.216e-4 -0.031578,-9.218e-4 -0.012022,-9.926e-4 -0.023737,-0.00361 -0.035335,-0.00691 -0.016481,-0.00344 -0.033024,-0.00563 -0.049898,-0.00395 -0.022824,0.00142 -0.045568,0.00397 -0.068061,0.00817 -0.030291,0.00557 -0.060586,0.01121 -0.089856,0.021067 -0.016156,0.0052 0.014458,0.1003941 0.030613,0.095199 z"
           transform="matrix(2.3705114,0,0,2.5228281,-7.18667,-12.233489)" /><path
           style="mix-blend-mode:normal;fill:#c83737;fill-opacity:1;stroke:#000000;stroke-width:0;stroke-linejoin:bevel;stroke-dasharray:none;stroke-opacity:0.5;filter:url(#filter11413)"
           id="path17112"
           d="m 6.8652307,8.178156 c -0.030435,0.00999 -0.060891,0.019923 -0.091724,0.028616 -0.02038,0.00662 -0.041215,0.011357 -0.062067,0.016107 -0.010496,0.00269 -0.021357,0.0028 -0.032117,0.00312 -0.017805,3.458e-4 -0.035614,2.892e-4 -0.053421,2.753e-4 -0.015364,-3.99e-4 -0.030802,8.495e-4 -0.046101,-8.997e-4 -0.00833,-0.0036 0.021736,0.00938 0.021741,0.00959 0.00187,0.088828 -0.053455,0.089992 -0.00455,0.087079 0.00592,-3.523e-4 0.011834,-6.73e-4 0.017751,-0.00101 0.029867,-0.00168 0.059646,0.00113 0.08933,0.00405 0.00411,0.00151 0.023533,0.00126 0.025748,0.00602 0.00963,0.00777 0.020628,0.01362 0.030412,0.021157 5.995e-4,5.479e-4 0.00236,0.00223 0.0018,0.00164 -0.012219,-0.012877 -0.016678,-0.013114 -0.015423,-0.040379 9.398e-4,-0.020406 0.00834,-0.019114 0.01684,-0.029423 -0.00751,0.0021 -0.014632,9.483e-4 -0.022092,-5.069e-4 -0.015207,-0.00374 -0.028786,-0.012218 -0.042536,-0.019459 -0.021854,-0.011647 -0.045356,-0.019019 -0.069054,-0.02579 -0.019325,-0.00555 -0.038948,-0.00971 -0.058724,-0.013238 -0.017034,-0.00344 -0.034465,-0.0037 -0.05158,-0.00646 -0.00735,-0.00293 -0.016263,-0.00548 -0.024565,-0.00737 -0.00663,-0.00144 -0.013416,-0.0014 -0.020099,-0.00239 -0.016834,-0.00215 -0.029504,0.097044 -0.01267,0.099194 v 0 c 0.00413,4.948e-4 0.00835,0.00122 0.012535,0.00113 0.00981,0.00172 0.019033,0.00758 0.029259,0.00823 0.016472,0.00255 0.033122,0.0033 0.049556,0.00612 0.016443,0.00293 0.032768,0.00631 0.048836,0.010951 0.017085,0.00487 0.03414,0.00969 0.049915,0.018115 0.023252,0.012241 0.046567,0.025124 0.072819,0.029637 0.025592,0.00392 0.048743,0.00414 0.07349,-0.00451 0.00963,-0.00409 0.022795,-0.00855 0.029619,-0.017047 0.00713,-0.00888 0.015233,-0.018429 0.016912,-0.029696 0.00402,-0.026974 -0.00656,-0.044208 -0.025194,-0.059005 -0.013328,-0.00975 -0.027305,-0.018585 -0.040889,-0.027969 -0.00379,-0.00199 -0.00747,-0.00418 -0.011356,-0.00598 -0.016894,-0.00779 -0.035553,-0.010078 -0.053785,-0.01249 -0.034818,-0.00342 -0.069765,-0.0064 -0.1047862,-0.00436 -0.00783,4.464e-4 -0.023193,0.00128 -0.031763,0.00189 -0.00429,3.059e-4 -0.011168,-0.00293 -0.012868,0.00102 -0.026913,0.062572 -0.053114,0.091514 0.00515,0.1007377 0.018713,0.00182 0.037463,0.00145 0.056247,0.00142 0.018847,1.46e-5 0.037697,7.42e-5 0.05654,-3.216e-4 0.017302,-5.43e-4 0.034675,-0.00138 0.051544,-0.00563 0.022407,-0.00526 0.044894,-0.010172 0.06682,-0.017327 0.031521,-0.00894 0.062721,-0.018946 0.093827,-0.029236 0.016224,-0.00498 -0.013101,-0.1005802 -0.029325,-0.095604 z"
           transform="matrix(2.3705114,0,0,2.5228281,-7.18667,-12.233489)" /><path
           style="fill:#c83737;fill-opacity:1;stroke:#000000;stroke-width:0;stroke-linejoin:bevel;stroke-dasharray:none;stroke-opacity:0.5"
           id="path17114"
           d="m 8.4080084,8.6333157 c 0.085931,0 0.171863,0 0.2577917,0 0.058549,-0.00129 0.1172456,0.00228 0.1757478,-0.00158 0.025582,-0.00169 0.047403,-0.00459 0.072669,-0.00762 0.04196,-0.00688 0.022075,-0.00332 0.059712,-0.010451 0.039605,-0.00753 -0.002,-0.2558812 -0.0416,-0.2483676 v 0 c -0.029529,0.00561 -0.01461,0.00293 -0.044797,0.00815 -0.014087,0.00172 -0.041109,0.00518 -0.05538,0.00622 -0.055341,0.00401 -0.1109556,-2.669e-4 -0.1663513,0.00138 -0.085931,0 -0.1718633,0 -0.2577917,0 -0.040231,0 -0.040231,0.2522829 0,0.2522829 z" /><path
           style="fill:#c83737;fill-opacity:1;stroke:#000000;stroke-width:0;stroke-linejoin:bevel;stroke-dasharray:none;stroke-opacity:0.5"
           id="path17116"
           d="m 9.1899549,8.2830231 c -0.040276,-0.041151 -0.07461,-0.086993 -0.104324,-0.1371334 -0.01436,-0.02671 -0.029433,-0.052948 -0.044699,-0.079068 -0.021278,-0.036335 -0.222455,0.097103 -0.2011792,0.1334393 v 0 c 0.015771,0.026852 0.031039,0.053993 0.046043,0.081333 0.045041,0.074519 0.097025,0.1437823 0.160275,0.2019218 0.031971,0.025988 0.1758572,-0.1745064 0.1438842,-0.2004927 z" /><path
           style="fill:#c83737;fill-opacity:1;stroke:#000000;stroke-width:0;stroke-linejoin:bevel;stroke-dasharray:none;stroke-opacity:0.5"
           id="path17118"
           d="m 8.5820047,8.042391 c 0.035139,0.060622 0.085831,0.1078185 0.1349395,0.1551777 0.040328,0.04094 0.085097,0.076333 0.1304039,0.1106876 0.013198,0.00999 0.015771,0.011402 0.026551,0.021047 0.00268,0.00238 0.00535,0.00476 0.00783,0.00738 7.236e-4,7.595e-4 0.00255,0.0033 0.00174,0.00268 -0.00556,-0.00428 -0.0074,-0.00803 -0.0114,-0.013894 0.00298,0.020486 0.00926,0.040392 0.013996,0.060534 0.00975,0.041536 0.2397295,-0.019656 0.2299705,-0.061199 v 0 c -0.00781,-0.033009 -0.015545,-0.06614 -0.025918,-0.098339 -0.00523,-0.011207 -0.00958,-0.022952 -0.015748,-0.033606 C 9.0524316,8.1549725 9.0183669,8.1280383 8.9848557,8.102767 8.947081,8.074162 8.9095564,8.0449665 8.876119,8.0106295 8.844507,7.9801576 8.8107488,7.9507176 8.7858272,7.9135722 8.7652774,7.8767605 8.5614767,8.0056068 8.5820219,8.0424159 Z" /><path
           style="mix-blend-mode:normal;fill:#ff5966;fill-opacity:1;stroke:#000000;stroke-width:0;stroke-linejoin:bevel;stroke-dasharray:none;stroke-opacity:0.5;filter:url(#filter11401)"
           id="path17250"
           d="m 5.7640094,9.2555969 c 0.00604,-0.04917 0.014224,-0.098051 0.021681,-0.1470195 0.00933,-0.06653 0.025889,-0.131608 0.046648,-0.1954062 0.012646,-0.035718 0.030601,-0.069556 0.05294,-0.10017 0.014504,-0.019876 0.019846,-0.025018 0.036204,-0.04348 0.039569,-0.042296 0.079521,-0.084298 0.121503,-0.1242211 0.022037,-0.0202 0.044941,-0.039247 0.069314,-0.056515 0.00923,-0.0074 0.018603,-0.014819 0.025621,-0.024478 0.00233,-0.0032 0.00409,-0.0068 0.00638,-0.01004 0.00893,-0.01702 0.016674,-0.041836 7.04e-4,-0.059325 -0.012331,-0.013504 -0.031496,-0.019738 -0.049226,-0.024218 -0.00723,-0.00183 -0.01429,0.00424 -0.021435,0.00637 -0.015751,0.00785 0.030544,0.1006679 0.046295,0.092812 v 0 c -0.00574,0.00142 -0.011577,0.00605 -0.017212,0.00426 -0.016686,-0.00528 -0.034971,-0.011237 -0.046482,-0.024421 -0.012158,-0.013926 -0.00908,-0.036014 -7.502e-4,-0.050192 -0.00509,0.00837 -0.00263,0.00398 -2.697e-4,0.00124 0.00158,-0.00183 0.00498,-0.00446 -0.00218,0.00193 -5.02e-4,4.476e-4 -9.437e-4,9.586e-4 -0.00141,0.00144 -0.028443,0.020163 -0.055199,0.042396 -0.080863,0.066022 -0.044147,0.042081 -0.086314,0.086195 -0.1278582,0.130832 -0.019944,0.022804 -0.026759,0.02948 -0.044427,0.054154 -0.027665,0.038634 -0.049839,0.081158 -0.065504,0.1260139 -0.022356,0.06918 -0.040404,0.1396773 -0.050522,0.2117784 -0.00773,0.05074 -0.016238,0.1013866 -0.022353,0.1523538 -0.00174,0.017515 0.1014613,0.027795 0.1032069,0.010278 z"
           transform="matrix(2.3705114,0,0,2.5228281,-7.18667,-12.233489)" /><path
           style="fill:#ff5966;fill-opacity:1;stroke:#000000;stroke-width:0;stroke-linejoin:bevel;stroke-dasharray:none;stroke-opacity:0.5;filter:url(#filter13285)"
           id="path17248"
           d="m 5.9819383,8.1460489 c -0.0459,0.010889 -0.090699,0.028138 -0.1301122,0.054265 -0.012681,0.00841 -0.02434,0.018239 -0.036511,0.027359 -0.030983,0.02962 -0.041051,0.036569 -0.066414,0.071829 -0.039865,0.05542 -0.06518,0.1192712 -0.090419,0.1820387 -0.026029,0.073044 -0.047829,0.1477919 -0.063913,0.2236387 -0.00315,0.014851 -0.00576,0.02981 -0.00864,0.044714 -0.010641,0.061898 -0.016516,0.1245099 -0.019411,0.1872055 -1.459e-4,0.00465 -2.92e-4,0.00931 -4.379e-4,0.013962 -5.425e-4,0.017527 0.1035732,0.020698 0.1041159,0.00317 v 0 c 1.266e-4,-0.00414 2.531e-4,-0.0083 3.797e-4,-0.012445 0.00262,-0.057772 0.00802,-0.1154661 0.017671,-0.1725236 0.00263,-0.01369 0.00499,-0.02743 0.00786,-0.04107 0.01491,-0.070665 0.035177,-0.1403021 0.059143,-0.2084346 0.021294,-0.053155 0.042069,-0.1081895 0.07495,-0.1556729 0.01849,-0.026702 0.025911,-0.03202 0.048656,-0.054547 0.00851,-0.00667 0.016605,-0.013912 0.025534,-0.020028 0.030496,-0.020888 0.065445,-0.034448 0.1013264,-0.04287 0.01721,-0.00401 -0.00657,-0.1045964 -0.023786,-0.1005925 z"
           transform="matrix(2.2757305,0,0,2.4417059,-6.3961472,-10.859041)" /><path
           style="mix-blend-mode:normal;fill:#de8787;fill-opacity:1;stroke:#000000;stroke-width:0;stroke-linejoin:bevel;stroke-dasharray:none;stroke-opacity:0.5;filter:url(#filter11409)"
           id="path17252"
           d="m 6.6504679,7.8848622 c 0.087323,0.032607 0.174758,0.065168 0.2630713,0.097692 0.047641,0.017539 0.1444151,0.00757 0.096772,-0.00998 v 0 C 6.9177955,7.9385141 6.826604,7.9043931 6.7346243,7.8702852 6.6862967,7.8528346 6.6021408,7.8674106 6.650468,7.8848632 Z"
           transform="matrix(2.3705114,0,0,2.5228281,-7.18667,-12.233489)" /><path
           style="mix-blend-mode:normal;fill:#de8787;fill-opacity:1;stroke:#000000;stroke-width:0;stroke-linejoin:bevel;stroke-dasharray:none;stroke-opacity:0.5;filter:url(#filter11405)"
           id="path17254"
           d="m 6.3859473,8.0420139 c -0.1037069,0.00313 -0.2073997,0.00649 -0.3108311,0.010687 -0.1132888,0.00529 -0.2246955,0.014621 -0.3354015,0.024616 -0.032276,0.00292 0.015148,0.071975 0.047434,0.069053 v 0 c 0.1022416,-0.00929 0.2051714,-0.017916 0.3097751,-0.022942 0.1015635,-0.00413 0.2033923,-0.00742 0.3052325,-0.010489 0.033149,-9.963e-4 0.016938,-0.071923 -0.016222,-0.070925 z"
           transform="matrix(2.3705114,0,0,2.5228281,-7.18667,-12.233489)" /><path
           style="fill:#b33232;fill-opacity:1;stroke:#000000;stroke-width:0;stroke-linecap:round;stroke-linejoin:round;stroke-dasharray:none;stroke-opacity:0.5"
           id="path17258"
           d="m 9.5855461,15.297526 c 0.1069872,-0.0272 0.1391904,-0.0217 0.1952961,-0.05377 0.068957,-0.04681 0.1402884,-0.06787 0.2136015,-0.105758 0.072914,-0.03665 0.1408533,-0.08309 0.2123483,-0.122598 0.04459,-0.0247 0.08504,-0.04479 0.130455,-0.06793 0.117118,-0.0629 0.242107,-0.104285 0.367265,-0.14433 0.06842,-0.02101 0.134455,-0.04918 0.195439,-0.08845 0.0259,-0.01661 0.04886,-0.03447 0.07348,-0.05296 0.04482,-0.03452 0.08609,-0.07374 0.128749,-0.111124 0.05166,-0.03272 0.105339,-0.06132 0.156744,-0.09457 0.07814,-0.05809 0.157837,-0.113368 0.23915,-0.166256 0.08904,-0.05714 0.169425,-0.127456 0.24428,-0.203858 0.07578,-0.08225 0.137006,-0.177804 0.191895,-0.276672 0.02556,-0.04549 0.04319,-0.09816 0.07908,-0.136198 0.01874,-0.01733 0.04,-0.03136 0.05958,-0.04778 0.03772,-0.03389 0.06553,-0.07681 0.08945,-0.122206 0.02698,-0.0577 0.04496,-0.119376 0.06512,-0.179954 0.01664,-0.05116 0.03628,-0.101307 0.0603,-0.149067 0.01574,-0.02898 0.039,-0.05223 0.05922,-0.0776 0.03262,-0.04436 0.06056,-0.09223 0.08862,-0.139909 0.03317,-0.05415 0.05396,-0.114804 0.07301,-0.175748 0.02165,-0.06663 0.03823,-0.13484 0.05651,-0.202535 0.01789,-0.06698 0.04065,-0.132309 0.05953,-0.198951 0.02111,-0.07439 0.03494,-0.150799 0.04514,-0.227657 0.0064,-0.07067 0.01284,-0.142176 0.0096,-0.213279 -7.48e-4,-0.01675 -0.0026,-0.03344 -0.0039,-0.05016 -0.01054,-0.08873 -0.02297,-0.177218 -0.03651,-0.26548 -0.01406,-0.08194 -0.02902,-0.164029 -0.0287,-0.247589 -0.0011,-0.03881 0.0088,-0.0757 0.01987,-0.112237 0.02846,-0.101873 -0.0012,-0.07305 -0.191943,-0.145606 -0.0064,-0.0024 -0.03562,0.0461 -0.03929,0.05183 -0.02167,0.03607 0.178056,0.171959 0.199725,0.135889 v 0 c -7.97e-4,-0.0063 0.0018,0.01165 -0.0082,0.0055 -0.06358,-0.03891 -0.125226,-0.0814 -0.185822,-0.125371 -0.0022,-0.0015 0.003,-0.01056 0.0021,-0.008 -0.0011,0.003 -0.0017,0.0064 -0.0026,0.0094 -0.01816,0.06159 -0.03227,0.124574 -0.03094,0.189648 9.54e-4,0.09677 0.01411,0.192219 0.0318,0.287074 0.01265,0.08225 0.02412,0.16474 0.03436,0.247363 0.0067,0.06855 0.002,0.13765 -0.0045,0.206073 -0.0083,0.06419 -0.01997,0.127955 -0.03745,0.190076 -0.01884,0.06768 -0.04267,0.133734 -0.06034,0.201828 -0.01729,0.06443 -0.03308,0.129304 -0.05366,0.192706 -0.01295,0.04181 -0.02598,0.08402 -0.04886,0.121134 -0.02225,0.03784 -0.0444,0.0758 -0.06936,0.111716 -0.03055,0.03958 -0.06604,0.07536 -0.08738,0.122209 -0.02878,0.0588 -0.05392,0.119608 -0.07399,0.182401 -0.01625,0.04886 -0.03075,0.09856 -0.05098,0.145746 -0.0062,0.01635 -0.01807,0.02952 -0.02796,0.04339 -0.02879,0.02522 -0.06237,0.04414 -0.08681,0.07489 -0.04459,0.0536 -0.07873,0.114368 -0.108393,0.178511 -0.04353,0.0794 -0.09243,0.156076 -0.15209,0.222928 -0.06201,0.0641 -0.12928,0.122403 -0.203341,0.170212 -0.08136,0.05293 -0.161421,0.107777 -0.239305,0.166354 -0.0605,0.03977 -0.126267,0.07 -0.18369,0.115028 -0.03813,0.03348 -0.07513,0.06846 -0.114846,0.09982 -0.02699,0.0205 -0.05375,0.04143 -0.08307,0.05795 -0.03715,0.02101 -0.07712,0.03499 -0.117257,0.04787 -0.136898,0.0438 -0.273363,0.0899 -0.401545,0.158466 -0.05106,0.02607 -0.09057,0.04568 -0.140725,0.07352 -0.06841,0.03795 -0.1335665,0.08213 -0.2032085,0.117617 -0.076314,0.03953 -0.1550865,0.07394 -0.2269608,0.12255 -0.060771,0.03526 -0.1242982,0.06526 -0.1825136,0.10553 -0.033959,0.02295 0.039916,0.168933 0.073871,0.145957 z"
           sodipodi:nodetypes="cccccccccccccccccccccccccccccccssccccccccccccccccccccccccccccccccc" /><path
           style="fill:#b33232;fill-opacity:1;stroke:#000000;stroke-width:0;stroke-linejoin:bevel;stroke-dasharray:none;stroke-opacity:0.5"
           id="path17260"
           d="m 9.4292883,15.20815 c 0.085809,-0.02869 0.1753041,-0.04087 0.2635245,-0.05795 0.1110921,-0.02051 0.2160737,-0.06297 0.3186592,-0.111342 0.08497,-0.04158 0.169396,-0.08441 0.253267,-0.128433 0.06615,-0.03238 0.130538,-0.06856 0.194713,-0.105091 0.08125,-0.05079 0.165663,-0.09495 0.251579,-0.13598 0.101437,-0.04882 0.201414,-0.100372 0.2984,-0.158588 0.08322,-0.04624 0.155259,-0.110365 0.231028,-0.168502 0.01325,-0.01025 0.02651,-0.02075 0.03975,-0.03089 0.02759,-0.02149 0.05023,-0.03967 0.07884,-0.05921 0.03655,-0.02497 0.07519,-0.04651 0.113171,-0.06886 0.04564,-0.02657 0.09187,-0.05279 0.133632,-0.08605 0.03186,-0.02537 0.03602,-0.03128 0.06502,-0.06051 0.05796,-0.06541 0.09657,-0.145917 0.135927,-0.224589 0.03312,-0.0628 0.0614,-0.128335 0.09661,-0.189842 0.062,-0.09309 0.125339,-0.185155 0.187647,-0.278011 0.07212,-0.113709 0.144213,-0.227933 0.204632,-0.349331 0.01183,-0.02376 0.02264,-0.04807 0.03395,-0.0721 0.03886,-0.0854 0.06756,-0.175487 0.08402,-0.268762 0.0086,-0.04848 0.0095,-0.06764 0.01427,-0.116086 0.0073,-0.08624 -0.0015,-0.17229 -0.0078,-0.258191 -0.0061,-0.05671 -0.0028,-0.113371 0.0019,-0.169966 0.0066,-0.0634 0.01646,-0.126283 0.02366,-0.18959 0.0077,-0.0669 0.01334,-0.13386 0.01632,-0.201178 0.0027,-0.099 0.01863,-0.19617 0.03774,-0.292793 0.01393,-0.05508 0.02846,-0.109679 0.03562,-0.166293 0.0045,-0.05358 0.0086,-0.107142 0.01094,-0.160873 0.0031,-0.07119 -0.0038,-0.142372 -0.01256,-0.212855 -0.0065,-0.05005 -0.0159,-0.09959 -0.02582,-0.148961 -0.0024,-0.0114 -0.0043,-0.0229 -0.0059,-0.03447 -0.0061,-0.04233 -0.240405,-0.0043 -0.23435,0.03797 v 0 c 0.0024,0.01651 0.005,0.03298 0.0084,0.04928 0.0087,0.04308 0.01713,0.08631 0.02271,0.129973 0.0073,0.05541 0.01284,0.111478 0.01067,0.167484 -0.002,0.04703 -0.0059,0.09387 -0.0092,0.14078 -0.0052,0.04992 -0.02292,0.097 -0.03242,0.146032 -0.02168,0.109892 -0.03922,0.220567 -0.04256,0.333083 -0.0027,0.06108 -0.0081,0.121827 -0.01485,0.182538 -0.0076,0.0661 -0.01821,0.131716 -0.02449,0.197976 -0.0058,0.07031 -0.009,0.140815 -0.0021,0.211233 0.0052,0.07097 0.01302,0.142052 0.0082,0.213342 -0.0096,0.104977 -0.02941,0.202522 -0.07456,0.297657 -0.0096,0.02066 -0.01881,0.04156 -0.02893,0.06197 -0.0561,0.113207 -0.123481,0.219467 -0.190479,0.325532 -0.06585,0.09816 -0.133395,0.195068 -0.197731,0.294342 -0.03694,0.06567 -0.06833,0.134465 -0.102864,0.201587 -0.02767,0.05533 -0.05407,0.112343 -0.09113,0.161446 -0.01463,0.01538 -0.01967,0.02172 -0.03599,0.03511 -0.03489,0.02855 -0.07456,0.04961 -0.112842,0.07229 -0.04451,0.02617 -0.08935,0.05188 -0.132117,0.08126 -0.0313,0.02149 -0.05507,0.04058 -0.08503,0.06385 -0.01291,0.01006 -0.02581,0.02002 -0.0387,0.03009 -0.06863,0.05274 -0.13363,0.111267 -0.208925,0.153412 -0.09056,0.05455 -0.18415,0.102331 -0.278892,0.148088 -0.09086,0.04347 -0.180295,0.09 -0.266283,0.143647 -0.06189,0.0352 -0.123985,0.07017 -0.187805,0.10133 -0.08106,0.04257 -0.1626593,0.08395 -0.2447499,0.124186 -0.085214,0.04056 -0.1722773,0.07662 -0.2647364,0.09361 -0.097988,0.01881 -0.1972878,0.03302 -0.2924392,0.06555 -0.038362,0.01294 0.032998,0.253469 0.071359,0.240581 z" /><path
           style="mix-blend-mode:normal;fill:#b33232;fill-opacity:1;stroke:#000000;stroke-width:0;stroke-linejoin:bevel;stroke-dasharray:none;stroke-opacity:0.5;filter:url(#filter12219)"
           id="path17262"
           d="m 8.115981,8.9355111 c 0.0098,0.013278 0.017326,0.027957 0.024833,0.042594 0.00691,0.013337 0.013414,0.026845 0.020923,0.039866 0.00965,0.01508 0.021069,0.02893 0.03142,0.043536 0.00587,0.00927 0.010783,0.019129 0.015578,0.02899 0.00486,0.014468 0.00982,0.02882 0.015747,0.042908 0.00939,0.018785 0.019132,0.037462 0.029612,0.055664 0.00431,0.00817 0.010058,0.016287 0.011088,0.025694 0.00106,0.012843 9.139e-4,0.025758 9.307e-4,0.038635 1.057e-4,0.018505 1.298e-4,0.036968 -0.00114,0.05543 -0.00191,0.017255 -0.00662,0.034099 -0.011179,0.050812 -0.0071,0.026957 -0.011655,0.054447 -0.015683,0.081999 -0.00323,0.018744 -0.00469,0.037759 -0.00809,0.056477 -0.0015,0.00829 -0.0044,0.020112 -0.00629,0.028159 -0.00661,0.029546 -0.016661,0.05802 -0.028426,0.085859 -0.015492,0.031709 -0.029075,0.064251 -0.044531,0.095978 -0.015611,0.031191 -0.029211,0.063324 -0.044463,0.094682 -0.015484,0.029238 -0.032664,0.057563 -0.049283,0.086171 -0.01743,0.029949 -0.035997,0.05923 -0.054445,0.088561 -0.014676,0.025861 -0.030696,0.050857 -0.047886,0.075103 -0.023006,0.02816 -0.047494,0.05504 -0.072284,0.08162 -0.021101,0.02155 -0.041082,0.04415 -0.061262,0.06654 -0.011154,0.01415 -0.024412,0.02636 -0.037954,0.03817 -0.016179,0.01425 -0.03233,0.02848 -0.049042,0.04211 -0.033486,0.02613 -0.067359,0.05178 -0.1016331,0.07687 -0.02877,0.02137 -0.05878,0.04091 -0.089233,0.05977 -0.033098,0.02059 -0.067232,0.03944 -0.1012669,0.05842 -0.040152,0.02234 -0.081184,0.04301 -0.1216714,0.06474 -0.039505,0.0205 -0.07762,0.0435 -0.1164128,0.06529 -0.022262,0.01321 -0.045188,0.02523 -0.068769,0.0359 -0.024483,0.01175 -0.048879,0.02368 -0.073036,0.03609 -0.024413,0.01242 -0.04921,0.02405 -0.073665,0.0364 -0.017121,0.0094 -0.033778,0.01942 -0.051744,0.02712 -0.012651,0.0052 -0.02528,0.01048 -0.037667,0.01631 -0.01385,0.0065 -0.0269,0.01437 -0.040569,0.02119 -0.010197,0.0038 -0.019846,0.0092 -0.030058,0.01293 -0.00716,0.0028 -0.014086,0.0064 -0.021371,0.0089 -0.00775,0.0036 -0.015803,0.0065 -0.023774,0.0096 -0.00719,0.0026 -0.014366,0.0052 -0.021455,0.0081 -2.112e-4,7.1e-5 -4.224e-4,1.42e-4 -6.336e-4,2.13e-4 -0.015839,0.0061 0.020056,0.09943 0.035896,0.09333 v 0 c 0.00125,-4.91e-4 0.0025,-9.82e-4 0.00375,-0.0015 -0.00198,4.38e-4 -2.726e-4,8.2e-5 0.00376,-0.0014 0.00526,-0.002 0.010494,-0.004 0.015764,-0.0059 0.00746,-0.0033 0.015517,-0.0054 0.022806,-0.0092 0.008,-0.0032 0.01565,-0.0064 0.023673,-0.0098 0.012118,-0.0052 0.024244,-0.01041 0.036296,-0.01578 0.013036,-0.0065 0.025545,-0.0139 0.038645,-0.02025 0.011411,-0.0054 0.023155,-0.01009 0.034796,-0.01501 0.019644,-0.0086 0.038383,-0.01885 0.05695,-0.02956 0.024667,-0.01246 0.049696,-0.02416 0.074306,-0.03672 0.022717,-0.01168 0.045672,-0.02288 0.068674,-0.03398 0.026147,-0.01191 0.051683,-0.02509 0.076398,-0.03976 0.03823,-0.02148 0.075804,-0.04414 0.1147327,-0.06436 0.040957,-0.02198 0.082473,-0.04288 0.1230775,-0.06551 0.035373,-0.01973 0.070837,-0.03934 0.1052323,-0.06075 0.032637,-0.02023 0.064795,-0.0412 0.095646,-0.06409 0.035681,-0.02614 0.070971,-0.05283 0.1057934,-0.08009 0.017621,-0.0144 0.034707,-0.02938 0.051778,-0.04442 0.016398,-0.01446 0.032594,-0.02933 0.046309,-0.04643 0.019764,-0.02198 0.039389,-0.0441 0.06007,-0.06524 0.02783,-0.02985 0.055401,-0.06001 0.080752,-0.09202 0.018219,-0.02575 0.035378,-0.05219 0.050927,-0.07966 0.019073,-0.03032 0.038248,-0.060607 0.056266,-0.091571 0.01786,-0.030745 0.036371,-0.061164 0.052769,-0.092719 0.015203,-0.031351 0.028896,-0.063406 0.044425,-0.094605 0.016239,-0.033397 0.030651,-0.067587 0.046813,-0.1010187 0.01381,-0.033052 0.025767,-0.066812 0.033604,-0.1018322 0.00716,-0.030777 0.012052,-0.061635 0.015955,-0.092976 0.00341,-0.023564 0.00723,-0.04708 0.013218,-0.070151 0.00626,-0.023073 0.012442,-0.046367 0.014455,-0.070264 0.0014,-0.020776 0.00154,-0.041552 0.00137,-0.062373 -2.95e-5,-0.019374 2.736e-4,-0.038891 -0.00287,-0.058071 -0.0044,-0.020193 -0.011968,-0.039145 -0.022918,-0.056749 -0.00867,-0.014163 -0.015567,-0.029458 -0.023721,-0.04393 -0.00667,-0.015723 -0.011136,-0.03217 -0.017985,-0.047831 -0.00721,-0.014766 -0.014705,-0.029478 -0.023952,-0.043096 -0.00863,-0.012117 -0.01773,-0.023903 -0.026496,-0.035895 -0.00675,-0.011436 -0.012112,-0.023579 -0.018405,-0.035264 -0.00976,-0.018981 -0.019799,-0.037868 -0.032472,-0.055113 -0.00988,-0.0138 -0.091193,0.044405 -0.081316,0.058205 z"
           transform="matrix(2.3705114,0,0,2.5228281,-7.18667,-12.233489)" /><path
           style="fill:#b33232;fill-opacity:1;stroke:#000000;stroke-width:0;stroke-linecap:round;stroke-linejoin:round;stroke-dasharray:none;stroke-opacity:0.5"
           id="path17264"
           d="m 8.9008624,15.314657 c 0.050829,-0.0062 0.074614,0.0027 0.1257114,0 0.042331,-0.0053 0.083695,0.0059 0.1257114,0 0.0052,-0.0216 0.048416,0.0027 0.062856,0 0.072173,-0.0227 0.1348193,-0.0511 0.2003423,-0.0894 0.057741,-0.03721 0.1167084,-0.05422 0.1817285,-0.07002 0.1166174,-0.02852 0.2288847,-0.07391 0.3421362,-0.11449 0.095211,-0.03143 0.1845798,-0.07831 0.2752278,-0.121622 0.117336,-0.05224 0.221161,-0.131902 0.328234,-0.203736 0.130408,-0.08559 0.255471,-0.179857 0.3816,-0.272298 0.130205,-0.09447 0.262218,-0.186155 0.395194,-0.276141 0.08576,-0.05714 0.173366,-0.110708 0.256064,-0.172849 0.08503,-0.07 0.164422,-0.147234 0.240006,-0.228471 0.04027,-0.04155 0.08012,-0.08341 0.11361,-0.131412 0.02151,-0.03216 0.03869,-0.06705 0.05443,-0.102674 0.0077,-0.01856 0.0041,-0.01073 0.01015,-0.02369 0.0175,-0.03856 -0.195924,-0.148308 -0.213431,-0.109755 v 0 c -0.0094,0.02125 -0.0058,0.01221 -0.01176,0.02736 -0.0089,0.02101 -0.01895,0.04127 -0.03107,0.06041 -0.02512,0.03869 -0.06061,0.06819 -0.09047,0.102429 -0.06583,0.0709 -0.135005,0.138177 -0.208534,0.200025 -0.07923,0.06004 -0.164207,0.110244 -0.2462,0.165768 -0.135414,0.09167 -0.269854,0.185032 -0.402439,0.281245 -0.123497,0.09052 -0.245912,0.182885 -0.373605,0.266689 -0.119604,0.08028 -0.0067,0.0041 -0.123793,0.08405 -0.05629,0.03839 -0.112596,0.07709 -0.175209,0.103039 -0.08355,0.04006 -0.1658373,0.08357 -0.2536344,0.112612 -0.10586,0.03792 -0.2107575,0.08059 -0.319638,0.107728 -0.03382,0.0083 -0.060902,0.01441 -0.094175,0.02531 -0.051852,0.01709 -0.1010697,0.04175 -0.1486006,0.06948 -0.046785,0.02736 -0.093098,0.05645 -0.14262,0.0779 -0.0027,0.0075 -2.077e-4,0.0027 -0.017045,0.0032 -0.038357,0.0012 -0.076773,5.25e-4 -0.1150996,0.0029 -0.052637,0.0029 -0.1050226,0.0087 -0.1573372,0.01588 -0.040119,0.0032 -0.00846,0.213734 0.031659,0.210577 z"
           sodipodi:nodetypes="ccccccccccccccccssccccccccccccccccccc" /><path
           style="mix-blend-mode:normal;fill:#b33232;fill-opacity:1;stroke:#000000;stroke-width:0;stroke-linecap:round;stroke-linejoin:round;stroke-dasharray:none;stroke-opacity:0.5;filter:url(#filter12211)"
           id="path17268"
           d="m 6.4454627,10.802922 c 0.040516,0.02119 0.078195,0.04737 0.1173878,0.07087 0.028864,0.01492 0.057068,0.03254 0.08796,0.04319 0.00482,0.0017 0.00977,0.0029 0.014651,0.0044 0.029484,0.0075 0.059873,0.004 0.089559,-1.18e-4 0.026903,-0.0049 0.053883,-0.0094 0.080674,-0.01494 0.027167,-0.0053 0.054277,-0.01072 0.08155,-0.01544 0.018352,-0.0043 0.036704,-0.0039 0.055283,-0.0023 0.023092,0.0021 0.046331,0.0046 0.069505,0.0019 0.00662,-7.5e-4 0.013166,-0.0021 0.019749,-0.0031 0.042553,-0.0068 0.080263,-0.02729 0.1180373,-0.04675 0.035163,-0.01846 0.071598,-0.03432 0.1072423,-0.05179 0.031809,-0.01559 0.037356,-0.01888 0.067987,-0.03523 0.031178,-0.01688 0.062644,-0.03444 0.087187,-0.06055 0.010252,-0.01091 0.013542,-0.01666 0.021717,-0.02866 0.019528,-0.02961 0.040159,-0.0589 0.064185,-0.08509 0.00522,-0.0057 0.010873,-0.01098 0.016309,-0.01647 0.00544,-0.0046 0.010682,-0.0094 0.016331,-0.01379 0.015062,-0.01158 0.022238,-0.01496 0.039032,-0.02491 0.033919,-0.0201 0.067936,-0.03987 0.1023509,-0.05912 0.052129,-0.02864 0.1056348,-0.05463 0.1585286,-0.08181 0.032482,-0.01709 0.063352,-0.03681 0.09212,-0.05957 0.020349,-0.01836 0.041014,-0.03699 0.058043,-0.05861 0.00357,-0.0045 0.00682,-0.0093 0.010232,-0.01396 0.00767,-0.0106 0.014159,-0.02196 0.020586,-0.03333 0.00832,-0.01479 -0.07885,-0.0638 -0.087167,-0.04901 v 0 c -0.00457,0.0082 -0.00914,0.01639 -0.014645,0.02401 -0.013736,0.01988 -0.031595,0.03643 -0.049348,0.05268 -0.023446,0.01885 -0.049011,0.03465 -0.075521,0.04884 -0.053943,0.02772 -0.108514,0.05422 -0.1616475,0.08348 -0.035241,0.01972 -0.070212,0.03979 -0.1048488,0.06056 -0.022729,0.01363 -0.032377,0.01863 -0.052878,0.03488 -0.00782,0.0062 -0.015065,0.0131 -0.022597,0.01965 -0.007,0.0072 -0.014236,0.01416 -0.020986,0.02159 -0.026573,0.02924 -0.049611,0.06168 -0.07135,0.09459 -0.00255,0.004 -0.00557,0.0092 -0.00869,0.01285 -0.016857,0.02 -0.042189,0.03044 -0.064076,0.04353 -0.028201,0.01508 -0.03445,0.01874 -0.063751,0.0331 -0.036612,0.01795 -0.074034,0.03425 -0.1101436,0.05322 -0.028638,0.01475 -0.056852,0.03148 -0.089054,0.03707 -0.021216,0.0042 -0.042343,0.0027 -0.063729,1.41e-4 -0.027142,-0.0023 -0.054241,-0.0024 -0.081041,0.0034 -0.028336,0.0049 -0.056505,0.01054 -0.08473,0.01605 -0.024778,0.0051 -0.049763,0.0092 -0.074626,0.01389 -0.015765,0.0023 -0.032169,0.005 -0.048051,0.0029 -0.00921,-0.0023 -0.017257,-0.0058 -0.025868,-0.0099 -0.017838,-0.0085 -0.035507,-0.01747 -0.052691,-0.02726 -0.041812,-0.02501 -0.08186,-0.05313 -0.1253694,-0.07518 -0.015289,-0.0074 -0.058689,0.08273 -0.0434,0.09009 z"
           transform="matrix(2.3705114,0,0,2.5228281,-7.1775179,-12.909147)" /><path
           style="mix-blend-mode:normal;fill:#b33232;fill-opacity:1;stroke:#000000;stroke-width:0;stroke-linejoin:bevel;stroke-dasharray:none;stroke-opacity:0.5;filter:url(#filter12215)"
           id="path17272"
           d="m 8.1385308,8.8910459 c 0.026995,0.021709 0.054186,0.043173 0.081074,0.065014 0.0076,0.00708 0.018117,0.013187 0.023065,0.02285 7.671e-4,0.0015 9.447e-4,0.00323 0.00155,0.00481 0.00242,0.011218 0.00408,0.022591 0.00638,0.033842 0.00433,0.016343 0.00868,0.032692 0.013451,0.048914 0.0062,0.017044 0.011075,0.034137 0.013405,0.052111 0.00164,0.023851 0.00282,0.047745 0.00404,0.071627 0.00136,0.028672 -1.448e-4,0.057395 -9.359e-4,0.086067 -7.044e-4,0.026004 -8.74e-4,0.052018 -9.787e-4,0.07803 0.00127,0.031136 -0.00571,0.061563 -0.012452,0.091726 -0.00841,0.037218 -0.018293,0.074078 -0.028202,0.1109168 -0.00632,0.023122 -0.012491,0.046277 -0.019455,0.069214 -0.00532,0.015144 -0.011311,0.030024 -0.016436,0.045247 -0.00298,0.0087 -0.00607,0.017356 -0.00906,0.026053 -0.0055,0.016053 0.089089,0.048488 0.094594,0.032435 v 0 c 0.00305,-0.0089 0.00624,-0.017756 0.00927,-0.026669 0.0054,-0.016149 0.012057,-0.03182 0.01732,-0.048015 0.00727,-0.02396 0.013743,-0.04814 0.020336,-0.072294 0.010282,-0.038238 0.02053,-0.0765 0.029239,-0.1151345 0.00827,-0.037176 0.016135,-0.074755 0.014846,-0.1130786 1.01e-4,-0.025227 2.606e-4,-0.050455 9.415e-4,-0.075674 8.632e-4,-0.03131 0.00243,-0.062672 8.409e-4,-0.093981 -0.00138,-0.026668 -0.00252,-0.053371 -0.00483,-0.07997 -0.00323,-0.022963 -0.00857,-0.045272 -0.016619,-0.067049 -0.00408,-0.013562 -0.00747,-0.027323 -0.011434,-0.040918 -0.00388,-0.018001 -0.00539,-0.036632 -0.012765,-0.053736 -0.00478,-0.010425 -0.0059,-0.013853 -0.012599,-0.023864 -0.010765,-0.016093 -0.025548,-0.029009 -0.040473,-0.041081 -0.026734,-0.021709 -0.053751,-0.043064 -0.080601,-0.064627 -0.013108,-0.010779 -0.076624,0.066458 -0.063517,0.077237 z"
           transform="matrix(2.3705114,0,0,2.5228281,-7.3846527,-12.275107)" /></g><path
         style="opacity:1;fill:none;stroke:#4f5b08;stroke-width:0.479478;stroke-linecap:round;stroke-linejoin:round;stroke-miterlimit:10.2;stroke-dasharray:none;stroke-opacity:1"
         d="M 13.970071,9.9546677 14.208166,9.4718804"
         id="path9272"
         sodipodi:nodetypes="cc" /></g><g
       id="g8358"
       transform="matrix(2.1,0,0,2.0713052,-9.3371492,-13.869155)"
       style="stroke:#000000;stroke-width:0.479478;stroke-opacity:0.5"><circle
         id="circle8306"
         style="fill:#ffffff;stroke:#000000;stroke-width:0.479478;stroke-opacity:0.5"
         cx="8.9920034"
         cy="7.5528622"
         r="0" /><circle
         id="circle8308"
         style="fill:#ffffff;stroke:#000000;stroke-width:0.479478;stroke-opacity:0.5"
         cx="10.899344"
         cy="9.1174107"
         r="0" /><circle
         id="circle8310"
         style="fill:#782121;stroke:#000000;stroke-width:0.479478;stroke-opacity:0.5"
         cx="13.437794"
         cy="13.887872"
         r="0" /></g></g></svg>
