<?xml version="1.0" encoding="UTF-8" standalone="no"?>
<svg
   id="svg8"
   version="1.1"
   viewBox="0 0 24 24"
   height="24"
   width="24"
   sodipodi:docname="speaker.svg"
   inkscape:version="1.2.2 (b0a8486541, 2022-12-01)"
   xml:space="preserve"
   xmlns:inkscape="http://www.inkscape.org/namespaces/inkscape"
   xmlns:sodipodi="http://sodipodi.sourceforge.net/DTD/sodipodi-0.dtd"
   xmlns:xlink="http://www.w3.org/1999/xlink"
   xmlns="http://www.w3.org/2000/svg"
   xmlns:svg="http://www.w3.org/2000/svg"
   xmlns:rdf="http://www.w3.org/1999/02/22-rdf-syntax-ns#"
   xmlns:cc="http://creativecommons.org/ns#"
   xmlns:dc="http://purl.org/dc/elements/1.1/"><sodipodi:namedview
     pagecolor="#ffffff"
     bordercolor="#666666"
     borderopacity="1"
     objecttolerance="10"
     gridtolerance="10"
     guidetolerance="10"
     inkscape:pageopacity="0"
     inkscape:pageshadow="2"
     inkscape:window-width="1920"
     inkscape:window-height="1028"
     id="namedview20"
     showgrid="true"
     inkscape:zoom="32"
     inkscape:cx="6.90625"
     inkscape:cy="15.5"
     inkscape:window-x="0"
     inkscape:window-y="22"
     inkscape:window-maximized="1"
     inkscape:current-layer="svg8"
     units="mm"
     inkscape:showpageshadow="0"
     inkscape:pagecheckerboard="0"
     inkscape:deskcolor="#d1d1d1"><inkscape:grid
       type="xygrid"
       id="grid4530"
       spacingx="0.5"
       spacingy="0.5"
       empspacing="2" /></sodipodi:namedview><defs
     id="defs2"><linearGradient
       id="linearGradient4716"><stop
         id="stop4712"
         offset="0"
         style="stop-color:#ffff99;stop-opacity:1" /><stop
         id="stop4714"
         offset="1"
         style="stop-color:#ffcc99;stop-opacity:1" /></linearGradient><linearGradient
       gradientTransform="translate(-16,5)"
       gradientUnits="userSpaceOnUse"
       y2="309.53333"
       x2="46"
       y1="290.53333"
       x1="18"
       id="linearGradient4718"
       xlink:href="#linearGradient4716" /><linearGradient
       id="linearGradient983"
       inkscape:collect="always"><stop
         id="stop979"
         offset="0"
         style="stop-color:#808000;stop-opacity:1" /><stop
         id="stop981"
         offset="1"
         style="stop-color:#c0c03f;stop-opacity:0.01369863" /></linearGradient><linearGradient
       inkscape:collect="always"
       id="linearGradient948-2"><stop
         style="stop-color:#fbff86;stop-opacity:0.08219178"
         offset="0"
         id="stop942" /><stop
         style="stop-color:#c0c03f;stop-opacity:1"
         offset="1"
         id="stop946" /></linearGradient><linearGradient
       id="linearGradient903-5"
       inkscape:collect="always"><stop
         id="stop899"
         offset="0"
         style="stop-color:#fbff86;stop-opacity:1" /><stop
         style="stop-color:#ffffff;stop-opacity:1"
         offset="0.5"
         id="stop907" /><stop
         id="stop901"
         offset="1"
         style="stop-color:#fbff86;stop-opacity:1" /></linearGradient><linearGradient
       id="linearGradient895"
       inkscape:collect="always"><stop
         id="stop891"
         offset="0"
         style="stop-color:#c0c03f;stop-opacity:1;" /><stop
         id="stop893"
         offset="1"
         style="stop-color:#fdffc7;stop-opacity:1" /></linearGradient><linearGradient
       id="linearGradient871"
       inkscape:collect="always"><stop
         id="stop867"
         offset="0"
         style="stop-color:#808080;stop-opacity:1" /><stop
         id="stop869"
         offset="1"
         style="stop-color:#ffffff;stop-opacity:1" /></linearGradient><linearGradient
       gradientUnits="userSpaceOnUse"
       y2="290.64111"
       x2="6.0651603"
       y1="290.64111"
       x1="3.1667371"
       id="linearGradient873"
       xlink:href="#linearGradient871"
       inkscape:collect="always"
       gradientTransform="matrix(1.3008162,0,0,1.1964298,-8.3526833,-59.066069)" /><linearGradient
       gradientUnits="userSpaceOnUse"
       y2="289.98856"
       x2="0.92604166"
       y1="291.44376"
       x1="1.984375"
       id="linearGradient889"
       xlink:href="#linearGradient895"
       inkscape:collect="always"
       gradientTransform="translate(-8.0698012,-1.9843757)" /><linearGradient
       gradientUnits="userSpaceOnUse"
       y2="290.91458"
       x2="4.3656249"
       y1="288.53333"
       x1="3.3072917"
       id="linearGradient905"
       xlink:href="#linearGradient903-5"
       inkscape:collect="always"
       gradientTransform="matrix(1.1275285,0,0,1.1785717,-7.9171434,-54.042147)" /><linearGradient
       gradientUnits="userSpaceOnUse"
       y2="292.10522"
       x2="3.7041667"
       y1="289.98856"
       x1="3.4395833"
       id="linearGradient905-3"
       xlink:href="#linearGradient948-2"
       inkscape:collect="always"
       gradientTransform="translate(-7.3421938,-1.25677)" /><linearGradient
       gradientUnits="userSpaceOnUse"
       y2="292.89896"
       x2="4.1010418"
       y1="293.69272"
       x1="4.2333336"
       id="linearGradient905-3-6"
       xlink:href="#linearGradient983"
       inkscape:collect="always"
       gradientTransform="matrix(1.4074741,0,0,1.2883319,-9.4131975,-86.408279)" /><linearGradient
       gradientTransform="matrix(2.2500048,0,0,1.3499964,-41.175863,-103.71082)"
       gradientUnits="userSpaceOnUse"
       y2="290.91458"
       x2="17.065626"
       y1="290.38541"
       x1="17.065626"
       id="linearGradient995"
       xlink:href="#linearGradient993"
       inkscape:collect="always" /><linearGradient
       id="linearGradient993"
       inkscape:collect="always"><stop
         id="stop989"
         offset="0"
         style="stop-color:#ffffff;stop-opacity:1" /><stop
         id="stop991"
         offset="1"
         style="stop-color:#c0c0c0;stop-opacity:1" /></linearGradient><filter
       height="2.3541328"
       y="-0.65709676"
       width="2.7293503"
       x="-0.77092522"
       id="filter1157"
       style="color-interpolation-filters:sRGB"
       inkscape:collect="always"><feGaussianBlur
         id="feGaussianBlur1159"
         stdDeviation="0.33995683"
         inkscape:collect="always" /></filter></defs><metadata
     id="metadata5"><rdf:RDF><cc:Work
         rdf:about=""><dc:format>image/svg+xml</dc:format><dc:type
           rdf:resource="http://purl.org/dc/dcmitype/StillImage" /></cc:Work></rdf:RDF></metadata><g
     transform="matrix(2.5196828,0,0,2.5196828,18.666675,-715.3458)"
     id="layer1-6"
     inkscape:label="Layer 1"><path
       inkscape:connector-curvature="0"
       id="path897-3-1"
       d="m -6.6202411,286.85234 3.723942,-3.40871 h 0.5585913 l -0.5585913,0.85218 -0.5585914,1.53392 -0.1861971,2.21567 v 1.36348 l 0.3723941,1.70436 0.5585911,1.36348 0.3723946,0.51131 h -0.5585913 l -3.3515477,-3.06785 v -0.34087 l -0.5585912,-0.68173 0.1861969,-2.04524"
       style="opacity:1;fill:url(#linearGradient905-3-6);fill-opacity:1;fill-rule:nonzero;stroke:none;stroke-width:0.396874;stroke-linecap:round;stroke-linejoin:miter;stroke-miterlimit:4;stroke-dasharray:none;stroke-opacity:1" /><path
       inkscape:connector-curvature="0"
       id="path865"
       d="m -1.8133715,284.40274 -1.7208715,2.69072 v 4.11524 l 1.5487842,2.0576 h 0.3441743 l 0.3441746,-0.31656 0.3441745,-0.47483 0.34417422,-0.63312 v -0.63309 l 0.14573663,-0.75714 -0.19843768,-2.97657 0.0527011,-0.85635 v -0.94966 l -0.68834872,-0.94967 -0.5162616,-0.31657"
       style="opacity:1;fill:url(#linearGradient873);fill-opacity:1;fill-rule:nonzero;stroke:none;stroke-width:0.396875;stroke-linecap:round;stroke-linejoin:miter;stroke-miterlimit:4;stroke-dasharray:none;stroke-opacity:1"
       sodipodi:nodetypes="ccccccccccccccc" /><path
       inkscape:connector-curvature="0"
       id="path897"
       d="m -5.6797041,287.4183 2.9832525,-3.11831 h 0.4474879 l -0.4474879,0.77958 -0.4474879,1.40324 -0.1491626,2.0269 v 1.24732 l 0.2983252,1.55915 0.4474878,1.24732 0.2983254,0.46775 h -0.4474879 l -2.6849271,-2.80647 v -0.31184 l -0.4474879,-0.62365 0.1491625,-1.87099"
       style="opacity:1;fill:url(#linearGradient905);fill-opacity:1;fill-rule:nonzero;stroke:none;stroke-width:0.396875;stroke-linecap:round;stroke-linejoin:miter;stroke-miterlimit:4;stroke-dasharray:none;stroke-opacity:1" /><path
       sodipodi:nodetypes="ccccccccc"
       inkscape:connector-curvature="0"
       id="path881"
       d="m -6.6145928,287.47499 h 0.79375 l -0.396875,1.19063 0.2645833,1.19062 h -0.9260417 l -0.2645833,-0.39687 -0.1322917,-0.66146 0.1322917,-0.79375 z"
       style="opacity:1;fill:url(#linearGradient889);fill-opacity:1;fill-rule:nonzero;stroke:none;stroke-width:0.396875;stroke-linecap:round;stroke-linejoin:miter;stroke-miterlimit:4;stroke-dasharray:none;stroke-opacity:1" /><path
       inkscape:connector-curvature="0"
       id="path987"
       d="m -3.3734386,287.95125 v 1.60734 h 1.1906261 v -1.78594 h -0.8929707 z"
       style="opacity:1;fill:url(#linearGradient995);fill-opacity:1;fill-rule:nonzero;stroke:none;stroke-width:0.396875;stroke-linecap:round;stroke-linejoin:miter;stroke-miterlimit:4;stroke-dasharray:none;stroke-opacity:1" /><path
       sodipodi:nodetypes="cccccc"
       inkscape:connector-curvature="0"
       id="path997-7"
       d="m -3.5057353,290.31926 h 0.79375 l 0.264584,-0.26458 v -0.92604 l -0.1322916,-0.1323 -0.1322917,-0.13229"
       style="opacity:1;fill:#000000;fill-opacity:1;fill-rule:nonzero;stroke:#808080;stroke-width:0.396875;stroke-linecap:butt;stroke-linejoin:miter;stroke-miterlimit:4;stroke-dasharray:none;stroke-opacity:1;filter:url(#filter1157)" /><path
       inkscape:connector-curvature="0"
       id="path897-3"
       d="m -5.3578186,288.46719 2.6458334,-2.64584 h 0.396875 l -0.396875,0.66146 -0.3968751,1.19063 -0.1322917,1.71979 v 1.05833 l 0.2645833,1.32292 0.3968749,1.05833 0.2645836,0.39688 h -0.396875 l -2.38125,-2.38125 v -0.26459 l -0.396875,-0.52916 0.1322916,-1.5875"
       style="opacity:1;fill:url(#linearGradient905-3);fill-opacity:1;fill-rule:nonzero;stroke:none;stroke-width:0.396875;stroke-linecap:round;stroke-linejoin:miter;stroke-miterlimit:4;stroke-dasharray:none;stroke-opacity:1" /></g><path
     style="fill:none;stroke:#a3a3a3;stroke-miterlimit:10.2;stroke-opacity:1"
     d="m 13.5,23.5 c 3.130641,-1.735663 3.184322,-5.92118 4,-9.5"
     id="path155834"
     sodipodi:nodetypes="cc" /><path
     style="fill:none;stroke:#ffffff;stroke-miterlimit:10.2;stroke-opacity:1"
     d="m 14.5,1.75 c 2.569384,7.010109 3,12.75 0,19.5 C 14.133912,22.073699 13,23.5 13,23.5"
     id="path157655"
     sodipodi:nodetypes="csc" /><path
     style="fill:none;stroke:#c0c0c0;stroke-miterlimit:10.2;stroke-opacity:1"
     d="m 14,1 c 5.5,7.5 3,20 -1,22"
     id="path155037"
     sodipodi:nodetypes="cc" /><path
     style="fill:none;stroke:#868686;stroke-miterlimit:10.2;stroke-opacity:1"
     d="m 15,1 c 0,0 1,1 1.5,2.5 0.5,1.5 1.000002,4.5000036 1,7.5 -2e-6,3 0,5 -0.5,8 -0.173292,1.03975 -0.445831,2.103335 -1,3 -0.123916,0.2005 -0.5,0.5 -0.5,0.5"
     id="path153583"
     sodipodi:nodetypes="csssac" /><path
     style="fill:none;stroke:#cccc66;stroke-miterlimit:10.2;stroke-opacity:1"
     d="M 14,0.5 C 10.5,4 10,7 10.5,15.5"
     id="path163726"
     sodipodi:nodetypes="cc" /><path
     style="fill:none;fill-opacity:1;stroke:#a0a0a4;stroke-miterlimit:10.2;stroke-opacity:1"
     d="M 13.5,12 C 13.5,8.5 12.5,8.5 11,8"
     id="path184157"
     sodipodi:nodetypes="cc" /><path
     style="fill:none;stroke:#040404;stroke-miterlimit:10.2;stroke-opacity:1"
     d="m 11,9.5 c 1.5783,0.1639664 2.5,1.5 2.5,2.5 0,1 -0.5,3 -3,2.5"
     id="path159400"
     sodipodi:nodetypes="ccc" /><path
     style="fill:none;stroke:#999966;stroke-miterlimit:10.2;stroke-opacity:1"
     d="m 4.5,9 v 6.5"
     id="path166031" /><path
     style="fill:none;stroke:#cccc66;stroke-miterlimit:10.2;stroke-opacity:1"
     d="m 3.5,9.5 9,-9"
     id="path162866" /><path
     style="fill:none;stroke:#808000;stroke-miterlimit:10.2;stroke-opacity:1"
     d="m 3.5,8.5 8,-8 H 14"
     id="path162138"
     sodipodi:nodetypes="ccc" /><path
     style="fill:none;stroke:#808000;stroke-miterlimit:10.2;stroke-opacity:1"
     d="m 3.5,15.5 h 1 L 11,22"
     id="path165234" /><path
     style="fill:none;stroke:#040404;stroke-miterlimit:10.2;stroke-opacity:1"
     d="m 1.5,15.5 1,1 h 2 l 6,6 2,1 H 14"
     id="path164506" /><path
     style="fill:none;stroke:#999966;stroke-miterlimit:10.2;stroke-opacity:1"
     d="m 1,14.5 2.1464466,0.01169"
     id="path167640" /><path
     style="fill:none;stroke:#999966;stroke-miterlimit:10.2;stroke-opacity:1"
     d="m 3.5,9.5 h -3"
     id="path168368"
     sodipodi:nodetypes="cc" /><path
     style="fill:none;stroke:#808000;stroke-miterlimit:10.2;stroke-opacity:1"
     d="m 3.5,8.5 h -2 l -1,1 v 5 l 1,1 h 2 z"
     id="path161077" /><path
     style="fill:none;fill-opacity:1;stroke:#424242;stroke-miterlimit:10.2;stroke-opacity:1;opacity:0.59834423"
     d="M 11,8.6939273 C 12.5,9 13,10.5 13.5,11.5"
     id="path183234"
     sodipodi:nodetypes="cc" /><path
     style="fill:none;stroke:#040404;stroke-miterlimit:10.2;stroke-opacity:1"
     d="m 15,1 c 0,0 0,0 -0.5,-0.5 -0.146447,-0.0990258 -0.636063,0 -1,0.5 -2,3.5 -3,6 -3,11.5 0,4.5 1,11 3,11 0.333333,0 0.69204,0.127561 1,0 C 15.153281,23.229402 16,22 16,22"
     id="path152855"
     sodipodi:nodetypes="cccssac" /></svg>
