<?xml version="1.0" encoding="UTF-8" standalone="no"?>
<!-- Created with Inkscape (http://www.inkscape.org/) -->

<svg
   width="32"
   height="32"
   viewBox="0 0 8.4666667 8.4666667"
   version="1.1"
   id="svg8"
   inkscape:version="1.2.2 (b0a8486541, 2022-12-01)"
   sodipodi:docname="ini.svg"
   xmlns:inkscape="http://www.inkscape.org/namespaces/inkscape"
   xmlns:sodipodi="http://sodipodi.sourceforge.net/DTD/sodipodi-0.dtd"
   xmlns:xlink="http://www.w3.org/1999/xlink"
   xmlns="http://www.w3.org/2000/svg"
   xmlns:svg="http://www.w3.org/2000/svg"
   xmlns:rdf="http://www.w3.org/1999/02/22-rdf-syntax-ns#"
   xmlns:cc="http://creativecommons.org/ns#"
   xmlns:dc="http://purl.org/dc/elements/1.1/">
  <defs
     id="defs2">
    <linearGradient
       inkscape:collect="always"
       id="linearGradient896">
      <stop
         style="stop-color:#ffff41;stop-opacity:1"
         offset="0"
         id="stop892" />
      <stop
         style="stop-color:#dede00;stop-opacity:1"
         offset="1"
         id="stop894" />
    </linearGradient>
    <linearGradient
       inkscape:collect="always"
       xlink:href="#linearGradient896"
       id="linearGradient898"
       x1="16"
       y1="21"
       x2="22"
       y2="27"
       gradientUnits="userSpaceOnUse" />
  </defs>
  <sodipodi:namedview
     id="base"
     pagecolor="#ffffff"
     bordercolor="#666666"
     borderopacity="1.0"
     inkscape:pageopacity="0.0"
     inkscape:pageshadow="2"
     inkscape:zoom="22.4"
     inkscape:cx="19.0625"
     inkscape:cy="13.348214"
     inkscape:document-units="mm"
     inkscape:current-layer="layer1"
     showgrid="true"
     units="px"
     inkscape:pagecheckerboard="false"
     inkscape:window-width="1920"
     inkscape:window-height="1028"
     inkscape:window-x="0"
     inkscape:window-y="22"
     inkscape:window-maximized="1"
     inkscape:showpageshadow="0"
     inkscape:deskcolor="#d1d1d1">
    <inkscape:grid
       type="xygrid"
       id="grid3713"
       empspacing="2"
       spacingx="0.13229167"
       spacingy="0.13229167" />
  </sodipodi:namedview>
  <metadata
     id="metadata5">
    <rdf:RDF>
      <cc:Work
         rdf:about="">
        <dc:format>image/svg+xml</dc:format>
        <dc:type
           rdf:resource="http://purl.org/dc/dcmitype/StillImage" />
        <dc:title />
      </cc:Work>
    </rdf:RDF>
  </metadata>
  <g
     inkscape:label="Layer 1"
     inkscape:groupmode="layer"
     id="layer1"
     transform="translate(0,-288.53333)">
    <path
       style="opacity:1;fill:url(#linearGradient898);fill-opacity:1;fill-rule:nonzero;stroke:none;stroke-width:0.04464286;stroke-linecap:butt;stroke-linejoin:miter;stroke-miterlimit:4;stroke-dasharray:none;stroke-opacity:1;paint-order:normal"
       d="m 17.984598,19.932859 c -0.04228,0.32255 -0.02141,0.657593 -0.0395,0.984933 -0.670898,0.02453 -1.357531,-0.01681 -2.018694,0.04839 -0.03309,0.655913 -0.0047,1.322184 -0.01421,1.982073 -0.320706,0.01597 -0.655914,-0.03202 -0.967408,0.02459 -0.0183,0.3516 -0.03718,0.728617 0.0099,1.075178 0.310813,0.03417 0.632509,0.005 0.947527,0.01474 0.02663,0.426125 0.0053,0.863033 0.06121,1.28261 0.254193,0.23562 0.476835,0.518217 0.749512,0.726318 0.402744,0 0.805489,0 1.208234,0 0.01597,0.320706 -0.03202,0.655914 0.02459,0.967407 0.366263,0.01702 0.758642,0.0384 1.11982,-0.0099 0.03418,-0.314153 0.0051,-0.639189 0.01474,-0.957555 0.666433,-0.01672 1.347913,0.03295 2.005092,-0.02459 0.01654,-0.656665 -0.03812,-1.323738 -0.04857,-1.98434 0.337951,-0.01696 0.691109,0.03317 1.019811,-0.02459 0.01821,-0.350598 0.03727,-0.726657 -0.0099,-1.072213 -0.321481,-0.03976 -0.654121,-0.02097 -0.979876,-0.03828 -0.01362,-0.416139 0.02673,-0.843031 -0.01936,-1.252703 -0.335453,-0.314771 -0.633063,-0.680559 -1.000453,-0.956682 -0.190101,-0.01507 -0.02795,0.324643 -0.250942,0.221034 -0.214591,-0.05474 -0.646241,0.113098 -0.716875,-0.08926 -0.02483,-0.298201 0.01874,-0.613694 -0.0472,-0.901518 -0.341534,-0.02159 -0.710501,-0.05588 -1.04745,-0.0157 z m 0.516095,2.120972 c 0.476453,0 0.952905,0 1.429357,0 0,0.949097 0,1.898193 0,2.84729 -0.955916,0.05567 -1.9032,0.05495 -2.858713,0.01038 0,-0.952555 0,-1.905111 0,-2.857666 0.476452,0 0.952904,0 1.429356,0 z"
       id="path890"
       inkscape:connector-curvature="0"
       transform="matrix(0.26458333,0,0,0.26458333,0,288.53333)" />
    <path
       style="opacity:1;fill:none;fill-opacity:1;fill-rule:nonzero;stroke:#bfbf00;stroke-width:0.26458333;stroke-linecap:butt;stroke-linejoin:miter;stroke-miterlimit:4;stroke-dasharray:none;stroke-opacity:1;paint-order:normal"
       d="m 5.8208335,294.35416 -0.396875,-0.39687 V 293.6927 H 4.6302083 v 0.26459 H 4.1010416 v 0.52916 H 3.8364583 v 0.52917 h 0.2645833 v 0.26458 l 0.2645833,0.26459 h 0.2645834"
       id="path854"
       inkscape:connector-curvature="0" />
    <path
       style="opacity:1;fill:none;fill-opacity:1;fill-rule:nonzero;stroke:#000000;stroke-width:0.26458332;stroke-linecap:butt;stroke-linejoin:miter;stroke-miterlimit:4;stroke-dasharray:none;stroke-opacity:1;paint-order:normal"
       d="m 5.5562502,293.95729 h 0.396875 v 0.52916 h -0.396875 0.6614583 v 0.52917 h -0.6614583 0.396875 v 0.52917 h -0.396875"
       id="path856"
       inkscape:connector-curvature="0" />
    <path
       style="opacity:1;fill:none;fill-opacity:1;fill-rule:nonzero;stroke:#000000;stroke-width:0.26458332;stroke-linecap:butt;stroke-linejoin:miter;stroke-miterlimit:4;stroke-dasharray:none;stroke-opacity:1;paint-order:normal"
       d="M 5.5562502,295.80937 H 5.1593749 v -0.39687 0.39687 H 4.6302083 v -0.39687"
       id="path858"
       inkscape:connector-curvature="0" />
    <path
       style="opacity:1;fill:none;fill-opacity:1;fill-rule:nonzero;stroke:#000000;stroke-width:0.26458332;stroke-linecap:butt;stroke-linejoin:miter;stroke-miterlimit:4;stroke-dasharray:none;stroke-opacity:1;paint-order:normal"
       d="M 4.2333333,295.54479 H 3.96875"
       id="path861"
       inkscape:connector-curvature="0" />
    <path
       style="opacity:1;fill:none;fill-opacity:1;fill-rule:nonzero;stroke:#000000;stroke-width:0.26458332;stroke-linecap:butt;stroke-linejoin:miter;stroke-miterlimit:4;stroke-dasharray:none;stroke-opacity:1;paint-order:normal"
       d="M 4.7624999,293.95729 H 4.4979166"
       id="path863"
       inkscape:connector-curvature="0" />
    <path
       style="opacity:1;fill:none;fill-opacity:1;fill-rule:nonzero;stroke:#000000;stroke-width:0.26458332;stroke-linecap:butt;stroke-linejoin:miter;stroke-miterlimit:4;stroke-dasharray:none;stroke-opacity:1;paint-order:normal"
       d="M 5.2916669,293.95729 H 5.0270833"
       id="path865"
       inkscape:connector-curvature="0" />
    <path
       style="opacity:1;fill:none;fill-opacity:1;fill-rule:nonzero;stroke:#bfbf00;stroke-width:0.26458332;stroke-linecap:butt;stroke-linejoin:miter;stroke-miterlimit:4;stroke-dasharray:none;stroke-opacity:1;paint-order:normal"
       d="M 5.8208335,294.22187 H 5.5562502"
       id="path867"
       inkscape:connector-curvature="0" />
    <path
       style="opacity:1;fill:none;fill-opacity:1;fill-rule:nonzero;stroke:#bfbf00;stroke-width:0.26458332;stroke-linecap:butt;stroke-linejoin:miter;stroke-miterlimit:4;stroke-dasharray:none;stroke-opacity:1;paint-order:normal"
       d="M 5.8208335,294.75104 H 6.0854169"
       id="path869"
       inkscape:connector-curvature="0" />
    <path
       style="opacity:1;fill:none;fill-opacity:1;fill-rule:nonzero;stroke:#bfbf00;stroke-width:0.26458332;stroke-linecap:butt;stroke-linejoin:miter;stroke-miterlimit:4;stroke-dasharray:none;stroke-opacity:1;paint-order:normal"
       d="M 5.8208335,295.2802 H 5.5562502"
       id="path871"
       inkscape:connector-curvature="0" />
    <path
       style="opacity:1;fill:none;fill-opacity:1;fill-rule:nonzero;stroke:#bfbf00;stroke-width:0.26458332;stroke-linecap:butt;stroke-linejoin:miter;stroke-miterlimit:4;stroke-dasharray:none;stroke-opacity:1;paint-order:normal"
       d="M 5.5562502,295.54479 H 5.2916669"
       id="path873"
       inkscape:connector-curvature="0" />
    <path
       style="opacity:1;fill:none;fill-opacity:1;fill-rule:nonzero;stroke:#bfbf00;stroke-width:0.26458332;stroke-linecap:butt;stroke-linejoin:miter;stroke-miterlimit:4;stroke-dasharray:none;stroke-opacity:1;paint-order:normal"
       d="m 4.1010416,295.14791 v 0.26459"
       id="path875"
       inkscape:connector-curvature="0" />
    <path
       style="opacity:1;fill:none;fill-opacity:1;fill-rule:nonzero;stroke:#bfbf00;stroke-width:0.26458332;stroke-linecap:butt;stroke-linejoin:miter;stroke-miterlimit:4;stroke-dasharray:none;stroke-opacity:1;paint-order:normal"
       d="M 4.2333333,295.54479 H 4.4979166"
       id="path877"
       inkscape:connector-curvature="0" />
    <rect
       style="opacity:1;fill:#808080;fill-opacity:1;fill-rule:nonzero;stroke:#bfbf00;stroke-width:0.26458332;stroke-linecap:butt;stroke-linejoin:miter;stroke-miterlimit:4;stroke-dasharray:none;stroke-opacity:1;paint-order:normal"
       id="rect879"
       width="0.52916664"
       height="0.52916664"
       x="4.6302085"
       y="294.48645" />
    <path
       style="opacity:1;fill:#000000;fill-opacity:1;fill-rule:nonzero;stroke:#000000;stroke-width:0.26458332;stroke-linecap:butt;stroke-linejoin:miter;stroke-miterlimit:4;stroke-dasharray:none;stroke-opacity:1;paint-order:normal"
       d="m 4.8947916,294.61875 v -0.26459"
       id="path881"
       inkscape:connector-curvature="0" />
    <path
       style="opacity:1;fill:#000000;fill-opacity:1;fill-rule:nonzero;stroke:#000000;stroke-width:0.26458332;stroke-linecap:butt;stroke-linejoin:miter;stroke-miterlimit:4;stroke-dasharray:none;stroke-opacity:1;paint-order:normal"
       d="M 4.7624999,294.75104 H 4.4979166"
       id="path883"
       inkscape:connector-curvature="0" />
    <path
       style="opacity:1;fill:#000000;fill-opacity:1;fill-rule:nonzero;stroke:#000000;stroke-width:0.26458332;stroke-linecap:butt;stroke-linejoin:miter;stroke-miterlimit:4;stroke-dasharray:none;stroke-opacity:1;paint-order:normal"
       d="m 4.8947916,294.88333 v 0.26458"
       id="path886"
       inkscape:connector-curvature="0" />
    <path
       style="opacity:1;fill:#000000;fill-opacity:1;fill-rule:nonzero;stroke:#000000;stroke-width:0.26458332;stroke-linecap:butt;stroke-linejoin:miter;stroke-miterlimit:4;stroke-dasharray:none;stroke-opacity:1;paint-order:normal"
       d="M 5.2916669,294.75104 H 5.0270833"
       id="path888"
       inkscape:connector-curvature="0" />
  </g>
</svg>
