<?xml version="1.0" encoding="UTF-8" standalone="no"?>
<!-- Created with Inkscape (http://www.inkscape.org/) -->

<svg
   width="32"
   height="32"
   viewBox="0 0 8.4666667 8.4666667"
   version="1.1"
   id="svg8"
   inkscape:version="1.2.2 (b0a8486541, 2022-12-01)"
   sodipodi:docname="text-script.svg"
   xml:space="preserve"
   xmlns:inkscape="http://www.inkscape.org/namespaces/inkscape"
   xmlns:sodipodi="http://sodipodi.sourceforge.net/DTD/sodipodi-0.dtd"
   xmlns="http://www.w3.org/2000/svg"
   xmlns:svg="http://www.w3.org/2000/svg"
   xmlns:rdf="http://www.w3.org/1999/02/22-rdf-syntax-ns#"
   xmlns:cc="http://creativecommons.org/ns#"
   xmlns:dc="http://purl.org/dc/elements/1.1/"><defs
     id="defs2" /><sodipodi:namedview
     id="base"
     pagecolor="#ffffff"
     bordercolor="#666666"
     borderopacity="1.0"
     inkscape:pageopacity="0.0"
     inkscape:pageshadow="2"
     inkscape:zoom="45.254834"
     inkscape:cx="13.379786"
     inkscape:cy="10.562408"
     inkscape:document-units="px"
     inkscape:current-layer="g4624"
     showgrid="true"
     units="px"
     inkscape:window-width="1920"
     inkscape:window-height="1028"
     inkscape:window-x="0"
     inkscape:window-y="22"
     inkscape:window-maximized="1"
     inkscape:showpageshadow="0"
     inkscape:pagecheckerboard="0"
     inkscape:deskcolor="#d1d1d1"><inkscape:grid
       type="xygrid"
       id="grid4485"
       spacingx="0.13229167"
       spacingy="0.13229167"
       empspacing="2" /></sodipodi:namedview><metadata
     id="metadata5"><rdf:RDF><cc:Work
         rdf:about=""><dc:format>image/svg+xml</dc:format><dc:type
           rdf:resource="http://purl.org/dc/dcmitype/StillImage" /><dc:title /></cc:Work></rdf:RDF></metadata><g
     inkscape:label="Layer 1"
     inkscape:groupmode="layer"
     id="layer1"
     transform="translate(0,-288.53333)"><g
       id="g4624"
       transform="translate(-7.4083337)"><g
         id="layer1-67"
         inkscape:label="Layer 1"
         transform="matrix(0.26458333,0,0,0.26458333,0.72760457,290.35233)"><g
           transform="matrix(2.1256967,0,0,2.1883377,31.813642,-636.3368)"
           id="layer1-6"
           inkscape:label="Layer 1"
           style="stroke-width:0.8762"><path
             inkscape:connector-curvature="0"
             id="path4589"
             d="m 3.027882,290.61411 h 2.5873871 l 0.2055644,0.16818 H 5.6885419 l -0.5437068,0.74576 v 0.91393 l 1.0728734,1.25072 v 1.05834 l -0.79375,0.79375 H 2.5135417 L 1.984375,295.01562 v -0.52917 l 0.5291667,-0.52916 H 3.0427083 V 293.6927 L 2.778125,293.16354 2.5135417,292.89895 2.2489584,292.36979 v -0.92604 z"
             style="fill:#98dddd;fill-opacity:1;stroke:none;stroke-width:0.463652;stroke-linecap:round;stroke-linejoin:bevel;stroke-miterlimit:4;stroke-dasharray:none;stroke-opacity:1"
             sodipodi:nodetypes="cccccccccccccccccccc" /><path
             inkscape:connector-curvature="0"
             id="path4622"
             d="m 5.6885419,290.78229 -0.7937503,0.79375 v 0.26458 l 0.5291669,0.26458 h 0.396875 l 0.2648696,-0.34867 0.1320054,-0.70966 -0.2645833,-0.26458 z"
             style="fill:#457171;fill-opacity:1;stroke:none;stroke-width:0.463652;stroke-linecap:square;stroke-linejoin:bevel;stroke-miterlimit:4;stroke-dasharray:none;stroke-opacity:1"
             sodipodi:nodetypes="ccccccccc" /><path
             inkscape:connector-curvature="0"
             id="path4626"
             d="M 1.9843751,295.01562 H 4.7625"
             style="opacity:0.75;fill:#457171;fill-opacity:1;stroke:#457171;stroke-width:0.463652;stroke-linecap:butt;stroke-linejoin:bevel;stroke-miterlimit:4;stroke-dasharray:none;stroke-opacity:1"
             sodipodi:nodetypes="cc" /><path
             inkscape:connector-curvature="0"
             id="path4626-3"
             d="m 2.2489585,295.2802 h 2.778125"
             style="opacity:1;fill:#457171;fill-opacity:1;stroke:#457171;stroke-width:0.463652;stroke-linecap:butt;stroke-linejoin:bevel;stroke-miterlimit:4;stroke-dasharray:none;stroke-opacity:1"
             sodipodi:nodetypes="cc" /><path
             inkscape:connector-curvature="0"
             id="path4628-6"
             d="M 1.984375,294.75104 H 4.4979167"
             style="opacity:0.5;fill:#457171;fill-opacity:1;stroke:#457171;stroke-width:0.463652;stroke-linecap:butt;stroke-linejoin:bevel;stroke-miterlimit:4;stroke-dasharray:none;stroke-opacity:1"
             sodipodi:nodetypes="cc" /><g
             id="g4581"
             style="stroke-width:0.463652;stroke-miterlimit:4;stroke-dasharray:none"><path
               sodipodi:nodetypes="csasccccccc"
               style="fill:none;stroke:#808080;stroke-width:0.463652;stroke-linecap:butt;stroke-linejoin:bevel;stroke-miterlimit:4;stroke-dasharray:none;stroke-opacity:1"
               d="m 3.027882,294.04137 v -0.45697 c 0,-0.22865 -0.1327054,-0.31881 -0.235217,-0.45697 -0.064834,-0.0874 -0.152589,-0.14822 -0.235217,-0.22848 -0.235217,-0.22848 -0.235217,-0.45697 -0.235217,-0.45697 v -1.14242 c 0,-0.45697 0.705651,-0.68545 0.705651,-0.68545 v 0 h 2.1169531 0.470434 l 0.470434,0.22848"
               id="path3766"
               inkscape:connector-curvature="0" /><path
               sodipodi:nodetypes="cccssc"
               style="fill:none;fill-opacity:1;stroke:#808080;stroke-width:0.463652;stroke-linecap:round;stroke-linejoin:bevel;stroke-miterlimit:4;stroke-dasharray:none;stroke-opacity:1"
               d="M 4.9096181,294.26985 H 2.557448 c 0,0 -0.705651,2e-5 -0.705651,0.45697 -2e-7,-0.0244 0,0.0762 0,0.22849 0,0.45696 0.470434,0.68545 0.705651,0.68545 h 0.235217"
               id="path4577"
               inkscape:connector-curvature="0" /></g><path
             inkscape:connector-curvature="0"
             id="path4624"
             d="m 4.8947916,294.08958 -0.5291667,0.39687 0.1322917,0.39688 0.6614583,0.66146 h 0.2645836 l 0.2645834,-0.26459 -0.7937503,-0.66145 0.2645833,-0.26459 z"
             style="fill:#457171;fill-opacity:1;stroke:none;stroke-width:0.463652;stroke-linecap:square;stroke-linejoin:bevel;stroke-miterlimit:4;stroke-dasharray:none;stroke-opacity:1"
             sodipodi:nodetypes="ccccccccc" /><path
             sodipodi:nodetypes="cccc"
             inkscape:connector-curvature="0"
             id="path834"
             d="m 5.1448351,291.98501 0.235217,-0.45696 0.235217,-0.45697 h 0.470434"
             style="opacity:1;fill:none;fill-opacity:1;stroke:#3b4b4b;stroke-width:0.463652;stroke-linecap:butt;stroke-linejoin:bevel;stroke-miterlimit:4;stroke-dasharray:none;stroke-opacity:1" /><path
             sodipodi:nodetypes="ccc"
             inkscape:connector-curvature="0"
             id="path836"
             d="m 5.0270835,294.08958 -0.5291667,0.52917 0.79375,0.92604"
             style="opacity:0.75;fill:none;fill-opacity:1;stroke:#3b4b4b;stroke-width:0.463652;stroke-linecap:butt;stroke-linejoin:bevel;stroke-miterlimit:4;stroke-dasharray:none;stroke-opacity:1" /><path
             sodipodi:nodetypes="cccscccsccccc"
             inkscape:connector-curvature="0"
             id="path4583"
             d="m 2.792665,295.64076 2.5873871,3e-5 c 0,0 0.705651,-0.22849 0.705651,-0.91394 0,-0.45697 0.080343,-0.56989 0,-0.91393 -0.1320054,-0.56527 -0.4556075,-0.6133 -0.940868,-1.37094 0.014826,-0.1563 0.014827,-0.50496 0,-0.91393 0.014827,-0.73345 0.5437068,-0.74573 0.5437068,-0.74573 0,0 0.184712,-0.0363 0.2645833,0 0.1325779,0.0603 0.1325779,0.28879 0.1325779,0.28879 v 0.45694 l -0.235217,0.45699 -0.470434,0.22849 -0.220677,-0.24059"
             style="fill:none;fill-opacity:1;stroke:#000000;stroke-width:0.463652;stroke-linecap:square;stroke-linejoin:bevel;stroke-miterlimit:4;stroke-dasharray:none;stroke-opacity:1" /><path
             sodipodi:nodetypes="cssac"
             inkscape:connector-curvature="0"
             id="path4585"
             d="m 5.1448351,295.41227 c 0,0 -0.705651,-0.22848 -0.705651,-0.45696 v -0.22849 c -1e-7,-0.233 0.2492582,-0.44128 0.470434,-0.45697 0.103491,-0.007 0.2497568,0.1805 0.2497568,0.1805"
             style="fill:none;fill-opacity:1;stroke:#000000;stroke-width:0.463652;stroke-linecap:square;stroke-linejoin:bevel;stroke-miterlimit:4;stroke-dasharray:none;stroke-opacity:1" /><path
             inkscape:connector-curvature="0"
             id="path4614"
             d="M 3.263099,291.52805 H 4.203967"
             style="fill:#98dddd;fill-opacity:1;stroke:#008080;stroke-width:0.463652;stroke-linecap:square;stroke-linejoin:bevel;stroke-miterlimit:4;stroke-dasharray:none;stroke-opacity:1"
             sodipodi:nodetypes="cc" /><path
             inkscape:connector-curvature="0"
             id="path4614-5"
             d="M 3.733533,293.35592 H 4.674401"
             style="fill:#98dddd;fill-opacity:1;stroke:#008080;stroke-width:0.463652;stroke-linecap:square;stroke-linejoin:bevel;stroke-miterlimit:4;stroke-dasharray:none;stroke-opacity:1"
             sodipodi:nodetypes="cc" /><path
             inkscape:connector-curvature="0"
             id="path4618"
             d="M 4.6744011,292.44198 H 3.263099"
             style="fill:#98dddd;fill-opacity:1;stroke:#008080;stroke-width:0.463652;stroke-linecap:square;stroke-linejoin:bevel;stroke-miterlimit:4;stroke-dasharray:none;stroke-opacity:1"
             sodipodi:nodetypes="cc" /></g></g></g></g></svg>
