<?xml version="1.0" encoding="UTF-8" standalone="no"?>
<!-- Created with Inkscape (http://www.inkscape.org/) -->

<svg
   xmlns:dc="http://purl.org/dc/elements/1.1/"
   xmlns:cc="http://creativecommons.org/ns#"
   xmlns:rdf="http://www.w3.org/1999/02/22-rdf-syntax-ns#"
   xmlns:svg="http://www.w3.org/2000/svg"
   xmlns="http://www.w3.org/2000/svg"
   xmlns:xlink="http://www.w3.org/1999/xlink"
   xmlns:sodipodi="http://sodipodi.sourceforge.net/DTD/sodipodi-0.dtd"
   xmlns:inkscape="http://www.inkscape.org/namespaces/inkscape"
   width="48"
   height="48"
   viewBox="0 0 12.7 12.7"
   version="1.1"
   id="svg8"
   inkscape:version="0.92.3 (2405546, 2018-03-11)"
   sodipodi:docname="dialog-warning.svg">
  <defs
     id="defs2">
    <linearGradient
       inkscape:collect="always"
       id="linearGradient876">
      <stop
         style="stop-color:#ffff39;stop-opacity:1"
         offset="0"
         id="stop872" />
      <stop
         style="stop-color:#e8e800;stop-opacity:1"
         offset="1"
         id="stop874" />
    </linearGradient>
    <linearGradient
       inkscape:collect="always"
       xlink:href="#linearGradient876"
       id="linearGradient878"
       x1="6.5000005"
       y1="3.4999995"
       x2="27.500002"
       y2="28"
       gradientUnits="userSpaceOnUse"
       gradientTransform="matrix(0.39654413,0,0,0.39654413,8.3592776e-7,284.29993)" />
  </defs>
  <sodipodi:namedview
     id="base"
     pagecolor="#ffffff"
     bordercolor="#666666"
     borderopacity="1.0"
     inkscape:pageopacity="0.0"
     inkscape:pageshadow="2"
     inkscape:zoom="15.839192"
     inkscape:cx="38.894057"
     inkscape:cy="-7.9785872"
     inkscape:document-units="px"
     inkscape:current-layer="layer1"
     showgrid="true"
     units="px"
     inkscape:pagecheckerboard="false"
     inkscape:window-width="1920"
     inkscape:window-height="948"
     inkscape:window-x="0"
     inkscape:window-y="27"
     inkscape:window-maximized="1"
     showguides="false">
    <inkscape:grid
       type="xygrid"
       id="grid3713"
       empspacing="2"
       spacingx="0.13229167"
       spacingy="0.13229167" />
  </sodipodi:namedview>
  <metadata
     id="metadata5">
    <rdf:RDF>
      <cc:Work
         rdf:about="">
        <dc:format>image/svg+xml</dc:format>
        <dc:type
           rdf:resource="http://purl.org/dc/dcmitype/StillImage" />
        <dc:title></dc:title>
      </cc:Work>
    </rdf:RDF>
  </metadata>
  <g
     inkscape:label="Layer 1"
     inkscape:groupmode="layer"
     id="layer1"
     transform="translate(0,-284.3)">
    <path
       style="opacity:1;fill:#808080;fill-opacity:1;fill-rule:nonzero;stroke:#808080;stroke-width:0.26458332;stroke-linecap:butt;stroke-linejoin:miter;stroke-miterlimit:4;stroke-dasharray:none;stroke-opacity:1"
       d="m 7.0460194,285.49825 c -0.2374367,-0.007 -0.4604913,0.094 -0.6794063,0.16921 -0.1296118,0.0853 -0.1537116,0.2611 -0.2359992,0.38632 -1.5132114,3.02166 -3.0264231,6.04332 -4.5396348,9.06498 -0.035781,0.22133 -0.012335,0.45048 -0.014898,0.67506 0.00659,0.47776 0.3197959,0.96954 0.805169,1.07389 0.8446694,0.0324 1.6909218,0.0204 2.5362444,0.0285 2.2293156,0.003 4.4588727,0.012 6.6880185,-0.0192 0.437548,0.009 0.804461,-0.34925 0.920929,-0.75252 0.07782,-0.29133 0.03586,-0.59877 0.05488,-0.89667 -0.0132,-0.18475 -0.147919,-0.33554 -0.21443,-0.5048 -1.500605,-2.99528 -3.0011915,-5.99056 -4.5017689,-8.98586 -0.101783,-0.12769 -0.2860403,-0.12679 -0.4281879,-0.18954 -0.1257331,-0.0439 -0.258739,-0.0531 -0.3909152,-0.0493 z"
       id="path851-6"
       inkscape:connector-curvature="0" />
    <path
       style="opacity:1;fill:url(#linearGradient878);fill-opacity:1;fill-rule:nonzero;stroke:none;stroke-width:0.26458333;stroke-linecap:butt;stroke-linejoin:miter;stroke-miterlimit:4;stroke-dasharray:none;stroke-opacity:1"
       d="m 5.717737,284.54835 c -0.2374367,-0.007 -0.4604912,0.094 -0.6794062,0.16921 -0.1296116,0.0853 -0.1537116,0.26109 -0.2359993,0.38632 -1.5132116,3.02166 -3.0264233,6.04331 -4.53963493,9.06497 -0.0357815,0.22134 -0.0123364,0.45048 -0.0149022,0.67506 0.006597,0.47776 0.319796,0.96955 0.80516903,1.07389 0.8446694,0.0324 1.6909218,0.0204 2.5362445,0.0285 2.2293156,0.002 4.4588727,0.0126 6.6880191,-0.0192 0.437548,0.009 0.804461,-0.34924 0.920929,-0.75251 0.07782,-0.29133 0.03586,-0.59877 0.05488,-0.89668 -0.01321,-0.18475 -0.147921,-0.33553 -0.21443,-0.50479 -1.5006049,-2.99527 -3.0011925,-5.99056 -4.5017698,-8.98585 -0.1017826,-0.12762 -0.2860404,-0.12686 -0.428188,-0.18955 -0.125733,-0.0439 -0.2587391,-0.053 -0.3909152,-0.0494 z"
       id="path851"
       inkscape:connector-curvature="0" />
    <path
       style="opacity:1;fill:none;fill-opacity:1;fill-rule:nonzero;stroke:#000000;stroke-width:0.26458332;stroke-linecap:butt;stroke-linejoin:miter;stroke-miterlimit:4;stroke-dasharray:none;stroke-opacity:1"
       d="m 1.190625,296.07396 h 8.922244 c 1.189632,0 1.131923,-1.19063 1.131923,-1.19063 v -0.39687 -0.26459 l -4.7008213,-9.44942 -0.5908456,-0.34016 h -0.396875"
       id="path830"
       inkscape:connector-curvature="0"
       sodipodi:nodetypes="cccccccc" />
    <path
       style="opacity:1;fill:none;fill-opacity:1;fill-rule:nonzero;stroke:#808000;stroke-width:0.26458332;stroke-linecap:butt;stroke-linejoin:miter;stroke-miterlimit:4;stroke-dasharray:none;stroke-opacity:1"
       d="m 1.3229167,296.07396 c -1.1896324,0 -1.1896324,-1.18963 -1.1896324,-1.18963 v -0.39655 -0.19827 l 4.75853,-9.51706 0.5321441,-0.34016 h 0.3968751"
       id="path830-3"
       inkscape:connector-curvature="0"
       sodipodi:nodetypes="ccccccc" />
    <circle
       style="opacity:1;fill:#0a0a0a;fill-opacity:1;fill-rule:nonzero;stroke:#000000;stroke-width:0.26458333;stroke-linecap:butt;stroke-linejoin:miter;stroke-miterlimit:4;stroke-dasharray:none;stroke-opacity:1"
       id="path868"
       cx="5.948163"
       cy="293.81699"
       r="0.59481621" />
    <path
       style="opacity:1;fill:#0a0a0a;fill-opacity:1;fill-rule:nonzero;stroke:#000000;stroke-width:0.26458333;stroke-linecap:butt;stroke-linejoin:miter;stroke-miterlimit:4;stroke-dasharray:none;stroke-opacity:1"
       d="m 5.7498908,292.42909 c 0,0 -0.7930882,-1.58619 -0.7930883,-2.77582 0,-0.26435 -2e-7,-0.39654 0,-0.79308 3e-7,-0.39655 0.2992487,-0.6453 0.5948162,-0.79309 0.1182259,-0.059 0.2783176,-0.059 0.3965442,0 0.2955675,0.14777 0.5948164,0.39654 0.5948161,0.79309 -2e-7,0.26436 0,0.52873 0,0.79308 3e-7,1.18963 -0.7930882,2.77582 -0.7930882,2.77582"
       id="path870"
       inkscape:connector-curvature="0"
       sodipodi:nodetypes="cssssssc" />
  </g>
</svg>
