<?xml version="1.0" encoding="UTF-8" standalone="no"?>
<!-- Created with Inkscape (http://www.inkscape.org/) -->

<svg
   xmlns:dc="http://purl.org/dc/elements/1.1/"
   xmlns:cc="http://creativecommons.org/ns#"
   xmlns:rdf="http://www.w3.org/1999/02/22-rdf-syntax-ns#"
   xmlns:svg="http://www.w3.org/2000/svg"
   xmlns="http://www.w3.org/2000/svg"
   xmlns:xlink="http://www.w3.org/1999/xlink"
   xmlns:sodipodi="http://sodipodi.sourceforge.net/DTD/sodipodi-0.dtd"
   xmlns:inkscape="http://www.inkscape.org/namespaces/inkscape"
   width="48"
   height="48"
   viewBox="0 0 12.7 12.7"
   version="1.1"
   id="svg8"
   inkscape:version="0.92.3 (2405546, 2018-03-11)"
   sodipodi:docname="dialog-question.svg">
  <defs
     id="defs2">
    <linearGradient
       inkscape:collect="always"
       id="linearGradient839">
      <stop
         style="stop-color:#000000;stop-opacity:1;"
         offset="0"
         id="stop835" />
      <stop
         style="stop-color:#808080;stop-opacity:1"
         offset="1"
         id="stop837" />
    </linearGradient>
    <linearGradient
       inkscape:collect="always"
       xlink:href="#linearGradient839"
       id="linearGradient841"
       x1="3.96875"
       y1="291.44376"
       x2="3.4395833"
       y2="290.91458"
       gradientUnits="userSpaceOnUse"
       gradientTransform="matrix(1.4999651,0,0,1.4999651,-3.8833472e-8,-148.48964)" />
  </defs>
  <sodipodi:namedview
     id="base"
     pagecolor="#ffffff"
     bordercolor="#666666"
     borderopacity="1.0"
     inkscape:pageopacity="0.0"
     inkscape:pageshadow="2"
     inkscape:zoom="7.9195958"
     inkscape:cx="7.8334715"
     inkscape:cy="9.0382807"
     inkscape:document-units="px"
     inkscape:current-layer="layer1"
     showgrid="true"
     units="px"
     inkscape:pagecheckerboard="false"
     inkscape:window-width="1920"
     inkscape:window-height="948"
     inkscape:window-x="0"
     inkscape:window-y="27"
     inkscape:window-maximized="1">
    <inkscape:grid
       type="xygrid"
       id="grid3713"
       empspacing="2"
       spacingx="0.13229167"
       spacingy="0.13229167" />
  </sodipodi:namedview>
  <metadata
     id="metadata5">
    <rdf:RDF>
      <cc:Work
         rdf:about="">
        <dc:format>image/svg+xml</dc:format>
        <dc:type
           rdf:resource="http://purl.org/dc/dcmitype/StillImage" />
        <dc:title></dc:title>
      </cc:Work>
    </rdf:RDF>
  </metadata>
  <g
     inkscape:label="Layer 1"
     inkscape:groupmode="layer"
     id="layer1"
     transform="translate(0,-284.3)">
    <path
       style="opacity:1;fill:#808080;fill-opacity:1;fill-rule:nonzero;stroke:#808080;stroke-width:0.26458333;stroke-linecap:butt;stroke-linejoin:miter;stroke-miterlimit:4;stroke-dasharray:none;stroke-opacity:1"
       id="path831-6"
       sodipodi:type="arc"
       sodipodi:cx="6.7467179"
       sodipodi:cy="290.05484"
       sodipodi:rx="5.7545533"
       sodipodi:ry="4.7623892"
       sodipodi:start="1.6394943"
       sodipodi:end="1.3602801"
       sodipodi:open="true"
       d="m 6.3517027,294.806 a 5.7545533,4.7623892 0 0 1 -5.35953457,-4.74589 5.7545533,4.7623892 0 0 1 5.34684127,-4.75569 5.7545533,4.7623892 0 0 1 6.1053856,4.0825 5.7545533,4.7623892 0 0 1 -4.4951782,5.32517" />
    <path
       style="opacity:1;fill:#808080;fill-opacity:1;fill-rule:nonzero;stroke:#808080;stroke-width:0.26458333;stroke-linecap:butt;stroke-linejoin:miter;stroke-miterlimit:4;stroke-dasharray:none;stroke-opacity:1"
       d="m 8.135748,294.61881 v 2.18277 0 c -1.1905968,0 -1.9843288,-1.98434 -1.9843288,-1.98434"
       id="path833-2"
       inkscape:connector-curvature="0"
       sodipodi:nodetypes="cccc" />
    <path
       style="opacity:1;fill:#ffffff;fill-opacity:1;fill-rule:nonzero;stroke:#000000;stroke-width:0.26458333;stroke-linecap:butt;stroke-linejoin:miter;stroke-miterlimit:4;stroke-dasharray:none;stroke-opacity:1"
       d="m 7.3420165,293.82506 v 2.18277 0 c -1.190597,0 -1.9843288,-1.98434 -1.9843288,-1.98434"
       id="path833"
       inkscape:connector-curvature="0"
       sodipodi:nodetypes="cccc" />
    <path
       style="opacity:1;fill:#ffffff;fill-opacity:1;fill-rule:nonzero;stroke:url(#linearGradient841);stroke-width:0.26458333;stroke-linecap:butt;stroke-linejoin:miter;stroke-miterlimit:4;stroke-dasharray:none;stroke-opacity:1"
       id="path831"
       sodipodi:type="arc"
       sodipodi:cx="5.9529862"
       sodipodi:cy="289.26108"
       sodipodi:rx="5.7545533"
       sodipodi:ry="4.7623892"
       sodipodi:start="1.6394943"
       sodipodi:end="1.3602801"
       sodipodi:open="true"
       d="m 5.557971,294.01223 a 5.7545533,4.7623892 0 0 1 -5.35953456,-4.74589 5.7545533,4.7623892 0 0 1 5.34684136,-4.75568 5.7545533,4.7623892 0 0 1 6.1053852,4.0825 5.7545533,4.7623892 0 0 1 -4.4951779,5.32517" />
    <circle
       style="opacity:1;fill:#0000ff;fill-opacity:1;fill-rule:nonzero;stroke:none;stroke-width:0.2202882;stroke-linecap:butt;stroke-linejoin:miter;stroke-miterlimit:4;stroke-dasharray:none;stroke-opacity:1"
       id="path836"
       cx="5.9500332"
       cy="291.311"
       r="0.66084927" />
    <path
       style="opacity:1;fill:#0000ff;fill-opacity:1;fill-rule:nonzero;stroke:none;stroke-width:0.26458333;stroke-linecap:butt;stroke-linejoin:miter;stroke-miterlimit:4;stroke-dasharray:none;stroke-opacity:1"
       d="m 5.9529864,290.25327 c 0,0 -0.3252716,-0.22402 -0.3968659,-0.39686 -0.075939,-0.18333 -0.065683,-0.40805 0,-0.59531 0.1401913,-0.39965 0.591332,-0.62013 0.7937316,-0.99216 0.099956,-0.18373 0.198432,-0.38612 0.1984328,-0.59529 7e-7,-0.20917 -0.088467,-0.41738 -0.1984328,-0.59531 -0.098356,-0.15915 -0.2240232,-0.32527 -0.3968657,-0.39686 -0.3055473,-0.1266 -0.6866173,-0.1266 -0.9921645,0 -0.086422,0.0358 -0.1626357,0.11205 -0.1984328,0.19843 -0.050624,0.12225 -0.069546,0.28433 0,0.39686 0.077757,0.12585 0.2645761,0.1323 0.3968657,0.19845 0.1322879,0.0661 0.3191083,0.0726 0.3968657,0.19843 0.069547,0.11249 0.050624,0.27464 0,0.39686 -0.1073915,0.25927 -0.3360322,0.48791 -0.5952986,0.5953 -0.1222187,0.0505 -0.2746472,0.0505 -0.3968657,0 -0.2592664,-0.10739 -0.4879078,-0.33603 -0.5952987,-0.5953 -0.1012491,-0.24444 -0.1012506,-0.54931 0,-0.79374 0.1789855,-0.43211 0.5600582,-0.81318 0.9921644,-0.99215 0.6110945,-0.25312 1.3732344,-0.25312 1.9843288,0 0.4321062,0.17897 0.813179,0.56004 0.9921644,0.99215 0.1012506,0.24443 0.1012506,0.5493 0,0.79374 -0.2863763,0.69138 -1.3010867,0.89608 -1.587463,1.58746 -0.025313,0.061 0.025315,0.13739 0,0.19844 -0.071595,0.17284 -0.3968657,0.39686 -0.3968657,0.39686"
       id="path838"
       inkscape:connector-curvature="0"
       sodipodi:nodetypes="cssssssssssssssssssssssc" />
  </g>
</svg>
