<?xml version="1.0" encoding="UTF-8" standalone="no"?>
<!-- Created with Inkscape (http://www.inkscape.org/) -->

<svg
   width="48"
   height="48"
   viewBox="0 0 48 48"
   version="1.1"
   id="svg8"
   inkscape:version="1.2.2 (b0a8486541, 2022-12-01)"
   sodipodi:docname="dosemu.svg"
   xml:space="preserve"
   xmlns:inkscape="http://www.inkscape.org/namespaces/inkscape"
   xmlns:sodipodi="http://sodipodi.sourceforge.net/DTD/sodipodi-0.dtd"
   xmlns="http://www.w3.org/2000/svg"
   xmlns:svg="http://www.w3.org/2000/svg"
   xmlns:rdf="http://www.w3.org/1999/02/22-rdf-syntax-ns#"
   xmlns:cc="http://creativecommons.org/ns#"
   xmlns:dc="http://purl.org/dc/elements/1.1/"><defs
     id="defs2" /><sodipodi:namedview
     id="base"
     pagecolor="#ffffff"
     bordercolor="#666666"
     borderopacity="1.0"
     inkscape:pageopacity="0.0"
     inkscape:pageshadow="2"
     inkscape:zoom="22.4"
     inkscape:cx="34.174107"
     inkscape:cy="37.03125"
     inkscape:document-units="px"
     inkscape:current-layer="layer1-5"
     showgrid="true"
     units="px"
     inkscape:window-width="952"
     inkscape:window-height="1023"
     inkscape:window-x="0"
     inkscape:window-y="22"
     inkscape:window-maximized="0"
     inkscape:showpageshadow="0"
     inkscape:pagecheckerboard="0"
     inkscape:deskcolor="#d1d1d1"><inkscape:grid
       type="xygrid"
       id="grid815"
       spacingx="0.5"
       spacingy="0.5"
       empspacing="2" /></sodipodi:namedview><metadata
     id="metadata5"><rdf:RDF><cc:Work
         rdf:about=""><dc:format>image/svg+xml</dc:format><dc:type
           rdf:resource="http://purl.org/dc/dcmitype/StillImage" /></cc:Work></rdf:RDF></metadata><g
     inkscape:label="Layer 1"
     inkscape:groupmode="layer"
     id="layer1"
     transform="translate(0,-284.3)"><g
       inkscape:label="Layer 1"
       id="layer1-5"
       transform="matrix(5.7898766,0,0,5.7302539,-0.79785772,-1369.3273)"
       style="stroke-width:0.656169"><path
         style="opacity:1;fill:#9c00ff;fill-opacity:1;fill-rule:nonzero;stroke:none;stroke-width:0.173611;stroke-linecap:butt;stroke-linejoin:bevel;stroke-miterlimit:4;stroke-dasharray:none;stroke-opacity:1"
         d="m 5.4239585,293.16354 c 0.00143,-0.13228 0.2645834,-0.26459 0.2645834,-0.26459 l 0.753367,-0.045 0.040383,1.89712 c 0.00531,0.24939 -0.4721711,0.80779 -0.4721711,0.80779 l -0.6045034,-0.69805 z"
         id="path859"
         inkscape:connector-curvature="0"
         sodipodi:nodetypes="sccsccs" /><path
         style="opacity:1;fill:#4e0080;fill-opacity:1;fill-rule:nonzero;stroke:none;stroke-width:0.173611;stroke-linecap:butt;stroke-linejoin:round;stroke-miterlimit:4;stroke-dasharray:none;stroke-opacity:1"
         d="m 5.4239585,293.16354 v 1.5875 l 0.2407318,0.37154 c 0,0 0.023852,0.0253 0.1561432,-0.37154 0.1322916,-0.39688 0.1322917,-0.66146 0.011812,-1.28394 -0.0237,-0.12245 -0.2763951,-0.43585 -0.2763951,-0.43585 z"
         id="path970"
         inkscape:connector-curvature="0"
         sodipodi:nodetypes="ccczscc" /><path
         style="opacity:1;fill:#c0c0c0;fill-opacity:1;fill-rule:nonzero;stroke:none;stroke-width:0.173611;stroke-linecap:butt;stroke-linejoin:miter;stroke-miterlimit:4;stroke-dasharray:none;stroke-opacity:1"
         d="m 0.91457294,291.80684 v -3.14122 H 1.7781492 l 0.8635763,1.91964 1.0362915,-1.91964 h 0.690861 v 3.14122 l -0.690861,0.0873 v -1.83238 l -1.0362915,1.74512 H 2.4690103 l -0.8635763,-1.65786 0.00172,1.76201 z"
         id="path845"
         inkscape:connector-curvature="0"
         sodipodi:nodetypes="cccccccccccccc" /><path
         style="opacity:1;fill:#c0c0c0;fill-opacity:1;fill-rule:nonzero;stroke:none;stroke-width:0.173611;stroke-linecap:butt;stroke-linejoin:miter;stroke-miterlimit:4;stroke-dasharray:none;stroke-opacity:1"
         d="m 4.8944735,290.75133 v 0.52916 l 0.504142,0.52917 h 1.512425 l 0.5041421,-0.52917 -0.02334,-0.43346 c -0.2819753,-0.39328 -0.4902394,-0.59902 -0.690861,-0.78531 L 6.1828358,289.88721 H 5.8374055 l -0.2590728,-0.0873 0.086358,-0.52354 0.2100936,-0.11821 0.7398403,0.031 0.1727152,0.26177 v 0.26176 l 0.5683703,-0.031 v -0.43628 L 7.0266155,288.89643 6.5329346,288.63466 H 5.7767219 l -0.6301774,0.29273 -0.3454305,0.69805 0.3454305,0.61079 0.7562129,0.25051 h 0.2520708 c 0.2582458,0.0722 0.4861713,0.21229 0.6325112,0.5348 l -0.3804403,0.25895 H 5.9027574 l -0.5041419,-0.52916 z"
         id="path847"
         inkscape:connector-curvature="0"
         sodipodi:nodetypes="cccccccccccccccccccccccccccccc" /><path
         style="opacity:1;fill:none;fill-opacity:1;fill-rule:nonzero;stroke:#020307;stroke-width:0.173611;stroke-linecap:butt;stroke-linejoin:bevel;stroke-miterlimit:4;stroke-dasharray:none;stroke-opacity:1"
         d="m 5.4056174,293.20294 c 0,-0.26459 0.3454305,-0.34902 0.3454305,-0.34902 h 0.690861 v 1.91963 c 0,0.24945 -0.4317881,0.78531 -0.4317881,0.78531 l -0.6045034,-0.69805 z"
         id="path859-5"
         inkscape:connector-curvature="0"
         sodipodi:nodetypes="sccsccs" /><path
         style="opacity:1;fill:#9c00ff;fill-opacity:1;fill-rule:nonzero;stroke:none;stroke-width:0.173611;stroke-linecap:butt;stroke-linejoin:bevel;stroke-miterlimit:4;stroke-dasharray:none;stroke-opacity:1"
         d="m 4.6302084,295.2802 -0.606313,0.0169 -0.4520203,0.77686 -0.2645834,0.52917 0.2645834,0.26458 H 5.159375 l 0.2645836,-0.26458 -0.5291669,-0.52917 -0.2645833,-0.26458 v -0.52917"
         id="path855"
         inkscape:connector-curvature="0"
         sodipodi:nodetypes="cccccccccc" /><path
         style="opacity:1;fill:#ffff00;fill-opacity:1;fill-rule:nonzero;stroke:none;stroke-width:0.173611;stroke-linecap:butt;stroke-linejoin:bevel;stroke-miterlimit:4;stroke-dasharray:none;stroke-opacity:1"
         d="m 6.4822917,293.6927 h 0.2645835 l 0.7313252,0.3828 0.4317882,0.52354 0.086358,1.22159 -0.4557212,0.78249 -0.7937498,0.26458 H 5.6885418 l -1.0583337,-1.05833 v -0.79375 l 0.2645833,-0.26458 0.4244684,0.0225 0.6045034,0.69806 c 0.3065124,0.1681 0.8541725,0.24336 1.0362915,-0.0873 l 0.051404,-0.36873 -0.264583,-0.26458 -0.2645835,-0.13229 z"
         id="path865-7"
         inkscape:connector-curvature="0"
         sodipodi:nodetypes="cccccccccccccccccc" /><path
         style="opacity:1;fill:#ffff00;fill-opacity:1;fill-rule:nonzero;stroke:none;stroke-width:0.173611;stroke-linecap:butt;stroke-linejoin:round;stroke-miterlimit:4;stroke-dasharray:none;stroke-opacity:1"
         d="M 5.4239585,294.48645 4.6302083,293.6927 v -1.05833 l 0.7937502,-0.79375 h 1.5875 l 0.5291667,0.26458 0.2830057,0.5742 v 0.52354 l -0.1727152,0.17451 -0.3748739,0.0507 -0.5291666,-0.52917 H 5.6885419 l -0.2645834,0.26459 z"
         id="path861"
         inkscape:connector-curvature="0"
         sodipodi:nodetypes="cccccccccccccc" /><path
         style="opacity:1;fill:#808000;fill-opacity:1;fill-rule:nonzero;stroke:none;stroke-width:0.173611;stroke-linecap:butt;stroke-linejoin:round;stroke-miterlimit:4;stroke-dasharray:none;stroke-opacity:1"
         d="m 5.2916669,294.35416 h 0.1322916 v -0.39687 l -0.79375,-0.79375 -2e-7,0.52916 z"
         id="path928"
         inkscape:connector-curvature="0"
         sodipodi:nodetypes="cccccc" /><path
         style="opacity:1;fill:#808000;fill-opacity:1;fill-rule:nonzero;stroke:none;stroke-width:0.173611;stroke-linecap:butt;stroke-linejoin:bevel;stroke-miterlimit:4;stroke-dasharray:none;stroke-opacity:1"
         d="m 4.6302083,295.14791 c 0,0 0.6743103,1.00932 1.2071972,1.19625 0.3745023,0.13137 0.9286998,0.15188 1.2953644,0 0.4033112,-0.16706 0.8635763,-1.04707 0.8635763,-1.04707 v 0 0.78531 l -0.455721,0.52072 -0.5291667,0.26458 -1.3467682,-0.0873 -1.034482,-0.97107 z"
         id="path907"
         inkscape:connector-curvature="0"
         sodipodi:nodetypes="csscccccccc" /><path
         style="opacity:1;fill:#808000;fill-opacity:1;fill-rule:nonzero;stroke:none;stroke-width:0.173611;stroke-linecap:butt;stroke-linejoin:round;stroke-miterlimit:4;stroke-dasharray:none;stroke-opacity:1"
         d="m 6.5282665,294.59904 0.6045034,0.52354 c 0,0 0.036537,-0.28713 0.01098,-0.37154 -0.046074,-0.15217 -0.1382282,-0.30037 -0.2645834,-0.39688 -0.1108198,-0.0846 -0.396875,-0.13229 -0.396875,-0.13229 z"
         id="path926"
         inkscape:connector-curvature="0"
         sodipodi:nodetypes="ccsscc" /><path
         style="opacity:1;fill:#4e0080;fill-opacity:1;fill-rule:nonzero;stroke:none;stroke-width:0.173611;stroke-linecap:butt;stroke-linejoin:bevel;stroke-miterlimit:4;stroke-dasharray:none;stroke-opacity:1"
         d="m 3.571875,296.20625 -0.2645834,0.39687 0.2645834,0.26458 h 1.5874999 l 0.132292,-0.13229 -1e-7,-0.13229 -0.396875,-0.39687 z"
         id="path909"
         inkscape:connector-curvature="0"
         sodipodi:nodetypes="cccccccc" /><path
         style="opacity:1;fill:none;fill-opacity:1;fill-rule:nonzero;stroke:#020307;stroke-width:0.173611;stroke-linecap:butt;stroke-linejoin:round;stroke-miterlimit:4;stroke-dasharray:none;stroke-opacity:1"
         d="m 6.4419089,293.72648 c 0,0 0.086358,0 0.2590729,0 0.2590729,0.0873 0.690861,0.26177 0.8635763,0.43628 0.2201696,0.22246 0.2578057,0.22723 0.3693633,0.45035 0.1322917,0.26459 0.1083589,1.20471 -0.023933,1.46929 -0.1322916,0.26459 -0.1571665,0.38958 -0.3693634,0.52072 -0.2372423,0.14662 -0.514855,0.26458 -0.79375,0.26458 -0.396875,0 -0.1800354,0.0112 -0.5769103,0.0113 -0.591632,-0.0113 -1.1906248,-0.5292 -1.4552083,-1.05837 -0.1322915,-0.39687 -0.1322917,-0.74023 -2e-7,-0.87252 0.1727152,-0.17452 0.2286728,-0.21821 0.5181458,-0.17456 0.230462,0.0955 0.5467568,0.68985 0.7772188,0.78531 0.2444434,0.10125 0.6191329,0.10125 0.8635763,0 0.115231,-0.0477 0.1727152,-0.31156 0.1727152,-0.43628 0,-0.12472 -0.1983547,-0.29857 -0.2995373,-0.3715 -0.079992,-0.0576 -0.3049661,-0.15204 -0.3049661,-0.15204 z"
         id="path865"
         inkscape:connector-curvature="0"
         sodipodi:nodetypes="ccsscssccccsssscc" /><path
         style="opacity:1;fill:#ff0000;fill-opacity:1;fill-rule:nonzero;stroke:none;stroke-width:0.173611;stroke-linecap:butt;stroke-linejoin:miter;stroke-miterlimit:4;stroke-dasharray:none;stroke-opacity:1"
         d="m 3.1750001,292.2375 -0.6614583,1.19062 H 1.4552084 v 1.85208 h 1.3229167 l 0.5291666,-0.66145 v -0.92605 -0.52916 l 0.2848156,-0.30962 h 0.4317881 v 2.1814 l -0.7166037,1.5678 -0.5291666,0.26458 H 0.66145838 l -0.26458331,-0.26458 v -4.7625 H 2.7781251 Z"
         id="path853-3"
         inkscape:connector-curvature="0"
         sodipodi:nodetypes="cccccccccccccccccc" /><path
         style="opacity:1;fill:#800000;fill-opacity:1;fill-rule:nonzero;stroke:none;stroke-width:0.173611;stroke-linecap:butt;stroke-linejoin:bevel;stroke-miterlimit:4;stroke-dasharray:none;stroke-opacity:1"
         d="m 1.3229167,293.42812 v -0.66146 H 2.38125 l 0.2645833,-0.79375 0.1322917,-0.13229 h 0.1322916 l 0.1322917,0.13229 v 0.26459 l -0.7937499,1.19062 z"
         id="path890"
         inkscape:connector-curvature="0" /><path
         style="opacity:1;fill:#800000;fill-opacity:1;fill-rule:nonzero;stroke:none;stroke-width:0.173611;stroke-linecap:butt;stroke-linejoin:bevel;stroke-miterlimit:4;stroke-dasharray:none;stroke-opacity:1"
         d="M 0.52916669,296.73541 1.0583333,296.20625 H 2.778125 l 1.3229166,-1.45521 v 0.39687 L 3.175,296.60312 2.778125,296.8677 H 0.66145835 l -0.13229166,-0.13229"
         id="path888"
         inkscape:connector-curvature="0" /><path
         style="opacity:1;fill:none;fill-opacity:1;fill-rule:nonzero;stroke:#020307;stroke-width:0.173611;stroke-linecap:butt;stroke-linejoin:round;stroke-miterlimit:4;stroke-dasharray:none;stroke-opacity:1"
         d="m 3.1750001,292.2375 -0.6191844,1.13995 H 1.4331666 v 1.91964 l 1.381722,0 0.4924031,-0.67835 v -0.92605 -0.52916 l 0.396875,-0.39688 0.3197287,0.17451 v 2.18141 l -0.690861,1.3961 -0.5181458,0.34902 H 0.74230558 l -0.3454305,-0.34902 v -4.71184 H 2.2967429 2.8148886 Z"
         id="path853-6"
         inkscape:connector-curvature="0"
         sodipodi:nodetypes="ccccccccccccccccccc" /><path
         style="opacity:1;fill:#9c00ff;fill-opacity:1;fill-rule:nonzero;stroke:none;stroke-width:0.173611;stroke-linecap:butt;stroke-linejoin:bevel;stroke-miterlimit:4;stroke-dasharray:none;stroke-opacity:1"
         d="M 2.7781251,295.2802 H 2.5135417 l -0.2645833,-0.52916 0.047785,-1.46084 0.4317881,-0.95982 0.5787606,-0.48976 h 1.5875 l 0.5971829,0.0535 -0.8617662,0.74029 -0.00181,0.56853 H 4.110253 l -0.075336,-0.34898 h -0.529167 l -0.198458,0.30962 v 1.45521 z"
         id="path857"
         inkscape:connector-curvature="0"
         sodipodi:nodetypes="cccccccccccccccc" /><path
         style="opacity:1;fill:#4e0080;fill-opacity:1;fill-rule:nonzero;stroke:none;stroke-width:0.173611;stroke-linecap:butt;stroke-linejoin:round;stroke-miterlimit:4;stroke-dasharray:none;stroke-opacity:1"
         d="m 3.9375378,292.85392 0.086358,0.34902 h 0.6045034 l -1e-7,-0.34899 c 0,0 0.00551,-0.17455 -0.2590728,-0.17455 -0.2645831,0 -0.4317882,0.17455 -0.4317882,0.17455 z"
         id="path974"
         inkscape:connector-curvature="0"
         sodipodi:nodetypes="ccccscc" /><path
         style="opacity:1;fill:#808000;fill-opacity:1;fill-rule:nonzero;stroke:none;stroke-width:0.173611;stroke-linecap:butt;stroke-linejoin:round;stroke-miterlimit:4;stroke-dasharray:none;stroke-opacity:1"
         d="m 6.6145835,292.76666 h 0.396875 c 0.1322917,0 0.1493506,0.21686 0.2645834,0.26459 0.1222212,0.0506 0.1985972,0.0344 0.2885162,-0.003 0.089919,-0.0372 0.1383833,-0.48889 0.1727152,-0.43628 l 0.2002269,0.3068 -0.1138693,0.0422 -0.1727152,0.43628 -0.3748739,0.0507 z"
         id="path947"
         inkscape:connector-curvature="0"
         sodipodi:nodetypes="csszsccccc" /><path
         style="fill:#808000;stroke:none;stroke-width:0.173611;stroke-miterlimit:4.4;stroke-dasharray:none;stroke-opacity:0.5;fill-opacity:1"
         d="m 7.0464122,292.76666 -0.3454305,-0.0873 -0.6045034,-0.0873 -0.5181457,0.26177 h 1.1226491 z"
         id="path7567" /><path
         style="opacity:1;fill:none;fill-opacity:1;fill-rule:nonzero;stroke:#020307;stroke-width:0.173611;stroke-linecap:butt;stroke-linejoin:round;stroke-miterlimit:4;stroke-dasharray:none;stroke-opacity:1"
         d="m 5.4056174,294.51178 c 0,0 -0.5126352,-0.29834 -0.7772186,-0.95981 v -0.69805 c 0,-0.34902 0.6039272,-1.04708 1.4680796,-1.04708 h 0.7772187 c 0.1971985,0 0.431788,0.17452 0.431788,0.17452 0,0 0.3363273,0.20582 0.4317882,0.43628 0.067501,0.16296 0.086358,0.34902 0.086358,0.61079 0,0.12491 -0.057485,0.30129 -0.1727156,0.34902 -0.1629623,0.0675 -0.3551838,0.0675 -0.5181458,0 -0.2304638,-0.0955 -0.2094648,-0.52351 -0.5181453,-0.52351 -0.2645835,0 -0.3592754,-0.002 -0.8635763,-2e-5 -0.1247268,3.9e-4 -0.3454305,0.22431 -0.3454305,0.34904 z"
         id="path861-3"
         inkscape:connector-curvature="0"
         sodipodi:nodetypes="ccssscsssssssc" /><path
         style="opacity:1;fill:none;fill-opacity:1;fill-rule:nonzero;stroke:#020307;stroke-width:0.173611;stroke-linecap:butt;stroke-linejoin:round;stroke-miterlimit:4;stroke-dasharray:none;stroke-opacity:1"
         d="m 3.9375378,295.29709 h 0.690861"
         id="path949"
         inkscape:connector-curvature="0"
         sodipodi:nodetypes="cc" /><path
         style="opacity:1;fill:none;fill-opacity:1;fill-rule:nonzero;stroke:#020307;stroke-width:0.173611;stroke-linecap:butt;stroke-linejoin:round;stroke-miterlimit:4;stroke-dasharray:none;stroke-opacity:1"
         d="m 3.3330344,296.43142 c 0,0 0.2076284,0.43628 0.6045034,0.43628 H 4.801114 c 0.396875,0 0.5181458,-0.26177 0.5181458,-0.26177"
         id="path953"
         inkscape:connector-curvature="0"
         sodipodi:nodetypes="cccc" /><path
         style="opacity:1;fill:#4e0080;fill-opacity:1;fill-rule:nonzero;stroke:none;stroke-width:0.173611;stroke-linecap:butt;stroke-linejoin:round;stroke-miterlimit:4;stroke-dasharray:none;stroke-opacity:1"
         d="m 3.5921073,292.85392 c -0.1322916,0 -0.4922768,0.045 -0.5397038,0.20239 -0.1896297,0.62914 -0.1419869,1.95931 -0.1419869,1.95931 l 0.396875,-0.39687 v -1.45521 z"
         id="path993"
         inkscape:connector-curvature="0"
         sodipodi:nodetypes="cscccc" /><path
         style="opacity:1;fill:none;fill-opacity:1;fill-rule:nonzero;stroke:#020307;stroke-width:0.173611;stroke-linecap:butt;stroke-linejoin:bevel;stroke-miterlimit:4;stroke-dasharray:none;stroke-opacity:1"
         d="m 2.7781251,295.2802 -0.308667,0.0169 -0.1727152,-0.52354 v -1.39611 l 0.5181457,-1.04707 0.5181458,-0.52354 h 1.5544372 0.9499339 c -0.4317881,0.0873 -0.690861,0.17452 -1.2090067,0.87256 l 0,0.52354 H 4.0238954 l 0,-0.34904 -0.5181458,4e-5 -0.198458,0.30963 v 1.45521 z"
         id="path857-6"
         inkscape:connector-curvature="0"
         sodipodi:nodetypes="cccccccccccccccc" /><path
         style="opacity:1;fill:none;fill-opacity:1;fill-rule:nonzero;stroke:#808080;stroke-width:0.173611;stroke-linecap:butt;stroke-linejoin:miter;stroke-miterlimit:5;stroke-dasharray:none;stroke-opacity:1"
         d="m 1.4327187,291.80684 v -2.00689 l 0.1727153,0.34903"
         id="path995"
         inkscape:connector-curvature="0"
         sodipodi:nodetypes="ccc" /><path
         style="opacity:1;fill:none;fill-opacity:1;fill-rule:nonzero;stroke:#808080;stroke-width:0.173611;stroke-linecap:butt;stroke-linejoin:miter;stroke-miterlimit:5;stroke-dasharray:none;stroke-opacity:1"
         d="m 1.605434,288.66562 1.0362915,2.18141"
         id="path1020"
         inkscape:connector-curvature="0"
         sodipodi:nodetypes="cc" /><path
         style="opacity:1;fill:none;fill-opacity:1;fill-rule:nonzero;stroke:#020307;stroke-width:0.173611;stroke-linecap:butt;stroke-linejoin:miter;stroke-miterlimit:4.4;stroke-dasharray:none;stroke-opacity:1"
         d="m 0.91457294,291.80684 v -3.14122 H 1.7597674 l 0.8819581,2.00689 1.0362915,-2.00689 h 0.690861 v 3.14122 H 3.678017 v -1.74512 l -0.9499339,1.74512 H 2.4690103 L 1.605434,290.06172 v 1.74512 z"
         id="path845-9"
         inkscape:connector-curvature="0"
         sodipodi:nodetypes="cccccccccccccc" /><path
         style="opacity:1;fill:none;fill-opacity:1;fill-rule:nonzero;stroke:#808080;stroke-width:0.173611;stroke-linecap:butt;stroke-linejoin:miter;stroke-miterlimit:5;stroke-dasharray:none;stroke-opacity:1"
         d="m 4.1961628,291.71959 v -2.96671"
         id="path1024"
         inkscape:connector-curvature="0"
         sodipodi:nodetypes="cc" /><path
         style="opacity:1;fill:none;fill-opacity:1;fill-rule:nonzero;stroke:#808080;stroke-width:0.173611;stroke-linecap:butt;stroke-linejoin:miter;stroke-miterlimit:5;stroke-dasharray:none;stroke-opacity:1"
         d="m 6.6145835,291.84062 0.6909017,-0.55731 v -0.34903 c -0.1171956,-0.46122 -0.5206524,-0.63473 -0.7772191,-0.87256 l -0.9720163,-0.0732 -0.1322917,-0.26459 0.068017,-0.44752 0.3288581,-0.0816 h 0.396875"
         id="path1041"
         inkscape:connector-curvature="0"
         sodipodi:nodetypes="ccccccccc" /><path
         style="opacity:1;fill:none;fill-opacity:1;fill-rule:nonzero;stroke:#808080;stroke-width:0.173611;stroke-linecap:butt;stroke-linejoin:miter;stroke-miterlimit:5;stroke-dasharray:none;stroke-opacity:1"
         d="m 7.3054852,289.71269 -0.086358,-0.43628 c -0.1727153,-0.26177 -0.4172035,-0.37836 -0.6908611,-0.61079"
         id="path1045"
         inkscape:connector-curvature="0"
         sodipodi:nodetypes="ccc" /><path
         style="opacity:1;fill:none;fill-opacity:1;fill-rule:nonzero;stroke:#020307;stroke-width:0.173611;stroke-linecap:butt;stroke-linejoin:miter;stroke-miterlimit:4;stroke-dasharray:none;stroke-opacity:1"
         d="m 4.8874716,290.75977 v 0.34902 c 0,0.17452 0.3454306,0.69805 0.8635763,0.69805 l 1.0362915,-2e-5 c 0,0 0.405437,-0.17289 0.5181458,-0.34902 0.095073,-0.14857 0.1136666,-0.44076 0.086358,-0.52354 -0.086358,-0.26177 -0.083976,-0.3466 -0.2590733,-0.52352 C 6.873697,290.14897 6.7009818,289.97446 6.182836,289.88721 H 5.8374055 c 0,0 -0.3454305,0 -0.3454305,-0.17452 v -0.26176 c 0,-0.0873 0.085626,-0.26194 0.2590728,-0.26177 0.2297108,-0.006 0.6045035,-2e-5 0.7772187,-3.9e-4 0.1727153,3.7e-4 0.2590729,0.0876 0.2590729,0.26177 v 0.26176 l 0.5181458,3.9e-4 v -0.43626 c 0,0 -0.08171,-0.25703 -0.1727153,-0.34904 -0.1365525,-0.13806 -0.3454305,-0.26177 -0.5181863,-0.26218 -0.2590323,4.1e-4 -0.5181053,4.3e-4 -0.8801077,2e-5 -0.3288586,4.1e-4 -0.6053395,0.25492 -0.7606467,0.52395 -0.1553072,0.26903 -0.1727152,0.52353 0,0.7853 0.066519,0.10081 0.1325073,0.20983 0.2314801,0.27825 0.1335071,0.0923 0.2976219,0.15803 0.4593809,0.15803 0.3454305,0 0.5797657,0.0415 0.7772187,0.1745 0.2590729,0.17451 0.3858946,0.3241 0.3454305,0.43628 -0.04249,0.1178 -0.1727152,0.26177 -0.3454305,0.26177 H 5.9237632 c -0.3454305,-0.0873 -0.5181458,-0.52354 -0.5181458,-0.52354 z"
         id="path847-1"
         inkscape:connector-curvature="0"
         sodipodi:nodetypes="ccccassccccccccccacczsassscccc" /><path
         style="fill:#808000;fill-opacity:1;stroke:none;stroke-width:0.173611;stroke-miterlimit:4.4;stroke-dasharray:none;stroke-opacity:0.5"
         d="m 7.0464122,292.85391 -0.3454305,-0.26177 -0.690861,0.0873 1.0362915,0.17451"
         id="path9019" /><path
         style="fill:#808000;fill-opacity:1;stroke:none;stroke-width:0.173611;stroke-miterlimit:4.4;stroke-dasharray:none;stroke-opacity:0.5"
         d="M 6.6146241,292.6794 6.3555512,292.50489 6.0964783,292.6794"
         id="path9788" /></g></g></svg>
