<?xml version="1.0" encoding="UTF-8" standalone="no"?>
<!-- Created with Inkscape (http://www.inkscape.org/) -->

<svg
   width="48"
   height="48"
   viewBox="0 0 48 48"
   version="1.1"
   id="svg8"
   inkscape:version="1.2.2 (b0a8486541, 2022-12-01)"
   sodipodi:docname="logout.svg"
   xml:space="preserve"
   xmlns:inkscape="http://www.inkscape.org/namespaces/inkscape"
   xmlns:sodipodi="http://sodipodi.sourceforge.net/DTD/sodipodi-0.dtd"
   xmlns:xlink="http://www.w3.org/1999/xlink"
   xmlns="http://www.w3.org/2000/svg"
   xmlns:svg="http://www.w3.org/2000/svg"
   xmlns:rdf="http://www.w3.org/1999/02/22-rdf-syntax-ns#"
   xmlns:cc="http://creativecommons.org/ns#"
   xmlns:dc="http://purl.org/dc/elements/1.1/"><defs
     id="defs2"><linearGradient
       inkscape:collect="always"
       id="linearGradient23575"><stop
         style="stop-color:#f8f8f8;stop-opacity:1;"
         offset="0"
         id="stop23571" /><stop
         style="stop-color:#c0c0c0;stop-opacity:1;"
         offset="1"
         id="stop23573" /></linearGradient><linearGradient
       inkscape:collect="always"
       id="linearGradient7328"><stop
         style="stop-color:#ffff00;stop-opacity:1;"
         offset="0"
         id="stop7324" /><stop
         style="stop-color:#cccc00;stop-opacity:1;"
         offset="0.5"
         id="stop7746" /><stop
         style="stop-color:#999900;stop-opacity:1;"
         offset="1"
         id="stop7326" /></linearGradient><linearGradient
       inkscape:collect="always"
       xlink:href="#linearGradient7328"
       id="linearGradient7330"
       x1="24"
       y1="310.79999"
       x2="24"
       y2="326.79999"
       gradientUnits="userSpaceOnUse" /><linearGradient
       inkscape:collect="always"
       xlink:href="#linearGradient23575"
       id="linearGradient23577"
       x1="18"
       y1="294.29999"
       x2="38"
       y2="312.29999"
       gradientUnits="userSpaceOnUse" /></defs><sodipodi:namedview
     id="base"
     pagecolor="#ffffff"
     bordercolor="#666666"
     borderopacity="1.0"
     inkscape:pageopacity="0.0"
     inkscape:pageshadow="2"
     inkscape:zoom="15.839192"
     inkscape:cx="39.174978"
     inkscape:cy="23.296643"
     inkscape:document-units="px"
     inkscape:current-layer="layer1"
     showgrid="true"
     units="px"
     inkscape:window-width="1920"
     inkscape:window-height="1050"
     inkscape:window-x="1920"
     inkscape:window-y="0"
     inkscape:window-maximized="1"
     inkscape:showpageshadow="0"
     inkscape:pagecheckerboard="0"
     inkscape:deskcolor="#d1d1d1"><inkscape:grid
       type="xygrid"
       id="grid815"
       spacingx="0.5"
       spacingy="0.5"
       empspacing="2" /></sodipodi:namedview><metadata
     id="metadata5"><rdf:RDF><cc:Work
         rdf:about=""><dc:format>image/svg+xml</dc:format><dc:type
           rdf:resource="http://purl.org/dc/dcmitype/StillImage" /></cc:Work></rdf:RDF></metadata><g
     inkscape:label="Layer 1"
     inkscape:groupmode="layer"
     id="layer1"
     transform="translate(0,-284.3)"><path
       style="fill:url(#linearGradient23577);fill-opacity:1;stroke:none;stroke-width:1;stroke-linejoin:bevel;stroke-miterlimit:4.4;stroke-dasharray:none;stroke-opacity:1"
       d="m 13.5,298.3 v 11 l 3,2 12.5,0.5 10.5,-10.5 c 0,0 0,-2.5 0,-2.5 l -12,-12 h -3 z"
       id="path23206" /><path
       id="path6936"
       style="fill:url(#linearGradient7330);fill-opacity:1;stroke:none;stroke-linejoin:bevel;stroke-miterlimit:4.4;stroke-opacity:1"
       d="m 9.5,309.8 -5,5 v 8 l 5.5,5 h 8 l 5.5,-5 H 26 l 1.5,-1.5 2.5,2.5 2.5,-2.5 3,2.5 2.5,-2 2.5,2 4,-4 v -1.5 l -4,-3.5 h -18 l -3.5,-3 -2,-2 z m 1,6 H 13 l 1,1 v 2 l -0.5,1 h -2 L 10,319.3 v -2 z"
       sodipodi:nodetypes="ccccccccccccccccccccccccccccc" /><path
       style="fill:none;stroke:#ffff00;stroke-linejoin:bevel;stroke-miterlimit:4.4;stroke-opacity:1"
       d="m 4.5,321.3 1,-1.5 v -5 l 4.5,-4.5 h 6.5 l 5,5.5 h 20"
       id="path4500"
       sodipodi:nodetypes="ccccccc" /><path
       style="fill:none;stroke:#999900;stroke-linejoin:bevel;stroke-miterlimit:4.4;stroke-opacity:1"
       d="m 5,322.8 h 0.5 l 4.5,4 h 8 l 5.5,-5 H 26 l 1.5,-1.5 2.5,2.5 2.5,-2.5 3,2.5 2.5,-2.5 2.5,2.5 3,-3 v -2"
       id="path3709"
       sodipodi:nodetypes="cccccccccccccc" /><path
       style="fill:none;fill-opacity:1;stroke:#c0c0c0;stroke-width:1;stroke-linejoin:bevel;stroke-miterlimit:4.4;stroke-dasharray:none;stroke-opacity:1"
       d="M 26.5,286.8 39,299.3"
       id="path22478" /><path
       style="fill:none;fill-opacity:1;stroke:#868686;stroke-width:1;stroke-linejoin:bevel;stroke-miterlimit:4.4;stroke-dasharray:none;stroke-opacity:1"
       d="m 27,286.8 h -2.5 l -11,11 v 12.5"
       id="path13447" /><path
       style="fill:none;fill-opacity:1;stroke:#c0c0c0;stroke-width:1;stroke-linejoin:bevel;stroke-miterlimit:4.4;stroke-dasharray:none;stroke-opacity:1"
       d="M 17.5,310.8 H 29 l 9.5,-9.5 v -3.5"
       id="path21518"
       sodipodi:nodetypes="cccc" /><path
       style="fill:none;fill-opacity:1;stroke:#000000;stroke-width:1;stroke-linejoin:bevel;stroke-miterlimit:4.4;stroke-dasharray:none;stroke-opacity:1"
       d="M 19.5,311.8 H 29 l 10.5,-10.5 v -2.5 l -12,-12 H 27"
       id="path14307"
       sodipodi:nodetypes="cccccc" /><path
       style="fill:none;stroke:#808000;stroke-linejoin:bevel;stroke-miterlimit:4.4;stroke-opacity:1"
       d="m 6,324.3 -1.5,-1.5 v -8 l 5,-5 h 1 1 5.5 l 5,5 h 18.5 l 3,2.5"
       id="path364"
       sodipodi:nodetypes="cccccccccc" /><path
       style="fill:none;stroke:#000000;stroke-linejoin:bevel;stroke-miterlimit:4.4;stroke-opacity:1"
       d="m 43,316.8 1,1 0.5,1 v 1 l -1,1.5 -3,2.5 -2.5,-2.5 -2.5,2.5 -3,-2.5 -2.5,2.5 -2.5,-2.5 -1.5,1.5 h -2.5 l -5.5,5 h -8 l -4.5,-4"
       id="path1898"
       sodipodi:nodetypes="cccccccccccccccc" /><path
       style="fill:none;stroke:#999900;stroke-linejoin:bevel;stroke-miterlimit:4.4;stroke-opacity:1"
       d="m 10,316.3 -1,1.5 0.5,2 1,1 3,-0.5 0.5,-1 v -2 l -1,-1"
       id="path6208"
       sodipodi:nodetypes="cccccccc" /><path
       style="fill:none;fill-opacity:1;stroke:#cccc00;stroke-width:1;stroke-linejoin:bevel;stroke-miterlimit:4.4;stroke-dasharray:none;stroke-opacity:1"
       d="m 12.5,309.8 -3,3 v 4"
       id="path20004" /><path
       style="fill:none;stroke:#000000;stroke-linejoin:bevel;stroke-miterlimit:4.4;stroke-opacity:1"
       d="m 9.5,316.8 v 2 l 1,1 h 2 l 1,-1 v -2 l -1,-1 h -2 z"
       id="path5291"
       sodipodi:nodetypes="ccccccccc" /><path
       style="fill:none;fill-opacity:1;stroke:#999900;stroke-linejoin:bevel;stroke-miterlimit:4.4;stroke-opacity:1;stroke-width:0.5;stroke-dasharray:none"
       d="M 43,317.8 H 21.5"
       id="path9130" /><path
       style="fill:none;fill-opacity:1;stroke:#999900;stroke-width:0.5;stroke-linejoin:bevel;stroke-miterlimit:4.4;stroke-dasharray:none;stroke-opacity:1"
       d="M 43,319.3 H 21.5"
       id="path12698" /><path
       style="fill:none;fill-opacity:1;stroke:#868686;stroke-width:1;stroke-linejoin:bevel;stroke-miterlimit:4.4;stroke-dasharray:none;stroke-opacity:1"
       d="m 13,317.3 -2,-2.5 v -2.5 l 2,-2.5 2.5,-0.5 H 18"
       id="path16766"
       sodipodi:nodetypes="cccccc" /><path
       style="fill:none;fill-opacity:1;stroke:#cccc00;stroke-width:1;stroke-linejoin:bevel;stroke-miterlimit:4.4;stroke-dasharray:none;stroke-opacity:1"
       d="m 15,310.3 c -1,1 -2,4 -2,6"
       id="path19247"
       sodipodi:nodetypes="cc" /><path
       style="fill:none;fill-opacity:1;stroke:#999900;stroke-width:1;stroke-linejoin:bevel;stroke-miterlimit:4.4;stroke-dasharray:none;stroke-opacity:1"
       d="m 13.5,316.8 c -1.124769,-3.29884 -1.204534,-5.99346 2.5,-6.5"
       id="path18312"
       sodipodi:nodetypes="cc" /><path
       style="fill:none;fill-opacity:1;stroke:#404040;stroke-width:1;stroke-linejoin:bevel;stroke-miterlimit:4.4;stroke-dasharray:none;stroke-opacity:1"
       d="m 13.5,317.3 c 0,0 -1.240587,-1.56344 -1.5,-2.5 -0.177956,-0.64248 -0.153169,-1.35117 0,-2 0.171248,-0.72542 0.436918,-1.51164 1,-2 0.796318,-0.69064 1.959518,-0.83115 3,-1 0.822573,-0.13349 2.5,0 2.5,0"
       id="path17494"
       sodipodi:nodetypes="caaaac" /><path
       style="fill:none;fill-opacity:1;stroke:#000000;stroke-width:1;stroke-linejoin:bevel;stroke-miterlimit:4.4;stroke-dasharray:none;stroke-opacity:1"
       d="m 13.5,317.8 -3,-2 -0.5,-2 v -1 l 1,-2 2,-2 3,-0.5 2,0.5 1.5,2 v 1.5"
       id="path15310" /><path
       style="fill:none;fill-opacity:1;stroke:#808000;stroke-width:1;stroke-linejoin:bevel;stroke-miterlimit:4.4;stroke-dasharray:none;stroke-opacity:1"
       d="m 17.5,310.3 4.5,4.5"
       id="path16038" /><path
       style="fill:none;stroke-linejoin:bevel;stroke-miterlimit:4.4;stroke:#999900;stroke-opacity:1;stroke-width:0.4;stroke-dasharray:none"
       d="m 20,317.8 -4.5,-4.5"
       id="path328" /><path
       style="fill:none;stroke:#999900;stroke-width:0.4;stroke-linejoin:bevel;stroke-miterlimit:4.4;stroke-dasharray:none;stroke-opacity:1"
       d="m 20,320.8 -4.5,4.5"
       id="path1862"
       sodipodi:nodetypes="cc" /><path
       style="fill:none;stroke:#999900;stroke-width:0.4;stroke-linejoin:bevel;stroke-miterlimit:4.4;stroke-dasharray:none;stroke-opacity:1"
       d="m 14.5,314.68588 3,3.11412"
       id="path2801" /><path
       style="fill:none;stroke:#999900;stroke-width:0.4;stroke-linejoin:bevel;stroke-miterlimit:4.4;stroke-dasharray:none;stroke-opacity:1"
       d="m 14.5,323.85706 3,-3.11412"
       id="path2801-3" /><path
       style="fill:none;stroke:#999900;stroke-width:0.4;stroke-linejoin:bevel;stroke-miterlimit:4.4;stroke-dasharray:none;stroke-opacity:1"
       d="m 14.5,323.85706 3,-3.11412"
       id="path3232" /></g></svg>
