<?xml version="1.0" encoding="UTF-8" standalone="no"?>
<!-- Created with Inkscape (http://www.inkscape.org/) -->

<svg
   width="48"
   height="48"
   viewBox="0 0 48 48"
   version="1.1"
   id="svg5"
   inkscape:version="1.2.2 (b0a8486541, 2022-12-01)"
   sodipodi:docname="tomato.svg"
   xml:space="preserve"
   xmlns:inkscape="http://www.inkscape.org/namespaces/inkscape"
   xmlns:sodipodi="http://sodipodi.sourceforge.net/DTD/sodipodi-0.dtd"
   xmlns:xlink="http://www.w3.org/1999/xlink"
   xmlns="http://www.w3.org/2000/svg"
   xmlns:svg="http://www.w3.org/2000/svg"><sodipodi:namedview
     id="namedview7"
     pagecolor="#ffffff"
     bordercolor="#000000"
     borderopacity="0.25"
     inkscape:showpageshadow="2"
     inkscape:pageopacity="0.0"
     inkscape:pagecheckerboard="false"
     inkscape:deskcolor="#d1d1d1"
     inkscape:document-units="px"
     showgrid="true"
     inkscape:zoom="32.78339"
     inkscape:cx="25.592228"
     inkscape:cy="11.194693"
     inkscape:window-width="1920"
     inkscape:window-height="1028"
     inkscape:window-x="0"
     inkscape:window-y="22"
     inkscape:window-maximized="1"
     inkscape:current-layer="g25603"><inkscape:grid
       type="xygrid"
       id="grid9"
       originx="0"
       originy="0"
       empspacing="4"
       spacingx="0.25"
       spacingy="0.25" /></sodipodi:namedview><defs
     id="defs2"><linearGradient
       inkscape:collect="always"
       id="linearGradient30880"><stop
         style="stop-color:#dfc8c8;stop-opacity:1;"
         offset="0"
         id="stop30874" /><stop
         style="stop-color:#ff1a1a;stop-opacity:1;"
         offset="0.24687959"
         id="stop30876" /><stop
         style="stop-color:#000000;stop-opacity:1;"
         offset="1"
         id="stop30878" /></linearGradient><linearGradient
       inkscape:collect="always"
       xlink:href="#linearGradient27614"
       id="linearGradient27616"
       x1="5.2950892"
       y1="8.228281"
       x2="9.4110327"
       y2="10.279922"
       gradientUnits="userSpaceOnUse"
       gradientTransform="matrix(3.6209851,0,0,3.8152206,-13.641359,-22.347097)" /><linearGradient
       inkscape:collect="always"
       id="linearGradient27614"><stop
         style="stop-color:#df2727;stop-opacity:1;"
         offset="0"
         id="stop27610" /><stop
         style="stop-color:#ff1a1a;stop-opacity:1;"
         offset="0.24687959"
         id="stop27618" /><stop
         style="stop-color:#ca2121;stop-opacity:1;"
         offset="1"
         id="stop27612" /></linearGradient><radialGradient
       inkscape:collect="always"
       xlink:href="#linearGradient30880"
       id="radialGradient30872"
       cx="6.1689229"
       cy="8.9905577"
       fx="6.1689229"
       fy="8.9905577"
       r="1.5998837"
       gradientTransform="matrix(8.631952,3.7957913,-1.7071208,7.1367172,-29.205662,-75.578898)"
       gradientUnits="userSpaceOnUse" /><filter
       inkscape:collect="always"
       style="color-interpolation-filters:sRGB"
       id="filter11401"
       x="-0.22677863"
       y="-0.14089001"
       width="1.4535573"
       height="1.2817803"><feGaussianBlur
         inkscape:collect="always"
         stdDeviation="0.046627436"
         id="feGaussianBlur11403" /></filter><filter
       inkscape:collect="always"
       style="color-interpolation-filters:sRGB"
       id="filter11405"
       x="-0.080425586"
       y="-0.53234629"
       width="1.1608512"
       height="2.0646926"><feGaussianBlur
         inkscape:collect="always"
         stdDeviation="0.023169407"
         id="feGaussianBlur11407" /></filter><filter
       inkscape:collect="always"
       style="color-interpolation-filters:sRGB"
       id="filter11409"
       x="-0.075903824"
       y="-0.22724704"
       width="1.1518077"
       height="1.4544941"><feGaussianBlur
         inkscape:collect="always"
         stdDeviation="0.012244498"
         id="feGaussianBlur11411" /></filter><filter
       inkscape:collect="always"
       style="color-interpolation-filters:sRGB"
       id="filter11413"
       x="-0.2070531"
       y="-0.44544632"
       width="1.4141062"
       height="1.8908926"><feGaussianBlur
         inkscape:collect="always"
         stdDeviation="0.038400042"
         id="feGaussianBlur11415" /></filter><filter
       inkscape:collect="always"
       style="color-interpolation-filters:sRGB"
       id="filter11417"
       x="-0.23559887"
       y="-0.29659824"
       width="1.4711977"
       height="1.5932055"><feGaussianBlur
         inkscape:collect="always"
         stdDeviation="0.038400042"
         id="feGaussianBlur11419" /></filter><filter
       inkscape:collect="always"
       style="color-interpolation-filters:sRGB"
       id="filter11421"
       x="-0.10998696"
       y="-0.19198479"
       width="1.2199739"
       height="1.3839696"><feGaussianBlur
         inkscape:collect="always"
         stdDeviation="0.038400042"
         id="feGaussianBlur11423" /></filter><filter
       inkscape:collect="always"
       style="color-interpolation-filters:sRGB"
       id="filter12211"
       x="-0.057783241"
       y="-0.12168014"
       width="1.1155665"
       height="1.2433603"><feGaussianBlur
         inkscape:collect="always"
         stdDeviation="0.038521495"
         id="feGaussianBlur12213" /></filter><filter
       inkscape:collect="always"
       style="color-interpolation-filters:sRGB"
       id="filter12215"
       x="-0.37690637"
       y="-0.10033177"
       width="1.7538127"
       height="1.2006635"><feGaussianBlur
         inkscape:collect="always"
         stdDeviation="0.038521495"
         id="feGaussianBlur12217" /></filter><filter
       inkscape:collect="always"
       style="color-interpolation-filters:sRGB"
       id="filter12219"
       x="-0.057462509"
       y="-0.04538026"
       width="1.114925"
       height="1.0907605"><feGaussianBlur
         inkscape:collect="always"
         stdDeviation="0.038521495"
         id="feGaussianBlur12221" /></filter><linearGradient
       inkscape:collect="always"
       xlink:href="#linearGradient27614"
       id="linearGradient13015"
       gradientUnits="userSpaceOnUse"
       x1="5.2950892"
       y1="8.228281"
       x2="9.4110327"
       y2="10.279922"
       gradientTransform="matrix(3.6209851,0,0,3.8152206,-13.641359,-22.347097)" /><filter
       inkscape:collect="always"
       style="color-interpolation-filters:sRGB"
       id="filter13285"
       x="-0.30206298"
       y="-0.16415396"
       width="1.6041265"
       height="1.3283079"><feGaussianBlur
         inkscape:collect="always"
         stdDeviation="0.056083514"
         id="feGaussianBlur13287" /></filter></defs><g
     inkscape:label="Layer 1"
     inkscape:groupmode="layer"
     id="layer1"><g
       id="g25603"
       transform="matrix(2.1,0,0,2.0713052,-9.3371492,-13.869155)"
       style="stroke-width:0.479478"><circle
         id="path17397"
         style="fill:#ffffff;stroke:#000000;stroke-width:0.479478"
         cx="8.9920034"
         cy="7.5528622"
         r="0" /><circle
         id="path17560"
         style="fill:#ffffff;stroke:#000000;stroke-width:0.479478"
         cx="10.899344"
         cy="9.1174107"
         r="0" /><circle
         id="path25520"
         style="fill:#782121;stroke:#000000;stroke-width:0.479478"
         cx="13.437794"
         cy="13.887872"
         r="0" /><g
         id="g27608"
         transform="matrix(1.893983,0,0,1.6902478,-4.6737254,-4.7059699)"
         style="stroke-width:0.26798"><path
           style="fill:url(#linearGradient27616);fill-opacity:1;stroke:#000000;stroke-width:0.455567;stroke-linecap:square;stroke-linejoin:round;stroke-dasharray:none;stroke-opacity:1"
           id="path8497"
           d="M 12.32868,8.3417885 C 12.094874,8.2793921 11.872608,8.1824437 11.649652,8.0875698 11.326714,7.9402289 10.985739,7.8474534 10.647175,7.7504632 10.286484,7.6531467 9.9177699,7.5917316 9.5489342,7.5404846 9.1132289,7.484584 8.6689508,7.4978018 8.2437937,7.6210029 8.1361634,7.6521682 8.0328887,7.6981477 7.927438,7.7367199 7.6041995,7.8719111 7.3032504,8.0543745 7.0273203,8.2771386 6.9275635,8.3576726 6.7760914,8.5027711 6.676302,8.5966762 6.4390961,8.8283315 6.2116528,9.0704783 5.9787609,9.3068058 5.6920991,9.6042953 5.4431623,9.945132 5.2836372,10.337004 c -0.041454,0.101833 -0.070874,0.208648 -0.1063134,0.312969 -0.1133475,0.41072 -0.1245594,0.837648 -0.1279001,1.261798 0.00254,0.436597 0.058181,0.866706 0.1502247,1.29157 0.1135736,0.496827 0.319512,0.959296 0.5570643,1.401955 0.1395474,0.247437 0.2869088,0.489774 0.4309202,0.734315 0.1089193,0.180012 0.2126015,0.363359 0.3222654,0.542924 0.104271,0.203234 0.2286267,0.3935 0.3568155,0.580771 0.088567,0.136256 0.1914905,0.259734 0.29935,0.3795 0.080489,0.0894 0.1573609,0.149413 0.1026213,0.106147 0.1178338,0.123705 0.2174751,0.224799 0.3221017,0.343812 0.1263879,0.14397 0.2539335,0.286837 0.3840447,0.427065 0.1648937,0.183073 0.351395,0.341115 0.5432842,0.491088 0.1905412,0.146812 0.1896791,0.110034 0.3795614,0.252828 0.1958947,0.135121 0.4131537,0.228163 0.6268566,0.325977 0.1625056,0.06979 0.3212501,0.148294 0.4815843,0.223472 0.268773,0.121783 0.548759,0.208002 0.835174,0.268301 0.293236,0.05765 0.589771,0.05648 0.886204,0.04269 0.49627,-0.03991 0.93805,-0.272068 1.360355,-0.529744 0.183583,-0.128393 0.36783,-0.217381 0.560564,-0.325831 0.2859,-0.173548 0.582961,-0.324757 0.874264,-0.487901 0.295242,-0.165978 0.590009,-0.355073 0.821662,-0.61404 0.07529,-0.08414 0.141326,-0.177057 0.211978,-0.265568 -0.0041,0.0062 -0.01644,0.02438 -0.01237,0.01847 0.135811,-0.194928 0.189761,-0.285139 0.252302,-0.382935 0.145419,-0.243118 0.263275,-0.502815 0.381978,-0.761062 0.131686,-0.29651 0.266955,-0.598473 0.344585,-0.917092 0.02754,-0.112997 0.04705,-0.228 0.07056,-0.342003 0.09663,-0.687358 -0.04152,-1.277892 -0.251435,-1.921945 -0.124523,-0.3911 -0.301989,-0.758644 -0.494514,-1.116609 -0.159278,-0.298287 -0.369413,-0.55839 -0.59378,-0.803643 -0.15127,-0.151291 -0.306225,-0.297642 -0.454591,-0.452212 -0.08385,-0.08436 -0.17015,-0.16389 -0.25595,-0.24585 0.01176,0.01053 0.02337,0.02105 0.03506,0.03161 0.0021,0.0018 0.0082,0.0076 0.0066,0.0053 -0.007,-0.0089 -0.01466,-0.01702 -0.02215,-0.02552 -0.147298,-0.1937296 -0.338352,-0.3303613 -0.51088,-0.4922974 -0.111248,-0.08953 -0.214692,-0.1842467 -0.42627,-0.327281 -0.0064,-0.016948 0.04624,0.032162 0.03512,0.023448 C 13.522955,9.2835173 13.441363,9.2230896 13.256737,9.1016491 13.005978,8.952685 12.731977,8.8590564 12.44818,8.8128702 c -0.04664,-0.0076 -0.186519,-0.029061 -0.140574,-0.017725 0.06982,0.017243 0.141652,0.02367 0.21248,0.035484 -0.160478,-0.051046 -0.337445,-0.079766 -0.507781,-0.1004304 0.0505,0.00748 0.10092,0.015619 0.151501,0.022413 0.0087,0.00117 -0.01676,-0.00545 -0.02527,-0.00779 -0.03487,-0.00949 -0.06974,-0.019168 -0.104888,-0.027475 C 11.879632,8.680828 11.873392,8.681788 11.723078,8.65498 11.454617,8.611116 11.182938,8.6019365 10.911804,8.5978188 10.492601,8.5885849 10.071469,8.6528267 9.6745794,8.7974192 9.5723782,8.8346606 9.4730628,8.8800013 9.3723259,8.9212912 8.8846975,9.1423563 8.4608506,9.4877636 8.1515642,9.945176 7.9392619,10.259153 7.9125959,10.373642 7.7715331,10.71957 c -0.1689717,0.497697 -0.2162863,1.0236 -0.2328329,1.547831 -0.02016,0.481812 0.070748,0.952319 0.2648311,1.38926 0.047744,0.107478 0.110963,0.206561 0.1664443,0.309843 0.2631734,0.43683 0.6244747,0.772658 1.043883,1.036244 0.1837177,0.115478 0.3081589,0.166573 0.503822,0.258647 0.437329,0.200447 0.9022204,0.301568 1.3739414,0.354758 0.306268,0.02799 0.613918,0.02713 0.921055,0.02672 0.517773,-0.0048 0.985476,-0.110169 1.441562,-0.38774 0.09083,-0.05528 0.172737,-0.125459 0.259101,-0.188188 0.574665,-0.509216 0.85684,-1.050163 0.895629,-1.854909 0.0072,-0.146026 -0.02226,-0.291481 -0.03336,-0.437221 -0.03741,-0.150759 -0.06454,-0.304763 -0.112211,-0.452262 -0.156334,-0.483483 -0.452324,-0.921934 -0.805955,-1.267099 -0.08493,-0.0829 -0.179612,-0.153949 -0.269418,-0.230924 -0.467689,-0.366966 -0.965609,-0.555105 -1.529597,-0.680005 -0.453684,-0.09703 -0.911264,-0.07159 -1.364234,0.01055 -0.222095,0.04946 -0.4411426,0.110348 -0.6631687,0.159554 -0.2529393,0.05352 -0.5055038,0.110101 -0.759757,0.156583 0.4865721,-0.03331 0.6268183,-0.0968 1.1507127,0.226977 0.201436,0.124486 0.357728,0.321048 0.503459,0.513314 0.08487,0.111977 0.117733,0.258382 0.17859,0.386538 0.0018,0.0038 0.0089,0.01256 0.009,0.0083 4.61e-4,-0.02881 -0.0052,-0.05739 -0.0077,-0.08608 -0.01283,-0.0369 0.04495,-0.197986 0.02037,-0.0579 0.0028,0.04448 -3.2e-4,-0.03509 -0.01418,0.05925 -0.0021,0.01436 0.02176,-0.01802 0.03163,-0.02822 -0.02399,0.03132 -0.05084,0.06044 -0.07188,0.09399 -0.0042,0.0066 0.01353,-0.0077 0.02023,-0.0115 0.01971,3.49e-4 0.270616,-0.168657 0.17981,-0.08911 -0.02548,0.01635 0.08826,0.0045 0.09985,0.0044 0.07692,-9.84e-4 0.153842,2.14e-4 0.230761,9.89e-4 0.204627,0.01134 0.406767,-0.02427 0.608677,-0.05214 0.0077,-8.23e-4 0.03076,-0.0031 0.02308,-0.0024 -0.06158,0.0044 -0.123252,0.01995 -0.184708,0.01376 -0.376561,-0.03714 -0.49247,-0.05124 -0.798487,-0.224907 -0.0713,-0.04046 -0.132614,-0.09797 -0.198978,-0.146874 0.107674,0.144736 0.214165,0.290716 0.327469,0.431365 0.13798,0.166218 0.286349,0.323597 0.444537,0.47123 0.130821,0.126094 0.261595,0.251866 0.397614,0.371816 0.197459,0.161731 0.391267,0.328361 0.585734,0.494071 0.129123,0.104907 0.239146,0.216929 0.360287,0.332938 0.147038,0.150939 0.307608,0.285321 0.471446,0.415211 0.01207,0.01 0.02383,0.01976 0.0357,0.02976 0.01466,0.0124 0.02962,0.02496 0.04425,0.03764 0.01253,0.01074 0.05058,0.04194 0.03694,0.0329 -0.05016,-0.03338 -0.08999,-0.08537 -0.130771,-0.12933 -0.107674,-0.138586 -0.181975,-0.300766 -0.229696,-0.472029 -0.0084,-0.02989 -0.02598,-0.121435 -0.02058,-0.09085 0.01023,0.05727 0.02317,0.113889 0.03475,0.170854 0.02578,0.173404 6.3e-5,-0.07201 0.0032,0.06399 10e-4,-0.02738 0.0017,0.1404 0.0023,0.105285 0.0052,-0.346807 0.07127,-0.585875 0.238836,-0.882331 0.0055,-0.05384 0.298529,-0.289203 0.111248,-0.144876 -0.01222,0.0094 0.02404,-0.01876 0.03542,-0.02895 0.0024,-0.0021 -0.0057,0.0031 -0.0084,0.0045 -0.196795,0.133217 -0.02361,0.01631 -0.02934,0.01934 -0.08624,0.04565 -0.07688,0.04543 -0.221244,0.13429 -0.330019,0.232391 -0.0906,0.0591 -0.06739,0.04534 0.165407,-0.09807 0.233019,-0.121239 0.103001,-0.06255 -0.03244,0.01452 0.06516,-0.02867 0.09816,-0.04177 -0.101595,0.03509 -0.107415,0.03731 -0.01786,0.0056 -0.596898,0.153858 0.263554,3.859795 0.860454,3.705939 v 0 c 0.222031,-0.06361 0.142043,-0.03583 0.243138,-0.07186 0.244153,-0.08734 0.469356,-0.192057 0.688534,-0.338377 0.02047,-0.01361 -0.04135,0.0266 -0.062,0.03988 0.02094,-0.013 0.05736,-0.01436 0.06278,-0.03938 0.0052,-0.02393 -0.08215,0.04631 -0.06171,0.03454 0.111401,-0.06435 0.22455,-0.126124 0.330307,-0.200696 0.31377,-0.21072 0.607585,-0.456934 0.832452,-0.773063 0.06159,-0.09591 0.132741,-0.185731 0.184775,-0.287731 0.236777,-0.464026 0.32584,-0.887459 0.293412,-1.40443 -0.01283,-0.254933 -0.0349,-0.510101 -0.09573,-0.75809 0.02719,0.166216 -0.01023,-0.06479 -0.02965,-0.146495 -0.06194,-0.258737 -0.157902,-0.501159 -0.290288,-0.728823 -0.03917,-0.06733 -0.08495,-0.130147 -0.127395,-0.195213 -0.195075,-0.258267 -0.416684,-0.488915 -0.671152,-0.682211 -0.130129,-0.103049 -0.04379,-0.02666 -0.213393,-0.19031 -0.169586,-0.162144 -0.33731,-0.326704 -0.51792,-0.4752662 -0.179974,-0.153341 -0.359376,-0.3082033 -0.54265,-0.45678 -0.108772,-0.095142 -0.210978,-0.2007265 -0.318197,-0.2999157 -0.02054,-0.019127 -0.148597,-0.137337 0.02148,0.037733 0.01954,0.020161 -0.03573,-0.043632 -0.05398,-0.0651 C 13.689256,8.9784719 13.695393,8.9851912 13.739343,9.0418467 13.632316,8.9090153 13.456249,8.6519691 13.292239,8.4692481 13.119523,8.2836835 13.009996,8.1497848 12.787187,8.002868 12.341646,7.7090862 11.839832,7.5760516 11.317827,7.6603538 c -0.02944,0.00436 -0.05891,0.00848 -0.08833,0.013006 -0.201095,0.030722 0.246491,0.00565 0.05226,0.00425 -0.01489,-1.243e-4 -0.02979,-2.794e-4 -0.04472,-4.113e-4 -0.142168,-0.00145 -0.284402,-0.00331 -0.426518,0.00257 -0.371313,0.019504 -0.741004,0.071432 -1.0962864,0.1919162 -0.088211,0.0336 -0.1778104,0.063397 -0.2646285,0.1008117 C 9.0940553,8.1257389 8.7639405,8.3408847 8.4533255,8.576865 8.2216781,8.7747337 8.1994893,8.7824399 7.9658146,9.0455683 7.7036113,9.3408167 7.5105488,9.7027171 7.3548915,10.068907 c -0.037759,0.111629 -0.080109,0.221653 -0.1132758,0.334892 -0.1498727,0.511748 -0.1761392,1.055496 -0.1298503,1.585817 0.052818,0.418666 0.1063256,0.876068 0.338746,1.236638 0.1629819,0.252844 0.352753,0.501168 0.5952703,0.668873 0.6112307,0.422672 0.8354811,0.344036 1.4515176,0.33386 0.2941322,-0.05479 0.5867287,-0.118577 0.8794607,-0.18092 0.183377,-0.04069 0.366394,-0.08312 0.547621,-0.133216 0.002,-5.63e-4 -0.0041,-0.0011 -0.0061,-0.0017 0.07917,-0.01497 0.119153,-0.0092 0.0064,-0.01972 -0.01272,-0.0012 -0.05013,-0.0049 -0.03759,-0.0074 0.01832,-0.0037 0.03718,0.0031 0.0558,0.0038 0.008,3.59e-4 0.01613,-2.13e-4 0.02416,-3.17e-4 0.07401,-0.002 -0.0134,-0.02853 0.02736,-0.02961 -0.03997,-0.0483 -0.05943,-0.0697 -0.09735,-0.129437 -0.073,-0.115009 -0.07691,-0.285799 -0.105503,-0.412383 -7.38e-4,-0.06969 -0.0106,-0.139931 -0.0022,-0.20906 0.05763,-0.473448 0.183384,-0.801466 0.547855,-1.091442 0.107057,-0.06692 0.155282,-0.103711 0.287837,-0.14607 0.08099,-0.02589 0.165081,-0.03944 0.248159,-0.05638 0.007,-0.0015 0.02854,2.33e-4 0.02148,0.0014 -0.120499,0.01995 -0.0396,-0.0023 -0.08631,0.01104 -0.18888,2.62e-4 -0.377991,0.002 -0.56666,-0.0091 -0.103538,-0.0051 -0.204488,-0.02033 -0.300379,-0.06539 -0.0093,-0.0024 -0.01888,-0.004 -0.02788,-0.0072 -0.01543,-0.0057 -0.0471,-0.03754 -0.04527,-0.02039 0.0024,0.02291 0.03282,0.03066 0.04811,0.04715 0.06011,0.06489 0.104666,0.11575 0.139177,0.196799 0.04493,0.111712 0.08682,0.226036 0.09909,0.347598 0.0033,0.03253 0.0052,0.06527 0.0059,0.09801 2.92e-4,0.01391 -0.0019,0.05577 -0.0029,0.04183 -0.0018,-0.02449 4.06e-4,-0.04914 6.09e-4,-0.07371 0.0019,-0.08037 0.0051,-0.160364 0.01011,-0.240586 0.0024,-0.03911 0.0075,-0.08298 6.47e-4,-0.08029 -0.0095,0.0038 -0.01169,0.01765 -0.01755,0.02653 -0.09459,0.152731 -0.233788,0.318072 -0.40661,0.37004 -0.0077,0.0023 0.01276,-0.01043 0.01912,-0.01539 -0.03634,-0.01732 0.04085,0.02247 0.02051,-0.01886 -0.0098,-0.01995 -0.12298,0.0029 0.07858,-0.01194 0.09433,0.0012 0.188692,0.0026 0.282866,0.0088 0.167487,0.01875 0.329708,0.107765 0.502239,0.10471 -0.03337,-0.0051 -0.03954,-0.0056 -0.07356,-0.01316 -0.009,-0.002 -0.01794,-0.0043 -0.02684,-0.0068 -0.0026,-7.2e-4 -0.0104,-0.0034 -0.0077,-0.0028 0.03712,0.008 0.07197,0.02666 0.109933,0.03072 0.09858,0.01909 0.197296,0.03734 0.295738,0.05722 0.01818,0.0037 -0.03675,-0.0049 -0.05495,-0.0088 -0.156558,-0.03089 -0.30665,-0.08957 -0.443329,-0.176228 -0.03121,-0.02208 -0.06274,-0.04369 -0.09362,-0.0663 -0.0049,-0.0037 -0.01842,-0.01596 -0.01363,-0.0121 0.113398,0.0882 0.186308,0.150562 0.331012,0.251986 0.04199,0.02837 0.09041,0.06227 -0.0332,-0.02973 -0.01363,-0.01028 0.02555,0.0227 0.03974,0.03198 0.0086,0.0056 -0.03104,-0.02773 -0.02308,-0.02105 0.04096,0.03433 0.161143,0.154498 0.12283,0.103062 0.210501,0.176643 0.09161,0.08068 0.06233,0.04783 -0.0076,-0.0085 0.03181,0.03261 0.02558,0.02282 -0.01115,-0.01758 -0.02906,-0.02953 -0.04075,-0.04674 -0.02312,-0.03404 0.110999,0.133852 0.08117,0.09196 0.120083,0.13603 0.24071,0.259615 0.349194,0.356906 0.130996,0.13615 0.289241,0.298421 0.407569,0.402382 0.0081,0.008 0.01586,0.01624 0.02383,0.02429 0.04443,0.04506 -0.02035,-0.03877 0.01827,0.0092 0.08435,0.151212 0.164079,0.305636 0.216732,0.472777 0.02279,0.06786 0.03749,0.139372 0.06865,0.203411 0.01619,0.03326 0.0093,-0.332376 0.0388,-0.202007 0.0096,-0.03133 0.0177,-0.06322 0.0286,-0.09409 0.0031,-0.0085 -0.0023,0.01802 -0.0049,0.02664 -0.03333,0.115462 -0.08188,0.226295 -0.133383,0.333633 -0.04379,0.09539 -0.08789,0.190432 -0.133352,0.284968 -0.01207,0.02486 -0.0552,0.09342 -0.03583,0.07449 0.011,-0.01044 0.01657,-0.02574 0.02493,-0.03863 0.04802,-0.05621 -0.08133,0.105149 -0.103443,0.162258 -0.007,0.01799 0.04534,-0.06111 0.0342,-0.04568 -0.02212,0.03069 -0.04482,0.06096 -0.06723,0.09143 0.110424,-0.130615 0.195548,-0.239564 0.322685,-0.312165 0.0078,-0.0044 -0.0139,0.01074 -0.02097,0.01602 -0.04107,0.02318 -0.08213,0.04637 -0.123194,0.06955 -0.299296,0.169673 -0.606596,0.323603 -0.900915,0.503034 -0.218737,0.138071 -0.459412,0.238726 -0.670724,0.391706 -0.05721,0.03968 -0.0113,0.0092 -0.104818,0.06319 -0.0098,0.0056 -0.04033,0.01776 -0.0291,0.01765 0.01901,-1.92e-4 0.03596,-0.01316 0.05441,-0.01795 0.199398,-0.0506 0.141857,-0.04183 0.283012,-0.05274 0.29863,0.0035 -0.08536,-0.0095 0.04233,0.0079 0.03163,0.0092 0.04519,0.0124 0.07868,0.02536 0.0073,0.0028 -0.015,-0.0043 -0.02242,-0.0066 -0.02875,-0.01013 -0.05733,-0.02049 -0.08599,-0.03075 0.01675,0.0092 0.01933,0.0088 0.0053,0.006 -0.170591,-0.07737 -0.337738,-0.162106 -0.509532,-0.236309 -0.108991,-0.0483 0.07141,0.03198 -0.168964,-0.07812 -0.0092,-0.0043 -0.03631,-0.01718 -0.02792,-0.01134 0.01978,0.01331 0.04186,0.02258 0.06231,0.03477 0.01082,0.0065 0.04316,0.02589 0.03149,0.02127 -0.01326,-0.0051 -0.02427,-0.01544 -0.03637,-0.02315 -0.0285,-0.01853 -0.05661,-0.03779 -0.08552,-0.05565 -0.01022,-0.0062 0.03945,0.02769 0.02944,0.02101 -0.15651,-0.104332 -0.03596,-0.0413 -0.224629,-0.150305 -0.02889,-0.0167 0.05429,0.03932 0.08143,0.05898 0.09784,0.08443 -0.0023,-0.0021 -0.0061,-0.0046 -0.0099,-0.0066 0.03479,0.03324 0.0259,0.02515 -0.168919,-0.153452 0.09445,0.09249 -0.07585,-0.07259 -0.107607,-0.115735 -0.21231,-0.23424 -0.316825,-0.35291 -0.136789,-0.15522 -0.2873574,-0.307918 -0.3787021,-0.406658 -0.03692,-0.03908 -0.073446,-0.07857 -0.1107583,-0.117216 -0.00229,-0.0024 0.00356,0.0056 0.00556,0.0082 0.026767,0.03455 0.053972,0.06879 0.080775,0.103334 0.00215,0.0028 -0.00472,-0.0051 -0.0068,-0.0079 -0.00894,-0.01225 -0.017484,-0.02478 -0.026177,-0.03725 -0.019153,-0.02744 -0.038201,-0.05496 -0.057306,-0.08242 0.011502,0.01875 0.046335,0.07493 0.034589,0.05628 C 9.7122179,14.096489 9.6333836,13.959209 9.5540042,13.816555 9.45494,13.654722 9.3622484,13.488785 9.2635881,13.326686 9.1432717,13.122729 9.021399,12.919827 8.9020902,12.715217 8.8330558,12.589896 8.7621442,12.463761 8.7231054,12.323995 c -0.032121,-0.126417 -0.045604,-0.252827 -0.052832,-0.384083 1.306e-4,-0.02273 0.013045,-0.271839 0.0035,-0.286386 -0.00397,-0.0059 -0.00458,0.01361 -0.0069,0.02059 -0.010219,0.03478 -0.020406,0.06961 -0.030627,0.104424 -0.052035,0.127605 -0.046032,0.127 -0.1171647,0.244729 -0.012342,0.02046 -0.033405,0.04794 -0.05271,0.06487 -0.0029,0.0026 -0.012144,0.0092 -0.00979,0.0059 0.010754,-0.01452 0.023707,-0.02721 0.035559,-0.04082 0.2002915,-0.203677 0.3965387,-0.411537 0.5985998,-0.613297 0.03545,-0.03349 0.071628,-0.06622 0.1063897,-0.100552 0.00664,-0.0065 0.026592,-0.02315 0.017591,-0.02185 -0.019016,0.0028 -0.032988,0.02213 -0.051653,0.02676 -0.031494,0.0079 0.1100893,-0.07182 0.082418,-0.05413 -0.1045919,0.02692 -0.099967,0.02995 -0.2169396,0.03977 -0.01109,9.32e-4 -0.040615,0.0065 -0.033303,-0.0024 0.00845,-0.01013 0.032293,0.0083 0.038319,-0.0037 0.00428,-0.0085 -0.2087359,-0.02574 0.052656,4.94e-4 0.2050093,0.02656 0.4095678,0.0614 0.6113463,0.10772 0.2006917,0.05745 0.4054981,0.103939 0.5961351,0.19304 0.383191,0.163073 0.770026,0.317377 1.172058,0.421917 0.596797,0.154299 1.45972,-3.5510026 0.862922,-3.7053009 z" /><path
           style="fill:url(#linearGradient13015);fill-opacity:1;stroke:#000000;stroke-width:0;stroke-linejoin:bevel;stroke-dasharray:none;stroke-opacity:0.5"
           id="path16960"
           d="M 12.32868,8.3417885 C 12.094874,8.2793921 11.872608,8.1824437 11.649652,8.0875698 11.326714,7.9402289 10.985739,7.8474534 10.647175,7.7504632 10.286484,7.6531467 9.9177699,7.5917316 9.5489342,7.5404846 9.1132289,7.484584 8.6689508,7.4978018 8.2437937,7.6210029 8.1361634,7.6521682 8.0328887,7.6981477 7.927438,7.7367199 7.6041995,7.8719111 7.3032504,8.0543745 7.0273203,8.2771386 6.9275635,8.3576726 6.7760914,8.5027711 6.676302,8.5966762 6.4390961,8.8283315 6.2116528,9.0704783 5.9787609,9.3068058 5.6920991,9.6042953 5.4431623,9.945132 5.2836372,10.337004 c -0.041454,0.101833 -0.070874,0.208648 -0.1063134,0.312969 -0.1133475,0.41072 -0.1245594,0.837648 -0.1279001,1.261798 0.00254,0.436597 0.058181,0.866706 0.1502247,1.29157 0.1135736,0.496827 0.319512,0.959296 0.5570643,1.401955 0.1395474,0.247437 0.2869088,0.489774 0.4309202,0.734315 0.1089193,0.180012 0.2126015,0.363359 0.3222654,0.542924 0.104271,0.203234 0.2286267,0.3935 0.3568155,0.580771 0.088567,0.136256 0.1914905,0.259734 0.29935,0.3795 0.080489,0.0894 0.1573609,0.149413 0.1026213,0.106147 0.1178338,0.123705 0.2174751,0.224799 0.3221017,0.343812 0.1263879,0.14397 0.2539335,0.286837 0.3840447,0.427065 0.1648937,0.183073 0.351395,0.341115 0.5432842,0.491088 0.1905412,0.146812 0.1896791,0.110034 0.3795614,0.252828 0.1958947,0.135121 0.4131537,0.228163 0.6268566,0.325977 0.1625056,0.06979 0.3212501,0.148294 0.4815843,0.223472 0.268773,0.121783 0.548759,0.208002 0.835174,0.268301 0.293236,0.05765 0.589771,0.05648 0.886204,0.04269 0.49627,-0.03991 0.93805,-0.272068 1.360355,-0.529744 0.183583,-0.128393 0.36783,-0.217381 0.560564,-0.325831 0.2859,-0.173548 0.582961,-0.324757 0.874264,-0.487901 0.295242,-0.165978 0.590009,-0.355073 0.821662,-0.61404 0.07529,-0.08414 0.141326,-0.177057 0.211978,-0.265568 -0.0041,0.0062 -0.01644,0.02438 -0.01237,0.01847 0.135811,-0.194928 0.189761,-0.285139 0.252302,-0.382935 0.145419,-0.243118 0.263275,-0.502815 0.381978,-0.761062 0.131686,-0.29651 0.266955,-0.598473 0.344585,-0.917092 0.02754,-0.112997 0.04705,-0.228 0.07056,-0.342003 0.09663,-0.687358 -0.04152,-1.277892 -0.251435,-1.921945 -0.124523,-0.3911 -0.301989,-0.758644 -0.494514,-1.116609 -0.159278,-0.298287 -0.369413,-0.55839 -0.59378,-0.803643 -0.15127,-0.151291 -0.306225,-0.297642 -0.454591,-0.452212 -0.08385,-0.08436 -0.17015,-0.16389 -0.25595,-0.24585 0.01176,0.01053 0.02337,0.02105 0.03506,0.03161 0.0021,0.0018 0.0082,0.0076 0.0066,0.0053 -0.007,-0.0089 -0.01466,-0.01702 -0.02215,-0.02552 -0.147298,-0.1937296 -0.338352,-0.3303613 -0.51088,-0.4922974 -0.111248,-0.08953 -0.214692,-0.1842467 -0.42627,-0.327281 -0.0064,-0.016948 0.04624,0.032162 0.03512,0.023448 C 13.522955,9.2835173 13.441363,9.2230896 13.256737,9.1016491 13.005978,8.952685 12.731977,8.8590564 12.44818,8.8128702 c -0.04664,-0.0076 -0.186519,-0.029061 -0.140574,-0.017725 0.06982,0.017243 0.141652,0.02367 0.21248,0.035484 -0.160478,-0.051046 -0.337445,-0.079766 -0.507781,-0.1004304 0.0505,0.00748 0.10092,0.015619 0.151501,0.022413 0.0087,0.00117 -0.01676,-0.00545 -0.02527,-0.00779 -0.03487,-0.00949 -0.06974,-0.019168 -0.104888,-0.027475 C 11.879632,8.680828 11.873392,8.681788 11.723078,8.65498 11.454617,8.611116 11.182938,8.6019365 10.911804,8.5978188 10.492601,8.5885849 10.071469,8.6528267 9.6745794,8.7974192 9.5723782,8.8346606 9.4730628,8.8800013 9.3723259,8.9212912 8.8846975,9.1423563 8.4608506,9.4877636 8.1515642,9.945176 7.9392619,10.259153 7.9125959,10.373642 7.7715331,10.71957 c -0.1689717,0.497697 -0.2162863,1.0236 -0.2328329,1.547831 -0.02016,0.481812 0.070748,0.952319 0.2648311,1.38926 0.047744,0.107478 0.110963,0.206561 0.1664443,0.309843 0.2631734,0.43683 0.6244747,0.772658 1.043883,1.036244 0.1837177,0.115478 0.3081589,0.166573 0.503822,0.258647 0.437329,0.200447 0.9022204,0.301568 1.3739414,0.354758 0.306268,0.02799 0.613918,0.02713 0.921055,0.02672 0.517773,-0.0048 0.985476,-0.110169 1.441562,-0.38774 0.09083,-0.05528 0.172737,-0.125459 0.259101,-0.188188 0.574665,-0.509216 0.85684,-1.050163 0.895629,-1.854909 0.0072,-0.146026 -0.02226,-0.291481 -0.03336,-0.437221 -0.03741,-0.150759 -0.06454,-0.304763 -0.112211,-0.452262 -0.156334,-0.483483 -0.452324,-0.921934 -0.805955,-1.267099 -0.08493,-0.0829 -0.179612,-0.153949 -0.269418,-0.230924 -0.467689,-0.366966 -0.965609,-0.555105 -1.529597,-0.680005 -0.453684,-0.09703 -0.911264,-0.07159 -1.364234,0.01055 -0.222095,0.04946 -0.4411426,0.110348 -0.6631687,0.159554 -0.2529393,0.05352 -0.5055038,0.110101 -0.759757,0.156583 0.4865721,-0.03331 0.6268183,-0.0968 1.1507127,0.226977 0.201436,0.124486 0.357728,0.321048 0.503459,0.513314 0.08487,0.111977 0.117733,0.258382 0.17859,0.386538 0.0018,0.0038 0.0089,0.01256 0.009,0.0083 4.61e-4,-0.02881 -0.0052,-0.05739 -0.0077,-0.08608 -0.01283,-0.0369 0.04495,-0.197986 0.02037,-0.0579 0.0028,0.04448 -3.2e-4,-0.03509 -0.01418,0.05925 -0.0021,0.01436 0.02176,-0.01802 0.03163,-0.02822 -0.02399,0.03132 -0.05084,0.06044 -0.07188,0.09399 -0.0042,0.0066 0.01353,-0.0077 0.02023,-0.0115 0.01971,3.49e-4 0.270616,-0.168657 0.17981,-0.08911 -0.02548,0.01635 0.08826,0.0045 0.09985,0.0044 0.07692,-9.84e-4 0.153842,2.14e-4 0.230761,9.89e-4 0.204627,0.01134 0.406767,-0.02427 0.608677,-0.05214 0.0077,-8.23e-4 0.03076,-0.0031 0.02308,-0.0024 -0.06158,0.0044 -0.123252,0.01995 -0.184708,0.01376 -0.376561,-0.03714 -0.49247,-0.05124 -0.798487,-0.224907 -0.0713,-0.04046 -0.132614,-0.09797 -0.198978,-0.146874 0.107674,0.144736 0.214165,0.290716 0.327469,0.431365 0.13798,0.166218 0.286349,0.323597 0.444537,0.47123 0.130821,0.126094 0.261595,0.251866 0.397614,0.371816 0.197459,0.161731 0.391267,0.328361 0.585734,0.494071 0.129123,0.104907 0.239146,0.216929 0.360287,0.332938 0.147038,0.150939 0.307608,0.285321 0.471446,0.415211 0.01207,0.01 0.02383,0.01976 0.0357,0.02976 0.01466,0.0124 0.02962,0.02496 0.04425,0.03764 0.01253,0.01074 0.05058,0.04194 0.03694,0.0329 -0.05016,-0.03338 -0.08999,-0.08537 -0.130771,-0.12933 -0.107674,-0.138586 -0.181975,-0.300766 -0.229696,-0.472029 -0.0084,-0.02989 -0.02598,-0.121435 -0.02058,-0.09085 0.01023,0.05727 0.02317,0.113889 0.03475,0.170854 0.02578,0.173404 6.3e-5,-0.07201 0.0032,0.06399 10e-4,-0.02738 0.0017,0.1404 0.0023,0.105285 0.0052,-0.346807 0.07127,-0.585875 0.238836,-0.882331 0.0055,-0.05384 0.298529,-0.289203 0.111248,-0.144876 -0.01222,0.0094 0.02404,-0.01876 0.03542,-0.02895 0.0024,-0.0021 -0.0057,0.0031 -0.0084,0.0045 -0.196795,0.133217 -0.02361,0.01631 -0.02934,0.01934 -0.08624,0.04565 -0.07688,0.04543 -0.221244,0.13429 -0.330019,0.232391 -0.0906,0.0591 -0.06739,0.04534 0.165407,-0.09807 0.233019,-0.121239 0.103001,-0.06255 -0.03244,0.01452 0.06516,-0.02867 0.09816,-0.04177 -0.101595,0.03509 -0.107415,0.03731 -0.01786,0.0056 -0.596898,0.153858 0.263554,3.859795 0.860454,3.705939 v 0 c 0.222031,-0.06361 0.142043,-0.03583 0.243138,-0.07186 0.244153,-0.08734 0.469356,-0.192057 0.688534,-0.338377 0.02047,-0.01361 -0.04135,0.0266 -0.062,0.03988 0.02094,-0.013 0.05736,-0.01436 0.06278,-0.03938 0.0052,-0.02393 -0.08215,0.04631 -0.06171,0.03454 0.111401,-0.06435 0.22455,-0.126124 0.330307,-0.200696 0.31377,-0.21072 0.607585,-0.456934 0.832452,-0.773063 0.06159,-0.09591 0.132741,-0.185731 0.184775,-0.287731 0.236777,-0.464026 0.32584,-0.887459 0.293412,-1.40443 -0.01283,-0.254933 -0.0349,-0.510101 -0.09573,-0.75809 0.02719,0.166216 -0.01023,-0.06479 -0.02965,-0.146495 -0.06194,-0.258737 -0.157902,-0.501159 -0.290288,-0.728823 -0.03917,-0.06733 -0.08495,-0.130147 -0.127395,-0.195213 -0.195075,-0.258267 -0.416684,-0.488915 -0.671152,-0.682211 -0.130129,-0.103049 -0.04379,-0.02666 -0.213393,-0.19031 -0.169586,-0.162144 -0.33731,-0.326704 -0.51792,-0.4752662 -0.179974,-0.153341 -0.359376,-0.3082033 -0.54265,-0.45678 -0.108772,-0.095142 -0.210978,-0.2007265 -0.318197,-0.2999157 -0.02054,-0.019127 -0.148597,-0.137337 0.02148,0.037733 0.01954,0.020161 -0.03573,-0.043632 -0.05398,-0.0651 C 13.689256,8.9784719 13.695393,8.9851912 13.739343,9.0418467 13.632316,8.9090153 13.456249,8.6519691 13.292239,8.4692481 13.119523,8.2836835 13.009996,8.1497848 12.787187,8.002868 12.341646,7.7090862 11.839832,7.5760516 11.317827,7.6603538 c -0.02944,0.00436 -0.05891,0.00848 -0.08833,0.013006 -0.201095,0.030722 0.246491,0.00565 0.05226,0.00425 -0.01489,-1.243e-4 -0.02979,-2.794e-4 -0.04472,-4.113e-4 -0.142168,-0.00145 -0.284402,-0.00331 -0.426518,0.00257 -0.371313,0.019504 -0.741004,0.071432 -1.0962864,0.1919162 -0.088211,0.0336 -0.1778104,0.063397 -0.2646285,0.1008117 C 9.0940553,8.1257389 8.7639405,8.3408847 8.4533255,8.576865 8.2216781,8.7747337 8.1994893,8.7824399 7.9658146,9.0455683 7.7036113,9.3408167 7.5105488,9.7027171 7.3548915,10.068907 c -0.037759,0.111629 -0.080109,0.221653 -0.1132758,0.334892 -0.1498727,0.511748 -0.1761392,1.055496 -0.1298503,1.585817 0.052818,0.418666 0.1063256,0.876068 0.338746,1.236638 0.1629819,0.252844 0.352753,0.501168 0.5952703,0.668873 0.6112307,0.422672 0.8354811,0.344036 1.4515176,0.33386 0.2941322,-0.05479 0.5867287,-0.118577 0.8794607,-0.18092 0.183377,-0.04069 0.366394,-0.08312 0.547621,-0.133216 0.002,-5.63e-4 -0.0041,-0.0011 -0.0061,-0.0017 0.07917,-0.01497 0.119153,-0.0092 0.0064,-0.01972 -0.01272,-0.0012 -0.05013,-0.0049 -0.03759,-0.0074 0.01832,-0.0037 0.03718,0.0031 0.0558,0.0038 0.008,3.59e-4 0.01613,-2.13e-4 0.02416,-3.17e-4 0.07401,-0.002 -0.0134,-0.02853 0.02736,-0.02961 -0.03997,-0.0483 -0.05943,-0.0697 -0.09735,-0.129437 -0.073,-0.115009 -0.07691,-0.285799 -0.105503,-0.412383 -7.38e-4,-0.06969 -0.0106,-0.139931 -0.0022,-0.20906 0.05763,-0.473448 0.183384,-0.801466 0.547855,-1.091442 0.107057,-0.06692 0.155282,-0.103711 0.287837,-0.14607 0.08099,-0.02589 0.165081,-0.03944 0.248159,-0.05638 0.007,-0.0015 0.02854,2.33e-4 0.02148,0.0014 -0.120499,0.01995 -0.0396,-0.0023 -0.08631,0.01104 -0.18888,2.62e-4 -0.377991,0.002 -0.56666,-0.0091 -0.103538,-0.0051 -0.204488,-0.02033 -0.300379,-0.06539 -0.0093,-0.0024 -0.01888,-0.004 -0.02788,-0.0072 -0.01543,-0.0057 -0.0471,-0.03754 -0.04527,-0.02039 0.0024,0.02291 0.03282,0.03066 0.04811,0.04715 0.06011,0.06489 0.104666,0.11575 0.139177,0.196799 0.04493,0.111712 0.08682,0.226036 0.09909,0.347598 0.0033,0.03253 0.0052,0.06527 0.0059,0.09801 2.92e-4,0.01391 -0.0019,0.05577 -0.0029,0.04183 -0.0018,-0.02449 4.06e-4,-0.04914 6.09e-4,-0.07371 0.0019,-0.08037 0.0051,-0.160364 0.01011,-0.240586 0.0024,-0.03911 0.0075,-0.08298 6.47e-4,-0.08029 -0.0095,0.0038 -0.01169,0.01765 -0.01755,0.02653 -0.09459,0.152731 -0.233788,0.318072 -0.40661,0.37004 -0.0077,0.0023 0.01276,-0.01043 0.01912,-0.01539 -0.03634,-0.01732 0.04085,0.02247 0.02051,-0.01886 -0.0098,-0.01995 -0.12298,0.0029 0.07858,-0.01194 0.09433,0.0012 0.188692,0.0026 0.282866,0.0088 0.167487,0.01875 0.329708,0.107765 0.502239,0.10471 -0.03337,-0.0051 -0.03954,-0.0056 -0.07356,-0.01316 -0.009,-0.002 -0.01794,-0.0043 -0.02684,-0.0068 -0.0026,-7.2e-4 -0.0104,-0.0034 -0.0077,-0.0028 0.03712,0.008 0.07197,0.02666 0.109933,0.03072 0.09858,0.01909 0.197296,0.03734 0.295738,0.05722 0.01818,0.0037 -0.03675,-0.0049 -0.05495,-0.0088 -0.156558,-0.03089 -0.30665,-0.08957 -0.443329,-0.176228 -0.03121,-0.02208 -0.06274,-0.04369 -0.09362,-0.0663 -0.0049,-0.0037 -0.01842,-0.01596 -0.01363,-0.0121 0.113398,0.0882 0.186308,0.150562 0.331012,0.251986 0.04199,0.02837 0.09041,0.06227 -0.0332,-0.02973 -0.01363,-0.01028 0.02555,0.0227 0.03974,0.03198 0.0086,0.0056 -0.03104,-0.02773 -0.02308,-0.02105 0.04096,0.03433 0.161143,0.154498 0.12283,0.103062 0.210501,0.176643 0.09161,0.08068 0.06233,0.04783 -0.0076,-0.0085 0.03181,0.03261 0.02558,0.02282 -0.01115,-0.01758 -0.02906,-0.02953 -0.04075,-0.04674 -0.02312,-0.03404 0.110999,0.133852 0.08117,0.09196 0.120083,0.13603 0.24071,0.259615 0.349194,0.356906 0.130996,0.13615 0.289241,0.298421 0.407569,0.402382 0.0081,0.008 0.01586,0.01624 0.02383,0.02429 0.04443,0.04506 -0.02035,-0.03877 0.01827,0.0092 0.08435,0.151212 0.164079,0.305636 0.216732,0.472777 0.02279,0.06786 0.03749,0.139372 0.06865,0.203411 0.01619,0.03326 0.0093,-0.332376 0.0388,-0.202007 0.0096,-0.03133 0.0177,-0.06322 0.0286,-0.09409 0.0031,-0.0085 -0.0023,0.01802 -0.0049,0.02664 -0.03333,0.115462 -0.08188,0.226295 -0.133383,0.333633 -0.04379,0.09539 -0.08789,0.190432 -0.133352,0.284968 -0.01207,0.02486 -0.0552,0.09342 -0.03583,0.07449 0.011,-0.01044 0.01657,-0.02574 0.02493,-0.03863 0.04802,-0.05621 -0.08133,0.105149 -0.103443,0.162258 -0.007,0.01799 0.04534,-0.06111 0.0342,-0.04568 -0.02212,0.03069 -0.04482,0.06096 -0.06723,0.09143 0.110424,-0.130615 0.195548,-0.239564 0.322685,-0.312165 0.0078,-0.0044 -0.0139,0.01074 -0.02097,0.01602 -0.04107,0.02318 -0.08213,0.04637 -0.123194,0.06955 -0.299296,0.169673 -0.606596,0.323603 -0.900915,0.503034 -0.218737,0.138071 -0.459412,0.238726 -0.670724,0.391706 -0.05721,0.03968 -0.0113,0.0092 -0.104818,0.06319 -0.0098,0.0056 -0.04033,0.01776 -0.0291,0.01765 0.01901,-1.92e-4 0.03596,-0.01316 0.05441,-0.01795 0.199398,-0.0506 0.141857,-0.04183 0.283012,-0.05274 0.29863,0.0035 -0.08536,-0.0095 0.04233,0.0079 0.03163,0.0092 0.04519,0.0124 0.07868,0.02536 0.0073,0.0028 -0.015,-0.0043 -0.02242,-0.0066 -0.02875,-0.01013 -0.05733,-0.02049 -0.08599,-0.03075 0.01675,0.0092 0.01933,0.0088 0.0053,0.006 -0.170591,-0.07737 -0.337738,-0.162106 -0.509532,-0.236309 -0.108991,-0.0483 0.07141,0.03198 -0.168964,-0.07812 -0.0092,-0.0043 -0.03631,-0.01718 -0.02792,-0.01134 0.01978,0.01331 0.04186,0.02258 0.06231,0.03477 0.01082,0.0065 0.04316,0.02589 0.03149,0.02127 -0.01326,-0.0051 -0.02427,-0.01544 -0.03637,-0.02315 -0.0285,-0.01853 -0.05661,-0.03779 -0.08552,-0.05565 -0.01022,-0.0062 0.03945,0.02769 0.02944,0.02101 -0.15651,-0.104332 -0.03596,-0.0413 -0.224629,-0.150305 -0.02889,-0.0167 0.05429,0.03932 0.08143,0.05898 0.09784,0.08443 -0.0023,-0.0021 -0.0061,-0.0046 -0.0099,-0.0066 0.03479,0.03324 0.0259,0.02515 -0.168919,-0.153452 0.09445,0.09249 -0.07585,-0.07259 -0.107607,-0.115735 -0.21231,-0.23424 -0.316825,-0.35291 -0.136789,-0.15522 -0.2873574,-0.307918 -0.3787021,-0.406658 -0.03692,-0.03908 -0.073446,-0.07857 -0.1107583,-0.117216 -0.00229,-0.0024 0.00356,0.0056 0.00556,0.0082 0.026767,0.03455 0.053972,0.06879 0.080775,0.103334 0.00215,0.0028 -0.00472,-0.0051 -0.0068,-0.0079 -0.00894,-0.01225 -0.017484,-0.02478 -0.026177,-0.03725 -0.019153,-0.02744 -0.038201,-0.05496 -0.057306,-0.08242 0.011502,0.01875 0.046335,0.07493 0.034589,0.05628 C 9.7122179,14.096489 9.6333836,13.959209 9.5540042,13.816555 9.45494,13.654722 9.3622484,13.488785 9.2635881,13.326686 9.1432717,13.122729 9.021399,12.919827 8.9020902,12.715217 8.8330558,12.589896 8.7621442,12.463761 8.7231054,12.323995 c -0.032121,-0.126417 -0.045604,-0.252827 -0.052832,-0.384083 1.306e-4,-0.02273 0.013045,-0.271839 0.0035,-0.286386 -0.00397,-0.0059 -0.00458,0.01361 -0.0069,0.02059 -0.010219,0.03478 -0.020406,0.06961 -0.030627,0.104424 -0.052035,0.127605 -0.046032,0.127 -0.1171647,0.244729 -0.012342,0.02046 -0.033405,0.04794 -0.05271,0.06487 -0.0029,0.0026 -0.012144,0.0092 -0.00979,0.0059 0.010754,-0.01452 0.023707,-0.02721 0.035559,-0.04082 0.2002915,-0.203677 0.3965387,-0.411537 0.5985998,-0.613297 0.03545,-0.03349 0.071628,-0.06622 0.1063897,-0.100552 0.00664,-0.0065 0.026592,-0.02315 0.017591,-0.02185 -0.019016,0.0028 -0.032988,0.02213 -0.051653,0.02676 -0.031494,0.0079 0.1100893,-0.07182 0.082418,-0.05413 -0.1045919,0.02692 -0.099967,0.02995 -0.2169396,0.03977 -0.01109,9.32e-4 -0.040615,0.0065 -0.033303,-0.0024 0.00845,-0.01013 0.032293,0.0083 0.038319,-0.0037 0.00428,-0.0085 -0.2087359,-0.02574 0.052656,4.94e-4 0.2050093,0.02656 0.4095678,0.0614 0.6113463,0.10772 0.2006917,0.05745 0.4054981,0.103939 0.5961351,0.19304 0.383191,0.163073 0.770026,0.317377 1.172058,0.421917 0.596797,0.154299 1.45972,-3.5510026 0.862922,-3.7053009 z" /><path
           style="fill:#008000;fill-opacity:1;stroke:#000000;stroke-width:0;stroke-linejoin:bevel;stroke-dasharray:none;stroke-opacity:0.5"
           id="path17037"
           d="m 11.481046,9.2428204 c 0.254271,0.053755 0.51041,0.09654 0.764601,0.1507077 0.168697,0.036444 0.335833,0.085801 0.489322,0.1692365 0.0099,0.00629 0.01989,0.012144 0.02937,0.018907 0.0037,0.00265 0.04505,0.038699 0.03588,0.044022 -3.87e-4,6.655e-4 -5.41e-4,0.00242 -0.0012,0.002 -0.01283,-0.00882 -0.0031,-0.047499 -0.0069,-0.050383 -0.0015,-0.00114 -0.0034,0.00168 -0.005,0.00252 -0.02271,0.00316 0.0238,-0.015656 0.01222,-0.022488 -0.01115,-0.0064 -0.02394,-0.00759 -0.03579,-0.011811 -0.02039,-0.00728 -0.04062,-0.015107 -0.0609,-0.022634 -0.138389,-0.049298 -0.269212,-0.1169496 -0.396153,-0.1926025 -0.07043,-0.045041 -0.145712,-0.081557 -0.225401,-0.1042366 -0.03893,-0.011078 -0.08088,-0.018536 -0.120572,-0.026365 -0.08393,-0.01344 -0.168384,-0.02485 -0.251399,-0.043882 -0.178013,-0.039529 -0.212946,0.035596 -0.234637,0.2786319 -0.0022,0.02496 0.07977,0.093603 0.101999,0.1134346 0.05025,0.03962 0.09918,0.082108 0.155338,0.1124561 0.04396,0.023781 0.05599,0.026217 0.102777,0.04334 0.131369,0.036969 0.263066,0.072633 0.394446,0.1095949 0.09899,0.028432 0.200166,0.052786 0.293604,0.09853 0.01011,0.0051 0.02037,0.00991 0.03035,0.015287 0.02089,0.011342 0.04208,0.023483 0.06215,0.036409 0.0021,0.00131 0.0076,0.00603 0.0058,0.00462 -0.0058,-0.00413 -0.01146,-0.00848 -0.01711,-0.012794 -0.06183,-0.1845456 -0.08649,-0.1272008 0.01916,-0.2812644 0.005,-0.00725 0.01636,-0.00706 0.02177,-0.013959 0.002,-0.0026 -0.0063,-0.00151 -0.0093,-0.00198 -0.0096,-0.0014 -0.01922,-0.00237 -0.02882,-0.0036 -0.01855,-0.00236 -0.03709,-0.00477 -0.0556,-0.00717 -0.129276,-0.015178 -0.257785,-0.037918 -0.383209,-0.074282 -0.106876,-0.038462 -0.213714,-0.077277 -0.320002,-0.1175439 -0.08937,-0.032937 -0.176299,-0.072851 -0.257305,-0.1245935 -0.04737,-0.030611 -0.08182,-0.076819 -0.117281,-0.1208783 -0.02072,-0.025589 -0.0435,-0.048907 -0.0675,-0.071045 -0.02718,-0.025109 -0.01445,-0.013082 0.01275,0.020531 -0.02089,0.088529 -0.03184,0.1803473 -0.06265,0.265586 -0.005,0.013837 -0.02579,0.012204 -0.0393,0.016248 -0.02781,0.00834 -0.03466,3.125e-4 -0.02103,0.00537 0.0015,5.453e-4 -0.0031,-1.95e-4 -0.0046,-2.928e-4 -0.0026,-5.89e-4 -0.0095,-0.00377 -0.0077,-0.00175 0.0026,0.00295 0.007,0.00334 0.01051,0.00494 0.0057,0.00259 0.01126,0.00542 0.01711,0.00756 0.04511,0.016469 0.07762,0.020384 0.1255,0.023596 0.06244,-9.353e-4 0.124543,-0.010268 0.186196,-0.020161 0.06074,-0.00986 0.0058,-0.3869289 -0.05496,-0.3771001 v 0 c -0.04108,0.00676 -0.08245,0.012688 -0.123904,0.015804 0.01644,0.00853 -3.65e-4,-0.00118 0.0013,0.00263 7.75e-4,0.00179 0.0067,0.00337 0.0049,0.00295 -0.02103,-0.00509 -0.03932,-0.025218 -0.06149,-0.025884 -0.04378,-0.011418 -0.09023,-0.022119 -0.1356,-0.013157 -0.02201,0.00436 -0.05406,-9.24e-5 -0.06419,0.020936 -0.0409,0.084972 -0.05179,0.1825628 -0.07769,0.2738425 0.01115,0.01473 0.02173,0.029984 0.03351,0.044189 0.01585,0.019129 0.03919,0.030648 0.0529,0.05211 0.0612,0.0759 0.125074,0.1502419 0.20747,0.2014098 0.101681,0.063491 0.208993,0.1156425 0.320826,0.1562535 0.115389,0.043574 0.231133,0.086402 0.347583,0.1266837 0.142876,0.04037 0.288543,0.06828 0.43566,0.084973 0.07281,0.0087 0.150058,0.02234 0.222844,0.0043 0.02603,-0.0065 0.05594,-0.0091 0.07575,-0.02803 0.04115,-0.039409 0.09109,-0.082707 0.100251,-0.1404999 0.0098,-0.061136 -0.03313,-0.1189482 -0.04974,-0.1784234 -0.01237,-0.01113 -0.02407,-0.023044 -0.03701,-0.033421 -0.04509,-0.036298 -0.100678,-0.057669 -0.149849,-0.086324 -0.112134,-0.052018 -0.229742,-0.087814 -0.348491,-0.11909 -0.124236,-0.034932 -0.248563,-0.069501 -0.373189,-0.1028744 -0.0051,-0.00163 -0.03101,-0.00951 -0.03858,-0.013157 -0.03788,-0.018463 -0.06854,-0.049335 -0.1026,-0.074002 -0.0077,-0.00654 -0.01568,-0.026513 -0.02312,-0.019607 -0.0076,0.00706 0.01648,0.018573 0.01329,0.028729 -0.02704,0.086664 -0.0501,0.1783312 -0.100952,0.2521709 -0.01571,0.022821 -0.05304,0.00735 -0.07966,0.010117 -0.0015,1.561e-4 -0.0059,-0.00174 -0.0043,-0.00146 0.0069,0.0013 0.01381,0.00303 0.02068,0.00451 0.08624,0.018979 0.173393,0.03316 0.260646,0.045818 0.01106,0.00214 0.0671,0.012688 0.08121,0.016246 0.05468,0.013777 0.104969,0.040429 0.152582,0.0714 0.146481,0.087007 0.297653,0.1645172 0.457277,0.2214157 0.09265,0.032567 0.185908,0.069142 0.286011,0.05487 0.07581,-0.010782 0.134696,-0.052707 0.18758,-0.1071329 0.03115,-0.040084 0.0523,-0.061603 0.0715,-0.1114065 0.03391,-0.088042 0.0298,-0.1774563 -0.006,-0.2634444 -0.0086,-0.016469 -0.01586,-0.033639 -0.02539,-0.049503 C 13.051109,9.3268175 12.977376,9.2678809 12.899051,9.2227243 12.715504,9.125388 12.518789,9.0615778 12.317328,9.0196028 12.062291,8.9653543 11.805383,8.9221122 11.550253,8.8683749 c -0.06031,-0.012401 -0.129558,0.362098 -0.06925,0.3744831 z" /><path
           style="opacity:0.350818;fill:url(#radialGradient30872);fill-opacity:1;stroke:#000000;stroke-width:0;stroke-linejoin:bevel;stroke-dasharray:none;stroke-opacity:0.5"
           id="path30870"
           d="M 12.32868,8.3418314 C 12.094873,8.279414 11.872608,8.1824695 11.649652,8.0876233 11.326714,7.9402794 10.985739,7.8474933 10.647175,7.7505101 10.286484,7.6531839 9.9177699,7.591797 9.5489342,7.5405206 9.1132289,7.4846275 8.6689508,7.4978281 8.2437937,7.6210216 8.1361634,7.6522974 8.0328887,7.6981662 7.927438,7.7367384 7.6041995,7.8719484 7.3032504,8.0543931 7.0273203,8.277157 6.9275635,8.3576949 6.7760914,8.5027897 6.676302,8.5966799 6.4390961,8.828339 6.2116528,9.0704809 5.9787609,9.3068109 5.6920991,9.6042822 5.4431623,9.9451355 5.2836372,10.337008 c -0.041454,0.101829 -0.070874,0.208655 -0.1063118,0.312961 -0.1133491,0.410721 -0.1245595,0.837651 -0.1279002,1.261799 0.00254,0.436597 0.058181,0.866706 0.1502248,1.291569 0.1135735,0.49683 0.319512,0.959295 0.5570643,1.401957 0.1395474,0.247415 0.2869088,0.489773 0.4309202,0.734314 0.1089192,0.180001 0.2126014,0.363362 0.3222653,0.542924 0.1042711,0.203235 0.2286267,0.393503 0.3568156,0.58077 0.088567,0.136256 0.1914904,0.259735 0.2993499,0.379501 0.080489,0.0894 0.1573609,0.149413 0.1026213,0.106193 0.1178338,0.123703 0.2174751,0.2248 0.3221018,0.34381 0.1263879,0.143969 0.2539335,0.286838 0.3840446,0.427066 0.1648938,0.183076 0.3513951,0.341116 0.5432842,0.491091 0.1905413,0.146813 0.1896791,0.110034 0.3795614,0.252829 0.1958948,0.135108 0.4131537,0.228161 0.6268567,0.325977 0.1625056,0.06979 0.32125,0.148294 0.4815847,0.223475 0.268773,0.121784 0.548758,0.207999 0.835174,0.2683 0.293235,0.05765 0.58977,0.0565 0.886203,0.04269 0.49627,-0.03991 0.938052,-0.272068 1.360357,-0.529745 0.183583,-0.128393 0.36783,-0.217378 0.560564,-0.32583 0.2859,-0.173549 0.582961,-0.324758 0.874264,-0.487902 0.295242,-0.16598 0.590009,-0.355074 0.821662,-0.61404 0.07529,-0.08416 0.141326,-0.177059 0.211978,-0.265565 -0.0041,0.0062 -0.01644,0.02438 -0.01237,0.01847 0.135811,-0.194928 0.189761,-0.285135 0.252302,-0.382933 0.145419,-0.243117 0.263275,-0.50281 0.381978,-0.761059 0.131686,-0.29652 0.266955,-0.598472 0.344585,-0.917093 0.02754,-0.112997 0.04705,-0.227999 0.07056,-0.341996 0.09661,-0.6874 -0.04153,-1.277935 -0.251443,-1.921989 -0.12469,-0.391101 -0.30216,-0.758644 -0.494683,-1.116612 -0.159197,-0.298274 -0.369331,-0.558396 -0.5937,-0.803649 -0.151254,-0.151274 -0.306224,-0.297626 -0.454589,-0.452211 -0.08385,-0.08435 -0.170148,-0.163901 -0.25595,-0.245853 0.01176,0.01066 0.02337,0.02097 0.03506,0.03169 0.0021,0.0018 0.0082,0.0076 0.0066,0.0053 -0.007,-0.0088 -0.01466,-0.01717 -0.02215,-0.02556 -0.147191,-0.1937371 -0.33824,-0.3303606 -0.510763,-0.4923083 -0.111249,-0.089545 -0.214694,-0.1842357 -0.426272,-0.32727 -0.0064,-0.016801 0.04624,0.032053 0.03512,0.023264 -0.137598,-0.1079546 -0.219189,-0.168387 -0.403812,-0.2898236 -0.250759,-0.1489459 -0.52476,-0.2425708 -0.808558,-0.2887755 -0.04664,-0.00763 -0.18652,-0.028986 -0.140576,-0.017539 0.06982,0.017171 0.141651,0.023669 0.21248,0.035485 -0.160479,-0.051049 -0.337446,-0.079777 -0.507782,-0.1004155 0.0505,0.00762 0.100918,0.015657 0.151496,0.022524 0.0087,0.00117 -0.01676,-0.00534 -0.02527,-0.00762 -0.03484,-0.00954 -0.06971,-0.019096 -0.104858,-0.027478 -0.154099,-0.036646 -0.160339,-0.035501 -0.310653,-0.062394 -0.268461,-0.043875 -0.54014,-0.053033 -0.811275,-0.057153 C 10.492552,8.5889917 10.07142,8.6531645 9.6745302,8.7977607 9.572375,8.8351514 9.4730596,8.8803221 9.3723226,8.9216418 8.8846943,9.1426958 8.4608476,9.488114 8.1515612,9.9455287 7.939259,10.259521 7.9125929,10.373993 7.7715299,10.719922 7.6025583,11.217619 7.5552438,11.74352 7.538697,12.267753 c -0.02016,0.481809 0.070748,0.95232 0.2648312,1.389261 0.047746,0.107462 0.1109631,0.206557 0.1664443,0.309835 0.2631732,0.436831 0.6244748,0.772658 1.0438834,1.036243 0.1837177,0.115462 0.3081589,0.166571 0.5038214,0.258632 0.4373291,0.200455 0.9022207,0.301556 1.3739417,0.35474 0.306268,0.02784 0.613918,0.0271 0.921055,0.02669 0.517773,-0.0049 0.985476,-0.110185 1.441562,-0.387744 0.09083,-0.05527 0.172737,-0.125443 0.259101,-0.188166 0.574668,-0.509191 0.856844,-1.050138 0.895634,-1.854882 0.0072,-0.146011 -0.02226,-0.291481 -0.03336,-0.437223 -0.03742,-0.150774 -0.06455,-0.304792 -0.112242,-0.452291 -0.156324,-0.483475 -0.452311,-0.921928 -0.805944,-1.267091 -0.08493,-0.08291 -0.179611,-0.153949 -0.269418,-0.23094 -0.467689,-0.366986 -0.965609,-0.555108 -1.529598,-0.680006 -0.453684,-0.09703 -0.911263,-0.07161 -1.364234,0.01069 -0.222095,0.04944 -0.4411419,0.110337 -0.6631684,0.15955 -0.252939,0.05352 -0.5055036,0.110108 -0.7597568,0.156579 0.4865721,-0.0332 0.6268183,-0.09679 1.1507132,0.226965 0.201435,0.12449 0.357727,0.321052 0.503458,0.513316 0.08487,0.111977 0.117732,0.258367 0.17859,0.386535 0.0018,0.0038 0.0089,0.01256 0.009,0.0083 4.6e-4,-0.02898 -0.0052,-0.05739 -0.0077,-0.08608 -0.01283,-0.03703 0.04495,-0.197974 0.02037,-0.0579 0.0028,0.04448 -3.2e-4,-0.03513 -0.01417,0.05925 -0.0021,0.01436 0.02176,-0.01795 0.03163,-0.02826 -0.02399,0.03127 -0.05084,0.06042 -0.07188,0.09397 -0.0042,0.0068 0.01353,-0.0075 0.02023,-0.01134 0.01971,3.53e-4 0.270616,-0.168672 0.179811,-0.08912 -0.02548,0.01639 0.08826,0.0045 0.09985,0.0043 0.07692,-9.85e-4 0.153847,2.14e-4 0.230761,9.88e-4 0.204627,0.01134 0.406767,-0.02441 0.608678,-0.05214 0.0077,-8.25e-4 0.03076,-0.0031 0.02308,-0.0024 -0.06159,0.0043 -0.123252,0.01984 -0.184709,0.01361 -0.376561,-0.03743 -0.49247,-0.0514 -0.798487,-0.225039 -0.0713,-0.04045 -0.132614,-0.09797 -0.198978,-0.146888 0.107679,0.144747 0.214165,0.290723 0.327469,0.431369 0.13798,0.166233 0.286349,0.323608 0.444537,0.471227 0.130822,0.126138 0.261595,0.251878 0.397614,0.371831 0.197459,0.161726 0.391268,0.328376 0.585734,0.494074 0.129124,0.104936 0.239145,0.216932 0.360287,0.332955 0.147039,0.150925 0.307609,0.285343 0.471447,0.415213 0.01207,0.01 0.02383,0.01982 0.0357,0.02975 0.01466,0.01256 0.02962,0.02482 0.04425,0.03776 0.01253,0.01059 0.05056,0.04192 0.03695,0.03281 -0.05016,-0.03355 -0.08999,-0.08538 -0.130771,-0.12933 -0.107674,-0.138571 -0.181977,-0.300753 -0.229698,-0.472026 -0.0084,-0.02975 -0.02598,-0.121436 -0.02058,-0.09083 0.01023,0.05727 0.02319,0.113875 0.03475,0.170847 0.02578,0.173399 6.5e-5,-0.07203 0.0032,0.06398 0.001,-0.02746 0.0017,0.140385 0.0023,0.105254 0.0052,-0.346803 0.07127,-0.585878 0.238836,-0.882332 0.0055,-0.05385 0.29853,-0.28919 0.111249,-0.144862 -0.01222,0.0092 0.02404,-0.01867 0.03542,-0.02898 0.0024,-0.0021 -0.0057,0.0031 -0.0084,0.0045 -0.196799,0.133216 -0.02362,0.01639 -0.02934,0.01945 -0.08624,0.04568 -0.07688,0.0454 -0.221243,0.134261 -0.330019,0.232383 -0.0906,0.0591 -0.06739,0.04534 0.165407,-0.09805 0.233019,-0.121239 0.103,-0.06258 -0.03243,0.01436 0.06515,-0.02861 0.09816,-0.04177 -0.101595,0.03513 -0.107415,0.03738 -0.01787,0.0057 -0.596898,0.153865 0.263554,3.859794 0.860454,3.705937 v 0 c 0.222033,-0.06361 0.142028,-0.03583 0.243135,-0.07186 0.244153,-0.08732 0.469358,-0.192058 0.688534,-0.33837 0.02048,-0.01361 -0.04135,0.02669 -0.062,0.03986 0.02093,-0.01285 0.05736,-0.01436 0.06278,-0.03937 0.0052,-0.02404 -0.08215,0.04632 -0.06171,0.0347 0.111401,-0.06433 0.224549,-0.126109 0.330306,-0.200679 0.313771,-0.210718 0.607585,-0.456935 0.832454,-0.773065 0.06159,-0.09591 0.132741,-0.185721 0.184774,-0.287743 0.23678,-0.464026 0.325839,-0.887461 0.293413,-1.404429 -0.01283,-0.254936 -0.0349,-0.510105 -0.09573,-0.758092 0.02719,0.166231 -0.01023,-0.06477 -0.02965,-0.146495 -0.06189,-0.258746 -0.157848,-0.50116 -0.290236,-0.728825 -0.03915,-0.06735 -0.08493,-0.130131 -0.127379,-0.195226 -0.195134,-0.258114 -0.416745,-0.48877 -0.671212,-0.682064 -0.130126,-0.103049 -0.0438,-0.0267 -0.213397,-0.190304 C 15.03212,10.195212 14.864396,10.030662 14.683787,9.8821014 14.503814,9.7287674 14.324411,9.573908 14.141137,9.42532 14.032363,9.3301683 13.930158,9.2246013 13.822939,9.1254056 c -0.02054,-0.01909 -0.148596,-0.1373482 0.02148,0.037771 0.01954,0.020236 -0.03573,-0.043644 -0.05398,-0.065088 -0.101121,-0.1189967 -0.095,-0.1122822 -0.05103,-0.055625 C 13.6323,8.9096008 13.456229,8.6525697 13.29222,8.4698471 13.119503,8.2842746 13.00998,8.1503986 12.787168,8.0034669 12.341628,7.709695 11.839814,7.5766505 11.317809,7.6609365 c -0.02945,0.0042 -0.05891,0.00837 -0.08833,0.012975 -0.201095,0.030907 0.246491,0.00571 0.05226,0.0042 -0.01489,-1.065e-4 -0.02979,-2.629e-4 -0.04472,-3.964e-4 -0.142169,-0.00146 -0.284401,-0.00331 -0.426518,0.00259 -0.371314,0.019438 -0.741006,0.0714 -1.096288,0.1918835 C 9.6260007,7.9057539 9.5364013,7.9355966 9.4495831,7.9729879 9.0940367,8.1262466 8.7639216,8.341385 8.4533065,8.5773529 8.221659,8.7752102 8.1994701,8.7829166 7.9657958,9.0460566 7.7035926,9.3413158 7.5105297,9.7032053 7.3548728,10.069398 c -0.037759,0.111632 -0.080113,0.221663 -0.1132768,0.334899 -0.1498721,0.511747 -0.1761395,1.055489 -0.1298489,1.585816 0.052815,0.418668 0.1063271,0.87607 0.3387458,1.236638 0.1629819,0.252837 0.3527529,0.501167 0.59527,0.668876 0.6112307,0.422671 0.8354812,0.344054 1.4515176,0.333866 0.2941321,-0.05477 0.5867295,-0.118594 0.8794605,-0.180919 0.183377,-0.04071 0.366394,-0.08314 0.547622,-0.133232 0.002,-5.67e-4 -0.0041,-0.0011 -0.0061,-0.0017 0.07917,-0.01525 0.119151,-0.0092 0.0064,-0.01982 -0.01272,-0.0012 -0.05013,-0.0049 -0.03759,-0.0075 0.01832,-0.0037 0.03718,0.0031 0.0558,0.0038 0.008,3.58e-4 0.01613,-2.12e-4 0.02416,-3.22e-4 0.07401,-0.002 -0.0134,-0.02861 0.02736,-0.02975 -0.03995,-0.04827 -0.05941,-0.06969 -0.09733,-0.129436 -0.07299,-0.114993 -0.0769,-0.285801 -0.105503,-0.412383 -7.38e-4,-0.06966 -0.01062,-0.139932 -0.0022,-0.209074 0.05763,-0.473449 0.183384,-0.801467 0.547854,-1.091442 0.107057,-0.0669 0.155282,-0.103727 0.287837,-0.146041 0.08098,-0.02595 0.165082,-0.03944 0.248159,-0.05639 0.007,-0.0015 0.02854,2.33e-4 0.02148,0.0014 -0.120499,0.01982 -0.0396,-0.0023 -0.08631,0.01104 -0.188883,2.62e-4 -0.377991,0.002 -0.56666,-0.0089 -0.103539,-0.0053 -0.204488,-0.02024 -0.300379,-0.06538 -0.0093,-0.0024 -0.01888,-0.0038 -0.02788,-0.0072 -0.01543,-0.0057 -0.0471,-0.03738 -0.04527,-0.02022 0.0024,0.0229 0.03282,0.03053 0.04811,0.04717 0.06011,0.06489 0.104665,0.11575 0.139178,0.196789 0.04493,0.111712 0.08682,0.226055 0.09909,0.347605 0.0033,0.03243 0.0052,0.06527 0.0059,0.09802 2.91e-4,0.01407 -0.0019,0.05579 -0.0029,0.04183 -0.0018,-0.02441 4.05e-4,-0.04914 6.09e-4,-0.07369 0.0019,-0.08035 0.0051,-0.160352 0.01011,-0.240585 0.0024,-0.03912 0.0075,-0.083 6.46e-4,-0.0803 -0.0095,0.0038 -0.01169,0.01754 -0.01756,0.02635 -0.09459,0.152722 -0.233789,0.318075 -0.40661,0.370038 -0.0077,0.0023 0.01276,-0.01043 0.01912,-0.01525 -0.03635,-0.01718 0.04085,0.02252 0.02051,-0.01908 -0.0098,-0.01982 -0.12298,0.0029 0.07858,-0.01179 0.09433,0.0012 0.188692,0.0026 0.282866,0.0089 0.167487,0.01867 0.329707,0.107765 0.502239,0.104711 -0.03337,-0.0053 -0.03954,-0.0057 -0.07357,-0.01331 -0.009,-0.002 -0.01794,-0.0043 -0.02684,-0.0068 -0.0026,-7.21e-4 -0.0104,-0.0034 -0.0077,-0.0028 0.03712,0.008 0.07198,0.02669 0.109934,0.03053 0.09858,0.01908 0.197295,0.03738 0.295738,0.05724 0.01818,0.0037 -0.03675,-0.0048 -0.05496,-0.0089 -0.156558,-0.03091 -0.30665,-0.08954 -0.443328,-0.176226 -0.03121,-0.02211 -0.06274,-0.04369 -0.09362,-0.06631 -0.0049,-0.0037 -0.01842,-0.01602 -0.01363,-0.0121 0.113398,0.08818 0.186308,0.150547 0.331011,0.251999 0.042,0.02827 0.09041,0.06227 -0.03319,-0.02975 -0.01363,-0.01043 0.02555,0.02288 0.03974,0.03206 0.0086,0.0057 -0.03104,-0.02784 -0.02308,-0.02098 0.04096,0.03433 0.161143,0.154476 0.12283,0.103077 0.210502,0.176645 0.09161,0.08069 0.06233,0.04783 -0.0076,-0.0089 0.03181,0.03243 0.02558,0.0229 -0.01115,-0.01754 -0.02906,-0.02938 -0.04075,-0.04674 -0.02312,-0.03397 0.110998,0.133851 0.08117,0.09194 0.120082,0.136014 0.24071,0.259625 0.349193,0.356913 0.130998,0.136165 0.289241,0.298428 0.407569,0.402379 0.0081,0.008 0.01586,0.01639 0.02383,0.02441 0.04444,0.04506 -0.02033,-0.03878 0.01827,0.0092 0.08435,0.151237 0.164078,0.305635 0.216733,0.47278 0.02277,0.06782 0.03749,0.139357 0.06865,0.203425 0.01619,0.03318 0.0093,-0.332382 0.0388,-0.202015 0.0096,-0.03127 0.01769,-0.06321 0.02859,-0.09408 0.0031,-0.0083 -0.0023,0.01796 -0.0049,0.02669 -0.03333,0.115447 -0.08188,0.226283 -0.133382,0.333637 -0.04379,0.09538 -0.08789,0.190417 -0.133352,0.284958 -0.01207,0.02482 -0.05522,0.0934 -0.03585,0.07447 0.011,-0.01059 0.01657,-0.02556 0.02493,-0.03863 0.04803,-0.05622 -0.08132,0.105118 -0.103443,0.162263 -0.007,0.01796 0.04535,-0.06113 0.0342,-0.04568 -0.02212,0.03053 -0.0448,0.06098 -0.06723,0.09142 0.110424,-0.1306 0.195548,-0.239556 0.322689,-0.312159 0.0076,-0.0043 -0.0139,0.01074 -0.02097,0.01602 -0.04107,0.02326 -0.08213,0.04635 -0.123194,0.06955 -0.2993,0.169702 -0.606597,0.323608 -0.900916,0.503049 -0.218737,0.138071 -0.459412,0.23872 -0.670724,0.391703 -0.05721,0.03966 -0.0113,0.0092 -0.104818,0.06321 -0.0098,0.0057 -0.04032,0.01795 -0.0291,0.01754 0.01901,-1.94e-4 0.03596,-0.01331 0.05441,-0.01795 0.199395,-0.05059 0.141857,-0.04186 0.283012,-0.05278 0.29863,0.0035 -0.08536,-0.0097 0.04233,0.008 0.03163,0.0092 0.04519,0.01256 0.07868,0.02518 0.0073,0.0028 -0.015,-0.0043 -0.02242,-0.0068 -0.02875,-0.01 -0.05733,-0.02059 -0.08599,-0.03092 0.01675,0.0092 0.01933,0.0089 0.0053,0.006 -0.170591,-0.07735 -0.337738,-0.162111 -0.509532,-0.236315 -0.108992,-0.04831 0.07141,0.03206 -0.168964,-0.07812 -0.0092,-0.0043 -0.03631,-0.01718 -0.02792,-0.01134 0.01978,0.01331 0.04186,0.02252 0.06231,0.03471 0.01082,0.0065 0.04316,0.02595 0.03149,0.02138 -0.01326,-0.0053 -0.02426,-0.01525 -0.03637,-0.02326 -0.02851,-0.01868 -0.05661,-0.03776 -0.08552,-0.05567 -0.01022,-0.006 0.03945,0.02784 0.02944,0.02098 -0.156509,-0.104347 -0.03596,-0.04129 -0.224629,-0.150321 -0.02889,-0.0168 0.05429,0.03934 0.08144,0.05898 0.09784,0.08443 -0.0023,-0.0021 -0.0061,-0.0045 -0.0099,-0.0065 0.0348,0.0332 0.0259,0.02518 -0.168919,-0.153448 0.09445,0.09251 -0.07585,-0.07258 C 10.454729,14.935544 10.350027,14.817031 10.245512,14.69834 10.108723,14.543137 9.9581546,14.390415 9.86681,14.291681 9.82989,14.252601 9.793364,14.213131 9.7560516,14.174479 c -0.00229,-0.0024 0.00356,0.0057 0.00556,0.0083 0.026767,0.0347 0.053971,0.06878 0.080773,0.103303 0.00215,0.0028 -0.00472,-0.0048 -0.0068,-0.008 -0.00894,-0.0121 -0.017484,-0.02482 -0.026175,-0.03738 -0.019153,-0.02746 -0.038202,-0.05497 -0.057306,-0.08246 0.011502,0.01868 0.046336,0.07495 0.034589,0.05631 C 9.7122337,14.096351 9.6334012,13.959043 9.5540217,13.816394 9.4549588,13.654553 9.3622654,13.488628 9.2636044,13.326524 9.1432899,13.122561 9.0214148,12.919664 8.9021067,12.715059 8.8330739,12.589736 8.7621591,12.463595 8.7231205,12.323833 8.691,12.197437 8.6775166,12.070998 8.6702884,11.939752 c 1.303e-4,-0.02288 0.013045,-0.271832 0.0035,-0.286371 -0.00397,-0.006 -0.00458,0.01361 -0.0069,0.02059 -0.010219,0.03472 -0.020404,0.06963 -0.030627,0.104423 -0.052035,0.127576 -0.046032,0.127017 -0.1171648,0.244749 -0.012342,0.02059 -0.033407,0.04796 -0.05271,0.06489 -0.0029,0.0026 -0.012144,0.0092 -0.00979,0.0057 0.010754,-0.01437 0.023707,-0.0271 0.035559,-0.04082 0.2002925,-0.203654 0.3965397,-0.41154 0.5986009,-0.613299 0.03545,-0.03355 0.071627,-0.06624 0.1063897,-0.100536 0.00664,-0.0065 0.026591,-0.02326 0.017591,-0.02175 -0.019014,0.0028 -0.032988,0.02213 -0.051654,0.02669 -0.031493,0.008 0.1100908,-0.0718 0.082418,-0.05414 -0.1045918,0.0271 -0.099966,0.03012 -0.2169397,0.0398 -0.01109,9.3e-4 -0.040617,0.0065 -0.033303,-0.0024 0.00845,-0.01028 0.032293,0.0083 0.038319,-0.0037 0.00428,-0.0083 -0.2087359,-0.02556 0.052656,4.95e-4 0.2050096,0.02669 0.4095678,0.06138 0.6113462,0.107735 0.200692,0.05747 0.4054983,0.10397 0.5961353,0.19305 0.383202,0.163065 0.770038,0.317354 1.17207,0.421903 0.596797,0.15429 1.45972,-3.5509991 0.862922,-3.7052982 z" /><path
           style="mix-blend-mode:normal;fill:#c83737;fill-opacity:1;stroke:#000000;stroke-width:0;stroke-linejoin:bevel;stroke-dasharray:none;stroke-opacity:0.5;filter:url(#filter11421)"
           id="path17104"
           d="m 6.7215966,8.3738378 c 0.032426,0.018412 0.06143,0.04202 0.091452,0.063964 0.060201,0.043582 0.125745,0.078811 0.1926573,0.1108008 0.037348,0.017037 0.076105,0.030927 0.115898,0.041038 0.020485,0.0052 0.03639,0.00818 0.056951,0.012349 0.04688,0.00888 0.094297,0.01373 0.1418912,0.016382 0.032398,0.00184 0.064559,-0.00135 0.096519,-0.00627 0.018915,-0.0025 0.037701,-0.00584 0.056665,-0.00797 0.017268,-0.00326 0.037829,-0.00762 0.052112,-0.018565 0.00588,-0.00451 0.01084,-0.010106 0.016261,-0.015159 0.00395,-0.00731 0.00981,-0.013881 0.011857,-0.021938 0.00287,-0.011294 0.0034,-0.02324 0.00257,-0.034862 -6.846e-4,-0.00956 -0.00411,-0.018763 -0.00706,-0.027888 -0.008,-0.024775 -0.021343,-0.047548 -0.033797,-0.070236 -0.0176,-0.030301 -0.035411,-0.061048 -0.059235,-0.087016 -0.00437,-0.00476 -0.00912,-0.00916 -0.013681,-0.013735 -0.022273,-0.02256 -0.049629,-0.037738 -0.077967,-0.051187 -0.025638,-0.011937 -0.051527,-0.023294 -0.077118,-0.035332 -0.02824,-0.01397 -0.057125,-0.026498 -0.086123,-0.038797 -0.031935,-0.014471 -0.065128,-0.025836 -0.098881,-0.035193 -0.029435,-0.00775 -0.059363,-0.013661 -0.089772,-0.015366 -0.027729,-3.32e-5 -0.054434,0.00801 -0.081129,0.014528 -0.02349,0.00567 -0.046739,0.012294 -0.07018,0.018134 -0.018546,0.00353 -0.036958,0.00778 -0.055568,0.010961 -0.023516,0.00449 -0.0501,0.015111 -0.059277,0.03977 -0.00332,0.00891 -0.00322,0.01875 -0.00482,0.028126 0.00207,0.00759 0.00307,0.015554 0.00621,0.022769 0.012362,0.028465 0.04532,0.043633 0.071511,0.05588 0.02322,0.00984 0.046618,0.019246 0.069829,0.029099 0.015624,0.00662 0.054662,-0.085441 0.039038,-0.092066 v 0 c -0.02226,-0.00943 -0.044656,-0.018529 -0.066969,-0.027833 -0.00416,-0.00188 -0.00835,-0.0037 -0.01248,-0.00565 -0.00254,-0.0012 -0.00504,-0.00248 -0.00753,-0.00378 -0.00132,-6.917e-4 -0.00247,-0.00177 -0.00391,-0.00219 -0.00333,-9.826e-4 0.014904,0.024532 0.00422,0.019863 -0.00172,0.0065 -0.00234,0.013397 -0.00516,0.019501 -0.00197,0.00427 -0.00544,0.00776 -0.0089,0.010936 -0.00678,0.00622 -0.018152,0.00728 -0.00467,0.00411 0.021039,-0.00368 0.041912,-0.00826 0.062843,-0.012503 0.023209,-0.00587 0.046279,-0.012288 0.069538,-0.017975 0.017562,-0.00429 0.035036,-0.0094 0.052985,-0.011773 0.022957,3.91e-4 0.045484,0.00693 0.067736,0.0119 0.029524,0.00799 0.058417,0.018222 0.086303,0.030823 0.027817,0.011792 0.055531,0.023777 0.082598,0.037222 0.02557,0.012027 0.051425,0.023399 0.077052,0.035301 0.01828,0.00853 0.036149,0.01743 0.050488,0.032036 0.023333,0.022066 0.039582,0.049984 0.055416,0.077658 0.00535,0.0097 0.014154,0.02527 0.019073,0.035543 0.00234,0.00488 0.00425,0.00995 0.00646,0.014895 0.00101,0.00227 8.896e-4,0.00763 0.0032,0.00672 0.00596,-0.00234 0.00178,-0.015249 0.0101,-0.01635 0.0022,-0.00138 0.00431,-0.00293 0.00661,-0.00415 3.267e-4,-1.733e-4 0.00142,-1.518e-4 0.00111,5.25e-5 -0.00353,0.00234 -0.00817,0.00319 -0.012171,0.00436 -0.020272,0.00232 -0.040378,0.00575 -0.060593,0.00849 -0.025104,0.00387 -0.050304,0.00674 -0.075781,0.00525 C 7.2831658,8.5161796 7.240534,8.511872 7.198363,8.5039712 7.1466715,8.4935581 7.0966799,8.4812274 7.0487944,8.4583621 6.987426,8.4290995 6.9272644,8.396929 6.8720267,8.3570457 6.8388576,8.3328434 6.8067631,8.3068931 6.7708165,8.2867896 c -0.014773,-0.00835 -0.063992,0.078695 -0.04922,0.087048 z"
           transform="matrix(3.6209852,0,0,3.8152203,-13.641359,-22.347095)" /><path
           style="fill:#c83737;fill-opacity:1;stroke:#000000;stroke-width:0;stroke-linejoin:bevel;stroke-dasharray:none;stroke-opacity:0.5"
           id="path17106"
           d="m 11.489366,9.9934428 c 0.1309,0.073535 0.263705,0.1447402 0.404249,0.1958112 0.03257,0.01181 0.06584,0.0216 0.09875,0.03238 0.158501,0.04781 0.323009,0.06432 0.4868,0.07689 0.09423,0.0068 0.188675,0.0088 0.2831,0.0094 0.06246,1.19e-4 0.124905,-1.57e-4 0.187369,-3.01e-4 0.07628,0.0041 0.150063,-0.0072 0.222661,-0.03128 0.05977,-0.0264 0.12495,-0.05095 0.170287,-0.102528 0.01482,-0.01694 0.02617,-0.037 0.03927,-0.05553 0.0086,-0.02652 0.02191,-0.05186 0.02556,-0.0796 0.01636,-0.1242454 -0.05087,-0.2051425 -0.133352,-0.2781402 -0.0055,-0.00494 -0.01146,-0.00965 -0.01651,-0.01485 -0.0015,-0.00154 0.0041,0.00195 0.0053,0.0038 0.01237,0.018833 0.03437,0.035153 0.03451,0.057952 9.37e-4,0.148589 -0.004,0.1781582 -0.102756,0.2333982 0.06084,-0.0091 0.0099,-0.3868397 -0.05105,-0.3777109 v 0 c -0.04769,0.0094 -0.116396,0.017097 -0.14406,0.067024 -0.0827,0.1493225 -0.06014,0.233099 0.04381,0.3243779 0.0047,0.004 0.0095,0.0082 0.01405,0.01191 0.0014,0.0011 0.0047,0.0044 0.0047,0.0026 1.62e-4,-0.0041 -0.0034,-0.0073 -0.0044,-0.01124 -0.0035,-0.0124 -0.0087,-0.02459 -0.0096,-0.03751 -0.0035,-0.051182 0.0037,-0.053659 0.02261,-0.097734 0.0186,-0.021341 0.01665,-0.023781 0.03648,-0.034637 0.0011,-5.959e-4 -0.0015,0.00211 -0.0026,0.00278 -0.01482,0.00931 -0.03134,0.015032 -0.0466,0.023448 -0.0053,0.00219 -0.01008,0.00643 -0.01553,0.00748 -0.03102,0.00596 -0.06261,0.00397 -0.09391,0.0044 -0.06156,1.422e-4 -0.123132,4.118e-4 -0.184708,3.047e-4 -0.08634,-4.608e-4 -0.172686,-0.00219 -0.25885,-0.00834 -0.136272,-0.010351 -0.273659,-0.022759 -0.406171,-0.061028 -0.07292,-0.023263 -0.08684,-0.025921 -0.158664,-0.056532 -0.09874,-0.042128 -0.192982,-0.095028 -0.287086,-0.1472992 -0.05481,-0.029245 -0.218529,0.3110228 -0.163719,0.3402964 z" /><path
           style="fill:#c83737;fill-opacity:1;stroke:#000000;stroke-width:0;stroke-linejoin:bevel;stroke-dasharray:none;stroke-opacity:0.5"
           id="path17108"
           d="m 13.522678,9.7916467 c -0.07431,-0.045784 -0.180668,-0.1154807 -0.270647,-0.099736 -0.03697,0.00651 -0.07077,0.02596 -0.106177,0.038934 -0.02496,0.030497 -0.05572,0.056603 -0.07489,0.091433 -0.037,0.067294 -0.0294,0.1755915 -0.0014,0.2451883 0.0067,0.01643 0.01586,0.03154 0.02378,0.04731 0.05174,0.07892 0.119772,0.113186 0.207279,0.125259 0.04101,0.0034 0.08221,0.0023 0.123301,0.0019 0.005,-4.7e-5 0.01983,3.08e-4 0.01482,-1.4e-4 -0.04433,-0.004 -0.04045,-0.0031 -0.0093,0.01462 0.04715,0.02673 0.01115,0.0071 0.0686,0.03743 0.09958,0.04468 0.202238,0.0846 0.308543,0.107143 0.166227,-0.03223 0.169246,0.0047 0.217397,-0.245368 0.0058,-0.0298 -0.01989,-0.05733 -0.03361,-0.08409 -0.02627,-0.05131 -0.07929,-0.105954 -0.116931,-0.148821 -0.0584,-0.063596 -0.118703,-0.125309 -0.174979,-0.19103 -0.01728,-0.024483 -0.03219,-0.05064 -0.04868,-0.075751 -0.0011,-0.00172 -0.0021,-0.00351 -0.0034,-0.00525 -0.02016,-0.030981 -0.0066,-0.010738 -0.0044,-0.00699 0.0049,0.00845 0.01161,0.027622 -0.0066,-0.018019 -0.0069,-0.023596 -0.02083,-0.049078 -0.0316,-0.07292 -0.028,-0.057649 -0.35037,0.1160568 -0.322389,0.1737045 v 0 c 0.0031,0.00606 0.0058,0.01228 0.0092,0.018167 0.0011,0.00203 -0.0035,-0.00863 -0.0024,-0.00654 0.0053,0.011524 0.0057,0.01352 0.01586,0.040713 -0.0028,-0.013596 7.51e-4,0.0044 0.01054,0.027139 0.0092,0.02138 0.0154,0.031904 0.02704,0.050897 0.0046,0.00748 0.01054,0.014019 0.01436,0.022006 0.02223,0.035744 0.04668,0.076242 0.07488,0.1097635 0.05756,0.06613 0.117389,0.129944 0.177304,0.193695 0.08617,0.09725 -0.01344,-0.01588 0.05714,0.06629 0.0032,0.0037 0.0095,0.01543 0.0099,0.01056 0.0012,-0.01191 -0.01207,-0.02418 -0.0075,-0.03523 0.08821,-0.215161 0.04495,-0.180203 0.201215,-0.198818 -0.01711,0.0015 -0.0037,8.93e-4 -0.04077,-0.01082 -0.05724,-0.018053 -0.114075,-0.037737 -0.169145,-0.062238 -0.07612,-0.039428 -0.149452,-0.095116 -0.238481,-0.091672 -0.02687,2.519e-4 -0.05371,3.94e-4 -0.08056,3.429e-4 0.02586,0.014245 0.04868,0.02474 0.06226,0.055166 0.02223,0.062758 -0.02209,0.1016269 -0.06807,0.1406809 -0.06471,0.01507 -0.05478,0.02456 -0.101075,0.0087 -0.0024,-8.47e-4 0.0053,-4.25e-4 0.0079,4.36e-4 0.02687,0.0094 0.05087,0.02588 0.07572,0.03969 0.05053,0.03682 0.256503,-0.2769662 0.205957,-0.3137956 z" /><path
           style="mix-blend-mode:normal;fill:#c83737;fill-opacity:1;stroke:#000000;stroke-width:0;stroke-linejoin:bevel;stroke-dasharray:none;stroke-opacity:0.5;filter:url(#filter11417)"
           id="path17110"
           d="m 7.4954442,8.6168181 c 0.025165,-0.00854 0.051269,-0.013127 0.077319,-0.017913 0.018539,-0.00345 0.037281,-0.00559 0.056096,-0.00671 0.00826,-0.00132 0.015561,4.021e-4 0.023373,0.00203 0.015147,0.00456 0.030757,0.00703 0.046462,0.00858 0.013434,0.00103 0.026909,0.00128 0.040377,0.00135 0.017897,-3.09e-5 0.044559,0.00174 0.05208,-0.021201 0.018532,-0.056537 0.002,-0.062224 -0.025043,-0.07989 -0.033024,-0.020117 -0.067328,-0.038032 -0.1019993,-0.055114 -0.017177,-0.0095 -0.036152,-0.015539 -0.053291,-0.025098 -0.00358,-0.002 -0.00671,-0.00472 -0.010065,-0.00709 -0.012768,-0.010193 -0.023107,-0.023217 -0.033697,-0.035596 -0.013341,-0.015702 -0.028485,-0.029563 -0.045178,-0.041587 -0.015276,-0.00951 -0.031907,-0.016505 -0.048557,-0.023197 -0.00545,-0.00226 -0.010968,-0.00439 -0.016527,-0.00637 -0.00637,-0.00228 -0.00425,-7.968e-4 -0.00642,-0.00238 -0.015635,-0.0066 -0.05452,0.085531 -0.038885,0.09213 v 0 c 0.00819,0.0033 0.016561,0.00608 0.024712,0.00948 0.00939,0.00372 0.018612,0.00792 0.027836,0.011915 0.010235,0.007 0.018971,0.015795 0.027117,0.025118 0.016157,0.018799 0.032224,0.038121 0.052545,0.052617 0.00934,0.00642 0.012714,0.00904 0.023177,0.014792 0.017135,0.00942 0.035879,0.015694 0.053078,0.024993 0.032279,0.015868 0.064205,0.032545 0.094932,0.051275 0.021278,-0.00942 -0.037598,0.016938 -0.0039,-0.065762 0.00871,-0.021373 0.060837,-0.018954 0.028581,-0.01903 -0.010531,-4.88e-5 -0.021067,-2.216e-4 -0.031578,-9.218e-4 -0.012022,-9.926e-4 -0.023737,-0.00361 -0.035335,-0.00691 -0.016481,-0.00344 -0.033024,-0.00563 -0.049898,-0.00395 -0.022824,0.00142 -0.045568,0.00397 -0.068061,0.00817 -0.030291,0.00557 -0.060586,0.01121 -0.089856,0.021067 -0.016156,0.0052 0.014458,0.1003941 0.030613,0.095199 z"
           transform="matrix(3.6209852,0,0,3.8152203,-13.641359,-22.347095)" /><path
           style="mix-blend-mode:normal;fill:#c83737;fill-opacity:1;stroke:#000000;stroke-width:0;stroke-linejoin:bevel;stroke-dasharray:none;stroke-opacity:0.5;filter:url(#filter11413)"
           id="path17112"
           d="m 6.8652307,8.178156 c -0.030435,0.00999 -0.060891,0.019923 -0.091724,0.028616 -0.02038,0.00662 -0.041215,0.011357 -0.062067,0.016107 -0.010496,0.00269 -0.021357,0.0028 -0.032117,0.00312 -0.017805,3.458e-4 -0.035614,2.892e-4 -0.053421,2.753e-4 -0.015364,-3.99e-4 -0.030802,8.495e-4 -0.046101,-8.997e-4 -0.00833,-0.0036 0.021736,0.00938 0.021741,0.00959 0.00187,0.088828 -0.053455,0.089992 -0.00455,0.087079 0.00592,-3.523e-4 0.011834,-6.73e-4 0.017751,-0.00101 0.029867,-0.00168 0.059646,0.00113 0.08933,0.00405 0.00411,0.00151 0.023533,0.00126 0.025748,0.00602 0.00963,0.00777 0.020628,0.01362 0.030412,0.021157 5.995e-4,5.479e-4 0.00236,0.00223 0.0018,0.00164 -0.012219,-0.012877 -0.016678,-0.013114 -0.015423,-0.040379 9.398e-4,-0.020406 0.00834,-0.019114 0.01684,-0.029423 -0.00751,0.0021 -0.014632,9.483e-4 -0.022092,-5.069e-4 -0.015207,-0.00374 -0.028786,-0.012218 -0.042536,-0.019459 -0.021854,-0.011647 -0.045356,-0.019019 -0.069054,-0.02579 -0.019325,-0.00555 -0.038948,-0.00971 -0.058724,-0.013238 -0.017034,-0.00344 -0.034465,-0.0037 -0.05158,-0.00646 -0.00735,-0.00293 -0.016263,-0.00548 -0.024565,-0.00737 -0.00663,-0.00144 -0.013416,-0.0014 -0.020099,-0.00239 -0.016834,-0.00215 -0.029504,0.097044 -0.01267,0.099194 v 0 c 0.00413,4.948e-4 0.00835,0.00122 0.012535,0.00113 0.00981,0.00172 0.019033,0.00758 0.029259,0.00823 0.016472,0.00255 0.033122,0.0033 0.049556,0.00612 0.016443,0.00293 0.032768,0.00631 0.048836,0.010951 0.017085,0.00487 0.03414,0.00969 0.049915,0.018115 0.023252,0.012241 0.046567,0.025124 0.072819,0.029637 0.025592,0.00392 0.048743,0.00414 0.07349,-0.00451 0.00963,-0.00409 0.022795,-0.00855 0.029619,-0.017047 0.00713,-0.00888 0.015233,-0.018429 0.016912,-0.029696 0.00402,-0.026974 -0.00656,-0.044208 -0.025194,-0.059005 -0.013328,-0.00975 -0.027305,-0.018585 -0.040889,-0.027969 -0.00379,-0.00199 -0.00747,-0.00418 -0.011356,-0.00598 -0.016894,-0.00779 -0.035553,-0.010078 -0.053785,-0.01249 -0.034818,-0.00342 -0.069765,-0.0064 -0.1047862,-0.00436 -0.00783,4.464e-4 -0.023193,0.00128 -0.031763,0.00189 -0.00429,3.059e-4 -0.011168,-0.00293 -0.012868,0.00102 -0.026913,0.062572 -0.053114,0.091514 0.00515,0.1007377 0.018713,0.00182 0.037463,0.00145 0.056247,0.00142 0.018847,1.46e-5 0.037697,7.42e-5 0.05654,-3.216e-4 0.017302,-5.43e-4 0.034675,-0.00138 0.051544,-0.00563 0.022407,-0.00526 0.044894,-0.010172 0.06682,-0.017327 0.031521,-0.00894 0.062721,-0.018946 0.093827,-0.029236 0.016224,-0.00498 -0.013101,-0.1005802 -0.029325,-0.095604 z"
           transform="matrix(3.6209852,0,0,3.8152203,-13.641359,-22.347095)" /><path
           style="fill:#c83737;fill-opacity:1;stroke:#000000;stroke-width:0;stroke-linejoin:bevel;stroke-dasharray:none;stroke-opacity:0.5"
           id="path17114"
           d="m 10.179703,9.2093379 c 0.13126,0 0.262522,0 0.393779,0 0.08943,-0.00195 0.179095,0.00345 0.268457,-0.00239 0.03908,-0.00256 0.07241,-0.00694 0.111003,-0.011524 0.0641,-0.010404 0.03372,-0.00502 0.09121,-0.015804 0.0605,-0.011387 -0.0031,-0.3869638 -0.06354,-0.3756011 v 0 c -0.0451,0.00848 -0.02232,0.00443 -0.06843,0.012325 -0.02152,0.0026 -0.06279,0.00783 -0.08459,0.0094 -0.08453,0.00606 -0.169486,-4.037e-4 -0.254104,0.00209 -0.13126,0 -0.262523,0 -0.39378,0 -0.06145,0 -0.06145,0.3815222 0,0.3815222 z" /><path
           style="fill:#c83737;fill-opacity:1;stroke:#000000;stroke-width:0;stroke-linejoin:bevel;stroke-dasharray:none;stroke-opacity:0.5"
           id="path17116"
           d="m 11.374135,8.6795977 c -0.06152,-0.062232 -0.113967,-0.1315577 -0.159356,-0.207384 -0.02194,-0.040393 -0.04496,-0.080072 -0.06828,-0.1195729 -0.0325,-0.054949 -0.339803,0.1468468 -0.307304,0.2017975 v 0 c 0.02409,0.040608 0.04741,0.081653 0.07033,0.1229982 0.0688,0.1126935 0.148207,0.2174389 0.244822,0.3053622 0.04884,0.039301 0.268624,-0.2639024 0.219785,-0.303201 z" /><path
           style="fill:#c83737;fill-opacity:1;stroke:#000000;stroke-width:0;stroke-linejoin:bevel;stroke-dasharray:none;stroke-opacity:0.5"
           id="path17118"
           d="m 10.445484,8.3156948 c 0.05368,0.091678 0.131108,0.1630517 0.206122,0.234672 0.0616,0.061913 0.129986,0.1154368 0.199193,0.1673906 0.02016,0.015107 0.02409,0.017243 0.04056,0.031829 0.0041,0.0036 0.0082,0.0072 0.01196,0.011161 0.0011,0.00115 0.0039,0.00499 0.0027,0.00405 -0.0085,-0.00648 -0.0113,-0.012143 -0.01741,-0.021012 0.0046,0.030981 0.01415,0.061084 0.02138,0.091544 0.01489,0.062814 0.36619,-0.029725 0.351283,-0.09255 v 0 c -0.01193,-0.049918 -0.02374,-0.1000221 -0.03959,-0.148716 -0.008,-0.016948 -0.01463,-0.03471 -0.02406,-0.050822 -0.03351,-0.057296 -0.08554,-0.098028 -0.136733,-0.1362447 -0.0577,-0.043259 -0.115021,-0.087411 -0.166097,-0.1393375 -0.04829,-0.046082 -0.09985,-0.090604 -0.137922,-0.1467778 -0.03139,-0.055669 -0.342698,0.139182 -0.311315,0.1948476 z" /><path
           style="mix-blend-mode:normal;fill:#ff5966;fill-opacity:1;stroke:#000000;stroke-width:0;stroke-linejoin:bevel;stroke-dasharray:none;stroke-opacity:0.5;filter:url(#filter11401)"
           id="path17250"
           d="m 5.7640094,9.2555969 c 0.00604,-0.04917 0.014224,-0.098051 0.021681,-0.1470195 0.00933,-0.06653 0.025889,-0.131608 0.046648,-0.1954062 0.012646,-0.035718 0.030601,-0.069556 0.05294,-0.10017 0.014504,-0.019876 0.019846,-0.025018 0.036204,-0.04348 0.039569,-0.042296 0.079521,-0.084298 0.121503,-0.1242211 0.022037,-0.0202 0.044941,-0.039247 0.069314,-0.056515 0.00923,-0.0074 0.018603,-0.014819 0.025621,-0.024478 0.00233,-0.0032 0.00409,-0.0068 0.00638,-0.01004 0.00893,-0.01702 0.016674,-0.041836 7.04e-4,-0.059325 -0.012331,-0.013504 -0.031496,-0.019738 -0.049226,-0.024218 -0.00723,-0.00183 -0.01429,0.00424 -0.021435,0.00637 -0.015751,0.00785 0.030544,0.1006679 0.046295,0.092812 v 0 c -0.00574,0.00142 -0.011577,0.00605 -0.017212,0.00426 -0.016686,-0.00528 -0.034971,-0.011237 -0.046482,-0.024421 -0.012158,-0.013926 -0.00908,-0.036014 -7.502e-4,-0.050192 -0.00509,0.00837 -0.00263,0.00398 -2.697e-4,0.00124 0.00158,-0.00183 0.00498,-0.00446 -0.00218,0.00193 -5.02e-4,4.476e-4 -9.437e-4,9.586e-4 -0.00141,0.00144 -0.028443,0.020163 -0.055199,0.042396 -0.080863,0.066022 -0.044147,0.042081 -0.086314,0.086195 -0.1278582,0.130832 -0.019944,0.022804 -0.026759,0.02948 -0.044427,0.054154 -0.027665,0.038634 -0.049839,0.081158 -0.065504,0.1260139 -0.022356,0.06918 -0.040404,0.1396773 -0.050522,0.2117784 -0.00773,0.05074 -0.016238,0.1013866 -0.022353,0.1523538 -0.00174,0.017515 0.1014613,0.027795 0.1032069,0.010278 z"
           transform="matrix(3.6209852,0,0,3.8152203,-13.641359,-22.347095)" /><path
           style="fill:#ff5966;fill-opacity:1;stroke:#000000;stroke-width:0;stroke-linejoin:bevel;stroke-dasharray:none;stroke-opacity:0.5;filter:url(#filter13285)"
           id="path17248"
           d="m 5.9819383,8.1460489 c -0.0459,0.010889 -0.090699,0.028138 -0.1301122,0.054265 -0.012681,0.00841 -0.02434,0.018239 -0.036511,0.027359 -0.030983,0.02962 -0.041051,0.036569 -0.066414,0.071829 -0.039865,0.05542 -0.06518,0.1192712 -0.090419,0.1820387 -0.026029,0.073044 -0.047829,0.1477919 -0.063913,0.2236387 -0.00315,0.014851 -0.00576,0.02981 -0.00864,0.044714 -0.010641,0.061898 -0.016516,0.1245099 -0.019411,0.1872055 -1.459e-4,0.00465 -2.92e-4,0.00931 -4.379e-4,0.013962 -5.425e-4,0.017527 0.1035732,0.020698 0.1041159,0.00317 v 0 c 1.266e-4,-0.00414 2.531e-4,-0.0083 3.797e-4,-0.012445 0.00262,-0.057772 0.00802,-0.1154661 0.017671,-0.1725236 0.00263,-0.01369 0.00499,-0.02743 0.00786,-0.04107 0.01491,-0.070665 0.035177,-0.1403021 0.059143,-0.2084346 0.021294,-0.053155 0.042069,-0.1081895 0.07495,-0.1556729 0.01849,-0.026702 0.025911,-0.03202 0.048656,-0.054547 0.00851,-0.00667 0.016605,-0.013912 0.025534,-0.020028 0.030496,-0.020888 0.065445,-0.034448 0.1013264,-0.04287 0.01721,-0.00401 -0.00657,-0.1045964 -0.023786,-0.1005925 z"
           transform="matrix(3.4762062,0,0,3.6925409,-12.433826,-20.268546)" /><path
           style="mix-blend-mode:normal;fill:#de8787;fill-opacity:1;stroke:#000000;stroke-width:0;stroke-linejoin:bevel;stroke-dasharray:none;stroke-opacity:0.5;filter:url(#filter11409)"
           id="path17252"
           d="m 6.6504679,7.8848622 c 0.087323,0.032607 0.174758,0.065168 0.2630713,0.097692 0.047641,0.017539 0.1444151,0.00757 0.096772,-0.00998 v 0 C 6.9177955,7.9385141 6.826604,7.9043931 6.7346243,7.8702852 6.6862967,7.8528346 6.6021408,7.8674106 6.650468,7.8848632 Z"
           transform="matrix(3.6209852,0,0,3.8152203,-13.641359,-22.347095)" /><path
           style="mix-blend-mode:normal;fill:#de8787;fill-opacity:1;stroke:#000000;stroke-width:0;stroke-linejoin:bevel;stroke-dasharray:none;stroke-opacity:0.5;filter:url(#filter11405)"
           id="path17254"
           d="m 6.3859473,8.0420139 c -0.1037069,0.00313 -0.2073997,0.00649 -0.3108311,0.010687 -0.1132888,0.00529 -0.2246955,0.014621 -0.3354015,0.024616 -0.032276,0.00292 0.015148,0.071975 0.047434,0.069053 v 0 c 0.1022416,-0.00929 0.2051714,-0.017916 0.3097751,-0.022942 0.1015635,-0.00413 0.2033923,-0.00742 0.3052325,-0.010489 0.033149,-9.963e-4 0.016938,-0.071923 -0.016222,-0.070925 z"
           transform="matrix(3.6209852,0,0,3.8152203,-13.641359,-22.347095)" /><path
           style="fill:#b33232;fill-opacity:1;stroke:#000000;stroke-width:0;stroke-linecap:round;stroke-linejoin:round;stroke-dasharray:none;stroke-opacity:0.5"
           id="path17258"
           d="m 11.978406,19.287484 c 0.163424,-0.04114 0.212615,-0.03281 0.298317,-0.08132 0.105333,-0.07079 0.214292,-0.102638 0.326279,-0.159936 0.111377,-0.05542 0.215155,-0.125655 0.324364,-0.185403 0.06811,-0.03735 0.1299,-0.06773 0.199272,-0.102728 0.178899,-0.09512 0.369821,-0.157708 0.561002,-0.218267 0.104512,-0.03177 0.205381,-0.07438 0.298535,-0.133761 0.03956,-0.02512 0.07463,-0.05213 0.112242,-0.08009 0.06846,-0.0522 0.131503,-0.111516 0.196665,-0.16805 0.07891,-0.04948 0.160907,-0.09274 0.239429,-0.143017 0.11936,-0.08785 0.241098,-0.171444 0.365304,-0.251425 0.13601,-0.08642 0.258799,-0.192749 0.373141,-0.308291 0.115755,-0.124384 0.209278,-0.268889 0.293122,-0.418405 0.03904,-0.06879 0.06597,-0.148445 0.120796,-0.205969 0.02862,-0.02621 0.0611,-0.04742 0.09101,-0.07226 0.05762,-0.05125 0.100098,-0.116157 0.136636,-0.18481 0.04121,-0.08726 0.06868,-0.180529 0.09947,-0.27214 0.02542,-0.07737 0.05542,-0.153204 0.09211,-0.22543 0.02404,-0.04383 0.05957,-0.07898 0.09046,-0.117354 0.04983,-0.06708 0.09251,-0.139477 0.135368,-0.211581 0.05067,-0.08189 0.08242,-0.173616 0.111524,-0.26578 0.03307,-0.100763 0.0584,-0.203916 0.08632,-0.30629 0.02733,-0.101292 0.06209,-0.200088 0.09093,-0.30087 0.03225,-0.112498 0.05337,-0.228049 0.06895,-0.34428 0.0098,-0.106873 0.01961,-0.21501 0.01466,-0.322538 -0.0011,-0.02533 -0.004,-0.05057 -0.006,-0.07586 -0.0161,-0.134185 -0.03509,-0.268004 -0.05577,-0.40148 -0.02148,-0.123916 -0.04433,-0.248058 -0.04384,-0.374424 -0.0017,-0.0587 0.01344,-0.114479 0.03035,-0.169733 0.04347,-0.154061 -0.0018,-0.110472 -0.293195,-0.220197 -0.0098,-0.0037 -0.05441,0.06972 -0.06002,0.07838 -0.0331,0.05455 0.271983,0.26005 0.305082,0.205502 v 0 c -0.0012,-0.0095 0.0028,0.01762 -0.01253,0.0083 -0.09712,-0.05884 -0.191284,-0.123099 -0.283845,-0.189595 -0.0034,-0.0023 0.0046,-0.01597 0.0032,-0.0121 -0.0017,0.0045 -0.0026,0.0097 -0.004,0.01422 -0.02774,0.09314 -0.04929,0.188391 -0.04726,0.286801 0.0015,0.146343 0.02155,0.290688 0.04857,0.434136 0.01932,0.124385 0.03684,0.249132 0.05249,0.374082 0.01023,0.103666 0.0031,0.208165 -0.0069,0.31164 -0.01268,0.09707 -0.0305,0.193503 -0.0572,0.287448 -0.02878,0.102351 -0.06518,0.202243 -0.09217,0.30522 -0.02641,0.09744 -0.05053,0.195544 -0.08197,0.291425 -0.01978,0.06322 -0.03968,0.127061 -0.07463,0.183188 -0.03399,0.05722 -0.06782,0.114631 -0.105948,0.168946 -0.04667,0.05985 -0.100877,0.113966 -0.133474,0.184815 -0.04396,0.08892 -0.08236,0.18088 -0.113021,0.27584 -0.02482,0.07389 -0.04697,0.149051 -0.07787,0.22041 -0.0095,0.02473 -0.0276,0.04465 -0.04271,0.06562 -0.04398,0.03814 -0.09527,0.06675 -0.132603,0.113254 -0.06811,0.08106 -0.120261,0.172957 -0.165572,0.269959 -0.06649,0.120075 -0.141188,0.23603 -0.232319,0.33713 -0.09472,0.09694 -0.197477,0.185107 -0.310606,0.257407 -0.124278,0.08005 -0.246572,0.162989 -0.365541,0.251574 -0.09242,0.06014 -0.192875,0.10586 -0.280589,0.173955 -0.05824,0.05063 -0.114762,0.10353 -0.175429,0.150955 -0.04123,0.031 -0.0821,0.06265 -0.12689,0.08763 -0.05675,0.03177 -0.117802,0.05291 -0.179112,0.07239 -0.209113,0.06624 -0.417565,0.135954 -0.613364,0.239646 -0.07799,0.03943 -0.138347,0.06908 -0.21496,0.111182 -0.104497,0.05739 -0.204024,0.124204 -0.310403,0.177871 -0.116571,0.05978 -0.236897,0.111817 -0.346685,0.185329 -0.09283,0.05333 -0.189867,0.09869 -0.278792,0.15959 -0.05187,0.03471 0.06097,0.255475 0.112839,0.220728 z"
           sodipodi:nodetypes="cccccccccccccccccccccccccccccccssccccccccccccccccccccccccccccccccc" /><path
           style="fill:#b33232;fill-opacity:1;stroke:#000000;stroke-width:0;stroke-linejoin:bevel;stroke-dasharray:none;stroke-opacity:0.5"
           id="path17260"
           d="m 11.73972,19.152323 c 0.131074,-0.04339 0.267779,-0.06181 0.402537,-0.08763 0.169694,-0.03101 0.330055,-0.09523 0.486756,-0.16838 0.129792,-0.06288 0.258754,-0.127652 0.386868,-0.194227 0.101045,-0.04897 0.199399,-0.103681 0.297427,-0.158926 0.12411,-0.07681 0.253052,-0.143592 0.38429,-0.205641 0.154946,-0.07383 0.307662,-0.15179 0.455809,-0.239829 0.12712,-0.06993 0.23716,-0.166902 0.352898,-0.254822 0.02024,-0.0155 0.04049,-0.03138 0.06072,-0.04671 0.04214,-0.0325 0.07673,-0.05999 0.120429,-0.08954 0.05583,-0.03776 0.114854,-0.07033 0.17287,-0.104136 0.06972,-0.04018 0.140333,-0.07983 0.204125,-0.130132 0.04867,-0.03837 0.05502,-0.04731 0.09932,-0.09151 0.08853,-0.09892 0.147512,-0.220668 0.207631,-0.339642 0.05059,-0.09497 0.09379,-0.194078 0.147573,-0.287094 0.09471,-0.140777 0.191456,-0.280005 0.286633,-0.42043 0.110164,-0.17196 0.220287,-0.344698 0.312578,-0.528286 0.01807,-0.03594 0.03458,-0.0727 0.05186,-0.109035 0.05936,-0.129149 0.103198,-0.265386 0.128341,-0.406444 0.01314,-0.07332 0.01451,-0.102289 0.0218,-0.175554 0.01115,-0.130419 -0.0023,-0.26055 -0.01191,-0.390456 -0.0093,-0.08577 -0.0043,-0.171449 0.0029,-0.257037 0.01008,-0.09588 0.02514,-0.190974 0.03614,-0.286712 0.01176,-0.101172 0.02038,-0.202434 0.02493,-0.304238 0.0041,-0.149715 0.02846,-0.296664 0.05765,-0.442785 0.02128,-0.08329 0.04347,-0.165865 0.05441,-0.251481 0.0069,-0.08103 0.01314,-0.162029 0.01671,-0.243285 0.0047,-0.107659 -0.0058,-0.215306 -0.01919,-0.321896 -0.0099,-0.07569 -0.02429,-0.150608 -0.03944,-0.225271 -0.0037,-0.01724 -0.0066,-0.03463 -0.009,-0.05213 -0.0093,-0.06401 -0.367221,-0.0065 -0.357972,0.05742 v 0 c 0.0037,0.02496 0.0076,0.04988 0.01283,0.07452 0.01329,0.06515 0.02617,0.130525 0.03469,0.196556 0.01115,0.0838 0.01961,0.168585 0.0163,0.253282 -0.0031,0.07112 -0.009,0.141958 -0.01405,0.212899 -0.0079,0.07549 -0.03501,0.146692 -0.04952,0.220842 -0.03312,0.166187 -0.05991,0.333558 -0.06501,0.503714 -0.0041,0.09237 -0.01237,0.184236 -0.02268,0.276048 -0.01161,0.09996 -0.02782,0.199191 -0.03741,0.299395 -0.0089,0.106328 -0.01375,0.212952 -0.0032,0.319443 0.0079,0.107327 0.01989,0.214823 0.01253,0.322633 -0.01466,0.158754 -0.04492,0.30627 -0.113891,0.45014 -0.01466,0.03124 -0.02873,0.06285 -0.04419,0.09371 -0.08569,0.171201 -0.188619,0.331896 -0.290959,0.492296 -0.100587,0.148445 -0.203763,0.294997 -0.302037,0.445127 -0.05643,0.09931 -0.104375,0.203348 -0.157126,0.304856 -0.04227,0.08368 -0.08259,0.169894 -0.139202,0.244151 -0.02235,0.02326 -0.03005,0.03285 -0.05497,0.0531 -0.0533,0.04317 -0.113892,0.07503 -0.172368,0.109321 -0.06799,0.03958 -0.136483,0.07846 -0.20181,0.122888 -0.04781,0.0325 -0.08412,0.06136 -0.129884,0.09656 -0.01972,0.01521 -0.03943,0.03027 -0.05912,0.04551 -0.104833,0.07975 -0.204122,0.168267 -0.319136,0.232002 -0.138331,0.08249 -0.281291,0.154753 -0.426011,0.22395 -0.138789,0.06573 -0.275402,0.136105 -0.40675,0.217235 -0.09454,0.05323 -0.189389,0.106117 -0.286875,0.153239 -0.12382,0.06438 -0.248464,0.126955 -0.373858,0.187804 -0.130165,0.06134 -0.263156,0.115871 -0.404388,0.141565 -0.149678,0.02844 -0.30136,0.04994 -0.446705,0.09913 -0.0586,0.01957 0.0504,0.383315 0.109002,0.363825 z" /><path
           style="mix-blend-mode:normal;fill:#b33232;fill-opacity:1;stroke:#000000;stroke-width:0;stroke-linejoin:bevel;stroke-dasharray:none;stroke-opacity:0.5;filter:url(#filter12219)"
           id="path17262"
           d="m 8.115981,8.9355111 c 0.0098,0.013278 0.017326,0.027957 0.024833,0.042594 0.00691,0.013337 0.013414,0.026845 0.020923,0.039866 0.00965,0.01508 0.021069,0.02893 0.03142,0.043536 0.00587,0.00927 0.010783,0.019129 0.015578,0.02899 0.00486,0.014468 0.00982,0.02882 0.015747,0.042908 0.00939,0.018785 0.019132,0.037462 0.029612,0.055664 0.00431,0.00817 0.010058,0.016287 0.011088,0.025694 0.00106,0.012843 9.139e-4,0.025758 9.307e-4,0.038635 1.057e-4,0.018505 1.298e-4,0.036968 -0.00114,0.05543 -0.00191,0.017255 -0.00662,0.034099 -0.011179,0.050812 -0.0071,0.026957 -0.011655,0.054447 -0.015683,0.081999 -0.00323,0.018744 -0.00469,0.037759 -0.00809,0.056477 -0.0015,0.00829 -0.0044,0.020112 -0.00629,0.028159 -0.00661,0.029546 -0.016661,0.05802 -0.028426,0.085859 -0.015492,0.031709 -0.029075,0.064251 -0.044531,0.095978 -0.015611,0.031191 -0.029211,0.063324 -0.044463,0.094682 -0.015484,0.029238 -0.032664,0.057563 -0.049283,0.086171 -0.01743,0.029949 -0.035997,0.05923 -0.054445,0.088561 -0.014676,0.025861 -0.030696,0.050857 -0.047886,0.075103 -0.023006,0.02816 -0.047494,0.05504 -0.072284,0.08162 -0.021101,0.02155 -0.041082,0.04415 -0.061262,0.06654 -0.011154,0.01415 -0.024412,0.02636 -0.037954,0.03817 -0.016179,0.01425 -0.03233,0.02848 -0.049042,0.04211 -0.033486,0.02613 -0.067359,0.05178 -0.1016331,0.07687 -0.02877,0.02137 -0.05878,0.04091 -0.089233,0.05977 -0.033098,0.02059 -0.067232,0.03944 -0.1012669,0.05842 -0.040152,0.02234 -0.081184,0.04301 -0.1216714,0.06474 -0.039505,0.0205 -0.07762,0.0435 -0.1164128,0.06529 -0.022262,0.01321 -0.045188,0.02523 -0.068769,0.0359 -0.024483,0.01175 -0.048879,0.02368 -0.073036,0.03609 -0.024413,0.01242 -0.04921,0.02405 -0.073665,0.0364 -0.017121,0.0094 -0.033778,0.01942 -0.051744,0.02712 -0.012651,0.0052 -0.02528,0.01048 -0.037667,0.01631 -0.01385,0.0065 -0.0269,0.01437 -0.040569,0.02119 -0.010197,0.0038 -0.019846,0.0092 -0.030058,0.01293 -0.00716,0.0028 -0.014086,0.0064 -0.021371,0.0089 -0.00775,0.0036 -0.015803,0.0065 -0.023774,0.0096 -0.00719,0.0026 -0.014366,0.0052 -0.021455,0.0081 -2.112e-4,7.1e-5 -4.224e-4,1.42e-4 -6.336e-4,2.13e-4 -0.015839,0.0061 0.020056,0.09943 0.035896,0.09333 v 0 c 0.00125,-4.91e-4 0.0025,-9.82e-4 0.00375,-0.0015 -0.00198,4.38e-4 -2.726e-4,8.2e-5 0.00376,-0.0014 0.00526,-0.002 0.010494,-0.004 0.015764,-0.0059 0.00746,-0.0033 0.015517,-0.0054 0.022806,-0.0092 0.008,-0.0032 0.01565,-0.0064 0.023673,-0.0098 0.012118,-0.0052 0.024244,-0.01041 0.036296,-0.01578 0.013036,-0.0065 0.025545,-0.0139 0.038645,-0.02025 0.011411,-0.0054 0.023155,-0.01009 0.034796,-0.01501 0.019644,-0.0086 0.038383,-0.01885 0.05695,-0.02956 0.024667,-0.01246 0.049696,-0.02416 0.074306,-0.03672 0.022717,-0.01168 0.045672,-0.02288 0.068674,-0.03398 0.026147,-0.01191 0.051683,-0.02509 0.076398,-0.03976 0.03823,-0.02148 0.075804,-0.04414 0.1147327,-0.06436 0.040957,-0.02198 0.082473,-0.04288 0.1230775,-0.06551 0.035373,-0.01973 0.070837,-0.03934 0.1052323,-0.06075 0.032637,-0.02023 0.064795,-0.0412 0.095646,-0.06409 0.035681,-0.02614 0.070971,-0.05283 0.1057934,-0.08009 0.017621,-0.0144 0.034707,-0.02938 0.051778,-0.04442 0.016398,-0.01446 0.032594,-0.02933 0.046309,-0.04643 0.019764,-0.02198 0.039389,-0.0441 0.06007,-0.06524 0.02783,-0.02985 0.055401,-0.06001 0.080752,-0.09202 0.018219,-0.02575 0.035378,-0.05219 0.050927,-0.07966 0.019073,-0.03032 0.038248,-0.060607 0.056266,-0.091571 0.01786,-0.030745 0.036371,-0.061164 0.052769,-0.092719 0.015203,-0.031351 0.028896,-0.063406 0.044425,-0.094605 0.016239,-0.033397 0.030651,-0.067587 0.046813,-0.1010187 0.01381,-0.033052 0.025767,-0.066812 0.033604,-0.1018322 0.00716,-0.030777 0.012052,-0.061635 0.015955,-0.092976 0.00341,-0.023564 0.00723,-0.04708 0.013218,-0.070151 0.00626,-0.023073 0.012442,-0.046367 0.014455,-0.070264 0.0014,-0.020776 0.00154,-0.041552 0.00137,-0.062373 -2.95e-5,-0.019374 2.736e-4,-0.038891 -0.00287,-0.058071 -0.0044,-0.020193 -0.011968,-0.039145 -0.022918,-0.056749 -0.00867,-0.014163 -0.015567,-0.029458 -0.023721,-0.04393 -0.00667,-0.015723 -0.011136,-0.03217 -0.017985,-0.047831 -0.00721,-0.014766 -0.014705,-0.029478 -0.023952,-0.043096 -0.00863,-0.012117 -0.01773,-0.023903 -0.026496,-0.035895 -0.00675,-0.011436 -0.012112,-0.023579 -0.018405,-0.035264 -0.00976,-0.018981 -0.019799,-0.037868 -0.032472,-0.055113 -0.00988,-0.0138 -0.091193,0.044405 -0.081316,0.058205 z"
           transform="matrix(3.6209852,0,0,3.8152203,-13.641359,-22.347095)" /><path
           style="fill:#b33232;fill-opacity:1;stroke:#000000;stroke-width:0;stroke-linecap:round;stroke-linejoin:round;stroke-dasharray:none;stroke-opacity:0.5"
           id="path17264"
           d="m 10.932543,19.313391 c 0.07764,-0.0094 0.113974,0.0041 0.192026,0 0.06466,-0.008 0.127845,0.0089 0.192025,0 0.0079,-0.03266 0.07396,0.0041 0.09601,0 0.110245,-0.03432 0.205938,-0.07728 0.306025,-0.135198 0.0882,-0.05627 0.178274,-0.082 0.277593,-0.10589 0.178134,-0.04313 0.349624,-0.111772 0.522617,-0.17314 0.145436,-0.04753 0.281948,-0.118427 0.420414,-0.183927 0.179232,-0.079 0.337826,-0.199473 0.501381,-0.308106 0.1992,-0.129435 0.390235,-0.271993 0.582899,-0.41179 0.198889,-0.142865 0.400541,-0.281518 0.603663,-0.417603 0.131,-0.08641 0.264819,-0.167421 0.391141,-0.261395 0.129885,-0.10586 0.251157,-0.22266 0.366612,-0.345512 0.06151,-0.06284 0.122385,-0.12614 0.173541,-0.198732 0.03286,-0.04863 0.0591,-0.101398 0.08314,-0.155271 0.01176,-0.02807 0.0063,-0.01622 0.0155,-0.03583 0.02673,-0.05831 -0.299277,-0.224283 -0.326019,-0.16598 v 0 c -0.01436,0.03214 -0.0089,0.01847 -0.01796,0.04137 -0.0136,0.03178 -0.02895,0.06241 -0.04746,0.09136 -0.03837,0.05851 -0.09258,0.103122 -0.138194,0.154901 -0.100556,0.107221 -0.206222,0.208962 -0.318538,0.302494 -0.121025,0.0908 -0.250829,0.16672 -0.376074,0.250687 -0.206846,0.138631 -0.412205,0.27982 -0.61473,0.425321 -0.188644,0.136892 -0.375634,0.276573 -0.570687,0.403309 -0.182696,0.121405 -0.01023,0.0062 -0.189095,0.127107 -0.08598,0.05805 -0.171992,0.116581 -0.267634,0.155823 -0.127623,0.06058 -0.253318,0.126382 -0.387429,0.170301 -0.161703,0.05734 -0.321935,0.121875 -0.488251,0.162915 -0.05166,0.01256 -0.09303,0.02179 -0.143854,0.03827 -0.0792,0.02584 -0.154385,0.06313 -0.226989,0.105073 -0.07146,0.04137 -0.142208,0.08537 -0.217854,0.117807 -0.0041,0.01134 -3.17e-4,0.0041 -0.02604,0.0048 -0.05859,0.0018 -0.117272,7.94e-4 -0.175816,0.0044 -0.0804,0.0043 -0.160424,0.01316 -0.240335,0.02401 -0.06128,0.0048 -0.01292,0.323225 0.04836,0.318451 z"
           sodipodi:nodetypes="ccccccccccccccccssccccccccccccccccccc" /><path
           style="mix-blend-mode:normal;fill:#b33232;fill-opacity:1;stroke:#000000;stroke-width:0;stroke-linecap:round;stroke-linejoin:round;stroke-dasharray:none;stroke-opacity:0.5;filter:url(#filter12211)"
           id="path17268"
           d="m 6.4454627,10.802922 c 0.040516,0.02119 0.078195,0.04737 0.1173878,0.07087 0.028864,0.01492 0.057068,0.03254 0.08796,0.04319 0.00482,0.0017 0.00977,0.0029 0.014651,0.0044 0.029484,0.0075 0.059873,0.004 0.089559,-1.18e-4 0.026903,-0.0049 0.053883,-0.0094 0.080674,-0.01494 0.027167,-0.0053 0.054277,-0.01072 0.08155,-0.01544 0.018352,-0.0043 0.036704,-0.0039 0.055283,-0.0023 0.023092,0.0021 0.046331,0.0046 0.069505,0.0019 0.00662,-7.5e-4 0.013166,-0.0021 0.019749,-0.0031 0.042553,-0.0068 0.080263,-0.02729 0.1180373,-0.04675 0.035163,-0.01846 0.071598,-0.03432 0.1072423,-0.05179 0.031809,-0.01559 0.037356,-0.01888 0.067987,-0.03523 0.031178,-0.01688 0.062644,-0.03444 0.087187,-0.06055 0.010252,-0.01091 0.013542,-0.01666 0.021717,-0.02866 0.019528,-0.02961 0.040159,-0.0589 0.064185,-0.08509 0.00522,-0.0057 0.010873,-0.01098 0.016309,-0.01647 0.00544,-0.0046 0.010682,-0.0094 0.016331,-0.01379 0.015062,-0.01158 0.022238,-0.01496 0.039032,-0.02491 0.033919,-0.0201 0.067936,-0.03987 0.1023509,-0.05912 0.052129,-0.02864 0.1056348,-0.05463 0.1585286,-0.08181 0.032482,-0.01709 0.063352,-0.03681 0.09212,-0.05957 0.020349,-0.01836 0.041014,-0.03699 0.058043,-0.05861 0.00357,-0.0045 0.00682,-0.0093 0.010232,-0.01396 0.00767,-0.0106 0.014159,-0.02196 0.020586,-0.03333 0.00832,-0.01479 -0.07885,-0.0638 -0.087167,-0.04901 v 0 c -0.00457,0.0082 -0.00914,0.01639 -0.014645,0.02401 -0.013736,0.01988 -0.031595,0.03643 -0.049348,0.05268 -0.023446,0.01885 -0.049011,0.03465 -0.075521,0.04884 -0.053943,0.02772 -0.108514,0.05422 -0.1616475,0.08348 -0.035241,0.01972 -0.070212,0.03979 -0.1048488,0.06056 -0.022729,0.01363 -0.032377,0.01863 -0.052878,0.03488 -0.00782,0.0062 -0.015065,0.0131 -0.022597,0.01965 -0.007,0.0072 -0.014236,0.01416 -0.020986,0.02159 -0.026573,0.02924 -0.049611,0.06168 -0.07135,0.09459 -0.00255,0.004 -0.00557,0.0092 -0.00869,0.01285 -0.016857,0.02 -0.042189,0.03044 -0.064076,0.04353 -0.028201,0.01508 -0.03445,0.01874 -0.063751,0.0331 -0.036612,0.01795 -0.074034,0.03425 -0.1101436,0.05322 -0.028638,0.01475 -0.056852,0.03148 -0.089054,0.03707 -0.021216,0.0042 -0.042343,0.0027 -0.063729,1.41e-4 -0.027142,-0.0023 -0.054241,-0.0024 -0.081041,0.0034 -0.028336,0.0049 -0.056505,0.01054 -0.08473,0.01605 -0.024778,0.0051 -0.049763,0.0092 -0.074626,0.01389 -0.015765,0.0023 -0.032169,0.005 -0.048051,0.0029 -0.00921,-0.0023 -0.017257,-0.0058 -0.025868,-0.0099 -0.017838,-0.0085 -0.035507,-0.01747 -0.052691,-0.02726 -0.041812,-0.02501 -0.08186,-0.05313 -0.1253694,-0.07518 -0.015289,-0.0074 -0.058689,0.08273 -0.0434,0.09009 z"
           transform="matrix(3.6209852,0,0,3.8152203,-13.627379,-23.368879)" /><path
           style="mix-blend-mode:normal;fill:#b33232;fill-opacity:1;stroke:#000000;stroke-width:0;stroke-linejoin:bevel;stroke-dasharray:none;stroke-opacity:0.5;filter:url(#filter12215)"
           id="path17272"
           d="m 8.1385308,8.8910459 c 0.026995,0.021709 0.054186,0.043173 0.081074,0.065014 0.0076,0.00708 0.018117,0.013187 0.023065,0.02285 7.671e-4,0.0015 9.447e-4,0.00323 0.00155,0.00481 0.00242,0.011218 0.00408,0.022591 0.00638,0.033842 0.00433,0.016343 0.00868,0.032692 0.013451,0.048914 0.0062,0.017044 0.011075,0.034137 0.013405,0.052111 0.00164,0.023851 0.00282,0.047745 0.00404,0.071627 0.00136,0.028672 -1.448e-4,0.057395 -9.359e-4,0.086067 -7.044e-4,0.026004 -8.74e-4,0.052018 -9.787e-4,0.07803 0.00127,0.031136 -0.00571,0.061563 -0.012452,0.091726 -0.00841,0.037218 -0.018293,0.074078 -0.028202,0.1109168 -0.00632,0.023122 -0.012491,0.046277 -0.019455,0.069214 -0.00532,0.015144 -0.011311,0.030024 -0.016436,0.045247 -0.00298,0.0087 -0.00607,0.017356 -0.00906,0.026053 -0.0055,0.016053 0.089089,0.048488 0.094594,0.032435 v 0 c 0.00305,-0.0089 0.00624,-0.017756 0.00927,-0.026669 0.0054,-0.016149 0.012057,-0.03182 0.01732,-0.048015 0.00727,-0.02396 0.013743,-0.04814 0.020336,-0.072294 0.010282,-0.038238 0.02053,-0.0765 0.029239,-0.1151345 0.00827,-0.037176 0.016135,-0.074755 0.014846,-0.1130786 1.01e-4,-0.025227 2.606e-4,-0.050455 9.415e-4,-0.075674 8.632e-4,-0.03131 0.00243,-0.062672 8.409e-4,-0.093981 -0.00138,-0.026668 -0.00252,-0.053371 -0.00483,-0.07997 -0.00323,-0.022963 -0.00857,-0.045272 -0.016619,-0.067049 -0.00408,-0.013562 -0.00747,-0.027323 -0.011434,-0.040918 -0.00388,-0.018001 -0.00539,-0.036632 -0.012765,-0.053736 -0.00478,-0.010425 -0.0059,-0.013853 -0.012599,-0.023864 -0.010765,-0.016093 -0.025548,-0.029009 -0.040473,-0.041081 -0.026734,-0.021709 -0.053751,-0.043064 -0.080601,-0.064627 -0.013108,-0.010779 -0.076624,0.066458 -0.063517,0.077237 z"
           transform="matrix(3.6209852,0,0,3.8152203,-13.94378,-22.410033)" /></g><path
         style="opacity:1;fill:none;stroke:#4f5b08;stroke-width:0.479478;stroke-linecap:round;stroke-linejoin:round;stroke-miterlimit:10.2;stroke-dasharray:none;stroke-opacity:1"
         d="m 18.731976,10.799546 0.238095,-0.482788"
         id="path9272"
         sodipodi:nodetypes="cc" /></g><g
       id="g8358"
       transform="matrix(2.1,0,0,2.0713052,-9.3371492,-13.869155)"
       style="stroke:#000000;stroke-width:0.479478;stroke-opacity:0.5"><circle
         id="circle8306"
         style="fill:#ffffff;stroke:#000000;stroke-width:0.479478;stroke-opacity:0.5"
         cx="8.9920034"
         cy="7.5528622"
         r="0" /><circle
         id="circle8308"
         style="fill:#ffffff;stroke:#000000;stroke-width:0.479478;stroke-opacity:0.5"
         cx="10.899344"
         cy="9.1174107"
         r="0" /><circle
         id="circle8310"
         style="fill:#782121;stroke:#000000;stroke-width:0.479478;stroke-opacity:0.5"
         cx="13.437794"
         cy="13.887872"
         r="0" /></g></g></svg>
