<?xml version="1.0" encoding="UTF-8" standalone="no"?>
<!-- Created with Inkscape (http://www.inkscape.org/) -->

<svg
   width="20"
   height="20"
   viewBox="0 0 20 20"
   version="1.1"
   id="SVGRoot"
   sodipodi:docname="forward.svg"
   inkscape:version="1.2.2 (b0a8486541, 2022-12-01)"
   xmlns:inkscape="http://www.inkscape.org/namespaces/inkscape"
   xmlns:sodipodi="http://sodipodi.sourceforge.net/DTD/sodipodi-0.dtd"
   xmlns="http://www.w3.org/2000/svg"
   xmlns:svg="http://www.w3.org/2000/svg"
   xmlns:rdf="http://www.w3.org/1999/02/22-rdf-syntax-ns#"
   xmlns:cc="http://creativecommons.org/ns#"
   xmlns:dc="http://purl.org/dc/elements/1.1/">
  <sodipodi:namedview
     id="base"
     pagecolor="#ffffff"
     bordercolor="#666666"
     borderopacity="1.0"
     inkscape:pageopacity="0.0"
     inkscape:pageshadow="2"
     inkscape:zoom="90.509668"
     inkscape:cx="6.2866212"
     inkscape:cy="8.8719804"
     inkscape:document-units="px"
     inkscape:current-layer="layer1"
     showgrid="true"
     inkscape:window-width="1920"
     inkscape:window-height="1028"
     inkscape:window-x="0"
     inkscape:window-y="22"
     inkscape:window-maximized="1"
     inkscape:grid-bbox="true"
     showguides="true"
     inkscape:showpageshadow="0"
     inkscape:pagecheckerboard="0"
     inkscape:deskcolor="#d1d1d1">
    <inkscape:grid
       type="xygrid"
       id="grid5142"
       empspacing="2"
       spacingx="0.5"
       spacingy="0.5"
       originx="0"
       originy="0" />
  </sodipodi:namedview>
  <defs
     id="defs4583" />
  <metadata
     id="metadata4586">
    <rdf:RDF>
      <cc:Work
         rdf:about="">
        <dc:format>image/svg+xml</dc:format>
        <dc:type
           rdf:resource="http://purl.org/dc/dcmitype/StillImage" />
      </cc:Work>
    </rdf:RDF>
  </metadata>
  <g
     id="layer1"
     inkscape:groupmode="layer"
     inkscape:label="Layer 1"
     transform="translate(0,8)">
    <path
       style="opacity:1;fill:#33ccff;fill-opacity:1;fill-rule:nonzero;stroke:#33ccff;stroke-width:0.03125;stroke-linecap:butt;stroke-linejoin:miter;stroke-miterlimit:4;stroke-dasharray:none;stroke-opacity:1;paint-order:normal"
       d="m 11.919937,-0.84384001 c -0.357152,0.07386 -0.560931,0.43420701 -0.547119,0.78076101 -0.02629,0.128396 0.02692,0.332135 -0.04382,0.40973 -2.4475794,0.0084 -4.8964251,0.0026 -7.3432147,0.01995 -0.3988476,0.01073 -0.6725738,0.414243 -0.6196794,0.793455 -0.00262,0.23214 -0.00531,0.46428 -0.00787,0.696421 C 3.0411485,1.846777 2.6577838,1.855711 2.4749571,2.16268 2.3067019,2.442513 2.3696522,2.792743 2.3827511,3.103315 c 0.036166,0.391398 0.4571733,0.614499 0.8214297,0.557666 2.3874919,0 4.7749838,0 7.1624762,0 0.01573,0.581087 -0.03404,1.169422 0.04718,1.74585 0.107966,0.379947 0.569333,0.581014 0.920914,0.401411 C 11.719396,5.541334 12.016474,5.16409 12.361516,4.848721 13.333412,3.873541 14.318283,2.91029 15.266193,1.911836 15.504292,1.620889 15.432277,1.180934 15.154376,0.941804 14.903237,0.703621 14.692705,0.392 14.371976,0.24968599 14.124842,0.152226 13.832381,0.241386 13.656879,0.434663 13.238641,0.034868 12.85172,-0.403262 12.396198,-0.76101601 c -0.141322,-0.08085 -0.316375,-0.109522 -0.476258,-0.08282 z"
       id="path845"
       inkscape:connector-curvature="0" />
    <path
       style="opacity:1;fill:none;fill-opacity:1;fill-rule:nonzero;stroke:#33ccff;stroke-width:1;stroke-linecap:butt;stroke-linejoin:miter;stroke-miterlimit:4;stroke-dasharray:none;stroke-opacity:1;paint-order:normal"
       d="m 10.5,-2.5 2,2"
       id="path835"
       inkscape:connector-curvature="0" />
    <path
       style="opacity:1;fill:none;fill-opacity:1;fill-rule:nonzero;stroke:#33ccff;stroke-width:1;stroke-linecap:butt;stroke-linejoin:miter;stroke-miterlimit:4;stroke-dasharray:none;stroke-opacity:1;paint-order:normal"
       d="m 10.5,-3.5 5,5"
       id="path831"
       inkscape:connector-curvature="0" />
    <path
       style="opacity:1;fill:none;fill-opacity:1;fill-rule:nonzero;stroke:#6feaff;stroke-width:1;stroke-linecap:butt;stroke-linejoin:miter;stroke-miterlimit:4;stroke-dasharray:none;stroke-opacity:1;paint-order:normal"
       d="M 11.5,-1.5 14,1"
       id="path833"
       inkscape:connector-curvature="0"
       sodipodi:nodetypes="cc" />
    <path
       style="opacity:1;fill:none;fill-opacity:1;fill-rule:nonzero;stroke:#ccffff;stroke-width:1;stroke-linecap:butt;stroke-linejoin:miter;stroke-miterlimit:4;stroke-dasharray:none;stroke-opacity:1;paint-order:normal"
       d="m 3.5,2.5 v -2 h 8 V -2"
       id="path829"
       inkscape:connector-curvature="0" />
    <path
       style="opacity:1;fill:none;fill-opacity:1;fill-rule:nonzero;stroke:#3399ff;stroke-width:1;stroke-linecap:butt;stroke-linejoin:miter;stroke-miterlimit:4;stroke-dasharray:none;stroke-opacity:1;paint-order:normal"
       d="m 3,2.5 h 8.5 v 4"
       id="path847"
       inkscape:connector-curvature="0"
       sodipodi:nodetypes="ccc" />
    <path
       style="opacity:1;fill:none;fill-opacity:1;fill-rule:nonzero;stroke:#3366ff;stroke-width:1;stroke-linecap:butt;stroke-linejoin:miter;stroke-miterlimit:4;stroke-dasharray:none;stroke-opacity:1;paint-order:normal"
       d="M 16,1 10.5,6.5"
       id="path827"
       inkscape:connector-curvature="0" />
    <path
       style="opacity:1;fill:none;fill-opacity:1;fill-rule:nonzero;stroke:#000000;stroke-width:1;stroke-linecap:butt;stroke-linejoin:miter;stroke-miterlimit:4;stroke-dasharray:none;stroke-opacity:1;paint-order:normal"
       d="m 2,3.5 h 8.5 v 4 l 6,-6 H 17 16.5 l -6,-6"
       id="path823"
       inkscape:connector-curvature="0" />
    <path
       style="opacity:1;fill:none;fill-opacity:1;fill-rule:nonzero;stroke:#3366ff;stroke-width:1;stroke-linecap:butt;stroke-linejoin:miter;stroke-miterlimit:4;stroke-dasharray:none;stroke-opacity:1;paint-order:normal"
       d="m 11,-4 -0.5,-0.5 v 4 h -8 V 3"
       id="path825"
       inkscape:connector-curvature="0" />
  </g>
</svg>
